<svg xmlns="http://www.w3.org/2000/svg" width="20.023" height="20.023" viewBox="0 0 20.023 20.023">
  <g id="グループ_507" data-name="グループ 507" transform="translate(-1257 -4693.988)">
    <g id="instagram" transform="translate(1257 4693.988)">
      <path id="パス_6" data-name="パス 6" d="M210.833,208.916A1.916,1.916,0,1,1,208.916,207,1.916,1.916,0,0,1,210.833,208.916Zm0,0" transform="translate(-198.905 -198.905)" fill="#fff"/>
      <path id="パス_7" data-name="パス 7" d="M144.679,136.811a1.9,1.9,0,0,0-1.091-1.091,3.18,3.18,0,0,0-1.067-.2c-.606-.028-.788-.034-2.323-.034s-1.717.006-2.323.033a3.182,3.182,0,0,0-1.067.2,1.9,1.9,0,0,0-1.091,1.091,3.182,3.182,0,0,0-.2,1.068c-.028.606-.034.788-.034,2.323s.006,1.717.034,2.323a3.181,3.181,0,0,0,.2,1.067,1.9,1.9,0,0,0,1.091,1.091,3.176,3.176,0,0,0,1.068.2c.606.028.788.033,2.323.033s1.717-.006,2.323-.033a3.176,3.176,0,0,0,1.068-.2,1.9,1.9,0,0,0,1.091-1.091,3.185,3.185,0,0,0,.2-1.067c.028-.606.033-.788.033-2.323s-.006-1.717-.033-2.323A3.177,3.177,0,0,0,144.679,136.811Zm-4.482,6.343a2.952,2.952,0,1,1,2.952-2.952A2.952,2.952,0,0,1,140.2,143.153Zm3.069-5.331a.69.69,0,1,1,.69-.69A.69.69,0,0,1,143.266,137.822Zm0,0" transform="translate(-130.186 -130.19)" fill="#fff"/>
      <path id="パス_8" data-name="パス 8" d="M10.012,0A10.012,10.012,0,1,0,20.023,10.012,10.013,10.013,0,0,0,10.012,0Zm5.714,12.382a4.218,4.218,0,0,1-.267,1.4,2.94,2.94,0,0,1-1.681,1.681,4.221,4.221,0,0,1-1.4.267c-.613.028-.809.035-2.37.035s-1.757-.007-2.37-.035a4.221,4.221,0,0,1-1.4-.267,2.94,2.94,0,0,1-1.681-1.681,4.217,4.217,0,0,1-.267-1.4c-.028-.613-.035-.809-.035-2.37s.007-1.757.035-2.37a4.218,4.218,0,0,1,.267-1.4A2.942,2.942,0,0,1,6.246,4.565a4.222,4.222,0,0,1,1.4-.267c.613-.028.809-.035,2.37-.035s1.757.007,2.37.035a4.223,4.223,0,0,1,1.4.267,2.94,2.94,0,0,1,1.681,1.682,4.217,4.217,0,0,1,.267,1.4c.028.613.035.809.035,2.37S15.754,11.769,15.726,12.382Zm0,0" fill="#fff"/>
    </g>
  </g>
</svg>
