<svg xmlns="http://www.w3.org/2000/svg" width="796" height="394" viewBox="0 0 796 394">
  <g id="グループ_392" data-name="グループ 392" transform="translate(1876 1176)">
    <rect id="長方形_228" data-name="長方形 228" width="796" height="394" transform="translate(-1876 -1176)" fill="#f5f5f5"/>
    <g id="_20200501_noimage" data-name="20200501_noimage" transform="translate(-2083.276 -2027.75)">
      <g id="グループ_391" data-name="グループ 391" transform="translate(538.4 1105.424)">
        <path id="パス_183" data-name="パス 183" d="M549.726,1139.107l-8.539-13.034v13.034H538.4V1120.5h2.607l8.539,13.034V1120.5h2.786v18.607Z" transform="translate(-538.4 -1120.32)"/>
        <path id="パス_184" data-name="パス 184" d="M573,1137.2a7.056,7.056,0,0,1-9.8,0c-1.8-1.8-1.8-3.865-1.8-7.461s0-5.663,1.8-7.461a6.639,6.639,0,0,1,4.854-1.977,7,7,0,0,1,4.944,1.977c1.8,1.8,1.8,3.865,1.8,7.461S574.793,1135.4,573,1137.2Zm-2.157-13.213a3.789,3.789,0,0,0-2.786-1.169,3.943,3.943,0,0,0-2.786,1.169c-.9.989-1.079,2.068-1.079,5.753s.18,4.764,1.079,5.753a3.789,3.789,0,0,0,2.786,1.169,3.943,3.943,0,0,0,2.786-1.169c.9-.989,1.079-2.067,1.079-5.753S571.737,1124.974,570.838,1123.985Z" transform="translate(-540.726 -1120.3)"/>
        <path id="パス_185" data-name="パス 185" d="M593.6,1139.107V1120.5h2.786v18.607Z" transform="translate(-543.982 -1120.32)"/>
        <path id="パス_186" data-name="パス 186" d="M618.673,1139.107v-12.4l-4.315,9.079h-2.067l-4.4-9.079v12.4H605.1V1120.5h2.786l5.393,11.6,5.3-11.6h2.786v18.607Z" transform="translate(-545.145 -1120.32)"/>
        <path id="パス_187" data-name="パス 187" d="M641.954,1139.107l-1.258-3.685h-7.371l-1.258,3.685H629.1l6.831-18.607h2.247l6.831,18.607Zm-4.854-14.382-2.876,8.27h5.753Z" transform="translate(-547.572 -1120.32)"/>
        <path id="パス_188" data-name="パス 188" d="M663.275,1137.109a6.589,6.589,0,0,1-5.124,2.067,6.79,6.79,0,0,1-4.854-1.977c-1.8-1.8-1.8-3.865-1.8-7.461s0-5.663,1.8-7.461a6.638,6.638,0,0,1,4.854-1.978,6.534,6.534,0,0,1,6.742,5.753h-2.876a3.749,3.749,0,0,0-3.955-3.236,3.587,3.587,0,0,0-2.7,1.169c-.9.989-1.079,2.067-1.079,5.753s.18,4.764,1.079,5.753a3.521,3.521,0,0,0,2.7,1.079,3.768,3.768,0,0,0,3.056-1.348,3.96,3.96,0,0,0,.9-2.876v-1.079h-3.775v-2.427h6.742v2.876C664.983,1134.233,664.534,1135.761,663.275,1137.109Z" transform="translate(-549.837 -1120.3)"/>
        <path id="パス_189" data-name="パス 189" d="M674,1139.107V1120.5h11.865v2.517h-9.079v5.393h7.73v2.517h-7.73v5.573h9.079v2.517H674Z" transform="translate(-552.113 -1120.32)"/>
      </g>
      <line id="線_98" data-name="線 98" x1="107.865" y2="107.865" transform="translate(548.737 977.694)" fill="none" stroke="#000" stroke-linecap="round" stroke-linejoin="round" stroke-width="5"/>
      <path id="パス_190" data-name="パス 190" d="M560.6,1075.6A11.624,11.624,0,0,1,549,1064V1005.4a11.624,11.624,0,0,1,11.6-11.6h82.876" transform="translate(-1.072 -2.083)" fill="none" stroke="#000" stroke-linecap="round" stroke-linejoin="round" stroke-width="5"/>
      <path id="パス_191" data-name="パス 191" d="M657.25,993.7a11.624,11.624,0,0,1,11.6,11.6V1063.9a11.624,11.624,0,0,1-11.6,11.6H577.7" transform="translate(-3.974 -2.073)" fill="none" stroke="#000" stroke-linecap="round" stroke-linejoin="round" stroke-width="5"/>
      <path id="パス_192" data-name="パス 192" d="M580.4,990.189l11.056-12.315a10.416,10.416,0,0,1,8.359-4.674h22.652a10.416,10.416,0,0,1,8.36,4.674L640,990.189" transform="translate(-4.247)" fill="none" stroke="#000" stroke-linecap="round" stroke-linejoin="round" stroke-width="5"/>
      <circle id="楕円形_9" data-name="楕円形 9" cx="4.494" cy="4.494" r="4.494" transform="translate(642.58 1004.75)"/>
      <path id="パス_193" data-name="パス 193" d="M634.045,1025.2a25.283,25.283,0,0,1-20.584,39.011A24.889,24.889,0,0,1,598,1059.447" transform="translate(-6.027 -5.259)" fill="none" stroke="#000" stroke-linecap="round" stroke-linejoin="round" stroke-width="5"/>
      <path id="パス_194" data-name="パス 194" d="M590.344,1052.549a25.4,25.4,0,0,1,34.067-36.494" transform="translate(-4.753 -3.934)" fill="none" stroke="#000" stroke-linecap="round" stroke-linejoin="round" stroke-width="5"/>
    </g>
  </g>
</svg>
