<svg xmlns="http://www.w3.org/2000/svg" width="18.023" height="14.644" viewBox="0 0 18.023 14.644">
  <path id="twitter" d="M16.172,5.9a7.376,7.376,0,0,0,1.852-1.918h0a7.717,7.717,0,0,1-2.129.584A3.675,3.675,0,0,0,17.52,2.525a7.393,7.393,0,0,1-2.343.894A3.695,3.695,0,0,0,8.786,5.946a3.8,3.8,0,0,0,.086.843A10.461,10.461,0,0,1,1.255,2.923,3.695,3.695,0,0,0,2.39,7.861,3.652,3.652,0,0,1,.721,7.406v.041a3.712,3.712,0,0,0,2.96,3.631,3.674,3.674,0,0,1-.969.122,3.261,3.261,0,0,1-.7-.063,3.731,3.731,0,0,0,3.452,2.574A7.427,7.427,0,0,1,.884,15.286,6.989,6.989,0,0,1,0,15.236a10.405,10.405,0,0,0,5.668,1.658A10.445,10.445,0,0,0,16.172,5.9Z" transform="translate(0 -2.25)" fill="#fff"/>
</svg>
