<svg xmlns="http://www.w3.org/2000/svg" xmlns:xlink="http://www.w3.org/1999/xlink" width="147.174" height="50.195" viewBox="0 0 147.174 50.195">
  <defs>
    <clipPath id="clip-path">
      <rect id="長方形_2171" data-name="長方形 2171" width="147.173" height="50.195" fill="#fff"/>
    </clipPath>
  </defs>
  <g id="グループ_56037" data-name="グループ 56037" clip-path="url(#clip-path)">
    <path id="パス_5335" data-name="パス 5335" d="M48.276,48.378h3.949V62.986H48.276Zm3.756,19.271c2.346-.03,2.717-.06,3.4-.119a16.766,16.766,0,0,0,3.623-.446,5.492,5.492,0,0,0,3.682-2.435,11.037,11.037,0,0,0,1.009-5.4V48.11h4.068V59.453c0,3.444-.593,6.028-1.811,7.78a9.177,9.177,0,0,1-5.672,3.385,24.048,24.048,0,0,1-4.009.416l-3.9.178Z" transform="translate(-22.58 -22.502)" fill="#fff"/>
    <path id="パス_5336" data-name="パス 5336" d="M91.1,61.786l-2.078-2.91a19.43,19.43,0,0,0,4.484-4.246,15.934,15.934,0,0,0,2.82-7.691l4.1.089c-.089.832-.208,1.663-.357,2.465h13.3a55.845,55.845,0,0,1-.267,6.265c-.446,3.86-1.4,6.8-2.791,8.789a13.164,13.164,0,0,1-6.948,4.959,39.9,39.9,0,0,1-8.848,1.306l-.683-3.5a26.981,26.981,0,0,0,8.581-1.455,9.46,9.46,0,0,0,5.642-6.058,22.673,22.673,0,0,0,.891-4.306,14.938,14.938,0,0,0,.148-2.821H99.15a14.849,14.849,0,0,1-2.078,3.83A19.5,19.5,0,0,1,91.1,61.786" transform="translate(-41.64 -21.955)" fill="#fff"/>
    <path id="パス_5337" data-name="パス 5337" d="M143.438,68.71a55.408,55.408,0,0,0,8.343-.593c2.732-.564,4.633-1.663,5.7-3.355A9.1,9.1,0,0,0,158.73,59.5H141.092V56.179l21.884-.03c.119,5.85-1.01,9.977-3.414,12.382a11.987,11.987,0,0,1-5.969,2.881,50.835,50.835,0,0,1-9.8.712ZM141.8,49.617h20.518v3.237H141.8Z" transform="translate(-65.993 -23.207)" fill="#fff"/>
    <path id="パス_5338" data-name="パス 5338" d="M185.964,68.506a21.134,21.134,0,0,0,11.491-6.354,18.437,18.437,0,0,0,4.929-9.324H188.221V49.561h18.855a25.874,25.874,0,0,1-3.83,11.758,12.2,12.2,0,0,0,4.068,4.038A20.409,20.409,0,0,0,210.148,67l-1.9,3.415c-3.333-1.708-4.408-2.385-7.407-6.037a26.791,26.791,0,0,1-13.956,7.6Z" transform="translate(-86.981 -23.181)" fill="#fff"/>
    <path id="パス_5339" data-name="パス 5339" d="M64.99,7.557c0,.123-.041.375-.463.427a.86.86,0,0,0-.691-.327V7.434c.187.012.328.024.434.024.24,0,.293-.042.293-.135V5.83c-.241.117-.486.234-.727.334l-.193-.4c.3-.088.609-.193.92-.317V4.178h-.708l-.1-.269h.809V2.685h.422l-.006,1.224h.234l.222-.194.311.246-.263.217h-.5V5.273c.257-.111.509-.228.738-.351l.047.228c-.241.152-.5.3-.785.457V7.176l.011.345Zm4.176-.111a.759.759,0,0,0-.521.158,4.245,4.245,0,0,1-1.177-1.616v2h-.422c.005-.135.023-1.382.029-1.845a4.386,4.386,0,0,1-1.7,1.581l-.176-.17a4.732,4.732,0,0,0,1.622-1.751H65.634l-.093-.287h1.516V4.963h.41v.557h1.053l.252-.193.321.251-.287.229H67.584A3.09,3.09,0,0,0,69.241,7.27ZM68.89,3.1a18.919,18.919,0,0,1-3.285.457L65.5,3.311a12.912,12.912,0,0,0,3.11-.621ZM66.261,5.016a3.637,3.637,0,0,0-.433-1.2l.193-.088a4.193,4.193,0,0,1,.685,1.06Zm.96-.235a3.763,3.763,0,0,0-.3-1.112l.2-.076a3.842,3.842,0,0,1,.544.984Zm.638.117a4.9,4.9,0,0,0,.533-1.423l.5.158a4.939,4.939,0,0,1-.82,1.352Z" transform="translate(-29.768 -1.256)" fill="#fff"/>
    <path id="パス_5340" data-name="パス 5340" d="M79.581,7.662c0,.129-.088.345-.509.428-.117-.2-.345-.293-.785-.34V7.533c.228.018.392.023.521.023.275,0,.328-.041.328-.135V6.134h-1.5V7.873H77.2V6.134H75.74a3.291,3.291,0,0,1-.9,1.991L74.633,8a5.023,5.023,0,0,0,.738-3.308c0-.516-.012-1.371-.041-1.716l.521.141h3.3l.158-.17.41.211-.152.163V7.27l.012.381ZM77.2,4.775H75.81c0,.381-.012.732-.035,1.06H77.2Zm0-1.364H75.81V4.477H77.2Zm1.932,0h-1.5V4.477h1.5Zm0,1.364h-1.5v1.06h1.5Z" transform="translate(-34.908 -1.379)" fill="#fff"/>
    <path id="パス_5341" data-name="パス 5341" d="M88.366,7.877a2.215,2.215,0,0,0,2.266-2.119,1.836,1.836,0,0,0-1.944-1.839,2.164,2.164,0,0,0-2.172,2.1A1.291,1.291,0,0,0,87.3,7.256,6.309,6.309,0,0,0,88.383,4.5l-.31-.135.088-.187.229.011.486.023v.012a8,8,0,0,1-1.359,3.566,1.758,1.758,0,0,1-1.4-1.734A2.576,2.576,0,0,1,88.723,3.62a2.207,2.207,0,0,1,2.389,2.149c0,1.042-.691,2.237-2.646,2.378Z" transform="translate(-40.28 -1.693)" fill="#fff"/>
    <path id="パス_5342" data-name="パス 5342" d="M97.913,7.2a4.33,4.33,0,0,0,3.461-3.6h-3.5l-.117-.34h3.624a.7.7,0,0,1-.07-.31.76.76,0,0,1,.762-.762.749.749,0,0,1,.749.762.742.742,0,0,1-.749.744.63.63,0,0,1-.105-.006,4.62,4.62,0,0,1-3.888,3.783Zm4.153-4.731a.475.475,0,0,0-.475.486.474.474,0,0,0,.949,0,.475.475,0,0,0-.474-.486" transform="translate(-45.723 -1.024)" fill="#fff"/>
    <path id="パス_5343" data-name="パス 5343" d="M112.378,8.48V7.947h-2.951V8.48h-.48V4.615l-.258-.082.071-.234h.662v.135h2.992l.147-.176.486.2-.17.211V8.48Zm0-3.718-2.951-.006V7.613h2.951Z" transform="translate(-50.837 -1.991)" fill="#fff"/>
    <path id="パス_5344" data-name="パス 5344" d="M119.3,7.79a4.555,4.555,0,0,0,3.666-3.613H121a5.186,5.186,0,0,1-1.881,1.886l-.176-.217a5.136,5.136,0,0,0,1.8-2.337l-.281-.076.1-.211h.89a6.2,6.2,0,0,1-.281.638h1.891l.164-.193a4.973,4.973,0,0,1,.521.211c-.111.117-.211.187-.222.269a4.822,4.822,0,0,1-4.076,3.918Z" transform="translate(-55.632 -1.507)" fill="#fff"/>
    <path id="パス_5345" data-name="パス 5345" d="M131.62,6.33V3.742l-.3-.088.076-.2h.708l-.006,2.881Zm.012,1.464c2.3-.234,2.717-1.347,2.717-2.688V5.048c-.005-.222-.011-.925-.011-1.388l-.3-.088.077-.217h.72v1.88c0,1.364-.568,2.635-3.057,2.84Z" transform="translate(-61.421 -1.569)" fill="#fff"/>
    <path id="パス_5346" data-name="パス 5346" d="M145.934,8.186h-4.661l-.123-.328H143.4V4.825h-1.715l-.129-.323h3.637l.275-.234.364.287-.328.27H143.89V7.858h1.7l.275-.24.375.3Z" transform="translate(-66.02 -1.996)" fill="#fff"/>
    <path id="パス_5347" data-name="パス 5347" d="M154.741,7.984V5.039a8.077,8.077,0,0,1-2.384,1.03l-.152-.263a7.468,7.468,0,0,0,3.742-2.494l-.2-.182.158-.169.738.287A6.265,6.265,0,0,1,155.221,4.7V7.984Z" transform="translate(-71.191 -1.384)" fill="#fff"/>
    <path id="パス_5348" data-name="パス 5348" d="M165.651,6.251a4.31,4.31,0,0,0-1.522-1.025,4.45,4.45,0,0,1-1.019.761l-.17-.193a5.059,5.059,0,0,0,1.81-2.279l-.263-.081.1-.211h.826c-.088.217-.181.427-.287.632h2.126l.141-.164a4.86,4.86,0,0,1,.5.2c-.1.106-.193.17-.222.282a4.982,4.982,0,0,1-4.217,3.894l-.135-.275a4.688,4.688,0,0,0,3.807-3.619V4.167h-2.167a5.334,5.334,0,0,1-.632.861,5.163,5.163,0,0,1,1.61.732Z" transform="translate(-76.212 -1.508)" fill="#fff"/>
    <path id="パス_5349" data-name="パス 5349" d="M174.84,7.674l-.129-.368h4.456v.368Z" transform="translate(-81.718 -3.417)" fill="#fff"/>
    <path id="パス_5350" data-name="パス 5350" d="M185.976,8.059c-.036-.386-.053-.809-.053-1.241A19.531,19.531,0,0,1,186.135,4l-.282-.076.077-.217h.72a15.6,15.6,0,0,0-.269,2.9,11.006,11.006,0,0,0,.088,1.441Zm4.392-.293a5.532,5.532,0,0,1-1.171.141c-.89,0-1.816-.322-1.921-1.318L187.6,6.3l.187.129-.193.235c.1.6.867.8,1.535.8a5.21,5.21,0,0,0,1.364-.217Zm-1.756-2.594a9.845,9.845,0,0,0,.8-.755l-1.757.012-.105-.316h2.173l.187-.123.369.328c-.293.193-1.019.709-1.487,1Z" transform="translate(-86.929 -1.734)" fill="#fff"/>
    <path id="パス_5351" data-name="パス 5351" d="M200.817,7.828a4.412,4.412,0,0,0-1.628-1.054,1.135,1.135,0,0,1-1.225,1.165c-.908,0-1.364-.433-1.364-.861,0-.3.3-.855,1.377-.855a4.932,4.932,0,0,1,.773.064l-.082-2.8-.345-.1.059-.211h.744c0,.193.012.674.024,1.218h1.417l.263-.21.369.269-.328.269h-1.716c.017.627.029,1.271.035,1.663a5.428,5.428,0,0,1,1.915.943Zm-2.864-1.3c-.679,0-.955.258-.955.5s.311.515.832.515a.838.838,0,0,0,.926-.9,2.994,2.994,0,0,0-.8-.123" transform="translate(-91.956 -1.487)" fill="#fff"/>
    <path id="パス_5352" data-name="パス 5352" d="M211.46,3.786c-.052.035-.105.059-.17.106-.545.375-1.446,1.036-2.237,1.575a3.3,3.3,0,0,1,1.112-.2c1.177,0,1.827.55,1.827,1.37,0,1.042-1.171,1.552-2.184,1.552-.954,0-1.739-.422-1.739-.966,0-.369.351-.626.832-.626a1.091,1.091,0,0,1,1.159,1.1.822.822,0,0,1-.006.117c.615-.076,1.434-.416,1.434-1.2,0-.58-.427-1.042-1.365-1.042a3.154,3.154,0,0,0-1.833.533c-.141.094-.345.228-.486.345l-.381-.287c.873-.557,1.862-1.276,3.028-2.19l-2.155.018-.118-.316,2.67-.018.2-.158Zm-1.815,3.888a.729.729,0,0,0-.749-.761c-.445,0-.445.293-.445.316,0,.293.5.574,1.183.6a1.571,1.571,0,0,0,.012-.158" transform="translate(-97.019 -1.636)" fill="#fff"/>
    <path id="パス_5353" data-name="パス 5353" d="M86.417,19.267H78.482l-.163-.47h3.872v-.853h.766V18.8H85.9l.46-.354.575.432Zm-.143,6.718c0,.24-.153.613-.815.68-.153-.277-.5-.422-1.14-.508v-.345c.307.029.546.038.718.038.413,0,.5-.067.5-.211V22.956H79.68v3.728h-.719V22.3l.757.192h5.855l.259-.249.661.335-.24.268v2.53l.019.584Zm-1.9-3.939v-.288H80.743v.307h-.719V19.727l.757.191h3.642l.23-.24.661.336-.23.259v1.773Zm0-1.677H80.743v.939h3.632Zm-.728,5.5v-.307H81.5V26H80.84V23.493l.7.2H83.7l.24-.24.6.326-.23.259v1.83Zm0-1.725H81.5v.968h2.147Z" transform="translate(-36.632 -8.393)" fill="#fff"/>
    <path id="パス_5354" data-name="パス 5354" d="M95.8,26.22a12.4,12.4,0,0,0,.623-2.827l.719.115a10.55,10.55,0,0,1-.987,2.827Zm1.294-5.252a4.9,4.9,0,0,0-1.2-1.447l.24-.23c.192.106.393.24.585.365a8.991,8.991,0,0,0,.766-1.783l.8.22a10.434,10.434,0,0,1-1.265,1.773,6.187,6.187,0,0,1,.613.537Zm.412,5.741.009-4.045c-.469.106-.939.192-1.389.259l-.22-.662c.2,0,.422-.01.651-.019a16.026,16.026,0,0,0,2.08-3.191l.729.317A21.507,21.507,0,0,1,97.032,22.2c.575-.048,1.169-.124,1.7-.22a4.825,4.825,0,0,0-.374-.738l.278-.153a6.868,6.868,0,0,1,1.016,1.552l-.6.393a4.586,4.586,0,0,0-.182-.718c-.24.067-.479.134-.719.191l.01,4.2Zm1.351-1.5a6.557,6.557,0,0,0-.412-2.022l.326-.115a8.432,8.432,0,0,1,.729,1.773ZM104.8,26.3a1.053,1.053,0,0,0-.748.249,6.159,6.159,0,0,1-1.62-1.351,6.422,6.422,0,0,1-2.511,1.553l-.278-.317a6.235,6.235,0,0,0,2.435-1.715,8.067,8.067,0,0,1-1.121-3.172,8.521,8.521,0,0,1-1.936,5.012l-.345-.2c1.524-1.85,1.744-4.667,1.763-7.494h-1.14l-.163-.46h3.709l.25-.23.594.441-.287.2-.489,1.878h.738l.268-.249.671.4c-.086.077-.278.22-.287.268a8.74,8.74,0,0,1-1.457,3.613,4.713,4.713,0,0,0,2.147,1.256l-.143.316Zm-2-5.156-.077.287h-.69c.24-.911.508-1.974.651-2.568h-1.562c-.01.46-.029.92-.048,1.36a8.269,8.269,0,0,0,1.37,4.015,8.013,8.013,0,0,0,1.1-3.1Z" transform="translate(-44.807 -8.359)" fill="#fff"/>
    <path id="パス_5355" data-name="パス 5355" d="M115.658,25.442a7.085,7.085,0,0,0,5.663-5.894h-5.741l-.182-.556h6.076l.134-.144a7.7,7.7,0,0,0-1.016-1.476l.345-.182a6.793,6.793,0,0,1,1.408,1.61l-.125.086.451.183c-.106.115-.335.316-.365.45a7.571,7.571,0,0,1-6.382,6.373Zm7.581-6.421a6.239,6.239,0,0,0-1.246-1.7l.326-.172a6.352,6.352,0,0,1,1.5,1.457Z" transform="translate(-53.976 -8.022)" fill="#fff"/>
    <path id="パス_5356" data-name="パス 5356" d="M133.79,26.218l-.211-.6h7.293v.6Z" transform="translate(-62.479 -11.981)" fill="#fff"/>
    <path id="パス_5357" data-name="パス 5357" d="M157.407,26.941a9.066,9.066,0,0,0-2.329-3.048A9.4,9.4,0,0,1,150.488,27l-.259-.412a9.428,9.428,0,0,0,5.7-6h-4.485l-.172-.546h4.906l.211-.278.862.316a3.365,3.365,0,0,0-.335.441,10.472,10.472,0,0,1-1.572,3.028,16.035,16.035,0,0,1,2.933,2.569Z" transform="translate(-70.267 -9.244)" fill="#fff"/>
    <path id="パス_5358" data-name="パス 5358" d="M176.778,26.4a1.348,1.348,0,0,0-.872.354,4.974,4.974,0,0,1-3.546-3.277,7.016,7.016,0,0,1-1.054.776v1.524c.642-.105,1.275-.24,1.888-.393l.019.374a31.037,31.037,0,0,1-4.111,1.007l-.317-.681c.623-.057,1.246-.114,1.85-.2V24.622a11.717,11.717,0,0,1-2.626.92l-.23-.326a10.237,10.237,0,0,0,3.613-1.8h-3.239l-.173-.451h3.977V22.13h.728v.834h3.067l.422-.316.556.4-.489.365h-3.527a3.892,3.892,0,0,0,.959,1.38,6.135,6.135,0,0,0,1.6-1.17l.737.48a9.43,9.43,0,0,1-2.031.939,5.443,5.443,0,0,0,2.914,1.006Zm-6.287-4.1V20.52a12.181,12.181,0,0,1-2.069,1.438l-.451-.633a9.174,9.174,0,0,0,2.52-1.293V18.143h.69V22.3Zm-.824-2.108a4.319,4.319,0,0,0-1.5-1.256l.22-.268a7.293,7.293,0,0,1,1.773.853Zm6.373,1.6h-4.092l-.163-.451h1.85V19.906H171.66l-.172-.46h2.147V18.153h.709v1.294h1.5l.422-.317.546.413-.489.364h-1.974v1.437h1.227l.413-.316.537.4Z" transform="translate(-78.475 -8.486)" fill="#fff"/>
    <path id="パス_5359" data-name="パス 5359" d="M189.32,26.536a6.631,6.631,0,0,0-.393-.9,20.942,20.942,0,0,1-2.76.968l-.307-.68.728-.116V20.612a6.988,6.988,0,0,1-.594.47l-.288-.24a6.476,6.476,0,0,0,1.927-2.924l.834.173c-.067.144-.134.278-.211.412a8.925,8.925,0,0,1,1.763,1.208l-.489.69a6.949,6.949,0,0,0-1.437-1.61,7.979,7.979,0,0,1-1.486,1.811l.7.173h.46v-.93h.642v.93h.5l.23-.23.575.307-.23.25v3.009h-.642v-.268h-1.591v1.84c.537-.115,1.054-.24,1.5-.374a5.79,5.79,0,0,0-.632-.9l.288-.2A9.135,9.135,0,0,1,189.981,26Zm-.48-5.319h-1.591v.843h1.591Zm0,1.284h-1.591v.892h1.591Zm3.153,4.188v-5.1h-.949V25.6h-.632V20.89l.651.24h.93V19.7h-.863a10.123,10.123,0,0,1-1.111,1.553l-.336-.163a7.922,7.922,0,0,0,1.361-3.2l.825.125a7.419,7.419,0,0,1-.489,1.217h2.462l.412-.316.527.413-.469.374h-1.639V21.13h1.063l.259-.259.584.365-.23.249v2.751l.019.546v.029c0,.259-.143.594-.728.68-.153-.307-.3-.432-.767-.5v-.3c.24.019.413.029.527.029.3,0,.3-.058.3-.2V21.59h-1.035v5.1Z" transform="translate(-86.86 -8.368)" fill="#fff"/>
    <path id="パス_5360" data-name="パス 5360" d="M31.931,91.617a2.505,2.505,0,0,1,.277-.083c.092-.024.183-.045.27-.061a3.522,3.522,0,0,1,.479-.051,2.849,2.849,0,0,1,.467.018,2.323,2.323,0,0,1-.292.345,2.549,2.549,0,0,1-.856.568,2.426,2.426,0,0,1-.285.091c-.047.012-.094.023-.141.032s-.092.014-.137.02a3.308,3.308,0,0,1-.5.02,3.135,3.135,0,0,1-.5-.053,2.653,2.653,0,0,1,.328-.323,2.988,2.988,0,0,1,.886-.525" transform="translate(-14.367 -42.76)" fill="#fff"/>
    <path id="パス_5361" data-name="パス 5361" d="M30.648,92.576c-.044,0-.087,0-.131,0a3.46,3.46,0,0,1-.574-.063l-.687-.149.441-.547a3.039,3.039,0,0,1,.386-.382,3.428,3.428,0,0,1,1.017-.6,3.006,3.006,0,0,1,.318-.1c.107-.028.207-.051.3-.067a3.907,3.907,0,0,1,.54-.057,3.269,3.269,0,0,1,.545.022l.668.1-.367.566a2.709,2.709,0,0,1-.351.417,2.941,2.941,0,0,1-1,.664,2.868,2.868,0,0,1-.332.108c-.054.014-.109.026-.163.037h-.009c-.06.011-.115.018-.162.024a3.634,3.634,0,0,1-.437.028" transform="translate(-13.684 -42.381)" fill="#fff"/>
    <path id="パス_5362" data-name="パス 5362" d="M25.214,88.343a2.706,2.706,0,0,1,.552-.052,3.47,3.47,0,0,1,.476.021,2.83,2.83,0,0,1,.457.086,2.348,2.348,0,0,1-.337.3,2.509,2.509,0,0,1-.92.433c-.049.011-.1.021-.146.029s-.1.012-.143.015a2.535,2.535,0,0,1-.277.006,3.247,3.247,0,0,1-.492-.053A3.1,3.1,0,0,1,23.905,89a2.612,2.612,0,0,1,.368-.27,2.936,2.936,0,0,1,.942-.387" transform="translate(-11.181 -41.296)" fill="#fff"/>
    <path id="パス_5363" data-name="パス 5363" d="M24.243,89.233h-.092a3.7,3.7,0,0,1-.558-.06,3.419,3.419,0,0,1-.554-.146l-.653-.249L22.9,88.3a3.022,3.022,0,0,1,.433-.32,3.4,3.4,0,0,1,1.085-.443,3.1,3.1,0,0,1,.634-.061,4,4,0,0,1,.53.024,3.227,3.227,0,0,1,.531.1l.642.2-.443.5a2.756,2.756,0,0,1-.4.359,2.909,2.909,0,0,1-1.079.507c-.057.013-.115.024-.173.034h-.006c-.065.01-.125.015-.172.019-.077.007-.154.01-.233.01" transform="translate(-10.471 -40.916)" fill="#fff"/>
    <path id="パス_5364" data-name="パス 5364" d="M19.119,84.022a2.615,2.615,0,0,1,.547.029c.083.013.166.029.241.047s.149.034.216.052a2.779,2.779,0,0,1,.433.151,2.264,2.264,0,0,1-.373.243,2.643,2.643,0,0,1-.423.181,2.092,2.092,0,0,1-.539.106,2.763,2.763,0,0,1-1.031-.161,2.562,2.562,0,0,1-.326-.134c-.076-.039-.118-.065-.118-.065a2.44,2.44,0,0,1,.394-.208,2.912,2.912,0,0,1,.979-.241" transform="translate(-8.3 -39.298)" fill="#fff"/>
    <path id="パス_5365" data-name="パス 5365" d="M18.406,84.89a3.24,3.24,0,0,1-1.052-.188h0a2.866,2.866,0,0,1-.383-.159c-.083-.044-.135-.075-.145-.08l-.565-.349.548-.376a2.889,2.889,0,0,1,.469-.249,3.3,3.3,0,0,1,1.124-.276,3.114,3.114,0,0,1,.637.034c.091.014.183.032.274.054l.052.012c.059.013.119.028.179.044a3.2,3.2,0,0,1,.505.178l.6.287-.51.433a2.75,2.75,0,0,1-.449.294,3.109,3.109,0,0,1-.492.211,2.519,2.519,0,0,1-.651.127c-.047,0-.094,0-.142,0" transform="translate(-7.604 -38.919)" fill="#fff"/>
    <path id="パス_5366" data-name="パス 5366" d="M13.795,78.8a2.83,2.83,0,0,1,.958.279c.121.057.224.108.293.149s.108.065.108.065a2.289,2.289,0,0,1-.4.184,2.624,2.624,0,0,1-.44.117,2.118,2.118,0,0,1-.535.019,2.734,2.734,0,0,1-.985-.31,2.361,2.361,0,0,1-.291-.186c-.069-.05-.106-.083-.106-.083a2.446,2.446,0,0,1,.415-.145,2.906,2.906,0,0,1,.443-.081,2.634,2.634,0,0,1,.542-.006" transform="translate(-5.798 -36.85)" fill="#fff"/>
    <path id="パス_5367" data-name="パス 5367" d="M13.28,79.67c-.078,0-.156,0-.233-.011A3.11,3.11,0,0,1,11.9,79.3a2.679,2.679,0,0,1-.319-.2l-.028-.02c-.078-.056-.124-.1-.131-.1l-.5-.427.592-.29a2.836,2.836,0,0,1,.5-.176,3.421,3.421,0,0,1,.507-.093,3.031,3.031,0,0,1,.629-.009,3.214,3.214,0,0,1,1.1.32c.155.073.25.125.323.166s.124.076.134.083l.55.373-.564.352a2.624,2.624,0,0,1-.484.224,3.055,3.055,0,0,1-.513.136h0a2.561,2.561,0,0,1-.414.031" transform="translate(-5.108 -36.47)" fill="#fff"/>
    <path id="パス_5368" data-name="パス 5368" d="M9.353,72.769a2.782,2.782,0,0,1,.894.415c.11.075.193.147.257.194a.947.947,0,0,1,.1.08,2.306,2.306,0,0,1-.419.122,2.241,2.241,0,0,1-.966-.016,2.344,2.344,0,0,1-.51-.2c-.077-.041-.15-.083-.218-.124a1.716,1.716,0,0,1-.184-.13,2.884,2.884,0,0,1-.347-.323,2.439,2.439,0,0,1,.428-.083,2.881,2.881,0,0,1,.444-.014,2.537,2.537,0,0,1,.253.024,2.6,2.6,0,0,1,.271.051" transform="translate(-3.721 -33.999)" fill="#fff"/>
    <path id="パス_5369" data-name="パス 5369" d="M9.064,73.679a2.581,2.581,0,0,1-.616-.073,2.771,2.771,0,0,1-.605-.232,2.855,2.855,0,0,1-.249-.144,2.157,2.157,0,0,1-.226-.16,3.243,3.243,0,0,1-.4-.377l-.426-.5.622-.2a2.814,2.814,0,0,1,.513-.1,3.289,3.289,0,0,1,.512-.016c.1,0,.2.014.294.028a3.025,3.025,0,0,1,.316.06,3.169,3.169,0,0,1,1.035.479c.086.059.156.114.212.159l.059.046.01.007c.071.057.113.1.121.1l.484.45-.606.264a2.712,2.712,0,0,1-.508.149,2.742,2.742,0,0,1-.54.053" transform="translate(-3.059 -33.619)" fill="#fff"/>
    <path id="パス_5370" data-name="パス 5370" d="M5.911,66.086a2.708,2.708,0,0,1,.81.54,2.784,2.784,0,0,1,.218.23l.079.095a2.117,2.117,0,0,1-.425.056,2.219,2.219,0,0,1-.938-.158,2.291,2.291,0,0,1-.468-.267c-.069-.051-.134-.1-.193-.155a1.963,1.963,0,0,1-.156-.157,2.767,2.767,0,0,1-.291-.368,2.378,2.378,0,0,1,.431-.02,2.741,2.741,0,0,1,.436.051,2.434,2.434,0,0,1,.244.061c.084.027.167.057.254.093" transform="translate(-2.126 -30.814)" fill="#fff"/>
    <path id="パス_5371" data-name="パス 5371" d="M5.87,67.064a2.593,2.593,0,0,1-1-.193,2.736,2.736,0,0,1-.557-.318c-.075-.055-.15-.115-.223-.179l0,0a2.606,2.606,0,0,1-.185-.185v0a3.274,3.274,0,0,1-.337-.433l-.34-.548.637-.106a2.763,2.763,0,0,1,.518-.025,3.22,3.22,0,0,1,.5.058c.1.019.192.044.286.072s.184.062.291.1h0a3.111,3.111,0,0,1,.942.626,3.266,3.266,0,0,1,.249.266l.08.1.429.518-.649.176a2.569,2.569,0,0,1-.521.071c-.044,0-.084,0-.124,0" transform="translate(-1.508 -30.434)" fill="#fff"/>
    <path id="パス_5372" data-name="パス 5372" d="M3.544,58.926a2.623,2.623,0,0,1,.705.648,2.478,2.478,0,0,1,.236.364,2.1,2.1,0,0,1-.421-.007,2.165,2.165,0,0,1-.892-.291,2.212,2.212,0,0,1-.415-.329c-.06-.06-.114-.12-.166-.18a2.066,2.066,0,0,1-.128-.176,2.682,2.682,0,0,1-.224-.4,2.258,2.258,0,0,1,.423.042,2.65,2.65,0,0,1,.418.111,2.371,2.371,0,0,1,.228.095c.079.037.154.079.234.127" transform="translate(-1.048 -27.386)" fill="#fff"/>
    <path id="パス_5373" data-name="パス 5373" d="M3.755,60a2.869,2.869,0,0,1-.3-.016,2.573,2.573,0,0,1-1.07-.351,2.639,2.639,0,0,1-.5-.394c-.064-.064-.129-.135-.191-.208a2.183,2.183,0,0,1-.147-.2l-.01-.014a3.147,3.147,0,0,1-.262-.474l-.246-.586.635-.014a2.693,2.693,0,0,1,.511.048,3.115,3.115,0,0,1,.486.13,2.825,2.825,0,0,1,.27.112c.083.042.171.088.267.145h0a3.018,3.018,0,0,1,.826.755,2.946,2.946,0,0,1,.281.434l.275.552-.614.071A2.021,2.021,0,0,1,3.755,60" transform="translate(-0.481 -27.007)" fill="#fff"/>
    <path id="パス_5374" data-name="パス 5374" d="M2.284,51.479a2.547,2.547,0,0,1,.59.738,2.8,2.8,0,0,1,.132.28c.014.035.024.063.032.083l.011.029a.938.938,0,0,1-.116-.01,2.34,2.34,0,0,1-.295-.056,2.114,2.114,0,0,1-.826-.415,2.163,2.163,0,0,1-.354-.384c-.049-.067-.094-.135-.133-.2a1.805,1.805,0,0,1-.1-.192,2.651,2.651,0,0,1-.156-.427,2.233,2.233,0,0,1,.407.1,2.633,2.633,0,0,1,.392.169,2.361,2.361,0,0,1,.208.125c.07.05.138.1.208.16" transform="translate(-0.5 -23.819)" fill="#fff"/>
    <path id="パス_5375" data-name="パス 5375" d="M3.175,52.615,2.537,52.6a1.54,1.54,0,0,1-.158-.013,2.7,2.7,0,0,1-.35-.067,2.509,2.509,0,0,1-1-.5,2.588,2.588,0,0,1-.426-.46c-.053-.073-.1-.151-.153-.231a2.149,2.149,0,0,1-.111-.211l-.012-.025a3.147,3.147,0,0,1-.184-.505L0,49.977l.622.076a2.637,2.637,0,0,1,.5.121,3.032,3.032,0,0,1,.456.2,2.683,2.683,0,0,1,.249.15c.078.053.155.112.24.18l0,0a2.96,2.96,0,0,1,.691.863,3.1,3.1,0,0,1,.153.324c.014.034.027.067.037.1Z" transform="translate(0 -23.376)" fill="#fff"/>
    <path id="パス_5376" data-name="パス 5376" d="M2.17,43.927a2.516,2.516,0,0,1,.462.809,2.463,2.463,0,0,1,.109.409,2.016,2.016,0,0,1-.391-.125A2.054,2.054,0,0,1,1.6,44.5a2.153,2.153,0,0,1-.45-.845,2.589,2.589,0,0,1-.087-.441,2.229,2.229,0,0,1,.384.158,2.328,2.328,0,0,1,.72.559" transform="translate(-0.499 -20.21)" fill="#fff"/>
    <path id="パス_5377" data-name="パス 5377" d="M2.833,45.169l-.591-.105a2.609,2.609,0,0,1-1.385-.788,2.587,2.587,0,0,1-.543-1.018,3.051,3.051,0,0,1-.1-.518L.16,42.123l.6.163a2.664,2.664,0,0,1,.467.19,2.784,2.784,0,0,1,.85.664,2.956,2.956,0,0,1,.539.945,2.849,2.849,0,0,1,.13.491Z" transform="translate(-0.075 -19.702)" fill="#fff"/>
    <path id="パス_5378" data-name="パス 5378" d="M3.214,36.461a2.167,2.167,0,0,1,.117.223,2.28,2.28,0,0,1,.094.224,2.665,2.665,0,0,1,.111.41,2.365,2.365,0,0,1,.045.415,2.145,2.145,0,0,1-1.017-.8,2.056,2.056,0,0,1-.217-.459,2.7,2.7,0,0,1-.088-.431,2.63,2.63,0,0,1-.019-.444,2.157,2.157,0,0,1,.353.208,2.282,2.282,0,0,1,.62.654" transform="translate(-1.047 -16.651)" fill="#fff"/>
    <path id="パス_5379" data-name="パス 5379" d="M3.626,37.771l-.565-.189a2.57,2.57,0,0,1-1.245-.976,2.488,2.488,0,0,1-.263-.556l0-.013a3.043,3.043,0,0,1-.1-.5,2.905,2.905,0,0,1-.021-.527l.042-.611.562.245a2.564,2.564,0,0,1,.432.254,2.727,2.727,0,0,1,.739.777,2.709,2.709,0,0,1,.139.264,2.545,2.545,0,0,1,.11.261,3.149,3.149,0,0,1,.129.476,2.729,2.729,0,0,1,.052.5Z" transform="translate(-0.665 -16.088)" fill="#fff"/>
    <path id="パス_5380" data-name="パス 5380" d="M5.339,29.252a2.065,2.065,0,0,1,.131.464,2.531,2.531,0,0,1,.047.415,2.351,2.351,0,0,1-.019.415,2.112,2.112,0,0,1-.878-.928,1.905,1.905,0,0,1-.088-.24,2,2,0,0,1-.047-.237,2.556,2.556,0,0,1-.023-.433,2.5,2.5,0,0,1,.048-.436,2.079,2.079,0,0,1,.316.255,2.224,2.224,0,0,1,.513.725" transform="translate(-2.087 -13.223)" fill="#fff"/>
    <path id="パス_5381" data-name="パス 5381" d="M5.449,30.6l-.527-.267a2.541,2.541,0,0,1-1.079-1.136,2.325,2.325,0,0,1-.109-.3l0-.012a2.612,2.612,0,0,1-.057-.286,3.036,3.036,0,0,1-.027-.506,2.93,2.93,0,0,1,.059-.519l.134-.593.516.32a2.563,2.563,0,0,1,.387.311,2.674,2.674,0,0,1,.612.869,2.512,2.512,0,0,1,.159.555,3.02,3.02,0,0,1,.054.479,2.689,2.689,0,0,1-.024.5Z" transform="translate(-1.705 -12.619)" fill="#fff"/>
    <path id="パス_5382" data-name="パス 5382" d="M8.478,22.465a1.985,1.985,0,0,1,.06.472,2.008,2.008,0,0,1-.007.215c-.007.069-.009.135-.017.195a2.291,2.291,0,0,1-.08.4,1.961,1.961,0,0,1-.29-.27,1.929,1.929,0,0,1-.432-.762,2.162,2.162,0,0,1-.014-.907,2.537,2.537,0,0,1,.111-.419,2.134,2.134,0,0,1,.273.294,2.176,2.176,0,0,1,.4.781" transform="translate(-3.581 -10.004)" fill="#fff"/>
    <path id="パス_5383" data-name="パス 5383" d="M8.283,23.81l-.48-.338a2.363,2.363,0,0,1-.365-.335,2.332,2.332,0,0,1-.527-.936v-.007A2.548,2.548,0,0,1,6.891,21.1a2.881,2.881,0,0,1,.134-.5l.219-.561.461.387a2.478,2.478,0,0,1,.337.36,2.637,2.637,0,0,1,.476.939,2.4,2.4,0,0,1,.073.575c0,.083,0,.166-.009.252v.024c0,.062-.009.127-.017.19a2.68,2.68,0,0,1-.1.484Z" transform="translate(-3.2 -9.374)" fill="#fff"/>
    <path id="パス_5384" data-name="パス 5384" d="M12.556,16.253a2.159,2.159,0,0,1-.1.862l-.051.155c-.015.046-.031.087-.044.12-.027.067-.045.1-.045.1a1.938,1.938,0,0,1-.249-.306,2.146,2.146,0,0,1-.189-.351,1.621,1.621,0,0,1-.115-.45,2.126,2.126,0,0,1,.119-.888A1.911,1.911,0,0,1,12,15.215c.035-.066.059-.1.059-.1a2,2,0,0,1,.222.324,2.168,2.168,0,0,1,.275.818" transform="translate(-5.499 -7.068)" fill="#fff"/>
    <path id="パス_5385" data-name="パス 5385" d="M12.059,17.581l-.424-.4a2.39,2.39,0,0,1-.31-.381,2.507,2.507,0,0,1-.229-.424,2.048,2.048,0,0,1-.146-.57,2.5,2.5,0,0,1,.14-1.074,2.3,2.3,0,0,1,.147-.35c.042-.076.069-.121.074-.129l.307-.483.381.427a2.427,2.427,0,0,1,.277.4,2.57,2.57,0,0,1,.327.986,2.54,2.54,0,0,1-.118,1.037v0l-.052.16c-.017.048-.034.1-.052.142-.032.079-.056.128-.06.137Z" transform="translate(-5.117 -6.44)" fill="#fff"/>
    <path id="パス_5386" data-name="パス 5386" d="M17.5,10.756a2.1,2.1,0,0,1-.225.827,2.49,2.49,0,0,1-.141.249c-.019.029-.034.053-.044.069l-.017.024a1.905,1.905,0,0,1-.2-.334,1.782,1.782,0,0,1-.176-.82,2.082,2.082,0,0,1,.249-.848,2.266,2.266,0,0,1,.238-.346,1.989,1.989,0,0,1,.171.348,2.185,2.185,0,0,1,.108.374,2.03,2.03,0,0,1,.034.458" transform="translate(-7.81 -4.479)" fill="#fff"/>
    <path id="パス_5387" data-name="パス 5387" d="M16.72,12.036l-.368-.466a2.306,2.306,0,0,1-.249-.418,2.184,2.184,0,0,1-.217-1.022,2.462,2.462,0,0,1,.3-1.03l.007-.014a2.705,2.705,0,0,1,.291-.418l.374-.423.312.47a2.381,2.381,0,0,1,.215.432,2.63,2.63,0,0,1,.129.448v0a2.374,2.374,0,0,1-.227,1.554,2.849,2.849,0,0,1-.166.294l0,.006a.321.321,0,0,0-.018.028l-.026.042Z" transform="translate(-7.43 -3.856)" fill="#fff"/>
    <path id="パス_5388" data-name="パス 5388" d="M23.2,6.1a2.061,2.061,0,0,1-.342.773,2.147,2.147,0,0,1-.251.3,1.832,1.832,0,0,1-.144-.353,1.64,1.64,0,0,1,.1-1.265c.033-.067.069-.13.1-.188a1.866,1.866,0,0,1,.114-.156,2.305,2.305,0,0,1,.285-.3,1.943,1.943,0,0,1,.118.365A1.917,1.917,0,0,1,23.2,6.1" transform="translate(-10.468 -2.297)" fill="#fff"/>
    <path id="パス_5389" data-name="パス 5389" d="M22.12,7.258l-.273-.475a2.226,2.226,0,0,1-.183-.444A2.148,2.148,0,0,1,21.6,5.307a2.173,2.173,0,0,1,.189-.548c.037-.075.079-.151.124-.226l0,0a2.253,2.253,0,0,1,.139-.192v0a2.646,2.646,0,0,1,.345-.362l.43-.359.24.506a2.5,2.5,0,0,1,.166,1.464,2.461,2.461,0,0,1-.411.934,2.549,2.549,0,0,1-.31.367Z" transform="translate(-10.087 -1.69)" fill="#fff"/>
    <path id="パス_5390" data-name="パス 5390" d="M29.52,2.41a2.09,2.09,0,0,1-.208.4,2.165,2.165,0,0,1-.244.3,2.035,2.035,0,0,1-.291.255A1.833,1.833,0,0,1,28.689,3a1.7,1.7,0,0,1,.069-.812,1.686,1.686,0,0,1,.214-.405c.021-.03.042-.059.064-.087s.045-.053.068-.077c.046-.049.092-.094.136-.134a2.227,2.227,0,0,1,.324-.249,1.884,1.884,0,0,1,.063.374,1.858,1.858,0,0,1-.106.8" transform="translate(-13.409 -0.576)" fill="#fff"/>
    <path id="パス_5391" data-name="パス 5391" d="M28.19,3.447l-.2-.5a2.232,2.232,0,0,1-.115-.462,2.107,2.107,0,0,1,.09-1.02,2.129,2.129,0,0,1,.268-.508c.029-.042.055-.076.08-.108l.009-.01c.026-.031.053-.062.083-.092.05-.054.1-.107.16-.159a2.666,2.666,0,0,1,.393-.3L29.432,0,29.6.528a2.327,2.327,0,0,1,.083.467,2.313,2.313,0,0,1-.133,1V2a2.515,2.515,0,0,1-.252.478A2.637,2.637,0,0,1,29,2.831a2.444,2.444,0,0,1-.359.312Z" transform="translate(-13.026 0)" fill="#fff"/>
    <path id="パス_5392" data-name="パス 5392" d="M35.167,84.968a2.27,2.27,0,0,0,.112.249,2.235,2.235,0,0,0,.137.213,2.7,2.7,0,0,0,.291.338,2.463,2.463,0,0,0,.335.283,2.992,2.992,0,0,0,.006-.453,3.055,3.055,0,0,0-.2-.962,2.349,2.349,0,0,0-.113-.24c-.02-.037-.042-.073-.062-.108s-.042-.072-.063-.105a2.881,2.881,0,0,0-.253-.344,2.222,2.222,0,0,0-.291-.284,2.793,2.793,0,0,0,.1,1.414" transform="translate(-16.379 -39.081)" fill="#fff"/>
    <path id="パス_5393" data-name="パス 5393" d="M36.005,86.142l-.588-.387a2.818,2.818,0,0,1-.4-.337,3.112,3.112,0,0,1-.336-.393,2.6,2.6,0,0,1-.164-.258l0-.007a2.6,2.6,0,0,1-.135-.3,2.972,2.972,0,0,1-.177-1.134,3.052,3.052,0,0,1,.057-.525l.147-.661.54.41a2.6,2.6,0,0,1,.355.346,3.193,3.193,0,0,1,.293.4c.024.038.047.077.069.114s.048.083.07.125a2.764,2.764,0,0,1,.134.284,3.44,3.44,0,0,1,.23,1.1,3.4,3.4,0,0,1-.009.525Z" transform="translate(-15.996 -38.42)" fill="#fff"/>
    <path id="パス_5394" data-name="パス 5394" d="M29.39,82.084a2.256,2.256,0,0,0,.171.494,2.524,2.524,0,0,0,.235.37,2.377,2.377,0,0,0,.291.321,3.182,3.182,0,0,0,.025-1.4c-.01-.044-.022-.086-.035-.128s-.024-.083-.038-.125c-.027-.083-.057-.158-.089-.23a2.689,2.689,0,0,0-.2-.369A2.109,2.109,0,0,0,29.5,80.7a2.506,2.506,0,0,0-.113.425,2.473,2.473,0,0,0,0,.963" transform="translate(-13.725 -37.744)" fill="#fff"/>
    <path id="パス_5395" data-name="パス 5395" d="M29.933,83.368l-.517-.453a2.744,2.744,0,0,1-.348-.385,2.9,2.9,0,0,1-.275-.434l-.006-.01a2.724,2.724,0,0,1-.2-.59,2.878,2.878,0,0,1,0-1.135,2.987,2.987,0,0,1,.136-.5l.242-.616.467.468a2.539,2.539,0,0,1,.3.388,3.125,3.125,0,0,1,.233.43c.039.088.074.179.1.269.017.048.03.1.042.139s.029.1.042.15a3.584,3.584,0,0,1-.029,1.622Z" transform="translate(-13.342 -37.063)" fill="#fff"/>
    <path id="パス_5396" data-name="パス 5396" d="M24.062,78.368a2.151,2.151,0,0,0,.1.505c.024.077.051.15.079.218a1.949,1.949,0,0,0,.092.183,2.293,2.293,0,0,0,.238.353,2.777,2.777,0,0,0,.141-.415,3.273,3.273,0,0,0,.084-.435,2.952,2.952,0,0,0,.013-.513,2.5,2.5,0,0,0-.23-.884c-.049-.109-.1-.192-.135-.254a.881.881,0,0,0-.057-.094,2.514,2.514,0,0,0-.18.4,2.377,2.377,0,0,0-.142.936" transform="translate(-11.253 -36.029)" fill="#fff"/>
    <path id="パス_5397" data-name="パス 5397" d="M24.3,79.706l-.44-.508a2.717,2.717,0,0,1-.291-.425l0-.009a2.227,2.227,0,0,1-.108-.217v0a2.659,2.659,0,0,1-.093-.255,2.6,2.6,0,0,1-.116-.605,2.779,2.779,0,0,1,.166-1.111,3.05,3.05,0,0,1,.216-.477l.347-.587.384.564c.005.008.035.053.077.127l0,.006.027.049c.032.056.076.134.119.229a2.949,2.949,0,0,1,.269,1.037v0a3.307,3.307,0,0,1-.017.59,3.524,3.524,0,0,1-.094.492,3.2,3.2,0,0,1-.166.487Z" transform="translate(-10.872 -35.318)" fill="#fff"/>
    <path id="パス_5398" data-name="パス 5398" d="M19.322,73.9a2.314,2.314,0,0,0,.125.923,1.986,1.986,0,0,0,.124.277c.035.065.059.1.059.1a2.746,2.746,0,0,0,.2-.384,2.968,2.968,0,0,0,.147-.41,2.656,2.656,0,0,0,.1-.5,2.4,2.4,0,0,0-.1-.892c-.035-.112-.064-.207-.09-.272s-.042-.1-.042-.1a2.559,2.559,0,0,0-.237.364,2.718,2.718,0,0,0-.18.4,2.072,2.072,0,0,0-.1.494" transform="translate(-9.035 -33.976)" fill="#fff"/>
    <path id="パス_5399" data-name="パス 5399" d="M19.246,75.3l-.358-.551c-.005-.009-.035-.056-.077-.134L18.8,74.6a2.392,2.392,0,0,1-.144-.325v0a2.711,2.711,0,0,1-.147-1.1,2.513,2.513,0,0,1,.125-.6v-.005a3.141,3.141,0,0,1,.207-.466,2.911,2.911,0,0,1,.284-.432l.425-.514.3.6c0,.009.028.055.057.132s.056.159.087.26l.014.045a2.849,2.849,0,0,1,.117,1.057,3.072,3.072,0,0,1-.111.584,3.575,3.575,0,0,1-.166.467,3.167,3.167,0,0,1-.239.45Z" transform="translate(-8.655 -33.282)" fill="#fff"/>
    <path id="パス_5400" data-name="パス 5400" d="M15.287,68.79a2.241,2.241,0,0,0-.009.916,1.739,1.739,0,0,0,.076.293c.024.069.042.107.042.107a2.627,2.627,0,0,0,.257-.342,2.833,2.833,0,0,0,.381-.855,2.23,2.23,0,0,0,.06-.482,2.113,2.113,0,0,0-.007-.213c-.007-.067-.013-.129-.018-.188a2.063,2.063,0,0,0-.076-.384,2.434,2.434,0,0,0-.287.318,2.6,2.6,0,0,0-.237.364,2.141,2.141,0,0,0-.105.224,1.845,1.845,0,0,0-.076.244" transform="translate(-7.126 -31.638)" fill="#fff"/>
    <path id="パス_5401" data-name="パス 5401" d="M14.9,70.207l-.272-.581c0-.01-.026-.057-.054-.136a2.165,2.165,0,0,1-.1-.365v0a2.645,2.645,0,0,1,.014-1.095,2.37,2.37,0,0,1,.094-.3l0-.006a2.866,2.866,0,0,1,.124-.266,3.172,3.172,0,0,1,.275-.424,3.06,3.06,0,0,1,.345-.378l.491-.432.208.622a2.515,2.515,0,0,1,.095.474v.007c0,.023,0,.047.006.072s.009.078.012.12v0c.006.082.009.168.007.251a2.6,2.6,0,0,1-.071.577,3.246,3.246,0,0,1-.438.989,2.985,2.985,0,0,1-.3.4Z" transform="translate(-6.746 -30.973)" fill="#fff"/>
    <path id="パス_5402" data-name="パス 5402" d="M12.053,63.143a2.172,2.172,0,0,0-.141.89,2.553,2.553,0,0,0,.029.3.735.735,0,0,0,.024.112,2.914,2.914,0,0,0,.81-1.069,2.1,2.1,0,0,0,.128-.461c.012-.072.02-.142.024-.208s.011-.13.013-.188a2.041,2.041,0,0,0-.019-.386,2.414,2.414,0,0,0-.332.266,2.617,2.617,0,0,0-.286.318,2.168,2.168,0,0,0-.136.2,1.5,1.5,0,0,0-.114.226" transform="translate(-5.57 -29.06)" fill="#fff"/>
    <path id="パス_5403" data-name="パス 5403" d="M11.373,64.534l-.2-.574a1.133,1.133,0,0,1-.042-.187,2.923,2.923,0,0,1-.034-.347,2.543,2.543,0,0,1,.172-1.068,1.893,1.893,0,0,1,.145-.29,2.5,2.5,0,0,1,.162-.241,3.037,3.037,0,0,1,.335-.372,2.822,2.822,0,0,1,.4-.316l.544-.343.113.633a2.384,2.384,0,0,1,.027.477c0,.06-.006.12-.012.179l0,.028a2.407,2.407,0,0,1-.028.245,2.6,2.6,0,0,1-.153.555,3.092,3.092,0,0,1-.582.9,3.166,3.166,0,0,1-.361.345Z" transform="translate(-5.19 -28.435)" fill="#fff"/>
    <path id="パス_5404" data-name="パス 5404" d="M9.695,57.083a2.116,2.116,0,0,0-.267.848,2.2,2.2,0,0,0-.009.41,2.834,2.834,0,0,0,.954-.919,2.056,2.056,0,0,0,.192-.431c.022-.069.039-.137.053-.2s.029-.124.039-.183a2,2,0,0,0,.036-.382,2.429,2.429,0,0,0-.364.208A2.581,2.581,0,0,0,10,56.7a2.336,2.336,0,0,0-.163.177,1.46,1.46,0,0,0-.144.207" transform="translate(-4.403 -26.298)" fill="#fff"/>
    <path id="パス_5405" data-name="パス 5405" d="M8.675,58.466l-.066-.648a2.641,2.641,0,0,1,.009-.5A2.511,2.511,0,0,1,8.942,56.3a1.847,1.847,0,0,1,.186-.263,2.616,2.616,0,0,1,.2-.211,2.989,2.989,0,0,1,.383-.312,2.863,2.863,0,0,1,.437-.249l.581-.251.021.633a2.3,2.3,0,0,1-.042.472c-.009.051-.02.1-.03.147,0,.017-.009.035-.012.052a2.347,2.347,0,0,1-.063.238,2.447,2.447,0,0,1-.233.522,2.977,2.977,0,0,1-.708.795,3.054,3.054,0,0,1-.411.284Z" transform="translate(-4.023 -25.731)" fill="#fff"/>
    <path id="パス_5406" data-name="パス 5406" d="M8.265,50.771a2.058,2.058,0,0,0-.384.788,2.4,2.4,0,0,0-.056.287c-.005.035-.008.063-.009.083a.135.135,0,0,0,0,.029s.042-.014.107-.044a2.964,2.964,0,0,0,.269-.137,2.535,2.535,0,0,0,.694-.569,1.993,1.993,0,0,0,.249-.392c.032-.064.059-.127.083-.187s.046-.119.064-.172a1.9,1.9,0,0,0,.09-.367,2.394,2.394,0,0,0-.387.147,2.481,2.481,0,0,0-.36.21,2.053,2.053,0,0,0-.186.147,1.428,1.428,0,0,0-.174.176" transform="translate(-3.656 -23.428)" fill="#fff"/>
    <path id="パス_5407" data-name="パス 5407" d="M7.03,52.055,7,51.474a.728.728,0,0,1,0-.09c0-.031.006-.065.011-.1a2.945,2.945,0,0,1,.065-.339,2.472,2.472,0,0,1,.467-.954,1.923,1.923,0,0,1,.222-.229,2.524,2.524,0,0,1,.222-.176,2.853,2.853,0,0,1,.424-.246,2.771,2.771,0,0,1,.466-.177l.605-.154-.068.623a2.354,2.354,0,0,1-.11.456c-.014.044-.03.086-.045.125-.008.02-.015.039-.023.06v0c-.029.077-.062.152-.1.225a2.414,2.414,0,0,1-.3.476,2.915,2.915,0,0,1-.813.67,3.446,3.446,0,0,1-.309.158c-.078.035-.128.053-.137.055Z" transform="translate(-3.275 -22.922)" fill="#fff"/>
    <path id="パス_5408" data-name="パス 5408" d="M7.84,44.343a1.989,1.989,0,0,0-.488.711,2.129,2.129,0,0,0-.122.381,2.481,2.481,0,0,0,.4-.117,2.454,2.454,0,0,0,.762-.448,2.351,2.351,0,0,0,.5-.674,1.92,1.92,0,0,0,.139-.347,2.329,2.329,0,0,0-.4.083,2.154,2.154,0,0,0-.784.411" transform="translate(-3.381 -20.509)" fill="#fff"/>
    <path id="パス_5409" data-name="パス 5409" d="M6.209,45.546l.118-.62a2.484,2.484,0,0,1,.148-.467,2.388,2.388,0,0,1,.6-.867l.007-.006a2.54,2.54,0,0,1,.942-.5,2.72,2.72,0,0,1,.484-.1l.611-.055-.152.593a2.282,2.282,0,0,1-.173.436l0,.009a2.736,2.736,0,0,1-.59.791,2.825,2.825,0,0,1-.9.529,2.9,2.9,0,0,1-.471.138Z" transform="translate(-2.904 -20.081)" fill="#fff"/>
    <path id="パス_5410" data-name="パス 5410" d="M8.45,37.952a1.642,1.642,0,0,0-.195.142,1.833,1.833,0,0,0-.157.158,2.207,2.207,0,0,0-.232.32,2.077,2.077,0,0,0-.172.354,2.392,2.392,0,0,0,.4-.052,2.349,2.349,0,0,0,.807-.319,1.837,1.837,0,0,0,.342-.29,2.213,2.213,0,0,0,.244-.293,1.854,1.854,0,0,0,.184-.32,2.218,2.218,0,0,0-.4.02,2.07,2.07,0,0,0-.821.279" transform="translate(-3.599 -17.61)" fill="#fff"/>
    <path id="パス_5411" data-name="パス 5411" d="M6.552,38.992l.2-.584a2.473,2.473,0,0,1,.211-.438,2.652,2.652,0,0,1,.278-.383,2.5,2.5,0,0,1,.194-.2l.006-.005a2.085,2.085,0,0,1,.246-.18,2.46,2.46,0,0,1,1-.342,2.683,2.683,0,0,1,.489-.022l.6.042-.227.554a2.228,2.228,0,0,1-.23.4,2.577,2.577,0,0,1-.287.344,2.306,2.306,0,0,1-.415.353,2.742,2.742,0,0,1-.957.381,2.831,2.831,0,0,1-.483.061Z" transform="translate(-3.065 -17.23)" fill="#fff"/>
    <path id="パス_5412" data-name="パス 5412" d="M10.077,31.7a1.74,1.74,0,0,0-.393.238,2.122,2.122,0,0,0-.27.279,2.026,2.026,0,0,0-.217.323,2.342,2.342,0,0,0,.4.012,2.266,2.266,0,0,0,.83-.188,1.742,1.742,0,0,0,.2-.11,2.063,2.063,0,0,0,.181-.121,2.112,2.112,0,0,0,.278-.252,1.775,1.775,0,0,0,.224-.288,2.24,2.24,0,0,0-.395-.042,1.994,1.994,0,0,0-.839.147" transform="translate(-4.302 -14.759)" fill="#fff"/>
    <path id="パス_5413" data-name="パス 5413" d="M8.893,32.613a2.5,2.5,0,0,1-.334-.02l-.6-.083.27-.539a2.372,2.372,0,0,1,.267-.4,2.556,2.556,0,0,1,.325-.336l.011-.009a2.177,2.177,0,0,1,.491-.3,2.39,2.39,0,0,1,1.023-.185,2.619,2.619,0,0,1,.482.054l.57.132-.293.507a2.2,2.2,0,0,1-.28.366,2.619,2.619,0,0,1-.335.3,2.457,2.457,0,0,1-.216.145,2.23,2.23,0,0,1-.245.134,2.639,2.639,0,0,1-.993.227l-.146,0" transform="translate(-3.724 -14.378)" fill="#fff"/>
    <path id="パス_5414" data-name="パス 5414" d="M12.672,25.734a1.669,1.669,0,0,0-.415.176,2.02,2.02,0,0,0-.171.112,1.615,1.615,0,0,0-.138.118,1.973,1.973,0,0,0-.255.286,2.355,2.355,0,0,0,.388.075,2.2,2.2,0,0,0,.835-.057,1.937,1.937,0,0,0,.715-.374,1.713,1.713,0,0,0,.256-.252,2.253,2.253,0,0,0-.378-.1,1.936,1.936,0,0,0-.836.02" transform="translate(-5.469 -12.01)" fill="#fff"/>
    <path id="パス_5415" data-name="パス 5415" d="M11.755,26.566a2.92,2.92,0,0,1-.327-.018,2.682,2.682,0,0,1-.468-.091l-.561-.174.332-.484a2.369,2.369,0,0,1,.316-.357l0,0a1.983,1.983,0,0,1,.174-.147l0,0c.068-.049.138-.095.208-.136a2.159,2.159,0,0,1,.521-.22,2.316,2.316,0,0,1,1.027-.027,2.529,2.529,0,0,1,.462.127l.529.215-.349.452a2.192,2.192,0,0,1-.325.323,2.369,2.369,0,0,1-.871.456,2.449,2.449,0,0,1-.672.088" transform="translate(-4.864 -11.628)" fill="#fff"/>
    <path id="パス_5416" data-name="パス 5416" d="M16.179,20.19a1.833,1.833,0,0,0-.765.291.986.986,0,0,0-.124.09c-.036.029-.066.055-.09.078-.05.045-.076.075-.076.075a2.22,2.22,0,0,0,.366.132,2.411,2.411,0,0,0,.378.073,2,2,0,0,0,.448,0,1.854,1.854,0,0,0,.747-.264c.09-.055.159-.109.212-.145a.592.592,0,0,0,.079-.062A2.168,2.168,0,0,0,17,20.3a1.82,1.82,0,0,0-.818-.108" transform="translate(-7.074 -9.439)" fill="#fff"/>
    <path id="パス_5417" data-name="パス 5417" d="M15.491,20.993a2.683,2.683,0,0,1-.293-.017,2.815,2.815,0,0,1-.447-.086,2.576,2.576,0,0,1-.444-.162l-.512-.254.384-.424c.007-.007.042-.047.1-.1.034-.031.07-.063.107-.093a1.609,1.609,0,0,1,.169-.125,2.112,2.112,0,0,1,1.959-.224,2.585,2.585,0,0,1,.433.2l.5.3-.44.39c-.01.009-.048.042-.11.087l-.011.007-.042.03c-.047.034-.111.081-.19.128a2.3,2.3,0,0,1-.921.324,2.185,2.185,0,0,1-.25.017" transform="translate(-6.453 -9.057)" fill="#fff"/>
    <path id="パス_5418" data-name="パス 5418" d="M20.514,15.213a1.763,1.763,0,0,0-.783.175,2.072,2.072,0,0,0-.239.129.635.635,0,0,0-.063.044l-.021.017a2.219,2.219,0,0,0,.335.187,2.131,2.131,0,0,0,.8.2,2.186,2.186,0,0,0,1.078-.31,2.25,2.25,0,0,0-.673-.366,1.466,1.466,0,0,0-.431-.079" transform="translate(-9.078 -7.115)" fill="#fff"/>
    <path id="パス_5419" data-name="パス 5419" d="M19.958,16.022h-.064a2.567,2.567,0,0,1-.962-.243,2.623,2.623,0,0,1-.407-.228l-.468-.334.49-.388c.028-.021.057-.042.088-.06a2.472,2.472,0,0,1,.284-.154A2.165,2.165,0,0,1,19.9,14.4a1.912,1.912,0,0,1,.555.1,2.6,2.6,0,0,1,.422.185,2.56,2.56,0,0,1,.394.262l.44.373-.48.319a2.631,2.631,0,0,1-1.267.383Z" transform="translate(-8.446 -6.735)" fill="#fff"/>
    <path id="パス_5420" data-name="パス 5420" d="M25.587,10.93a1.7,1.7,0,0,0-.785.059,1.89,1.89,0,0,0-.344.139,2.191,2.191,0,0,0,.3.237,2.038,2.038,0,0,0,.741.317,1.594,1.594,0,0,0,.415.02,1.61,1.61,0,0,0,.183-.024c.058-.01.114-.019.166-.031a1.7,1.7,0,0,0,.332-.109,2.029,2.029,0,0,0-.279-.257,1.825,1.825,0,0,0-.728-.351" transform="translate(-11.44 -5.102)" fill="#fff"/>
    <path id="パス_5421" data-name="パス 5421" d="M25.156,11.762a2,2,0,0,1-.361-.032,2.487,2.487,0,0,1-.9-.383,2.587,2.587,0,0,1-.364-.291l-.406-.4.5-.281a2.283,2.283,0,0,1,.431-.176,2.092,2.092,0,0,1,.988-.071h.01a2.22,2.22,0,0,1,.9.433,2.433,2.433,0,0,1,.344.318l.364.425-.5.245a2.086,2.086,0,0,1-.424.142c-.062.015-.125.025-.184.035h0c-.075.014-.149.024-.225.03a1.59,1.59,0,0,1-.167.009" transform="translate(-10.815 -4.722)" fill="#fff"/>
    <path id="パス_5422" data-name="パス 5422" d="M31.286,7.451a1.3,1.3,0,0,0-.411-.08,1.871,1.871,0,0,0-.362.021,1.819,1.819,0,0,0-.356.088,2.132,2.132,0,0,0,.254.278,1.956,1.956,0,0,0,.67.42,1.53,1.53,0,0,0,.4.079l.093,0,.09,0c.059,0,.114,0,.166-.007a1.6,1.6,0,0,0,.34-.061,2.067,2.067,0,0,0-.233-.294,1.761,1.761,0,0,0-.651-.452" transform="translate(-14.105 -3.447)" fill="#fff"/>
    <path id="パス_5423" data-name="パス 5423" d="M31.075,8.316h-.008c-.035,0-.07,0-.1,0s-.068,0-.106,0a1.968,1.968,0,0,1-.514-.1,2.409,2.409,0,0,1-.823-.513,2.559,2.559,0,0,1-.31-.342L28.883,6.9l.521-.2a2.233,2.233,0,0,1,.448-.112,2.264,2.264,0,0,1,.445-.026,1.714,1.714,0,0,1,.547.108,2.176,2.176,0,0,1,.814.56,2.535,2.535,0,0,1,.286.366l.285.468-.521.169a2.11,2.11,0,0,1-.438.08,1.577,1.577,0,0,1-.194.008" transform="translate(-13.509 -3.066)" fill="#fff"/>
    <path id="パス_5424" data-name="パス 5424" d="M35.026,3.384a2.8,2.8,0,0,1-.821.139,2.3,2.3,0,0,1-.378-.023,2.162,2.162,0,0,1,.255-.281,1.984,1.984,0,0,1,.719-.452,2.334,2.334,0,0,1,.84-.12,1.62,1.62,0,0,1,.274.032c.067.012.1.023.1.023s-.025.028-.072.075-.118.106-.2.182a2.294,2.294,0,0,1-.718.425" transform="translate(-15.822 -1.238)" fill="#fff"/>
    <path id="パス_5425" data-name="パス 5425" d="M33.5,3.576a2.648,2.648,0,0,1-.415-.03l-.68-.117.4-.562a2.558,2.558,0,0,1,.311-.345A2.387,2.387,0,0,1,34,1.977a2.783,2.783,0,0,1,.991-.143,2.009,2.009,0,0,1,.319.036l.025,0c.079.015.129.029.138.031l.664.185-.457.518c-.006.007-.039.042-.094.1s-.094.087-.152.137l-.069.061-.006,0a2.7,2.7,0,0,1-.856.5l-.008,0a3.249,3.249,0,0,1-.951.161Z" transform="translate(-15.159 -0.857)" fill="#fff"/>
    <path id="パス_5426" data-name="パス 5426" d="M242.191,91.617a2.506,2.506,0,0,0-.277-.083c-.092-.024-.183-.045-.27-.061a3.521,3.521,0,0,0-.479-.051,2.849,2.849,0,0,0-.467.018,2.324,2.324,0,0,0,.292.345,2.546,2.546,0,0,0,.856.568,2.386,2.386,0,0,0,.284.091c.047.012.094.023.141.032s.092.014.137.02a3.308,3.308,0,0,0,.5.02,3.135,3.135,0,0,0,.5-.053,2.653,2.653,0,0,0-.328-.323,2.988,2.988,0,0,0-.886-.525" transform="translate(-112.582 -42.76)" fill="#fff"/>
    <path id="パス_5427" data-name="パス 5427" d="M242.148,92.576c.044,0,.087,0,.131,0a3.46,3.46,0,0,0,.574-.063l.687-.149-.441-.547a3.04,3.04,0,0,0-.386-.382,3.428,3.428,0,0,0-1.017-.6,3.006,3.006,0,0,0-.318-.1c-.107-.028-.207-.051-.3-.067a3.907,3.907,0,0,0-.54-.057,3.269,3.269,0,0,0-.545.022l-.668.1.367.566a2.71,2.71,0,0,0,.351.417,2.941,2.941,0,0,0,1,.664,2.868,2.868,0,0,0,.332.108c.054.014.109.026.163.037h.009c.06.011.115.018.162.024a3.634,3.634,0,0,0,.437.028" transform="translate(-111.939 -42.381)" fill="#fff"/>
    <path id="パス_5428" data-name="パス 5428" d="M248.832,88.343a2.706,2.706,0,0,0-.552-.052,3.469,3.469,0,0,0-.476.021,2.829,2.829,0,0,0-.457.086,2.347,2.347,0,0,0,.337.3,2.509,2.509,0,0,0,.92.433c.049.011.1.021.146.029s.1.012.143.015a2.535,2.535,0,0,0,.277.006,3.247,3.247,0,0,0,.492-.053,3.1,3.1,0,0,0,.479-.125,2.616,2.616,0,0,0-.368-.27,2.936,2.936,0,0,0-.942-.387" transform="translate(-115.692 -41.296)" fill="#fff"/>
    <path id="パス_5429" data-name="パス 5429" d="M248.42,89.233h.092a3.7,3.7,0,0,0,.558-.06,3.419,3.419,0,0,0,.554-.146l.653-.249-.512-.475a3.021,3.021,0,0,0-.433-.32,3.4,3.4,0,0,0-1.085-.443,3.1,3.1,0,0,0-.634-.061,4,4,0,0,0-.53.024,3.226,3.226,0,0,0-.531.1l-.642.2.443.5a2.755,2.755,0,0,0,.4.359,2.909,2.909,0,0,0,1.079.507c.057.013.115.024.173.034h.006c.065.01.125.015.172.019.077.007.154.01.233.01" transform="translate(-115.019 -40.916)" fill="#fff"/>
    <path id="パス_5430" data-name="パス 5430" d="M254.912,84.022a2.615,2.615,0,0,0-.547.029c-.083.013-.166.029-.241.047s-.149.034-.216.052a2.78,2.78,0,0,0-.433.151,2.265,2.265,0,0,0,.373.243,2.643,2.643,0,0,0,.423.181,2.092,2.092,0,0,0,.539.106,2.763,2.763,0,0,0,1.031-.161,2.564,2.564,0,0,0,.326-.134c.076-.039.119-.065.119-.065a2.468,2.468,0,0,0-.394-.208,2.912,2.912,0,0,0-.979-.241" transform="translate(-118.558 -39.298)" fill="#fff"/>
    <path id="パス_5431" data-name="パス 5431" d="M254.235,84.89a3.24,3.24,0,0,0,1.052-.188h0a2.865,2.865,0,0,0,.383-.159c.083-.044.135-.075.145-.08l.565-.349-.548-.376a2.889,2.889,0,0,0-.469-.249,3.3,3.3,0,0,0-1.124-.276,3.114,3.114,0,0,0-.637.034c-.091.014-.183.032-.274.054l-.052.012c-.059.013-.119.028-.179.044a3.2,3.2,0,0,0-.505.178l-.6.287.51.433a2.749,2.749,0,0,0,.449.294,3.109,3.109,0,0,0,.492.211,2.519,2.519,0,0,0,.651.127c.047,0,.094,0,.142,0" transform="translate(-117.864 -38.919)" fill="#fff"/>
    <path id="パス_5432" data-name="パス 5432" d="M260.283,78.8a2.83,2.83,0,0,0-.958.279c-.121.057-.224.108-.293.149s-.108.065-.108.065a2.288,2.288,0,0,0,.4.184,2.609,2.609,0,0,0,.44.117,2.118,2.118,0,0,0,.535.019,2.734,2.734,0,0,0,.985-.31,2.358,2.358,0,0,0,.291-.186c.069-.05.106-.083.106-.083a2.445,2.445,0,0,0-.415-.145,2.906,2.906,0,0,0-.443-.081,2.634,2.634,0,0,0-.542-.006" transform="translate(-121.107 -36.85)" fill="#fff"/>
    <path id="パス_5433" data-name="パス 5433" d="M259.409,79.67c.078,0,.156,0,.233-.011a3.113,3.113,0,0,0,1.147-.358,2.668,2.668,0,0,0,.318-.2l.028-.02a1.657,1.657,0,0,0,.132-.1l.5-.427-.592-.29a2.873,2.873,0,0,0-.5-.176,3.421,3.421,0,0,0-.507-.093,3.036,3.036,0,0,0-.63-.009,3.22,3.22,0,0,0-1.1.32c-.154.073-.249.125-.322.166s-.124.076-.135.083l-.55.373.564.352a2.624,2.624,0,0,0,.484.224,3.06,3.06,0,0,0,.513.136h0a2.565,2.565,0,0,0,.414.031" transform="translate(-120.409 -36.47)" fill="#fff"/>
    <path id="パス_5434" data-name="パス 5434" d="M264.825,72.769a2.781,2.781,0,0,0-.894.415c-.11.075-.193.147-.257.194a.945.945,0,0,0-.1.08,2.307,2.307,0,0,0,.419.122,2.241,2.241,0,0,0,.966-.016,2.344,2.344,0,0,0,.51-.2c.077-.041.15-.083.218-.124a1.772,1.772,0,0,0,.184-.13,2.882,2.882,0,0,0,.346-.323,2.439,2.439,0,0,0-.428-.083,2.881,2.881,0,0,0-.444-.014,2.538,2.538,0,0,0-.253.024,2.6,2.6,0,0,0-.271.051" transform="translate(-123.284 -33.999)" fill="#fff"/>
    <path id="パス_5435" data-name="パス 5435" d="M263.766,73.679a2.581,2.581,0,0,0,.616-.073,2.77,2.77,0,0,0,.605-.232,2.855,2.855,0,0,0,.249-.144,2.159,2.159,0,0,0,.226-.16,3.245,3.245,0,0,0,.4-.377l.426-.5-.622-.2a2.806,2.806,0,0,0-.513-.1,3.29,3.29,0,0,0-.512-.016c-.1,0-.2.014-.294.028a3.026,3.026,0,0,0-.316.06,3.169,3.169,0,0,0-1.035.479c-.086.059-.156.114-.212.159l-.059.046-.01.007c-.071.057-.113.1-.121.1l-.484.45.606.264a2.713,2.713,0,0,0,.508.149,2.742,2.742,0,0,0,.54.053" transform="translate(-122.598 -33.619)" fill="#fff"/>
    <path id="パス_5436" data-name="パス 5436" d="M268.418,66.086a2.708,2.708,0,0,0-.81.54,2.785,2.785,0,0,0-.218.23l-.079.095a2.117,2.117,0,0,0,.425.056,2.219,2.219,0,0,0,.938-.158,2.291,2.291,0,0,0,.468-.267c.069-.051.134-.1.193-.155a1.959,1.959,0,0,0,.156-.157,2.768,2.768,0,0,0,.291-.368,2.378,2.378,0,0,0-.431-.02,2.742,2.742,0,0,0-.436.051,2.435,2.435,0,0,0-.244.061c-.084.027-.167.057-.254.093" transform="translate(-125.03 -30.814)" fill="#fff"/>
    <path id="パス_5437" data-name="パス 5437" d="M267.169,67.064a2.593,2.593,0,0,0,1-.193,2.736,2.736,0,0,0,.557-.318c.075-.055.15-.115.223-.179l0,0a2.608,2.608,0,0,0,.185-.185v0a3.277,3.277,0,0,0,.337-.433l.34-.548-.637-.106a2.763,2.763,0,0,0-.518-.025,3.22,3.22,0,0,0-.5.058c-.1.019-.192.044-.286.072s-.184.062-.291.1h0a3.111,3.111,0,0,0-.942.626,3.26,3.26,0,0,0-.249.266l-.08.1-.428.518.648.176a2.569,2.569,0,0,0,.521.071c.044,0,.084,0,.124,0" transform="translate(-124.358 -30.434)" fill="#fff"/>
    <path id="パス_5438" data-name="パス 5438" d="M270.984,58.926a2.623,2.623,0,0,0-.705.648,2.48,2.48,0,0,0-.236.364,2.1,2.1,0,0,0,.421-.007,2.165,2.165,0,0,0,.892-.291,2.213,2.213,0,0,0,.415-.329c.06-.06.114-.12.166-.18a2.061,2.061,0,0,0,.128-.176,2.678,2.678,0,0,0,.224-.4,2.258,2.258,0,0,0-.423.042,2.649,2.649,0,0,0-.418.111,2.366,2.366,0,0,0-.228.095c-.079.037-.154.079-.234.127" transform="translate(-126.307 -27.386)" fill="#fff"/>
    <path id="パス_5439" data-name="パス 5439" d="M269.624,60a2.869,2.869,0,0,0,.3-.016,2.573,2.573,0,0,0,1.07-.351,2.64,2.64,0,0,0,.5-.394c.064-.064.129-.135.191-.208a2.178,2.178,0,0,0,.147-.2l.01-.014a3.147,3.147,0,0,0,.262-.474l.246-.586-.635-.014a2.7,2.7,0,0,0-.511.048,3.116,3.116,0,0,0-.486.13,2.824,2.824,0,0,0-.27.112c-.083.042-.171.088-.267.145h0a3.018,3.018,0,0,0-.826.755,2.945,2.945,0,0,0-.281.434l-.275.552.614.071a2.021,2.021,0,0,0,.212.011" transform="translate(-125.725 -27.007)" fill="#fff"/>
    <path id="パス_5440" data-name="パス 5440" d="M272.476,51.479a2.564,2.564,0,0,0-.59.738,2.8,2.8,0,0,0-.132.28c-.014.035-.025.063-.032.083l-.011.029a.942.942,0,0,0,.117-.01,2.312,2.312,0,0,0,.294-.056,2.121,2.121,0,0,0,.827-.415,2.162,2.162,0,0,0,.354-.384c.049-.067.094-.135.133-.2a1.909,1.909,0,0,0,.1-.192,2.6,2.6,0,0,0,.156-.427,2.227,2.227,0,0,0-.407.1,2.658,2.658,0,0,0-.392.169,2.361,2.361,0,0,0-.208.125c-.07.05-.138.1-.209.16" transform="translate(-127.088 -23.819)" fill="#fff"/>
    <path id="パス_5441" data-name="パス 5441" d="M270.536,52.615l.638-.018a1.552,1.552,0,0,0,.158-.013,2.7,2.7,0,0,0,.35-.067,2.509,2.509,0,0,0,1-.5,2.588,2.588,0,0,0,.426-.46c.053-.073.1-.151.153-.231a2.153,2.153,0,0,0,.111-.211l.012-.025a3.15,3.15,0,0,0,.184-.505l.148-.608-.622.076a2.637,2.637,0,0,0-.5.121,3.033,3.033,0,0,0-.456.2,2.685,2.685,0,0,0-.249.15c-.078.053-.155.112-.24.18l0,0a2.96,2.96,0,0,0-.691.863,3.106,3.106,0,0,0-.153.324c-.014.034-.027.067-.037.1Z" transform="translate(-126.538 -23.376)" fill="#fff"/>
    <path id="パス_5442" data-name="パス 5442" d="M272.859,43.927a2.518,2.518,0,0,0-.463.809,2.413,2.413,0,0,0-.109.409,2.023,2.023,0,0,0,.391-.125,2.051,2.051,0,0,0,.747-.524,2.153,2.153,0,0,0,.45-.845,2.59,2.59,0,0,0,.087-.441,2.23,2.23,0,0,0-.384.158,2.328,2.328,0,0,0-.72.559" transform="translate(-127.357 -20.21)" fill="#fff"/>
    <path id="パス_5443" data-name="パス 5443" d="M271.319,45.169l.591-.105a2.475,2.475,0,0,0,1.929-1.807,3.047,3.047,0,0,0,.1-.518l.052-.616-.6.163a2.664,2.664,0,0,0-.467.19,2.785,2.785,0,0,0-.85.664,2.958,2.958,0,0,0-.539.945,2.847,2.847,0,0,0-.13.491Z" transform="translate(-126.904 -19.702)" fill="#fff"/>
    <path id="パス_5444" data-name="パス 5444" d="M272.107,36.461a2.168,2.168,0,0,0-.117.223,2.284,2.284,0,0,0-.094.224,2.662,2.662,0,0,0-.111.41,2.365,2.365,0,0,0-.045.415,2.145,2.145,0,0,0,1.017-.8,2.056,2.056,0,0,0,.217-.459,2.7,2.7,0,0,0,.088-.431,2.629,2.629,0,0,0,.019-.444,2.159,2.159,0,0,0-.353.208,2.283,2.283,0,0,0-.62.654" transform="translate(-127.101 -16.651)" fill="#fff"/>
    <path id="パス_5445" data-name="パス 5445" d="M270.936,37.771l.565-.189a2.57,2.57,0,0,0,1.245-.976,2.486,2.486,0,0,0,.263-.556l0-.013a3.045,3.045,0,0,0,.1-.5,2.907,2.907,0,0,0,.021-.527L273.1,34.4l-.562.245a2.564,2.564,0,0,0-.432.254,2.5,2.5,0,0,0-.878,1.041,2.545,2.545,0,0,0-.11.261,3.148,3.148,0,0,0-.129.476,2.728,2.728,0,0,0-.052.5Z" transform="translate(-126.724 -16.088)" fill="#fff"/>
    <path id="パス_5446" data-name="パス 5446" d="M270.231,29.252a2.066,2.066,0,0,0-.131.464,2.591,2.591,0,0,0-.047.415,2.3,2.3,0,0,0,.019.415,2.115,2.115,0,0,0,.878-.928,1.82,1.82,0,0,0,.088-.24,1.909,1.909,0,0,0,.047-.237,2.5,2.5,0,0,0,.023-.433,2.555,2.555,0,0,0-.047-.436,2.027,2.027,0,0,0-.316.255,2.225,2.225,0,0,0-.513.725" transform="translate(-126.311 -13.223)" fill="#fff"/>
    <path id="パス_5447" data-name="パス 5447" d="M269.36,30.6l.527-.267a2.541,2.541,0,0,0,1.079-1.136,2.325,2.325,0,0,0,.109-.3l0-.012a2.611,2.611,0,0,0,.057-.286,3.034,3.034,0,0,0,.027-.506,2.929,2.929,0,0,0-.059-.519l-.134-.593-.516.32a2.564,2.564,0,0,0-.388.311,2.674,2.674,0,0,0-.612.869,2.509,2.509,0,0,0-.159.555,3.017,3.017,0,0,0-.054.479,2.688,2.688,0,0,0,.025.5Z" transform="translate(-125.931 -12.619)" fill="#fff"/>
    <path id="パス_5448" data-name="パス 5448" d="M267.248,22.465a1.985,1.985,0,0,0-.06.472,2.009,2.009,0,0,0,.007.215c.007.069.009.135.017.195a2.288,2.288,0,0,0,.08.4,1.961,1.961,0,0,0,.29-.27,1.928,1.928,0,0,0,.432-.762,2.162,2.162,0,0,0,.014-.907,2.539,2.539,0,0,0-.111-.419,2.131,2.131,0,0,0-.273.294,2.175,2.175,0,0,0-.4.781" transform="translate(-124.972 -10.004)" fill="#fff"/>
    <path id="パス_5449" data-name="パス 5449" d="M266.68,23.81l.48-.338a2.362,2.362,0,0,0,.365-.335,2.332,2.332,0,0,0,.527-.936v-.007a2.547,2.547,0,0,0,.021-1.093,2.88,2.88,0,0,0-.134-.5l-.219-.561-.461.387a2.478,2.478,0,0,0-.337.36,2.637,2.637,0,0,0-.476.939,2.4,2.4,0,0,0-.073.575c0,.083,0,.166.009.252v.024c0,.062.009.127.017.19a2.684,2.684,0,0,0,.1.484Z" transform="translate(-124.59 -9.374)" fill="#fff"/>
    <path id="パス_5450" data-name="パス 5450" d="M263.235,16.253a2.159,2.159,0,0,0,.1.862c.019.057.036.109.051.155s.031.087.044.12c.027.067.045.1.045.1a1.938,1.938,0,0,0,.249-.306,2.142,2.142,0,0,0,.189-.351,1.62,1.62,0,0,0,.115-.45,2.125,2.125,0,0,0-.119-.888,1.907,1.907,0,0,0-.118-.284c-.035-.066-.059-.1-.059-.1a2,2,0,0,0-.222.324,2.168,2.168,0,0,0-.275.818" transform="translate(-123.119 -7.068)" fill="#fff"/>
    <path id="パス_5451" data-name="パス 5451" d="M262.97,17.581l.424-.4a2.39,2.39,0,0,0,.31-.381,2.508,2.508,0,0,0,.229-.424,2.067,2.067,0,0,0,.146-.57,2.5,2.5,0,0,0-.14-1.074,2.3,2.3,0,0,0-.147-.35c-.042-.076-.069-.121-.074-.129l-.307-.483-.381.427a2.427,2.427,0,0,0-.277.4,2.57,2.57,0,0,0-.327.986,2.539,2.539,0,0,0,.118,1.037v0l.052.16c.017.048.034.1.052.142.032.079.056.128.06.137Z" transform="translate(-122.739 -6.44)" fill="#fff"/>
    <path id="パス_5452" data-name="パス 5452" d="M258.3,10.756a2.1,2.1,0,0,0,.225.827,2.49,2.49,0,0,0,.141.249c.02.029.034.053.044.069l.017.024a1.907,1.907,0,0,0,.2-.334,1.782,1.782,0,0,0,.176-.82,2.082,2.082,0,0,0-.249-.848,2.263,2.263,0,0,0-.238-.346,1.988,1.988,0,0,0-.171.348,2.181,2.181,0,0,0-.107.374,2.03,2.03,0,0,0-.034.458" transform="translate(-120.814 -4.479)" fill="#fff"/>
    <path id="パス_5453" data-name="パス 5453" d="M258.315,12.036l.368-.466a2.307,2.307,0,0,0,.249-.418,2.184,2.184,0,0,0,.217-1.022,2.462,2.462,0,0,0-.3-1.03l-.007-.014a2.7,2.7,0,0,0-.291-.418l-.374-.423-.312.47a2.383,2.383,0,0,0-.214.432,2.627,2.627,0,0,0-.129.448v0a2.374,2.374,0,0,0,.227,1.554,2.859,2.859,0,0,0,.166.294l0,.006a.323.323,0,0,1,.018.028l.026.042Z" transform="translate(-120.433 -3.856)" fill="#fff"/>
    <path id="パス_5454" data-name="パス 5454" d="M252.555,6.1a2.061,2.061,0,0,0,.342.773,2.146,2.146,0,0,0,.251.3,1.831,1.831,0,0,0,.144-.353,1.64,1.64,0,0,0-.1-1.265c-.033-.067-.069-.13-.1-.188a1.865,1.865,0,0,0-.114-.156,2.305,2.305,0,0,0-.285-.3,1.942,1.942,0,0,0-.118.365,1.917,1.917,0,0,0-.015.825" transform="translate(-118.11 -2.297)" fill="#fff"/>
    <path id="パス_5455" data-name="パス 5455" d="M252.873,7.258l.273-.475a2.225,2.225,0,0,0,.183-.444,2.148,2.148,0,0,0,.063-1.033,2.172,2.172,0,0,0-.189-.548c-.037-.075-.079-.151-.124-.226l0,0a2.251,2.251,0,0,0-.139-.192v0a2.646,2.646,0,0,0-.345-.362l-.43-.359-.24.506a2.5,2.5,0,0,0-.166,1.464,2.461,2.461,0,0,0,.411.934,2.55,2.55,0,0,0,.31.367Z" transform="translate(-117.732 -1.69)" fill="#fff"/>
    <path id="パス_5456" data-name="パス 5456" d="M246.132,2.41a2.091,2.091,0,0,0,.208.4,2.163,2.163,0,0,0,.244.3,2.036,2.036,0,0,0,.291.255A1.835,1.835,0,0,0,246.963,3a1.7,1.7,0,0,0-.069-.812,1.686,1.686,0,0,0-.214-.405c-.021-.03-.042-.059-.064-.087s-.045-.053-.068-.077c-.046-.049-.092-.094-.136-.134a2.226,2.226,0,0,0-.324-.249,1.883,1.883,0,0,0-.063.374,1.858,1.858,0,0,0,.106.8" transform="translate(-115.07 -0.576)" fill="#fff"/>
    <path id="パス_5457" data-name="パス 5457" d="M246.7,3.447l.2-.5a2.232,2.232,0,0,0,.115-.462,2.107,2.107,0,0,0-.09-1.02,2.129,2.129,0,0,0-.268-.508c-.029-.042-.055-.076-.08-.108l-.009-.01c-.026-.031-.053-.062-.083-.092-.05-.054-.1-.107-.16-.159a2.667,2.667,0,0,0-.393-.3L245.454,0l-.163.528a2.328,2.328,0,0,0-.083.467,2.313,2.313,0,0,0,.133,1V2a2.515,2.515,0,0,0,.252.478,2.637,2.637,0,0,0,.291.357,2.444,2.444,0,0,0,.359.312Z" transform="translate(-114.687 0)" fill="#fff"/>
    <path id="パス_5458" data-name="パス 5458" d="M240.424,84.968a2.273,2.273,0,0,1-.112.249,2.235,2.235,0,0,1-.137.213,2.7,2.7,0,0,1-.291.338,2.462,2.462,0,0,1-.335.283,2.992,2.992,0,0,1-.006-.453,3.055,3.055,0,0,1,.2-.962,2.345,2.345,0,0,1,.113-.24c.02-.037.042-.073.062-.108s.042-.072.063-.105a2.883,2.883,0,0,1,.253-.344,2.221,2.221,0,0,1,.291-.284,2.793,2.793,0,0,1-.1,1.414" transform="translate(-112.039 -39.081)" fill="#fff"/>
    <path id="パス_5459" data-name="パス 5459" d="M238.823,86.142l.588-.387a2.791,2.791,0,0,0,.4-.337,3.116,3.116,0,0,0,.336-.393,2.606,2.606,0,0,0,.164-.258l0-.007a2.51,2.51,0,0,0,.135-.3,2.962,2.962,0,0,0,.177-1.134,3.1,3.1,0,0,0-.058-.525l-.147-.661-.539.41a2.631,2.631,0,0,0-.356.346,3.247,3.247,0,0,0-.293.4c-.024.038-.047.077-.069.114s-.048.083-.07.125a2.657,2.657,0,0,0-.134.284,3.737,3.737,0,0,0-.222,1.627Z" transform="translate(-111.659 -38.42)" fill="#fff"/>
    <path id="パス_5460" data-name="パス 5460" d="M246.375,82.084a2.256,2.256,0,0,1-.171.494,2.524,2.524,0,0,1-.235.37,2.378,2.378,0,0,1-.291.321,3.182,3.182,0,0,1-.025-1.4c.01-.044.022-.086.035-.128s.025-.083.038-.125c.027-.083.057-.158.089-.23a2.685,2.685,0,0,1,.2-.369,2.108,2.108,0,0,1,.245-.317,2.505,2.505,0,0,1,.113.425,2.473,2.473,0,0,1,0,.963" transform="translate(-114.867 -37.744)" fill="#fff"/>
    <path id="パス_5461" data-name="パス 5461" d="M245.073,83.368l.517-.453a2.744,2.744,0,0,0,.348-.385,2.9,2.9,0,0,0,.275-.434l.006-.01a2.723,2.723,0,0,0,.2-.59,2.878,2.878,0,0,0,0-1.135,2.988,2.988,0,0,0-.136-.5l-.242-.616-.467.468a2.539,2.539,0,0,0-.3.388,3.128,3.128,0,0,0-.233.43c-.039.088-.074.179-.1.269-.017.048-.03.1-.042.139s-.029.1-.042.15a3.584,3.584,0,0,0,.029,1.622Z" transform="translate(-114.491 -37.063)" fill="#fff"/>
    <path id="パス_5462" data-name="パス 5462" d="M251.778,78.368a2.152,2.152,0,0,1-.1.505c-.024.077-.051.15-.079.218a1.948,1.948,0,0,1-.092.183,2.293,2.293,0,0,1-.238.353,2.776,2.776,0,0,1-.141-.415,3.272,3.272,0,0,1-.084-.435,2.954,2.954,0,0,1-.013-.513,2.5,2.5,0,0,1,.23-.884c.05-.109.1-.192.135-.254a.882.882,0,0,1,.057-.094,2.512,2.512,0,0,1,.18.4,2.377,2.377,0,0,1,.142.936" transform="translate(-117.414 -36.029)" fill="#fff"/>
    <path id="パス_5463" data-name="パス 5463" d="M250.78,79.706l.44-.508a2.716,2.716,0,0,0,.291-.425l0-.009a2.231,2.231,0,0,0,.108-.217v0a2.663,2.663,0,0,0,.093-.255,2.6,2.6,0,0,0,.115-.605,2.779,2.779,0,0,0-.166-1.111,3.051,3.051,0,0,0-.216-.477l-.347-.587-.384.564c-.005.008-.035.053-.077.127l0,.006-.027.049c-.032.056-.076.134-.119.229a2.949,2.949,0,0,0-.269,1.037v0a3.307,3.307,0,0,0,.017.59,3.523,3.523,0,0,0,.094.492,3.2,3.2,0,0,0,.166.487Z" transform="translate(-117.035 -35.318)" fill="#fff"/>
    <path id="パス_5464" data-name="パス 5464" d="M256.507,73.9a2.315,2.315,0,0,1-.125.923,1.99,1.99,0,0,1-.124.277c-.035.065-.059.1-.059.1a2.75,2.75,0,0,1-.2-.384,2.97,2.97,0,0,1-.147-.41,2.656,2.656,0,0,1-.1-.5,2.4,2.4,0,0,1,.1-.892c.035-.112.064-.207.09-.272s.042-.1.042-.1a2.563,2.563,0,0,1,.237.364,2.718,2.718,0,0,1,.18.4,2.072,2.072,0,0,1,.1.494" transform="translate(-119.621 -33.976)" fill="#fff"/>
    <path id="パス_5465" data-name="パス 5465" d="M255.825,75.3l.358-.551c.005-.009.035-.056.077-.134l.007-.014a2.389,2.389,0,0,0,.144-.325v0a2.712,2.712,0,0,0,.147-1.1,2.514,2.514,0,0,0-.125-.6v-.005a3.14,3.14,0,0,0-.207-.466,2.908,2.908,0,0,0-.284-.432l-.425-.514-.3.6c0,.009-.028.055-.057.132s-.056.159-.087.26l-.014.045a2.85,2.85,0,0,0-.117,1.057,3.074,3.074,0,0,0,.111.584,3.574,3.574,0,0,0,.166.467,3.165,3.165,0,0,0,.239.45Z" transform="translate(-119.242 -33.282)" fill="#fff"/>
    <path id="パス_5466" data-name="パス 5466" d="M260.461,68.79a2.241,2.241,0,0,1,.009.916,1.742,1.742,0,0,1-.076.293c-.025.069-.042.107-.042.107a2.629,2.629,0,0,1-.257-.342,2.834,2.834,0,0,1-.381-.855,2.195,2.195,0,0,1-.059-.482c0-.075,0-.146.006-.213s.013-.129.018-.188a2.063,2.063,0,0,1,.076-.384,2.433,2.433,0,0,1,.287.318,2.594,2.594,0,0,1,.237.364,2.136,2.136,0,0,1,.105.224,1.847,1.847,0,0,1,.076.244" transform="translate(-121.449 -31.638)" fill="#fff"/>
    <path id="パス_5467" data-name="パス 5467" d="M260.09,70.207l.272-.581c0-.01.026-.057.054-.136a2.162,2.162,0,0,0,.1-.365v0a2.627,2.627,0,0,0-.013-1.095,2.465,2.465,0,0,0-.093-.3l0-.006a2.87,2.87,0,0,0-.124-.266,3.118,3.118,0,0,0-.276-.424,2.938,2.938,0,0,0-.345-.378l-.491-.432-.208.622a2.473,2.473,0,0,0-.095.474v.007c0,.023,0,.047-.007.072s-.009.078-.012.12v0c-.006.082-.009.168-.007.251a2.6,2.6,0,0,0,.07.577,3.219,3.219,0,0,0,.438.989,3.07,3.07,0,0,0,.3.4Z" transform="translate(-121.066 -30.973)" fill="#fff"/>
    <path id="パス_5468" data-name="パス 5468" d="M263.54,63.143a2.172,2.172,0,0,1,.141.89,2.545,2.545,0,0,1-.029.3.727.727,0,0,1-.024.112,2.915,2.915,0,0,1-.81-1.069,2.1,2.1,0,0,1-.128-.461c-.012-.072-.02-.142-.025-.208s-.011-.13-.013-.188a2.039,2.039,0,0,1,.019-.386A2.414,2.414,0,0,1,263,62.4a2.615,2.615,0,0,1,.286.318,2.175,2.175,0,0,1,.136.2,1.5,1.5,0,0,1,.114.226" transform="translate(-122.85 -29.06)" fill="#fff"/>
    <path id="パス_5469" data-name="パス 5469" d="M263.458,64.534l.2-.574a1.082,1.082,0,0,0,.042-.187,2.927,2.927,0,0,0,.034-.347,2.552,2.552,0,0,0-.172-1.068,1.9,1.9,0,0,0-.145-.29,2.6,2.6,0,0,0-.162-.241,3.031,3.031,0,0,0-.335-.372,2.826,2.826,0,0,0-.4-.316l-.544-.343-.113.633a2.341,2.341,0,0,0-.026.477c0,.06.006.12.011.179l0,.028c.005.083.015.166.028.245a2.572,2.572,0,0,0,.154.555,3.09,3.09,0,0,0,.581.9,3.123,3.123,0,0,0,.362.345Z" transform="translate(-122.468 -28.435)" fill="#fff"/>
    <path id="パス_5470" data-name="パス 5470" d="M265.682,57.083a2.115,2.115,0,0,1,.267.848,2.2,2.2,0,0,1,.009.41,2.834,2.834,0,0,1-.954-.919,2.057,2.057,0,0,1-.192-.431c-.022-.069-.039-.137-.053-.2s-.029-.124-.039-.183a1.959,1.959,0,0,1-.036-.382,2.453,2.453,0,0,1,.363.208,2.58,2.58,0,0,1,.328.267,2.329,2.329,0,0,1,.163.177,1.457,1.457,0,0,1,.144.207" transform="translate(-123.801 -26.298)" fill="#fff"/>
    <path id="パス_5471" data-name="パス 5471" d="M265.941,58.466l.065-.648a2.6,2.6,0,0,0-.009-.5,2.511,2.511,0,0,0-.324-1.021,1.889,1.889,0,0,0-.186-.263,2.613,2.613,0,0,0-.2-.211,2.957,2.957,0,0,0-.383-.312,2.814,2.814,0,0,0-.437-.249l-.581-.251-.022.633a2.38,2.38,0,0,0,.042.472c.009.051.02.1.031.147l.012.052c.017.08.038.16.063.238a2.5,2.5,0,0,0,.233.522,2.987,2.987,0,0,0,.708.795,3.025,3.025,0,0,0,.412.284Z" transform="translate(-123.42 -25.731)" fill="#fff"/>
    <path id="パス_5472" data-name="パス 5472" d="M266.869,50.771a2.059,2.059,0,0,1,.384.788,2.4,2.4,0,0,1,.056.287c.005.035.008.063.009.083a.134.134,0,0,1,0,.029s-.042-.014-.107-.044a2.96,2.96,0,0,1-.269-.137,2.535,2.535,0,0,1-.694-.569,1.992,1.992,0,0,1-.249-.392c-.032-.064-.059-.127-.083-.187s-.046-.119-.064-.172a1.9,1.9,0,0,1-.09-.367,2.4,2.4,0,0,1,.387.147,2.482,2.482,0,0,1,.36.21,2.055,2.055,0,0,1,.186.147,1.429,1.429,0,0,1,.173.176" transform="translate(-124.305 -23.428)" fill="#fff"/>
    <path id="パス_5473" data-name="パス 5473" d="M267.286,52.055l.029-.581a.729.729,0,0,0,0-.09c0-.031-.006-.065-.011-.1a2.939,2.939,0,0,0-.065-.339,2.472,2.472,0,0,0-.467-.954,1.922,1.922,0,0,0-.222-.229,2.521,2.521,0,0,0-.222-.176,2.855,2.855,0,0,0-.424-.246,2.772,2.772,0,0,0-.466-.177l-.605-.154.068.623a2.315,2.315,0,0,0,.11.456c.014.044.03.086.045.125.008.02.015.039.023.06v0c.029.077.062.152.1.225a2.414,2.414,0,0,0,.3.476,2.915,2.915,0,0,0,.813.67,3.442,3.442,0,0,0,.309.158c.078.035.128.053.137.055Z" transform="translate(-123.869 -22.922)" fill="#fff"/>
    <path id="パス_5474" data-name="パス 5474" d="M267.085,44.343a1.988,1.988,0,0,1,.488.711,2.133,2.133,0,0,1,.122.381,2.5,2.5,0,0,1-.4-.117,2.457,2.457,0,0,1-.761-.448,2.351,2.351,0,0,1-.5-.674,1.921,1.921,0,0,1-.139-.347,2.329,2.329,0,0,1,.4.083,2.155,2.155,0,0,1,.784.411" transform="translate(-124.37 -20.509)" fill="#fff"/>
    <path id="パス_5475" data-name="パス 5475" d="M267.737,45.546l-.118-.62a2.485,2.485,0,0,0-.148-.467,2.388,2.388,0,0,0-.6-.867l-.007-.006a2.54,2.54,0,0,0-.942-.5,2.72,2.72,0,0,0-.484-.1l-.611-.055.152.593a2.279,2.279,0,0,0,.173.436l0,.009a2.736,2.736,0,0,0,.59.791,2.825,2.825,0,0,0,.9.529,2.9,2.9,0,0,0,.471.138Z" transform="translate(-123.869 -20.081)" fill="#fff"/>
    <path id="パス_5476" data-name="パス 5476" d="M266.31,37.952a1.642,1.642,0,0,1,.195.142,1.835,1.835,0,0,1,.157.158,2.2,2.2,0,0,1,.232.32,2.076,2.076,0,0,1,.172.354,2.391,2.391,0,0,1-.4-.052,2.349,2.349,0,0,1-.807-.319,1.838,1.838,0,0,1-.342-.29,2.213,2.213,0,0,1-.244-.293,1.853,1.853,0,0,1-.184-.32,2.218,2.218,0,0,1,.4.02,2.07,2.07,0,0,1,.821.279" transform="translate(-123.989 -17.61)" fill="#fff"/>
    <path id="パス_5477" data-name="パス 5477" d="M267.122,38.992l-.2-.584a2.471,2.471,0,0,0-.211-.438,2.654,2.654,0,0,0-.278-.383,2.51,2.51,0,0,0-.194-.2l-.006-.005a2.085,2.085,0,0,0-.246-.18,2.46,2.46,0,0,0-1-.342,2.683,2.683,0,0,0-.489-.022l-.6.042.227.554a2.229,2.229,0,0,0,.23.4,2.578,2.578,0,0,0,.287.344,2.306,2.306,0,0,0,.415.353,2.742,2.742,0,0,0,.957.381,2.831,2.831,0,0,0,.483.061Z" transform="translate(-123.436 -17.23)" fill="#fff"/>
    <path id="パス_5478" data-name="パス 5478" d="M264.567,31.7a1.741,1.741,0,0,1,.393.238,2.122,2.122,0,0,1,.27.279,2.027,2.027,0,0,1,.217.323,2.338,2.338,0,0,1-.4.012,2.266,2.266,0,0,1-.83-.188,1.738,1.738,0,0,1-.2-.11,2.061,2.061,0,0,1-.181-.121,2.112,2.112,0,0,1-.278-.252,1.776,1.776,0,0,1-.224-.288,2.24,2.24,0,0,1,.395-.042,1.994,1.994,0,0,1,.839.147" transform="translate(-123.169 -14.759)" fill="#fff"/>
    <path id="パス_5479" data-name="パス 5479" d="M264.586,32.613a2.5,2.5,0,0,0,.334-.02l.6-.083-.27-.539a2.372,2.372,0,0,0-.267-.4,2.556,2.556,0,0,0-.325-.336l-.011-.009a2.177,2.177,0,0,0-.491-.3,2.39,2.39,0,0,0-1.023-.185,2.619,2.619,0,0,0-.482.054l-.57.132.293.507a2.2,2.2,0,0,0,.28.366,2.618,2.618,0,0,0,.335.3,2.459,2.459,0,0,0,.216.145,2.231,2.231,0,0,0,.245.134,2.64,2.64,0,0,0,.993.227l.146,0" transform="translate(-122.582 -14.378)" fill="#fff"/>
    <path id="パス_5480" data-name="パス 5480" d="M261.9,25.734a1.67,1.67,0,0,1,.415.176,2.015,2.015,0,0,1,.171.112,1.618,1.618,0,0,1,.138.118,1.972,1.972,0,0,1,.255.286,2.355,2.355,0,0,1-.388.075,2.2,2.2,0,0,1-.835-.057,1.937,1.937,0,0,1-.715-.374,1.715,1.715,0,0,1-.256-.252,2.253,2.253,0,0,1,.378-.1,1.936,1.936,0,0,1,.836.02" transform="translate(-121.931 -12.01)" fill="#fff"/>
    <path id="パス_5481" data-name="パス 5481" d="M261.6,26.566a2.919,2.919,0,0,0,.327-.018,2.682,2.682,0,0,0,.468-.091l.561-.174-.332-.484a2.337,2.337,0,0,0-.316-.357l0,0a1.977,1.977,0,0,0-.174-.147l0,0c-.068-.049-.138-.095-.208-.136a2.159,2.159,0,0,0-.521-.22,2.316,2.316,0,0,0-1.027-.027,2.528,2.528,0,0,0-.462.127l-.529.215.349.452a2.194,2.194,0,0,0,.325.323,2.369,2.369,0,0,0,.871.456,2.45,2.45,0,0,0,.672.088" transform="translate(-121.323 -11.628)" fill="#fff"/>
    <path id="パス_5482" data-name="パス 5482" d="M258.363,20.19a1.833,1.833,0,0,1,.765.291.985.985,0,0,1,.124.09c.036.029.066.055.09.078.049.045.076.075.076.075a2.221,2.221,0,0,1-.366.132,2.412,2.412,0,0,1-.378.073,2,2,0,0,1-.448,0,1.854,1.854,0,0,1-.747-.264c-.09-.055-.159-.109-.212-.145a.591.591,0,0,1-.079-.062,2.169,2.169,0,0,1,.356-.162,1.82,1.82,0,0,1,.818-.108" transform="translate(-120.295 -9.439)" fill="#fff"/>
    <path id="パス_5483" data-name="パス 5483" d="M257.795,20.993a2.683,2.683,0,0,0,.293-.017,2.814,2.814,0,0,0,.447-.086,2.576,2.576,0,0,0,.444-.162l.512-.254-.384-.424c-.007-.007-.042-.047-.1-.1-.034-.031-.07-.063-.107-.093a1.608,1.608,0,0,0-.169-.125,2.112,2.112,0,0,0-1.959-.224,2.585,2.585,0,0,0-.433.2l-.5.3.44.39c.01.009.048.042.11.087l.011.007.042.03c.047.034.111.081.19.128a2.3,2.3,0,0,0,.921.324,2.185,2.185,0,0,0,.25.017" transform="translate(-119.66 -9.057)" fill="#fff"/>
    <path id="パス_5484" data-name="パス 5484" d="M254.045,15.213a1.762,1.762,0,0,1,.783.175,2.07,2.07,0,0,1,.239.129.637.637,0,0,1,.063.044l.021.017a2.219,2.219,0,0,1-.335.187,2.131,2.131,0,0,1-.8.2,2.186,2.186,0,0,1-1.078-.31,2.25,2.25,0,0,1,.673-.366,1.466,1.466,0,0,1,.431-.079" transform="translate(-118.309 -7.115)" fill="#fff"/>
    <path id="パス_5485" data-name="パス 5485" d="M253.337,16.022h.064a2.567,2.567,0,0,0,.962-.243,2.622,2.622,0,0,0,.407-.228l.468-.334-.49-.388c-.028-.021-.057-.042-.088-.06a2.468,2.468,0,0,0-.284-.154,2.165,2.165,0,0,0-.978-.215,1.911,1.911,0,0,0-.555.1,2.6,2.6,0,0,0-.422.185,2.56,2.56,0,0,0-.394.262l-.44.373.48.319a2.631,2.631,0,0,0,1.267.383Z" transform="translate(-117.676 -6.735)" fill="#fff"/>
    <path id="パス_5486" data-name="パス 5486" d="M249.036,10.93a1.7,1.7,0,0,1,.785.059,1.859,1.859,0,0,1,.344.139,2.192,2.192,0,0,1-.3.237,2.034,2.034,0,0,1-.74.317,1.67,1.67,0,0,1-.6,0c-.059-.01-.114-.019-.166-.031a1.709,1.709,0,0,1-.332-.109,2.033,2.033,0,0,1,.28-.257,1.825,1.825,0,0,1,.728-.351" transform="translate(-116.01 -5.102)" fill="#fff"/>
    <path id="パス_5487" data-name="パス 5487" d="M248.235,11.762a2,2,0,0,0,.361-.032,2.487,2.487,0,0,0,.9-.383,2.588,2.588,0,0,0,.364-.291l.406-.4-.5-.281a2.283,2.283,0,0,0-.431-.176,2.093,2.093,0,0,0-.988-.071h-.01a2.22,2.22,0,0,0-.9.433,2.434,2.434,0,0,0-.344.318l-.364.425.5.245a2.086,2.086,0,0,0,.424.142c.062.015.125.025.184.035h0c.075.014.149.024.225.03a1.59,1.59,0,0,0,.167.009" transform="translate(-115.403 -4.722)" fill="#fff"/>
    <path id="パス_5488" data-name="パス 5488" d="M243.447,7.451a1.3,1.3,0,0,1,.411-.08,1.871,1.871,0,0,1,.362.021,1.819,1.819,0,0,1,.356.088,2.132,2.132,0,0,1-.254.278,1.956,1.956,0,0,1-.67.42,1.53,1.53,0,0,1-.4.079l-.093,0-.09,0c-.059,0-.114,0-.166-.007a1.6,1.6,0,0,1-.34-.061A2.068,2.068,0,0,1,242.8,7.9a1.761,1.761,0,0,1,.651-.452" transform="translate(-113.454 -3.447)" fill="#fff"/>
    <path id="パス_5489" data-name="パス 5489" d="M242.486,8.316h.008c.035,0,.07,0,.1,0s.068,0,.106,0a1.968,1.968,0,0,0,.514-.1,2.409,2.409,0,0,0,.823-.513,2.559,2.559,0,0,0,.31-.342l.327-.453-.521-.2a2.233,2.233,0,0,0-.448-.112,2.264,2.264,0,0,0-.445-.026,1.714,1.714,0,0,0-.547.108,2.176,2.176,0,0,0-.814.56,2.534,2.534,0,0,0-.286.366l-.285.468.521.169a2.11,2.11,0,0,0,.438.08,1.577,1.577,0,0,0,.194.008" transform="translate(-112.879 -3.066)" fill="#fff"/>
    <path id="パス_5490" data-name="パス 5490" d="M239.548,3.384a2.8,2.8,0,0,0,.821.139,2.3,2.3,0,0,0,.378-.023,2.162,2.162,0,0,0-.255-.281,1.98,1.98,0,0,0-.719-.452,2.333,2.333,0,0,0-.84-.12,1.627,1.627,0,0,0-.274.032c-.067.012-.1.023-.1.023s.025.028.072.075.118.106.2.182a2.294,2.294,0,0,0,.718.425" transform="translate(-111.58 -1.238)" fill="#fff"/>
    <path id="パス_5491" data-name="パス 5491" d="M239.723,3.576a2.648,2.648,0,0,0,.415-.03l.68-.117-.4-.562a2.557,2.557,0,0,0-.311-.345,2.386,2.386,0,0,0-.876-.546,2.782,2.782,0,0,0-.991-.143,2.008,2.008,0,0,0-.319.036l-.025,0c-.079.015-.129.029-.138.031l-.664.185.457.518c.006.007.039.042.094.1s.094.087.152.137l.069.061.006,0a2.7,2.7,0,0,0,.856.5l.008,0a3.249,3.249,0,0,0,.951.161Z" transform="translate(-110.896 -0.857)" fill="#fff"/>
  </g>
</svg>
