<svg id="グループ_55756" data-name="グループ 55756" xmlns="http://www.w3.org/2000/svg" xmlns:xlink="http://www.w3.org/1999/xlink" width="81.589" height="51.518" viewBox="0 0 81.589 51.518">
  <defs>
    <clipPath id="clip-path">
      <rect id="長方形_636" data-name="長方形 636" width="81.589" height="51.518" fill="#537431"/>
    </clipPath>
  </defs>
  <g id="グループ_54740" data-name="グループ 54740" clip-path="url(#clip-path)">
    <path id="パス_4511" data-name="パス 4511" d="M132.173,58.369h0a13.688,13.688,0,0,0-3.258-4.573A15.15,15.15,0,0,0,124,50.8a17.324,17.324,0,0,0-6.166-1.075H105.353a1,1,0,0,0-.991.928,8.8,8.8,0,0,1,1.213.962c.168.16.325.327.475.5a7.241,7.241,0,0,1,1.795,4.905,6.822,6.822,0,0,1-2.081,4.984,9.3,9.3,0,0,1,1.4,1c.04.034.074.073.113.108a9.161,9.161,0,0,1,1.22,1.322,8.975,8.975,0,0,1,.775,1.253c.057.11.122.215.175.327a8.925,8.925,0,0,1,.821,3.8A7.587,7.587,0,0,1,109,74.134c-.016.023-.033.045-.049.068a8.91,8.91,0,0,1-2.586,2.446c-.219.14-.443.275-.678.4-.369.2-.759.376-1.16.544a.98.98,0,0,0,.3.05H118.52a17.324,17.324,0,0,0,5.939-.986,14.142,14.142,0,0,0,4.7-2.773,12.632,12.632,0,0,0,3.084-4.294,13.469,13.469,0,0,0,1.1-5.469,14.17,14.17,0,0,0-1.168-5.755m-8.38,12.911a7.291,7.291,0,0,1-5.864,2.317,4.926,4.926,0,0,1-3.023-.725,2.528,2.528,0,0,1-.806-2.115V53.776h3.665a8.059,8.059,0,0,1,3.377.684,6.9,6.9,0,0,1,2.512,1.958,9.28,9.28,0,0,1,1.625,3.241,16.146,16.146,0,0,1,.583,4.532c0,3.126-.7,5.511-2.069,7.089" transform="translate(-54.835 -28.31)" fill="#537431"/>
    <path id="パス_4512" data-name="パス 4512" d="M83.936,67.336a7.154,7.154,0,0,0-.295-.739,7.573,7.573,0,0,0-.925-1.487A7.249,7.249,0,0,0,80.9,63.444a9.284,9.284,0,0,0-2.186-1.058l-.211-.067a7.232,7.232,0,0,0,2.4-2.082,5.421,5.421,0,0,0,1.008-3.217,5.855,5.855,0,0,0-1.484-4.026,6.5,6.5,0,0,0-.561-.56,7.954,7.954,0,0,0-1.321-.944c-.178-.1-.372-.193-.564-.286a18.753,18.753,0,0,0-8.1-1.478H58.6a.994.994,0,0,0-.986.877,9.229,9.229,0,0,1,.986.748,8.176,8.176,0,0,1,.8.8,7.536,7.536,0,0,1,1.84,5.07,9.786,9.786,0,0,1-.652,3.6v9.731l.995,1.093.128.141a3.2,3.2,0,0,0,.842.681v0l.014.006a3.4,3.4,0,0,0,.312.153A3.784,3.784,0,0,0,63.9,72.9a3.515,3.515,0,0,0,.412.027,2.416,2.416,0,0,1,.368.037,2.367,2.367,0,0,1,2,2.336v1.346a2.351,2.351,0,0,1-.227,1H71.39a24.735,24.735,0,0,0,6.08-.672,14.618,14.618,0,0,0,1.8-.583,11.652,11.652,0,0,0,1.2-.549l.015-.009a9.485,9.485,0,0,0,.949-.592A7.318,7.318,0,0,0,83.3,73.367a5.855,5.855,0,0,0,.62-1.2,6.6,6.6,0,0,0,.41-2.351,7.71,7.71,0,0,0-.4-2.478M67.751,65.021h.689a22.511,22.511,0,0,1,3.914.287,6.206,6.206,0,0,1,2.341.854,3.943,3.943,0,0,1,1.6,3.551c0,1.809-.529,3.884-4.658,3.884a5.191,5.191,0,0,1-3.146-.665,2.645,2.645,0,0,1-.739-2.175Zm5.229-4.959a5.26,5.26,0,0,1-1.653.686,10.592,10.592,0,0,1-2.5.257H67.751V53.776H69.88a5.308,5.308,0,0,1,3.422.851,3.573,3.573,0,0,1,.92,2.8,2.866,2.866,0,0,1-1.241,2.638" transform="translate(-30.274 -28.31)" fill="#537431"/>
    <path id="パス_4513" data-name="パス 4513" d="M57.692,55.277a1,1,0,0,0,.68.671,6.881,6.881,0,0,0-.68-.671" transform="translate(-30.313 -29.044)" fill="#537431"/>
    <path id="パス_4514" data-name="パス 4514" d="M38.93,74.3a4.749,4.749,0,0,1-.538-.033,5.173,5.173,0,0,1-1.429-.377l0,0a4.61,4.61,0,0,1-.44-.215,4.486,4.486,0,0,1-.457-.294,4.624,4.624,0,0,1-.751-.673l-.148-.162-.131-.143-1.2-1.322-5.52-6.065a8.823,8.823,0,0,0,4.231-2.451,7.405,7.405,0,0,0,1.288-2.027,8.321,8.321,0,0,0,.652-3.317,6.141,6.141,0,0,0-1.536-4.192.994.994,0,0,1-.68-.671,8.263,8.263,0,0,0-1.032-.766c-.124-.076-.26-.144-.39-.215a16.617,16.617,0,0,0-8-1.651H10.686a1,1,0,0,0-1,1v1.347a1,1,0,0,0,.936,1,10.114,10.114,0,0,1,1.575.2.816.816,0,0,1,.46.239,1.336,1.336,0,0,1,.236.65,12.894,12.894,0,0,1,.094,1.758V71.464a10.088,10.088,0,0,1-.123,1.754,1.321,1.321,0,0,1-.282.669,1.178,1.178,0,0,1-.61.287A8.547,8.547,0,0,1,10.3,74.3a1,1,0,0,0-1,1v1.346a1,1,0,0,0,1,1H24.246a1,1,0,0,0,1-1V75.3a1,1,0,0,0-1-1,18.091,18.091,0,0,1-2.538-.14,2.114,2.114,0,0,1-1.041-.372,1.165,1.165,0,0,1-.366-.677,8.765,8.765,0,0,1-.152-1.82V66.1a6.841,6.841,0,0,1,.983.962l8.712,10.234a1,1,0,0,0,.76.352H38.93a1,1,0,0,0,1-1V75.3a1,1,0,0,0-1-1M25.771,60.651a7.3,7.3,0,0,1-4.336,1.028H20.15V53.608H22.84a4.274,4.274,0,0,1,3.1,1.036,3.6,3.6,0,0,1,1.063,2.747,3.8,3.8,0,0,1-1.236,3.26" transform="translate(-4.888 -28.31)" fill="#537431"/>
    <path id="パス_4515" data-name="パス 4515" d="M3.322,28.928a1.2,1.2,0,0,1,.362.752,1.372,1.372,0,0,1-.306.891l1.969.2a.89.89,0,0,0,.714-.241l.159.164-.934.9L3.1,31.3a.975.975,0,0,0-.332,0,.384.384,0,0,0-.177.089l.777.8a1.744,1.744,0,0,0,.26.228.369.369,0,0,0,.223.073A.463.463,0,0,0,4.1,32.4a2.673,2.673,0,0,0,.319-.274l.159.164L3.009,33.808l-.159-.163a1.34,1.34,0,0,0,.193-.223A.32.32,0,0,0,3.1,33.23a.391.391,0,0,0-.078-.2,1.972,1.972,0,0,0-.212-.25L.981,30.888a2.709,2.709,0,0,0-.236-.219.4.4,0,0,0-.186-.089.274.274,0,0,0-.18.039,1.583,1.583,0,0,0-.221.162L0,30.618,1.363,29.3a2.2,2.2,0,0,1,1.084-.648.923.923,0,0,1,.875.279m-.966,2.221.256-.248a1.2,1.2,0,0,0,.409-.686.834.834,0,0,0-.294-.67.811.811,0,0,0-.562-.272.783.783,0,0,0-.58.253l-.343.332a.086.086,0,0,0,0,.138Z" transform="translate(0 -15.043)" fill="#537431"/>
    <path id="パス_4516" data-name="パス 4516" d="M9.684,26.432l.168-.132a1.368,1.368,0,0,0,.854.411,1.2,1.2,0,0,0,.852-.275,1.3,1.3,0,0,0,.262-.271.9.9,0,0,0,.139-.295.658.658,0,0,0,.009-.289.616.616,0,0,0-.126-.267.609.609,0,0,0-.178-.16.509.509,0,0,0-.243-.056,1.675,1.675,0,0,0-.366.046q-.217.048-.545.146a2.545,2.545,0,0,1-1.115.119,1.149,1.149,0,0,1-.736-.439,1.2,1.2,0,0,1-.226-.446,1.129,1.129,0,0,1-.018-.471,1.272,1.272,0,0,1,.184-.459,1.634,1.634,0,0,1,.379-.411,1.507,1.507,0,0,1,.47-.254A1.907,1.907,0,0,1,10,22.842l-.1-.285.1-.081.808.929-.168.132a1.452,1.452,0,0,0-.765-.307.946.946,0,0,0-.662.205.844.844,0,0,0-.327.477A.554.554,0,0,0,9,24.4a.567.567,0,0,0,.162.144.466.466,0,0,0,.223.053,1.461,1.461,0,0,0,.331-.04c.132-.028.294-.073.488-.134a5.228,5.228,0,0,1,.708-.161,2.016,2.016,0,0,1,.557-.01,1.217,1.217,0,0,1,.434.14,1.139,1.139,0,0,1,.336.294,1.16,1.16,0,0,1,.233.491,1.217,1.217,0,0,1-.012.531,1.619,1.619,0,0,1-.24.529,2.155,2.155,0,0,1-.459.485,1.756,1.756,0,0,1-.524.292,2.068,2.068,0,0,1-.616.1l.125.336-.1.082Z" transform="translate(-4.413 -11.81)" fill="#537431"/>
    <path id="パス_4517" data-name="パス 4517" d="M17.5,16.755l.226-.146.689,1.27L18.234,18a1.518,1.518,0,0,0-.823-.451,1.15,1.15,0,0,0-.84.182,1.167,1.167,0,0,0-.562.976,1.836,1.836,0,0,0,.105.651,3.23,3.23,0,0,0,.358.721,2.27,2.27,0,0,0,1.029.952,1.193,1.193,0,0,0,1.122-.158,1.345,1.345,0,0,0,.6-.75,1.722,1.722,0,0,0-.065-1.049l.2-.131.837,1.3-.217.14-.308-.336a2.2,2.2,0,0,1-.957,1.22,2.534,2.534,0,0,1-.844.362,1.95,1.95,0,0,1-.818.009,1.914,1.914,0,0,1-.743-.337,2.462,2.462,0,0,1-.619-.672,2.6,2.6,0,0,1-.374-.883,2.147,2.147,0,0,1-.009-.869,2.067,2.067,0,0,1,.342-.786,2.431,2.431,0,0,1,.681-.639,1.984,1.984,0,0,1,.578-.258,2.926,2.926,0,0,1,.7-.079Z" transform="translate(-8.021 -8.727)" fill="#537431"/>
    <path id="パス_4518" data-name="パス 4518" d="M25.616,13.764a1.2,1.2,0,0,1,.13.824,1.371,1.371,0,0,1-.549.765l1.828.759a.87.87,0,0,0,.389.071.891.891,0,0,0,.364-.1l.1.2-1.155.6-2.005-.911a.987.987,0,0,0-.318-.095.375.375,0,0,0-.2.034l.513.991a1.779,1.779,0,0,0,.183.293.372.372,0,0,0,.193.134.467.467,0,0,0,.258-.021,2.726,2.726,0,0,0,.385-.17l.1.2-1.934,1-.1-.2a1.387,1.387,0,0,0,.249-.158.323.323,0,0,0,.111-.167.391.391,0,0,0-.016-.216,2.045,2.045,0,0,0-.131-.3l-1.21-2.336a2.525,2.525,0,0,0-.163-.278.4.4,0,0,0-.152-.139.272.272,0,0,0-.184-.014,1.649,1.649,0,0,0-.258.092l-.1-.2,1.686-.874a2.2,2.2,0,0,1,1.225-.308.921.921,0,0,1,.757.519m-1.564,1.849.317-.164a1.2,1.2,0,0,0,.589-.539.837.837,0,0,0-.089-.727.809.809,0,0,0-.46-.422.784.784,0,0,0-.629.075l-.424.22a.086.086,0,0,0-.043.131Z" transform="translate(-11.532 -6.955)" fill="#537431"/>
    <path id="パス_4519" data-name="パス 4519" d="M35.209,10.318a2.963,2.963,0,0,1,.219.806,1.353,1.353,0,0,1-.078.644,1.26,1.26,0,0,1-.389.509,2.789,2.789,0,0,1-.71.4,1.843,1.843,0,0,1-1.342.133,1.618,1.618,0,0,1-.842-.982l-.59-1.445c-.056-.137-.1-.252-.146-.343s-.078-.168-.111-.228a.977.977,0,0,0-.092-.144.482.482,0,0,0-.085-.085.249.249,0,0,0-.173-.046,1.063,1.063,0,0,0-.275.081l-.085-.211,1.824-.745.086.211a1.663,1.663,0,0,0-.305.152.3.3,0,0,0-.12.157.383.383,0,0,0-.017.127.8.8,0,0,0,.029.173c.018.069.045.151.08.247s.081.213.137.35l.564,1.381a1.451,1.451,0,0,0,.609.788,1.023,1.023,0,0,0,.877-.023q1.047-.427.554-1.635l-.5-1.218q-.09-.221-.162-.376a2.772,2.772,0,0,0-.135-.259,1.008,1.008,0,0,0-.121-.166.422.422,0,0,0-.118-.093.456.456,0,0,0-.227-.033,1.186,1.186,0,0,0-.324.092l-.086-.211L34.8,7.655l.086.211a1.2,1.2,0,0,0-.278.147.312.312,0,0,0-.115.167.387.387,0,0,0-.015.151,1.162,1.162,0,0,0,.037.206c.021.08.05.173.088.281s.087.235.147.383Z" transform="translate(-16.031 -4.022)" fill="#537431"/>
    <path id="パス_4520" data-name="パス 4520" d="M43.561,10.366l-1.858.622-.072-.216a1.262,1.262,0,0,0,.272-.13.3.3,0,0,0,.127-.166.553.553,0,0,0,0-.256,3.194,3.194,0,0,0-.113-.409L41.191,7.64a3.438,3.438,0,0,0-.144-.369.639.639,0,0,0-.149-.212.3.3,0,0,0-.189-.072,1,1,0,0,0-.273.04l-.072-.216,1.754-.587.072.216a1.011,1.011,0,0,0-.242.132.3.3,0,0,0-.108.171A.639.639,0,0,0,41.848,7a3.4,3.4,0,0,0,.107.382l.727,2.171a3.761,3.761,0,0,0,.153.4.507.507,0,0,0,.155.2.312.312,0,0,0,.2.055,1.33,1.33,0,0,0,.3-.06Z" transform="translate(-21.209 -3.271)" fill="#537431"/>
    <path id="パス_4521" data-name="パス 4521" d="M49.464,4.716l-.228.062a1.8,1.8,0,0,0-.2-.428.742.742,0,0,0-.25-.239.612.612,0,0,0-.31-.076,1.537,1.537,0,0,0-.382.059c-.138.037-.247.07-.329.1a1,1,0,0,0-.183.079.152.152,0,0,0-.073.076.15.15,0,0,0,0,.088l.778,2.881a1.675,1.675,0,0,0,.106.3.422.422,0,0,0,.153.179.493.493,0,0,0,.25.062,1.593,1.593,0,0,0,.389-.055l.059.22-2.221.6-.059-.22a1.6,1.6,0,0,0,.37-.15.5.5,0,0,0,.187-.18.412.412,0,0,0,.046-.233,1.73,1.73,0,0,0-.058-.308l-.778-2.881a.173.173,0,0,0-.04-.078.136.136,0,0,0-.092-.031.757.757,0,0,0-.174.018c-.074.014-.169.037-.285.068a3.39,3.39,0,0,0-.361.118.687.687,0,0,0-.277.193.659.659,0,0,0-.14.333,1.42,1.42,0,0,0,.053.543l-.206.056-.274-1.224,4.149-1.121Z" transform="translate(-23.611 -1.85)" fill="#537431"/>
    <path id="パス_4522" data-name="パス 4522" d="M58.327,6.626,58.289,6.4a1.4,1.4,0,0,0,.289-.084.346.346,0,0,0,.157-.125.374.374,0,0,0,.051-.2,1.936,1.936,0,0,0-.032-.324l-.438-2.594a2.508,2.508,0,0,0-.07-.314.414.414,0,0,0-.1-.18.257.257,0,0,0-.157-.071,1.227,1.227,0,0,0-.241,0l-.038-.225,1.737-.293a2.447,2.447,0,0,1,1.3.059.877.877,0,0,1,.572.7q.112.668-.766,1.1l0,.022a1.584,1.584,0,0,1,.553,0,1.174,1.174,0,0,1,.45.175,1.111,1.111,0,0,1,.322.327,1.18,1.18,0,0,1,.171.451.937.937,0,0,1-.048.522,1.1,1.1,0,0,1-.321.424,2.671,2.671,0,0,1-1.278.5ZM59.6,3.9a1.664,1.664,0,0,0,.414-.119.94.94,0,0,0,.28-.189.672.672,0,0,0,.162-.622.79.79,0,0,0-.3-.56.908.908,0,0,0-.658-.076L59.12,2.4a.087.087,0,0,0-.081.112l.244,1.443Zm.788,2.027q.872-.147.734-.961a.856.856,0,0,0-.437-.677,1.068,1.068,0,0,0-.448-.1,3.357,3.357,0,0,0-.639.056l-.26.044.19,1.123a.622.622,0,0,0,.257.465.908.908,0,0,0,.6.048" transform="translate(-30.323 -1.015)" fill="#537431"/>
    <path id="パス_4523" data-name="パス 4523" d="M70.6,1.675a1.2,1.2,0,0,1-.185.813A1.375,1.375,0,0,1,69.62,3L71.035,4.38a.89.89,0,0,0,.709.257l.022.226-1.3.127L68.948,3.4a.976.976,0,0,0-.26-.206.376.376,0,0,0-.194-.041L68.6,4.262a1.759,1.759,0,0,0,.061.34.366.366,0,0,0,.13.2.465.465,0,0,0,.247.076,2.747,2.747,0,0,0,.42-.016l.022.227L67.314,5.3l-.022-.226a1.378,1.378,0,0,0,.29-.054.318.318,0,0,0,.165-.113.393.393,0,0,0,.065-.206,1.972,1.972,0,0,0-.01-.328l-.256-2.618a2.5,2.5,0,0,0-.047-.319.4.4,0,0,0-.09-.186.271.271,0,0,0-.165-.081,1.6,1.6,0,0,0-.274-.01L66.948.928l1.89-.185A2.2,2.2,0,0,1,70.09.913a.92.92,0,0,1,.51.762M68.461,2.812l.355-.035a1.2,1.2,0,0,0,.747-.282.835.835,0,0,0,.187-.708.809.809,0,0,0-.271-.563.783.783,0,0,0-.611-.163l-.476.046a.086.086,0,0,0-.088.106Z" transform="translate(-35.177 -0.381)" fill="#537431"/>
    <path id="パス_4524" data-name="パス 4524" d="M78.941,3.112l-1.552.045A2.628,2.628,0,0,0,77.155,4a.2.2,0,0,0,.13.213,1.133,1.133,0,0,0,.371.035l.007.228-1.5.044-.007-.228a1.453,1.453,0,0,0,.226-.052.586.586,0,0,0,.168-.085.472.472,0,0,0,.125-.137,1.154,1.154,0,0,0,.1-.205L78.106.019l.406-.011,1.407,3.287q.124.287.208.449a.9.9,0,0,0,.177.248.487.487,0,0,0,.212.116,1.622,1.622,0,0,0,.306.043l.007.233-2.074.059-.007-.233a1.261,1.261,0,0,0,.377-.068.178.178,0,0,0,.11-.186.752.752,0,0,0-.044-.2c-.028-.083-.066-.184-.113-.3Zm-1.436-.3,1.306-.037L78.13,1.067h-.022Z" transform="translate(-40.013 -0.004)" fill="#537431"/>
    <path id="パス_4525" data-name="パス 4525" d="M89.115,4.59l-2.27-3.7h-.022l-.108,2.446a4.292,4.292,0,0,0,0,.45.563.563,0,0,0,.071.26.294.294,0,0,0,.17.127,1.43,1.43,0,0,0,.291.047l-.009.227-1.629-.072.01-.228a1.543,1.543,0,0,0,.327-.023.346.346,0,0,0,.2-.108.488.488,0,0,0,.1-.238,3.125,3.125,0,0,0,.041-.423l.1-2.287a2.92,2.92,0,0,0,0-.4A.6.6,0,0,0,86.31.425a.321.321,0,0,0-.168-.136,1.23,1.23,0,0,0-.3-.061L85.856,0l1.53.067,2.065,3.386h.022l.1-2.2a4.124,4.124,0,0,0,0-.448A.583.583,0,0,0,89.5.542a.3.3,0,0,0-.171-.127,1.43,1.43,0,0,0-.291-.047L89.047.14l1.629.072-.01.228a1.545,1.545,0,0,0-.328.023.348.348,0,0,0-.2.108.5.5,0,0,0-.1.241,3.367,3.367,0,0,0-.04.42l-.149,3.39Z" transform="translate(-44.981)" fill="#537431"/>
    <path id="パス_4526" data-name="パス 4526" d="M96.089,4.9l.028-.226a1.621,1.621,0,0,0,.3.005A.322.322,0,0,0,96.6,4.6a.388.388,0,0,0,.108-.181,1.909,1.909,0,0,0,.062-.323l.323-2.611a2.363,2.363,0,0,0,.023-.321.4.4,0,0,0-.047-.2.275.275,0,0,0-.138-.114,1.409,1.409,0,0,0-.243-.067l.028-.226,2.07.256a2.689,2.689,0,0,1,.943.289,2.355,2.355,0,0,1,.7.564,2.146,2.146,0,0,1,.412.774,2.244,2.244,0,0,1,.068.921,2.113,2.113,0,0,1-.274.83,1.954,1.954,0,0,1-.553.606,2.178,2.178,0,0,1-.778.343,2.689,2.689,0,0,1-.948.04Zm1.962-3.825c-.062-.008-.1.02-.1.085L97.584,4.08a.591.591,0,0,0,.136.51.954.954,0,0,0,.585.233,1.378,1.378,0,0,0,1.153-.31A1.956,1.956,0,0,0,100,3.26a2.919,2.919,0,0,0,0-.821,1.741,1.741,0,0,0-.224-.639,1.321,1.321,0,0,0-.43-.435,1.492,1.492,0,0,0-.613-.208Z" transform="translate(-50.488 -0.293)" fill="#537431"/>
    <path id="パス_4527" data-name="パス 4527" d="M108.932,6.746l.051-.222a1.545,1.545,0,0,0,.293.036.323.323,0,0,0,.193-.055.383.383,0,0,0,.126-.169,1.891,1.891,0,0,0,.1-.314l.593-2.564a2.485,2.485,0,0,0,.056-.317.4.4,0,0,0-.026-.2.273.273,0,0,0-.126-.129,1.4,1.4,0,0,0-.235-.092L110,2.493l2.033.47a2.692,2.692,0,0,1,.908.386,2.345,2.345,0,0,1,.642.634,2.138,2.138,0,0,1,.331.813,2.243,2.243,0,0,1-.028.923,2.108,2.108,0,0,1-.359.8,1.952,1.952,0,0,1-.613.545,2.175,2.175,0,0,1-.81.26,2.691,2.691,0,0,1-.947-.058Zm2.348-3.6a.084.084,0,0,0-.112.073L110.5,6.086a.593.593,0,0,0,.082.522.959.959,0,0,0,.558.292,1.379,1.379,0,0,0,1.179-.189,1.957,1.957,0,0,0,.672-1.189,2.928,2.928,0,0,0,.082-.817,1.739,1.739,0,0,0-.158-.659,1.312,1.312,0,0,0-.382-.476,1.492,1.492,0,0,0-.588-.271Z" transform="translate(-57.236 -1.31)" fill="#537431"/>
    <path id="パス_4528" data-name="パス 4528" d="M120.923,7.3a5.524,5.524,0,0,0,.546.148.807.807,0,0,0,.345.011.387.387,0,0,0,.223-.148,1.7,1.7,0,0,0,.185-.329l.194.061-.5,1.591-.194-.061a1.626,1.626,0,0,0,.026-.374.412.412,0,0,0-.1-.252.8.8,0,0,0-.284-.185q-.189-.082-.52-.186l-.353,1.119a.882.882,0,0,0-.048.308.422.422,0,0,0,.088.24.715.715,0,0,0,.245.19,3.117,3.117,0,0,0,.933.28.844.844,0,0,0,.391-.044.815.815,0,0,0,.311-.221,2.25,2.25,0,0,0,.287-.414l.209.066-.477,1.217-3.548-1.121.068-.217a1.441,1.441,0,0,0,.293.056.329.329,0,0,0,.2-.039.391.391,0,0,0,.137-.159,1.954,1.954,0,0,0,.119-.3l.793-2.509a2.159,2.159,0,0,0,.079-.313.42.42,0,0,0-.012-.206.273.273,0,0,0-.12-.14,1.574,1.574,0,0,0-.243-.115l.069-.217,3.307,1.045-.3,1.075-.225-.071a1.446,1.446,0,0,0,.02-.409.627.627,0,0,0-.113-.3.775.775,0,0,0-.271-.223,2.745,2.745,0,0,0-.458-.184l-.591-.187c-.091-.029-.15-.035-.178-.018a.286.286,0,0,0-.084.156Z" transform="translate(-62.46 -2.643)" fill="#537431"/>
    <path id="パス_4529" data-name="パス 4529" d="M127.707,10.981l.2.078a1.366,1.366,0,0,0,.075.945,1.2,1.2,0,0,0,.667.6,1.293,1.293,0,0,0,.366.089.887.887,0,0,0,.324-.028.676.676,0,0,0,.255-.138.682.682,0,0,0,.215-.478.512.512,0,0,0-.075-.238,1.6,1.6,0,0,0-.223-.293q-.151-.164-.4-.4a2.535,2.535,0,0,1-.664-.9,1.153,1.153,0,0,1,.008-.858,1.186,1.186,0,0,1,.272-.419,1.112,1.112,0,0,1,.4-.253,1.27,1.27,0,0,1,.49-.073,1.608,1.608,0,0,1,.545.121,1.494,1.494,0,0,1,.457.278,1.91,1.91,0,0,1,.354.434l.2-.229.123.049-.4,1.166-.2-.078a1.46,1.46,0,0,0-.121-.816.947.947,0,0,0-.512-.468.842.842,0,0,0-.577-.041.553.553,0,0,0-.361.338.561.561,0,0,0-.042.213.464.464,0,0,0,.066.219,1.5,1.5,0,0,0,.2.266q.135.149.362.354a5.242,5.242,0,0,1,.5.53,2.014,2.014,0,0,1,.29.476,1.219,1.219,0,0,1,.1.446,1.141,1.141,0,0,1-.085.438,1.154,1.154,0,0,1-.307.448,1.217,1.217,0,0,1-.465.257,1.631,1.631,0,0,1-.578.06,2.152,2.152,0,0,1-.651-.153,1.761,1.761,0,0,1-.517-.305,2.1,2.1,0,0,1-.393-.483l-.227.278-.122-.049Z" transform="translate(-66.861 -4.525)" fill="#537431"/>
    <path id="パス_4530" data-name="パス 4530" d="M135.456,15.54l-1.779-.821.1-.207a1.308,1.308,0,0,0,.288.092.3.3,0,0,0,.206-.034.549.549,0,0,0,.176-.185,3.185,3.185,0,0,0,.2-.376l.959-2.079a3.346,3.346,0,0,0,.148-.368.63.63,0,0,0,.037-.256.3.3,0,0,0-.088-.182,1.046,1.046,0,0,0-.227-.158l.1-.206,1.68.774-.1.206a1,1,0,0,0-.267-.07.3.3,0,0,0-.2.051.642.642,0,0,0-.171.194,3.281,3.281,0,0,0-.183.351l-.959,2.079a3.8,3.8,0,0,0-.16.393.509.509,0,0,0-.026.254.313.313,0,0,0,.111.179,1.288,1.288,0,0,0,.256.159Z" transform="translate(-70.238 -5.654)" fill="#537431"/>
    <path id="パス_4531" data-name="パス 4531" d="M140.581,18.625a2.506,2.506,0,0,1-.709-.562,1.855,1.855,0,0,1-.383-.7,1.93,1.93,0,0,1-.046-.8,2.559,2.559,0,0,1,.3-.864,2.669,2.669,0,0,1,.6-.752,2.17,2.17,0,0,1,.752-.429,2.016,2.016,0,0,1,.84-.081,2.34,2.34,0,0,1,.869.287,2.135,2.135,0,0,1,.521.4,3.075,3.075,0,0,1,.431.595l.261-.259.173.095L143.5,16.8l-.24-.132a1.473,1.473,0,0,0,.014-.942,1.206,1.206,0,0,0-.586-.66,1.125,1.125,0,0,0-1.1-.031,2.456,2.456,0,0,0-.984,1.067,2.308,2.308,0,0,0-.358,1.357,1.142,1.142,0,0,0,.638.89,1.012,1.012,0,0,0,.757.133.9.9,0,0,0,.559-.476.5.5,0,0,0,.07-.4.752.752,0,0,0-.317-.346l.109-.2,1.558.858-.11.2a.472.472,0,0,0-.386-.073.7.7,0,0,0-.3.336l-.365.664a1.88,1.88,0,0,0-.181-.091.773.773,0,0,0-.158-.048.928.928,0,0,0-.2-.014c-.076,0-.172.005-.288.011a2,2,0,0,1-1.047-.283" transform="translate(-73.257 -7.574)" fill="#537431"/>
    <path id="パス_4532" data-name="パス 4532" d="M149.086,23.658l.072-4.339-.018-.012-1.406,2.005a4.115,4.115,0,0,0-.243.379.56.56,0,0,0-.08.257.291.291,0,0,0,.075.2,1.377,1.377,0,0,0,.221.2l-.131.187-1.334-.936.131-.186a1.572,1.572,0,0,0,.289.157.347.347,0,0,0,.224.014.489.489,0,0,0,.213-.146,3.165,3.165,0,0,0,.261-.335l1.315-1.875a2.973,2.973,0,0,0,.209-.337.589.589,0,0,0,.074-.25.325.325,0,0,0-.067-.2,1.254,1.254,0,0,0-.217-.211l.13-.187,1.254.879-.079,3.965.018.013,1.265-1.8a4.3,4.3,0,0,0,.241-.377.572.572,0,0,0,.081-.26.292.292,0,0,0-.076-.2,1.409,1.409,0,0,0-.22-.2l.131-.187,1.334.935-.13.187a1.578,1.578,0,0,0-.289-.158.346.346,0,0,0-.224-.014.493.493,0,0,0-.214.148,3.179,3.179,0,0,0-.26.333l-1.948,2.779Z" transform="translate(-76.841 -9.477)" fill="#537431"/>
    <path id="パス_4533" data-name="パス 4533" d="M157.392,27.091a5.633,5.633,0,0,0,.439.358.814.814,0,0,0,.311.15.39.39,0,0,0,.263-.044,1.707,1.707,0,0,0,.3-.226l.152.134-1.107,1.249-.152-.135a1.634,1.634,0,0,0,.177-.331.414.414,0,0,0,.006-.272.792.792,0,0,0-.184-.284q-.142-.152-.4-.381l-.778.878a.879.879,0,0,0-.169.261.423.423,0,0,0-.017.255.713.713,0,0,0,.146.274,2.7,2.7,0,0,0,.312.318,2.594,2.594,0,0,0,.427.317.836.836,0,0,0,.375.119.814.814,0,0,0,.374-.075,2.267,2.267,0,0,0,.43-.261l.164.145-.931.918-2.785-2.468.151-.171a1.456,1.456,0,0,0,.245.171.332.332,0,0,0,.2.044.385.385,0,0,0,.19-.09,1.9,1.9,0,0,0,.232-.229l1.745-1.969a2.146,2.146,0,0,0,.2-.253.417.417,0,0,0,.073-.194.273.273,0,0,0-.053-.176,1.563,1.563,0,0,0-.175-.2l.151-.17,2.6,2.3-.711.861-.177-.157a1.467,1.467,0,0,0,.185-.365.633.633,0,0,0,.019-.319.789.789,0,0,0-.158-.314,2.746,2.746,0,0,0-.344-.354l-.464-.411c-.072-.063-.123-.093-.157-.089s-.079.04-.14.108Z" transform="translate(-81.31 -13.003)" fill="#537431"/>
    <path id="パス_4534" data-name="パス 4534" d="M165.851,34.433a1.2,1.2,0,0,1-.766.33,1.378,1.378,0,0,1-.877-.343l-.284,1.958a.864.864,0,0,0,.028.395.884.884,0,0,0,.183.329l-.17.152-.865-.971.387-2.168a.978.978,0,0,0,.014-.332.376.376,0,0,0-.081-.181l-.833.743a1.726,1.726,0,0,0-.239.249.372.372,0,0,0-.083.22.464.464,0,0,0,.085.245,2.7,2.7,0,0,0,.26.33l-.17.151-1.449-1.626.17-.152a1.379,1.379,0,0,0,.214.2.327.327,0,0,0,.189.067.393.393,0,0,0,.206-.069,1.977,1.977,0,0,0,.259-.2l1.965-1.75a2.479,2.479,0,0,0,.229-.226.4.4,0,0,0,.1-.182.276.276,0,0,0-.031-.181,1.627,1.627,0,0,0-.153-.228l.17-.151,1.263,1.418a2.2,2.2,0,0,1,.6,1.111.921.921,0,0,1-.315.861m-2.178-1.058.237.267a1.2,1.2,0,0,0,.668.437.836.836,0,0,0,.682-.266.81.81,0,0,0,.3-.55.785.785,0,0,0-.228-.59l-.318-.357a.087.087,0,0,0-.138-.009Z" transform="translate(-84.588 -16.31)" fill="#537431"/>
  </g>
</svg>
