<svg xmlns="http://www.w3.org/2000/svg" width="88.956" height="70.7" viewBox="0 0 88.956 70.7">
  <g id="グループ_1159" data-name="グループ 1159" transform="translate(-737.989 -51)">
    <g id="グループ_1157" data-name="グループ 1157" transform="translate(737.989 51)">
      <g id="グループ_811" data-name="グループ 811" transform="translate(52.352 22.333)">
        <path id="パス_764" data-name="パス 764" d="M247.531,135.529a9.329,9.329,0,0,0,1.573-1.973,8.283,8.283,0,0,0,1.042-4.219,10.466,10.466,0,0,0-.132-1.682,16.706,16.706,0,0,0-1.126,2.125A17.7,17.7,0,0,0,247.531,135.529Z" transform="translate(-247.462 -120.314)" fill="#fff"/>
        <path id="パス_765" data-name="パス 765" d="M282.747,125.6a14.894,14.894,0,0,0-3.861-5.344,15.76,15.76,0,0,0-5.689-3.105,23.615,23.615,0,0,0-6.971-1.015h-.645a23.783,23.783,0,0,0-7.021,1.015,15.761,15.761,0,0,0-5.689,3.105,13.764,13.764,0,0,0-1.748,1.828,10.468,10.468,0,0,1,.42,3.073,9.53,9.53,0,0,1-1.215,4.861,10.825,10.825,0,0,1-2.461,2.871,10.567,10.567,0,0,1,1.356.769,9.65,9.65,0,0,1,2.075,1.865,8.716,8.716,0,0,1,1.431,2.489,8.469,8.469,0,0,1,.532,3,10.959,10.959,0,0,1-.892,4.585c-.062.134-.136.255-.2.383.228.227.462.45.7.659a15.725,15.725,0,0,0,5.689,3.1,23.775,23.775,0,0,0,7.021,1.017h.646a23.614,23.614,0,0,0,6.972-1.017,15.733,15.733,0,0,0,5.688-3.1,14.94,14.94,0,0,0,3.861-5.32,18.988,18.988,0,0,0,1.435-7.721v-.249a19.175,19.175,0,0,0-1.435-7.747ZM275.5,137.912a10.644,10.644,0,0,1-2.011,3.515,8.856,8.856,0,0,1-3.157,2.306,10.238,10.238,0,0,1-4.108.8h-.648a10.42,10.42,0,0,1-4.129-.8,8.791,8.791,0,0,1-3.187-2.308,10.629,10.629,0,0,1-2.011-3.515,14.355,14.355,0,0,1,0-8.9,10.339,10.339,0,0,1,2.015-3.522,9.215,9.215,0,0,1,3.176-2.3,10.154,10.154,0,0,1,4.136-.825h.646a9.987,9.987,0,0,1,4.115.827,9.285,9.285,0,0,1,3.147,2.3,10.345,10.345,0,0,1,2.016,3.522,14.35,14.35,0,0,1,0,8.9Z" transform="translate(-247.584 -116.139)" fill="#fff"/>
        <path id="パス_766" data-name="パス 766" d="M250.156,146.6a8.391,8.391,0,0,0-1.8-1.618,9.447,9.447,0,0,0-.931-.544,18.593,18.593,0,0,0,1.424,7.142,15.819,15.819,0,0,0,2.238,3.652,9.765,9.765,0,0,0,.741-3.959,7.2,7.2,0,0,0-.45-2.548A7.456,7.456,0,0,0,250.156,146.6Z" transform="translate(-247.424 -126.4)" fill="#fff"/>
      </g>
      <path id="パス_767" data-name="パス 767" d="M195.154,139.433a13.2,13.2,0,0,1-3.594,3.007,15.161,15.161,0,0,1-7.6,1.748,12.182,12.182,0,0,1-3.961-.656,9.548,9.548,0,0,1-3.434-2.051,10.161,10.161,0,0,1-2.389-3.471,12.382,12.382,0,0,1-.9-4.9,12.572,12.572,0,0,1,.9-4.924,9.867,9.867,0,0,1,2.4-3.478A9.763,9.763,0,0,1,180,122.687a13.388,13.388,0,0,1,9.685.566,12.247,12.247,0,0,1,3.815,2.613c-.109-1.468-.2-2.937-.256-4.387-.07-1.685-.178-3.4-.313-5.111a3.488,3.488,0,0,1-.9.176c-.486.034-.994.052-1.51.052a10.921,10.921,0,0,1-2.469-.42,17.5,17.5,0,0,0-4.094-.378h-.646a23.791,23.791,0,0,0-7.022,1.015,15.764,15.764,0,0,0-5.688,3.105,14.914,14.914,0,0,0-3.86,5.344,19.174,19.174,0,0,0-1.438,7.747v.248a19.011,19.011,0,0,0,1.436,7.722,14.955,14.955,0,0,0,3.861,5.32,15.734,15.734,0,0,0,5.688,3.1,23.784,23.784,0,0,0,7.022,1.016h.646a35.244,35.244,0,0,0,5.029-.392,35.886,35.886,0,0,0,4.6-.962Z" transform="translate(-165.298 -93.68)" fill="#fff"/>
      <g id="グループ_812" data-name="グループ 812" transform="translate(27.171 23.108)">
        <path id="パス_768" data-name="パス 768" d="M209.54,154.151a47.4,47.4,0,0,1-.364,5.664,10.145,10.145,0,0,1-.78,2.907c.275-.07.55-.14.816-.215l1.566-9.634A13.156,13.156,0,0,1,209.54,154.151Z" transform="translate(-208.094 -130.232)" fill="#fff"/>
        <path id="パス_769" data-name="パス 769" d="M237.881,138.907a7.456,7.456,0,0,0-1.22-2.125,8.391,8.391,0,0,0-1.8-1.618,8.985,8.985,0,0,0-2.131-1.055l-1.209-.4,1.049-.724a9.97,9.97,0,0,0,3-3.159,8.283,8.283,0,0,0,1.042-4.219,7.306,7.306,0,0,0-1.156-4.339,7.616,7.616,0,0,0-3.083-2.492,14.475,14.475,0,0,0-4.466-1.15,50.124,50.124,0,0,0-5.137-.267H210.512c.118,1.552.217,3.1.28,4.632.081,1.917.206,3.874.371,5.816l.04.47-1,.4v10.8a12.465,12.465,0,0,0,1.42-1.943l.23-.389,1.294.259-2.121,13.043h17.093a14.889,14.889,0,0,0,4.071-.541,9.11,9.11,0,0,0,3.236-1.627,7.486,7.486,0,0,0,2.126-2.763,9.692,9.692,0,0,0,.776-4.056A7.2,7.2,0,0,0,237.881,138.907Zm-20.116-15.254.571-.06q.942-.1,1.958-.173c.68-.05,1.364-.076,2.035-.076a10.484,10.484,0,0,1,4.739.81,2.917,2.917,0,0,1,1.74,2.675,3.945,3.945,0,0,1-2.771,3.753,20.54,20.54,0,0,1-7.635,1.056h-.638ZM229.5,142.594a5.325,5.325,0,0,1-2.032,1.259,9.8,9.8,0,0,1-2.442.5c-.82.07-1.581.1-2.259.1-1.259,0-2.74-.05-4.405-.148l-.6-.035v-7.54l.6-.032c1.223-.064,2.447-.171,3.636-.315s2.378-.35,3.522-.6l.14-.015a4.582,4.582,0,0,1,1.71.341,5.236,5.236,0,0,1,1.508.922,5.044,5.044,0,0,1,1.1,1.348,3.58,3.58,0,0,1,.448,1.757,3.343,3.343,0,0,1-.923,2.463Z" transform="translate(-208.749 -117.354)" fill="#fff"/>
        <path id="パス_770" data-name="パス 770" d="M208.5,118.656c-.029-.434-.059-.867-.092-1.3h-.489a6.746,6.746,0,0,1,.581,1.3Z" transform="translate(-207.922 -117.354)" fill="#fff"/>
      </g>
      <g id="グループ_779" data-name="グループ 779" transform="translate(10.243 0)">
        <g id="グループ_740" data-name="グループ 740" transform="translate(0)">
          <g id="パス_717" data-name="パス 717" transform="translate(0 12.596)">
            <g id="グループ_817" data-name="グループ 817" transform="translate(0 0)">
              <path id="パス_775" data-name="パス 775" d="M185.306,102.3a1.589,1.589,0,0,1,.383.761,1.549,1.549,0,0,1-.079.835,2.127,2.127,0,0,1-.553.8,1.883,1.883,0,0,1-.909.51,1.654,1.654,0,0,1-.979-.1,2.748,2.748,0,0,1-.956-.684l-.122-.127a2.657,2.657,0,0,1-.629-1,1.743,1.743,0,0,1-.043-.986,1.8,1.8,0,0,1,.529-.862,2.077,2.077,0,0,1,.855-.522,1.534,1.534,0,0,1,.839-.008,1.888,1.888,0,0,1,.751.42l-.814.773a.74.74,0,0,0-.472-.255.769.769,0,0,0-.525.266.666.666,0,0,0-.21.36.691.691,0,0,0,.1.44,2.741,2.741,0,0,0,.446.583l.127.133a3.122,3.122,0,0,0,.555.489.637.637,0,0,0,.429.12.739.739,0,0,0,.393-.215.973.973,0,0,0,.231-.31.489.489,0,0,0,.031-.315.74.74,0,0,0-.191-.325Z" transform="translate(-181.366 -100.864)" fill="#fff"/>
            </g>
          </g>
          <g id="パス_718" data-name="パス 718" transform="translate(2.55 9.162)">
            <g id="グループ_818" data-name="グループ 818" transform="translate(0 0)">
              <path id="パス_776" data-name="パス 776" d="M188.956,100.5l-.887.7-2.7-3.436.888-.7Zm.33-2.513-1.722,1.35L187,98.627l1.721-1.352Zm1.69.924-.883.694-2.7-3.436.882-.694Z" transform="translate(-185.366 -95.477)" fill="#fff"/>
            </g>
          </g>
          <g id="パス_719" data-name="パス 719" transform="translate(6.222 8.024)">
            <g id="グループ_819" data-name="グループ 819">
              <path id="パス_777" data-name="パス 777" d="M194.515,97.306l-.928.629-2.46-3.615.928-.629Z" transform="translate(-191.127 -93.691)" fill="#fff"/>
            </g>
          </g>
          <g id="パス_720" data-name="パス 720" transform="translate(7.895 5.96)">
            <g id="グループ_820" data-name="グループ 820" transform="translate(0 0)">
              <path id="パス_778" data-name="パス 778" d="M196.958,95.191l-.97.579-2.238-3.754.97-.579Zm-.127-3.956-1.989,1.189-.466-.781,1.991-1.189Zm.587,1.58-1.727,1.031-.446-.75,1.727-1.031Zm1.18,1.4L196.614,95.4l-.464-.778,1.982-1.183Z" transform="translate(-193.75 -90.454)" fill="#fff"/>
            </g>
          </g>
          <g id="パス_721" data-name="パス 721" transform="translate(11.07 4.351)">
            <g id="グループ_821" data-name="グループ 821" transform="translate(0)">
              <path id="パス_779" data-name="パス 779" d="M201.692,92.653l-1.01.5-1.95-3.916,1.01-.5Zm.082-3.908-1.908.95-.406-.814,1.908-.951Zm.648,1.663-1.763.878-.4-.811,1.763-.878Z" transform="translate(-198.731 -87.93)" fill="#fff"/>
            </g>
          </g>
          <g id="パス_722" data-name="パス 722" transform="translate(15.858 2.697)">
            <g id="グループ_822" data-name="グループ 822" transform="translate(0 0)">
              <path id="パス_780" data-name="パス 780" d="M207.772,88.234l-.263-.712.845-.3a.851.851,0,0,0,.427-.267.376.376,0,0,0,.025-.35.414.414,0,0,0-.26-.287.832.832,0,0,0-.486.064l-.446.161,1.171,3.258-1.063.383-1.479-4.114,1.508-.545a2.346,2.346,0,0,1,1.313-.151,1.02,1.02,0,0,1,.746.706,1.158,1.158,0,0,1,.064.515.866.866,0,0,1-.233.494,1.551,1.551,0,0,1-.653.388l-.173.388Zm.356,1.8.055-.984.9-.324a.575.575,0,0,0,.356-.262.412.412,0,0,0,.015-.315.629.629,0,0,0-.134-.229.35.35,0,0,0-.21-.1.622.622,0,0,0-.3.044l-.848.3-.252-.717,1-.359.354.2a1.329,1.329,0,0,1,.708-.14.818.818,0,0,1,.472.222,1.1,1.1,0,0,1,.264.41,1.164,1.164,0,0,1-.064,1.064,2,2,0,0,1-1.062.733Z" transform="translate(-206.244 -85.335)" fill="#fff"/>
            </g>
          </g>
          <g id="パス_723" data-name="パス 723" transform="translate(19.907 1.48)">
            <g id="グループ_823" data-name="グループ 823" transform="translate(0 0)">
              <path id="パス_781" data-name="パス 781" d="M214.285,83.516a2.373,2.373,0,0,1,.9-.077,1.18,1.18,0,0,1,1.055.94,1.546,1.546,0,0,1,.051.652,1.081,1.081,0,0,1-.206.482,2.06,2.06,0,0,1-.4.388l-.3.311-1.38.36-.236-.879,1-.262a.717.717,0,0,0,.286-.14.4.4,0,0,0,.134-.22.624.624,0,0,0-.014-.3.538.538,0,0,0-.234-.35.547.547,0,0,0-.43-.033l-.6.157.875,3.35-1.089.285-1.1-4.23Zm.29,2.454,1.154-.31,1.406,1.582.012.046-1.168.3Z" transform="translate(-212.594 -83.426)" fill="#fff"/>
            </g>
          </g>
          <g id="パス_724" data-name="パス 724" transform="translate(24.488 0.577)">
            <g id="グループ_824" data-name="グループ 824" transform="translate(0 0)">
              <path id="パス_782" data-name="パス 782" d="M220.974,86.56l-1.194.2.874-4.574.753-.124.04,1.062Zm1.7-1.02-2.213.364-.148-.9,2.213-.364Zm-1.42-2.387-.319-1.016.762-.127,2.3,4.056-1.194.2Z" transform="translate(-219.78 -82.009)" fill="#fff"/>
            </g>
          </g>
          <g id="パス_725" data-name="パス 725" transform="translate(28.589 0.013)">
            <g id="グループ_825" data-name="グループ 825" transform="translate(0 0)">
              <path id="パス_783" data-name="パス 783" d="M230.2,85.487l-1.119.076-1.616-2.423.171,2.522-1.123.076-.3-4.361,1.124-.076,1.608,2.422-.171-2.522,1.119-.076Z" transform="translate(-226.215 -81.124)" fill="#fff"/>
            </g>
          </g>
          <g id="パス_726" data-name="パス 726" transform="translate(33.116)">
            <g id="グループ_826" data-name="グループ 826">
              <path id="パス_784" data-name="パス 784" d="M234.444,85.5l-1.128-.027.1-4.37,1.129.027Zm-.65-.015.027-.909.956.022a.834.834,0,0,0,.484-.12.817.817,0,0,0,.306-.392,1.91,1.91,0,0,0,.118-.671l0-.153a1.894,1.894,0,0,0-.085-.67.8.8,0,0,0-.291-.4.885.885,0,0,0-.494-.144l-.964-.022.022-.909.964.022a2.062,2.062,0,0,1,1.055.3,1.917,1.917,0,0,1,.7.765,2.249,2.249,0,0,1,.235,1.1l0,.148a2.237,2.237,0,0,1-.287,1.089,1.916,1.916,0,0,1-.736.729,2.028,2.028,0,0,1-1.055.243Z" transform="translate(-233.316 -81.104)" fill="#fff"/>
            </g>
          </g>
          <g id="パス_727" data-name="パス 727" transform="translate(37.077 0.166)">
            <g id="グループ_827" data-name="グループ 827" transform="translate(0 0)">
              <path id="パス_785" data-name="パス 785" d="M240.65,85.818l-1.119-.1.383-4.354,1.119.1Z" transform="translate(-239.531 -81.365)" fill="#fff"/>
            </g>
          </g>
          <g id="パス_728" data-name="パス 728" transform="translate(38.826 0.334)">
            <g id="グループ_828" data-name="グループ 828" transform="translate(0 0)">
              <path id="パス_786" data-name="パス 786" d="M245.92,86.526l-1.109-.177-1.03-2.723-.4,2.5-1.112-.177.686-4.318,1.112.177,1.03,2.723.4-2.5,1.109.177Z" transform="translate(-242.273 -81.628)" fill="#fff"/>
            </g>
          </g>
          <g id="パス_729" data-name="パス 729" transform="translate(43.324 1.428)">
            <g id="グループ_829" data-name="グループ 829" transform="translate(0 0)">
              <path id="パス_787" data-name="パス 787" d="M252.635,87.64a1.615,1.615,0,0,1-.406.169,2.378,2.378,0,0,1-.624.083,3.129,3.129,0,0,1-.824-.112,2.048,2.048,0,0,1-.931-.5,1.678,1.678,0,0,1-.475-.874,2.568,2.568,0,0,1,.059-1.193l.05-.191a2.575,2.575,0,0,1,.529-1.076,1.719,1.719,0,0,1,.829-.538,1.892,1.892,0,0,1,1,0,2.224,2.224,0,0,1,.92.438,1.334,1.334,0,0,1,.426.667,1.964,1.964,0,0,1,.031.829l-1.049-.271a.956.956,0,0,0-.014-.364.5.5,0,0,0-.161-.255.849.849,0,0,0-.341-.159.668.668,0,0,0-.433.025.839.839,0,0,0-.364.325,2.164,2.164,0,0,0-.269.658l-.051.2a2.237,2.237,0,0,0-.085.7.769.769,0,0,0,.176.466.877.877,0,0,0,.455.255,1.286,1.286,0,0,0,.255.043.834.834,0,0,0,.187-.009.472.472,0,0,0,.124-.036l.148-.573-.659-.171.2-.773,1.753.453Z" transform="translate(-249.331 -83.344)" fill="#fff"/>
            </g>
          </g>
          <g id="パス_730" data-name="パス 730" transform="translate(48.843 3.285)">
            <g id="グループ_830" data-name="グループ 830" transform="translate(0 0)">
              <path id="パス_788" data-name="パス 788" d="M261.784,89.271a2.552,2.552,0,0,1-.665.99,1.807,1.807,0,0,1-.914.441,1.894,1.894,0,0,1-1.02-.127,1.918,1.918,0,0,1-.835-.619,1.8,1.8,0,0,1-.357-.952,2.545,2.545,0,0,1,.206-1.175l.048-.12a2.561,2.561,0,0,1,.664-.99,1.8,1.8,0,0,1,.914-.443,2.028,2.028,0,0,1,1.858.747,1.831,1.831,0,0,1,.356.956,2.536,2.536,0,0,1-.2,1.175Zm-1.011-.552a2.248,2.248,0,0,0,.174-.678.859.859,0,0,0-.093-.489.738.738,0,0,0-.8-.324.848.848,0,0,0-.4.292,2.36,2.36,0,0,0-.34.61l-.05.127a2.328,2.328,0,0,0-.175.671.879.879,0,0,0,.085.5.666.666,0,0,0,.354.3.648.648,0,0,0,.451.025.888.888,0,0,0,.406-.3,2.273,2.273,0,0,0,.341-.6Z" transform="translate(-257.988 -86.258)" fill="#fff"/>
            </g>
          </g>
          <g id="パス_731" data-name="パス 731" transform="translate(52.226 4.561)">
            <g id="グループ_831" data-name="グループ 831" transform="translate(0)">
              <path id="パス_789" data-name="パス 789" d="M264.3,92.671l-1.008-.51,1.972-3.9,1.007.51Zm2.238-.757-1.758-.889.409-.81,1.757.889Zm.947-1.513-1.9-.962.41-.811,1.9.962Z" transform="translate(-263.295 -88.259)" fill="#fff"/>
            </g>
          </g>
          <g id="パス_732" data-name="パス 732" transform="translate(55.138 6.215)">
            <g id="グループ_832" data-name="グループ 832" transform="translate(0 0)">
              <path id="パス_790" data-name="パス 790" d="M268.831,95.18l-.967-.583,2.259-3.743.966.584Zm2.287-.587-1.687-1.02.469-.775,1.687,1.02Zm1.059-1.438-1.825-1.1.47-.779,1.825,1.1Z" transform="translate(-267.864 -90.854)" fill="#fff"/>
            </g>
          </g>
          <g id="パス_733" data-name="パス 733" transform="translate(57.992 8.121)">
            <g id="グループ_833" data-name="グループ 833">
              <path id="パス_791" data-name="パス 791" d="M273.268,98.088l-.927-.638,2.473-3.6.927.638Z" transform="translate(-272.341 -93.845)" fill="#fff"/>
            </g>
          </g>
          <g id="パス_734" data-name="パス 734" transform="translate(60.046 9.89)">
            <g id="グループ_834" data-name="グループ 834" transform="translate(0 0)">
              <path id="パス_792" data-name="パス 792" d="M278.7,100.467a1.586,1.586,0,0,1-.7.489,1.538,1.538,0,0,1-.839.042,2.129,2.129,0,0,1-.868-.432,1.884,1.884,0,0,1-.638-.829,1.66,1.66,0,0,1-.043-.979,2.756,2.756,0,0,1,.539-1.042l.11-.14a2.668,2.668,0,0,1,.9-.765,1.741,1.741,0,0,1,.969-.184,1.8,1.8,0,0,1,.929.4,2.08,2.08,0,0,1,.638.769,1.531,1.531,0,0,1,.127.829,1.893,1.893,0,0,1-.306.8l-.883-.7a.738.738,0,0,0,.186-.5.761.761,0,0,0-.339-.482.664.664,0,0,0-.386-.157.69.69,0,0,0-.42.157,2.789,2.789,0,0,0-.51.527l-.113.144a3.15,3.15,0,0,0-.4.618.64.64,0,0,0-.057.442.734.734,0,0,0,.27.358.969.969,0,0,0,.341.184.489.489,0,0,0,.319-.015.733.733,0,0,0,.294-.234Z" transform="translate(-275.563 -96.62)" fill="#fff"/>
            </g>
          </g>
          <g id="パス_735" data-name="パス 735" transform="translate(62.517 11.973)">
            <g id="グループ_835" data-name="グループ 835" transform="translate(0 0)">
              <path id="パス_793" data-name="パス 793" d="M280.269,103.855l-.829-.769,2.98-3.2.829.769Zm1.4,1.3-1.689-1.574.617-.664,1.689,1.574Zm1.013-1.523-1.469-1.371.6-.638L283.275,103Zm1.354-1-1.7-1.58.621-.666,1.7,1.58Z" transform="translate(-279.44 -99.887)" fill="#fff"/>
            </g>
          </g>
          <g id="パス_736" data-name="パス 736" transform="translate(64.968 14.528)">
            <g id="グループ_836" data-name="グループ 836" transform="translate(0 0)">
              <path id="パス_794" data-name="パス 794" d="M287.7,105.185a2.36,2.36,0,0,1,.486.759,1.18,1.18,0,0,1-.343,1.371,1.55,1.55,0,0,1-.554.35,1.1,1.1,0,0,1-.522.041,2.056,2.056,0,0,1-.528-.171l-.415-.122-.96-1.055.669-.616.7.765a.71.71,0,0,0,.255.191.4.4,0,0,0,.255.018.639.639,0,0,0,.258-.152.54.54,0,0,0,.2-.367.547.547,0,0,0-.171-.4l-.42-.459-2.561,2.329-.758-.833,3.234-2.941Zm-2.04,1.4.811.878-.748,1.976-.036.032-.812-.892Z" transform="translate(-283.285 -103.895)" fill="#fff"/>
            </g>
          </g>
        </g>
      </g>
    </g>
    <path id="パス_979" data-name="パス 979" d="M1.83-12.4H8.012v1.106H1.83ZM1.5-8.426V-9.556H8.535a6.433,6.433,0,0,1-.42,2.308,4.385,4.385,0,0,1-1.161,1.71A5.719,5.719,0,0,1,5.4-4.489a7.217,7.217,0,0,1-1.338.5q-.648.166-1.468.3v-1.21a7.745,7.745,0,0,0,2.4-.713A4.36,4.36,0,0,0,6.377-6.715a3.613,3.613,0,0,0,.8-1.712ZM15.549-14.62h.9v1.762h-.9Zm1.415,0h.9v1.762h-.9Zm.844,4.266H14.73v6.731H13.623v-6.728H10.579v-1.189H13.6V-12.9h1.153v1.355h3.057ZM12.244-8.914q-.012,1.474-.119,2.491T11.792-4.04H10.651q.262-1.593.38-2.592a21.161,21.161,0,0,0,.131-2.282Zm4.981,0a21.161,21.161,0,0,0,.131,2.28q.119,1,.38,2.592H16.595q-.226-1.364-.333-2.382t-.119-2.489Z" transform="translate(773.209 125.325)" fill="#fff"/>
  </g>
</svg>
