<svg xmlns="http://www.w3.org/2000/svg" width="122.749" height="66.566" viewBox="0 0 122.749 66.566">
  <g id="グループ_55759" data-name="グループ 55759" transform="translate(-283.538 -5576.568)">
    <g id="王冠のフリーアイコンです_" data-name="王冠のフリーアイコンです。" transform="translate(321 5517.529)">
      <path id="パス_4566" data-name="パス 4566" d="M45.384,100.852a3.6,3.6,0,0,0-1.776,6.742,7.837,7.837,0,0,1-3.257,4.7c-3.355,1.9-6.383-1.135-4.614-9.354a3.61,3.61,0,1,0-2.473-.507c-.963,4.739-2.436,6.63-4.25,6.382-2.711-.369-3.125-4.039-3.139-10.835a3.613,3.613,0,1,0-2.753,0c-.015,6.8-.431,10.465-3.14,10.835-1.815.248-3.288-1.643-4.25-6.382a3.616,3.616,0,1,0-2.473.507C15.029,111.162,12,114.2,8.645,112.3a7.835,7.835,0,0,1-3.257-4.7,3.609,3.609,0,1,0-2.288.434l2.515,14.579H43.381L45.9,108.026a3.6,3.6,0,0,0-.511-7.174Z" transform="translate(0 0)" fill="#b59a66"/>
      <path id="パス_4566_-_アウトライン" data-name="パス 4566 - アウトライン" d="M24.5,91.031a3.612,3.612,0,0,0-1.376,6.952c-.015,6.8-.431,10.465-3.14,10.835-1.815.248-3.288-1.643-4.25-6.382a3.616,3.616,0,1,0-2.473.507C15.029,111.162,12,114.2,8.645,112.3a7.835,7.835,0,0,1-3.257-4.7,3.609,3.609,0,1,0-2.288.434l2.515,14.579H43.381L45.9,108.026a3.617,3.617,0,1,0-2.288-.432,7.837,7.837,0,0,1-3.257,4.7c-3.355,1.9-6.383-1.135-4.614-9.354a3.61,3.61,0,1,0-2.473-.507c-.963,4.739-2.436,6.63-4.25,6.382-2.711-.369-3.125-4.039-3.139-10.835A3.612,3.612,0,0,0,24.5,91.031m0-3a6.622,6.622,0,0,1,6.6,6.157A6.611,6.611,0,0,1,41.78,98.922a6.606,6.606,0,1,1,6.776,11.33l-2.649,15.353H3.089L.441,110.252a6.628,6.628,0,0,1-1.8-1.434A6.579,6.579,0,0,1-3,104.465,6.61,6.61,0,0,1,7.216,98.923,6.61,6.61,0,0,1,17.9,94.189,6.622,6.622,0,0,1,24.5,88.031Zm-4.856,17.093a11.1,11.1,0,0,0,.224-1.241c.084-.645.145-1.39.187-2.3a6.55,6.55,0,0,1-1,1.84A11.674,11.674,0,0,0,19.642,105.124Zm10.306-1.7a6.546,6.546,0,0,1-1-1.837c.041.91.1,1.654.186,2.3a11.1,11.1,0,0,0,.223,1.24A11.685,11.685,0,0,0,29.948,103.422Zm-19.335,1.737q-.206-.114-.4-.242a6.59,6.59,0,0,1-1.273,3.449,3.476,3.476,0,0,0,1.194,1.324,1.8,1.8,0,0,0,.22.108C10.608,109.34,11.01,107.938,10.613,105.159Zm29.447,3.208a6.593,6.593,0,0,1-1.274-3.45q-.2.128-.4.241c-.4,2.779.005,4.182.262,4.639a1.831,1.831,0,0,0,.224-.11A3.47,3.47,0,0,0,40.06,108.367Z" transform="translate(0 0)" fill="#0d3864"/>
    </g>
    <g id="グループ_54852" data-name="グループ 54852" transform="translate(0.5 458)">
      <g id="グループ_55760" data-name="グループ 55760">
        <path id="パス_5031" data-name="パス 5031" d="M-34.506-7l.054,5.6v.36a12.118,12.118,0,0,1-.09,1.89h2.052A18.545,18.545,0,0,1-32.6-1.44l-.108-8.19h1.89c.918,0,1.674.018,2.142.072v-1.854a12.725,12.725,0,0,1-2.16.126h-1.89l-.018-1.44v-.5a9.036,9.036,0,0,1,.072-1.206h-2a12.747,12.747,0,0,1,.09,1.746l.018,1.4-6.192.018a12.431,12.431,0,0,1-2.34-.126v1.872a20.783,20.783,0,0,1,2.286-.09l5.166-.018a18.633,18.633,0,0,1-2.484,3.078,19.723,19.723,0,0,1-5.85,4.068,4.137,4.137,0,0,1,1.26,1.548,26.246,26.246,0,0,0,2.79-1.746A22,22,0,0,0-36.09-6.156a10.579,10.579,0,0,0,1.638-2.3c-.054.882-.054,1.044-.054,1.26Zm24.084,5.886a42.761,42.761,0,0,0-5.994-5.2,21.612,21.612,0,0,0,2.88-4.968A2.869,2.869,0,0,1-13-12.2L-14-13.266a3.253,3.253,0,0,1-1.422.18L-21.42-13h-.486A13.907,13.907,0,0,1-23.76-13.1l.054,1.962a16.551,16.551,0,0,1,2.3-.144l5.22-.09c.234,0,.342,0,.558-.018a1.428,1.428,0,0,1-.072.162,1.386,1.386,0,0,0-.108.27,18.476,18.476,0,0,1-6.21,7.65,14.773,14.773,0,0,1-3.618,2A5.413,5.413,0,0,1-24.408.36a20.98,20.98,0,0,0,6.876-5.274A35.381,35.381,0,0,1-11.916.54Zm18,0a42.761,42.761,0,0,0-5.994-5.2,21.612,21.612,0,0,0,2.88-4.968A2.869,2.869,0,0,1,5-12.2L4-13.266a3.253,3.253,0,0,1-1.422.18L-3.42-13h-.486A13.907,13.907,0,0,1-5.76-13.1l.054,1.962a16.551,16.551,0,0,1,2.3-.144l5.22-.09c.234,0,.342,0,.558-.018a1.428,1.428,0,0,1-.072.162,1.386,1.386,0,0,0-.108.27,18.476,18.476,0,0,1-6.21,7.65,14.773,14.773,0,0,1-3.618,2A5.413,5.413,0,0,1-6.408.36,20.98,20.98,0,0,0,.468-4.914,35.381,35.381,0,0,1,6.084.54Zm13.68-13.122a8.252,8.252,0,0,1-.63,1.89,25.5,25.5,0,0,1-2,4.032l-1.6-1.134c-.846-.612-1.656-1.134-2.952-1.908l-1.314,1.332a32.161,32.161,0,0,1,4.806,3.24A18.9,18.9,0,0,1,10.53-1.044,4.569,4.569,0,0,1,11.844.522a23.139,23.139,0,0,0,4.23-2.934A20.617,20.617,0,0,0,19.008-5.58a25.041,25.041,0,0,1,3.744,3.852l1.44-1.548a38.123,38.123,0,0,0-4.068-3.852,27.722,27.722,0,0,0,2.592-5.166,7.76,7.76,0,0,1,.594-1.224ZM36.882-3.528c-.018-.342-.036-.774-.036-.972v-.306c.018-.144.018-.4.018-.72l.216-6.246c.018-.72.054-1.422.126-2.106h-2.43c.072.558.108,1.35.144,2.106l.2,6.246c.036.81.036.81.036,1.1a8.019,8.019,0,0,1-.054.9ZM37.134.2v-2.16h-2.25V.2Z" transform="translate(344 5134)" fill="#fff"/>
      </g>
      <path id="パス_4567" data-name="パス 4567" d="M9590.051,442.813l-6.825-16.48.924-.383,6.825,16.48Z" transform="translate(-9300.188 4692.619)" fill="#fff"/>
      <path id="パス_4568" data-name="パス 4568" d="M9584.148,442.813l-.924-.383,6.825-16.48.924.383Z" transform="translate(-9185.187 4692.619)" fill="#fff"/>
    </g>
  </g>
</svg>
