<svg xmlns="http://www.w3.org/2000/svg" width="657" height="371" viewBox="0 0 657 371">
  <g id="グループ_55762" data-name="グループ 55762" transform="translate(-559 -7547)">
    <path id="パス_5025" data-name="パス 5025" d="M0,0H657V371H0Z" transform="translate(559 7547)" fill="#fff"/>
    <path id="パス_5033" data-name="パス 5033" d="M0,0H603V57H0Z" transform="translate(586 7836)" fill="#0d3864"/>
    <path id="パス_5033_-_アウトライン" data-name="パス 5033 - アウトライン" d="M1,1V56H602V1H1M0,0H603V57H0Z" transform="translate(586 7836)" fill="#0d3864"/>
    <path id="パス_5026" data-name="パス 5026" d="M0,0H288V57H0Z" transform="translate(586 7663)" fill="#fff"/>
    <path id="パス_5026_-_アウトライン" data-name="パス 5026 - アウトライン" d="M1,1V56H287V1H1M0,0H288V57H0Z" transform="translate(586 7663)" fill="#0d3864"/>
    <path id="パス_5028" data-name="パス 5028" d="M0,0H140V57H0Z" transform="translate(586 7749)" fill="#0d3864"/>
    <path id="パス_5029" data-name="パス 5029" d="M0,0H140V57H0Z" transform="translate(734 7749)" fill="#fff"/>
    <path id="パス_5029_-_アウトライン" data-name="パス 5029 - アウトライン" d="M1,1V56H139V1H1M0,0H140V57H0Z" transform="translate(734 7749)" fill="#0d3864"/>
    <g id="グループ_55726" data-name="グループ 55726" transform="translate(586 7574)">
      <rect id="長方形_1627" data-name="長方形 1627" width="603" height="57" fill="#d6d6d6"/>
      <path id="パス_5037" data-name="パス 5037" d="M9.962-11.713a22.332,22.332,0,0,1-.578,5.7A10.391,10.391,0,0,1,5.661.017a4.5,4.5,0,0,1,1,1.054A11.972,11.972,0,0,0,8.33-.731a12.517,12.517,0,0,0,2.244-4.777,25.2,25.2,0,0,0,.7-6.205h2.941a78.1,78.1,0,0,1-.476,9.622c-.2,1.513-.323,1.666-1.173,1.666a17,17,0,0,1-2.312-.221A4.45,4.45,0,0,1,10.557.731c1.02.085,1.394.1,2.057.1A3.428,3.428,0,0,0,13.889.68a1.675,1.675,0,0,0,.986-1.343,66.023,66.023,0,0,0,.663-10.217,14.467,14.467,0,0,1,.085-2.074,12.221,12.221,0,0,1-1.649.085H9.18a14.689,14.689,0,0,1-1.955-.1v1.36a14,14,0,0,1,1.955-.1ZM7.31-8.517a10.406,10.406,0,0,1-1.785,2.5,7.116,7.116,0,0,1-.867-.8,15.2,15.2,0,0,0,2.074-3.23,5.577,5.577,0,0,1,.34-.663l-.595-.731a8.146,8.146,0,0,1-1.258.068h-.6v-1.411a5.945,5.945,0,0,1,.1-1.394H3.264a8.282,8.282,0,0,1,.1,1.411v1.394h-.7a8.835,8.835,0,0,1-1.615-.085v1.309a12.463,12.463,0,0,1,1.6-.085H5.474a11.811,11.811,0,0,1-2.5,3.57A12.574,12.574,0,0,1,.374-4.59a4.193,4.193,0,0,1,.7,1.156A15.96,15.96,0,0,0,3.366-5.372c-.017.561-.017.9-.017.969V-.765a16.609,16.609,0,0,1-.1,2.023H4.675A14.338,14.338,0,0,1,4.59-.748v-4.1c0-.221,0-.34-.017-.646A16.505,16.505,0,0,0,6.953-3.57a5.2,5.2,0,0,1,.7-1,10.7,10.7,0,0,1-1.292-.816,21.066,21.066,0,0,0,1.9-2.4Zm22.168,1.5a10.357,10.357,0,0,1-1.564,3.23A10.7,10.7,0,0,1,26.4-6.919l-1.19.578a18.513,18.513,0,0,0,1.921,3.536A10.491,10.491,0,0,1,22.474.187a4.228,4.228,0,0,1,.782,1.139,11.842,11.842,0,0,0,4.658-3.162A11.209,11.209,0,0,0,29.393-.493a12.183,12.183,0,0,0,3.281,1.8A4.771,4.771,0,0,1,33.4.034a11.818,11.818,0,0,1-3.077-1.445A8.444,8.444,0,0,1,28.7-2.805a19.089,19.089,0,0,0,2.023-3.672Zm-3.655-3.213A8.925,8.925,0,0,1,23.46-6.817a7.787,7.787,0,0,1-1.887-2.89h.765a10.185,10.185,0,0,1,1.054.051V-10.9a6.03,6.03,0,0,1-1.071.068h-.782v-1.649a11.08,11.08,0,0,1,.085-1.751H20.213a10.543,10.543,0,0,1,.085,1.768v1.632H19.244a8.288,8.288,0,0,1-1.258-.068v1.258a8.727,8.727,0,0,1,1.258-.068h.884a15.059,15.059,0,0,1-2.652,5.678,5.466,5.466,0,0,1,.748,1.258A14.027,14.027,0,0,0,20.383-7.6c-.068,1.36-.085,1.887-.085,2.55v4.42a15.019,15.019,0,0,1-.1,2.006h1.445a14.673,14.673,0,0,1-.1-2.006v-4.76c0-.2-.017-1.156-.017-1.309-.034-1.02-.034-1.02-.051-1.343a8.863,8.863,0,0,0,1.36,2.38,5.1,5.1,0,0,1,.391-.731,3.782,3.782,0,0,1,.731.867,12.925,12.925,0,0,0,3.009-4.182Zm1.5-1.581H25.466a12.8,12.8,0,0,1-1.785-.1v1.377a13.066,13.066,0,0,1,1.8-.1h5.848c.68,0,1.275.034,1.785.085V-11.9a17.188,17.188,0,0,1-1.785.085H28.594v-.867a6.921,6.921,0,0,1,.1-1.309H27.234a8.926,8.926,0,0,1,.085,1.326Zm1.632,2.091a12.95,12.95,0,0,0,3.366,4A5.554,5.554,0,0,1,33.1-6.868a10.987,10.987,0,0,1-3.094-3.417Zm19.856-2.941a3.8,3.8,0,0,1-1.5.119H38.267a13.475,13.475,0,0,1-2.125-.119v1.547a17.1,17.1,0,0,1,2.091-.085h9.452a8.439,8.439,0,0,1-1.819,2.414,7.584,7.584,0,0,1-2.635,1.6,4.3,4.3,0,0,1,1.037,1.139,10.431,10.431,0,0,0,4.93-4.964,3.911,3.911,0,0,1,.425-.714Zm-7.6,3.077a3.745,3.745,0,0,1,.068.935c0,3.3-.629,4.947-2.414,6.392A8.057,8.057,0,0,1,35.8-.748,4.117,4.117,0,0,1,36.737.629a9.65,9.65,0,0,0,4.369-2.975c1.156-1.479,1.615-3.128,1.683-6a6.473,6.473,0,0,1,.068-1.241Zm12.767.578a14.375,14.375,0,0,1,1.581,3.876l1.377-.459A19.569,19.569,0,0,0,55.25-9.435Zm3.536-.714a15.717,15.717,0,0,1,1.564,3.791l1.343-.459a18.194,18.194,0,0,0-1.649-3.723Zm5.882-.068a9.537,9.537,0,0,1-.612,2.8A10.5,10.5,0,0,1,56.355-.374,4.334,4.334,0,0,1,57.324.782a13.216,13.216,0,0,0,4.9-3.791,14.064,14.064,0,0,0,2.448-5.678,7.276,7.276,0,0,1,.221-.782Zm7.7-2.21a11.907,11.907,0,0,1-2.108-.119v1.615a16.191,16.191,0,0,1,2.074-.1h8.4a12.444,12.444,0,0,1-5.3,7.9A13.275,13.275,0,0,1,70.346-.918,4.107,4.107,0,0,1,71.366.493a15.932,15.932,0,0,0,5.372-3.264,14.716,14.716,0,0,0,4.25-7.412l.1-.357a2.036,2.036,0,0,0,.561.085,1.937,1.937,0,0,0,1.938-1.938,1.937,1.937,0,0,0-1.938-1.938,1.937,1.937,0,0,0-1.938,1.938,2.79,2.79,0,0,0,.034.391Zm10.557-1.581a1.2,1.2,0,0,1,1.19,1.19,1.2,1.2,0,0,1-1.19,1.19,1.2,1.2,0,0,1-1.19-1.19A1.2,1.2,0,0,1,81.651-13.583Z" transform="translate(259 34)" fill="#0d3864"/>
    </g>
    <path id="パス_5035" data-name="パス 5035" d="M13.212-7.434a10.966,10.966,0,0,1-1.656,3.42,11.332,11.332,0,0,1-1.6-3.312l-1.26.612A19.6,19.6,0,0,0,10.728-2.97,11.108,11.108,0,0,1,5.8.2,4.477,4.477,0,0,1,6.624,1.4a12.539,12.539,0,0,0,4.932-3.348A11.868,11.868,0,0,0,13.122-.522,12.9,12.9,0,0,0,16.6,1.386,5.052,5.052,0,0,1,17.37.036a12.513,12.513,0,0,1-3.258-1.53A8.94,8.94,0,0,1,12.384-2.97a20.212,20.212,0,0,0,2.142-3.888Zm-3.87-3.4a9.45,9.45,0,0,1-2.5,3.618,8.245,8.245,0,0,1-2-3.06h.81a10.783,10.783,0,0,1,1.116.054v-1.314a6.385,6.385,0,0,1-1.134.072H4.806v-1.746a11.732,11.732,0,0,1,.09-1.854H3.4a11.163,11.163,0,0,1,.09,1.872v1.728H2.376a8.776,8.776,0,0,1-1.332-.072v1.332a9.241,9.241,0,0,1,1.332-.072h.936A15.945,15.945,0,0,1,.5-4.266,5.788,5.788,0,0,1,1.3-2.934,14.852,14.852,0,0,0,3.582-8.046c-.072,1.44-.09,2-.09,2.7v4.68a15.9,15.9,0,0,1-.108,2.124h1.53A15.536,15.536,0,0,1,4.806-.666v-5.04c0-.216-.018-1.224-.018-1.386-.036-1.08-.036-1.08-.054-1.422a9.384,9.384,0,0,0,1.44,2.52,5.4,5.4,0,0,1,.414-.774,4,4,0,0,1,.774.918,13.685,13.685,0,0,0,3.186-4.428Zm1.584-1.674H8.964a13.551,13.551,0,0,1-1.89-.108v1.458a13.835,13.835,0,0,1,1.908-.108h6.192c.72,0,1.35.036,1.89.09V-12.6a18.2,18.2,0,0,1-1.89.09h-2.9v-.918a7.328,7.328,0,0,1,.108-1.386H10.836a9.451,9.451,0,0,1,.09,1.4ZM12.654-10.3a13.712,13.712,0,0,0,3.564,4.23,5.88,5.88,0,0,1,.828-1.206A11.633,11.633,0,0,1,13.77-10.89Zm19.224-2.466A16.952,16.952,0,0,1,27.54-9.63H26.316a16.5,16.5,0,0,1,.09,1.782V-.7c0,.306-.162.4-.738.4a16.351,16.351,0,0,1-2.9-.27A6.2,6.2,0,0,1,23.112.918c1.26.108,1.8.144,2.412.144,1.89,0,2.376-.306,2.376-1.476v-7.92a22.32,22.32,0,0,0,4.824-3.348c.378-.342.72-.684,1.53-1.476l-.864-1.008a9.925,9.925,0,0,1-1.782.09H22.266A16.3,16.3,0,0,1,20-14.2v1.566a17.941,17.941,0,0,1,2.268-.126ZM53.352,1.494a11.942,11.942,0,0,1-2.5-3.456A11.112,11.112,0,0,1,49.788-6.84a11.112,11.112,0,0,1,1.062-4.878,11.942,11.942,0,0,1,2.5-3.456H51.516a12.681,12.681,0,0,0-2.088,3.15A11.979,11.979,0,0,0,48.276-6.84a11.979,11.979,0,0,0,1.152,5.184,12.681,12.681,0,0,0,2.088,3.15Zm8.964-14.13a14.556,14.556,0,0,1-.594,3.852A13.921,13.921,0,0,1,58.86-3.528,14.573,14.573,0,0,1,54.846-.2a3.921,3.921,0,0,1,1.116,1.314,17.529,17.529,0,0,0,4.626-4.392A15.335,15.335,0,0,0,63.144-9a14.9,14.9,0,0,0,2.178,5.094,17.434,17.434,0,0,0,4.914,4.968,5.342,5.342,0,0,1,1.17-1.4,13.528,13.528,0,0,1-3.168-2.412,15.353,15.353,0,0,1-2.754-3.654,13.338,13.338,0,0,1-1.656-6.516,9.133,9.133,0,0,1,.072-1.188A7.23,7.23,0,0,1,62.244-14h-2.52a7.788,7.788,0,0,1-1.458-.09v1.548c.612-.054,1.1-.09,1.476-.09ZM75.4-10.278H74.268a7.624,7.624,0,0,1-1.332-.09V-9a7.581,7.581,0,0,1,1.3-.09h1.026a12.865,12.865,0,0,1-2.736,5.364A3.667,3.667,0,0,1,73.3-2.538a12.473,12.473,0,0,0,2.178-4.554C75.42-6.12,75.4-5.274,75.4-4.5V-.7a14.359,14.359,0,0,1-.108,2.052h1.494A11.461,11.461,0,0,1,76.68-.72V-4.86c0-.684-.018-1.44-.072-2.484a8.368,8.368,0,0,0,1.26,2.5,4.811,4.811,0,0,1,.666-1.188A7.234,7.234,0,0,1,76.7-9.09h.684a10.815,10.815,0,0,1,1.332.072V-10.35a8.223,8.223,0,0,1-1.314.072h-.72v-2.79a12.07,12.07,0,0,0,2.052-.81l-.846-1.116a12.589,12.589,0,0,1-5.022,1.53,3.648,3.648,0,0,1,.576,1.188c.972-.18,1.3-.252,1.962-.432Zm7.632-3.348h-2.52a13.69,13.69,0,0,1-1.944-.108V-12.4a17.432,17.432,0,0,1,1.89-.09h6.786c.738,0,1.332.036,1.89.09v-1.332a13.408,13.408,0,0,1-1.926.108H84.384v-.288a6.707,6.707,0,0,1,.072-1.17H82.944a5.755,5.755,0,0,1,.09,1.152Zm3.222,5.76a11.043,11.043,0,0,1,1.224.054,9.072,9.072,0,0,1-.054-1.1v-1.548a9.165,9.165,0,0,1,.054-1.08,12.436,12.436,0,0,1-1.314.054H81.432a11.974,11.974,0,0,1-1.314-.054,10.405,10.405,0,0,1,.054,1.044v1.638a9.882,9.882,0,0,1-.054,1.044,12.436,12.436,0,0,1,1.314-.054ZM81.432-10.44h4.734v1.53H81.432ZM78.714-.648a15.509,15.509,0,0,1-.09,2.016h1.44a19.233,19.233,0,0,1-.072-2.034V-5.724h7.452V-.45c0,.306-.09.378-.486.378a8.933,8.933,0,0,1-1.674-.162,4.611,4.611,0,0,1,.27,1.332c.45.018.81.036,1.26.036A2.4,2.4,0,0,0,88.272.882a1.233,1.233,0,0,0,.45-1.116V-5.31a13.347,13.347,0,0,1,.072-1.6,10.68,10.68,0,0,1-1.656.072H80.316a14.338,14.338,0,0,1-1.656-.072c.036.486.054,1.044.054,1.6Zm7.362-3.06a9.3,9.3,0,0,1,.054-1.026,10.748,10.748,0,0,1-1.3.054h-2.34a11.271,11.271,0,0,1-1.224-.054,10.783,10.783,0,0,1,.054,1.116v2.25a7.942,7.942,0,0,1-.072,1.242H82.44V-1.152h2.448c.288,0,.72.018,1.242.054a7.01,7.01,0,0,1-.054-.954Zm-3.654.072H85V-2.2H82.422Zm21.726-4c.954,0,1.656.036,2.214.09v-1.6a14.16,14.16,0,0,1-2.232.126H93.762a14.932,14.932,0,0,1-2.232-.126v1.6a17.744,17.744,0,0,1,2.214-.09h4.662a9.869,9.869,0,0,1-.738,3.618C96.912-2.448,95.49-1.368,93.186-.63a3.877,3.877,0,0,1,1.026,1.4A11.257,11.257,0,0,0,97.38-.99a7.248,7.248,0,0,0,2.43-4.572,14.265,14.265,0,0,0,.252-2.07Zm-10.8-4.356a16.565,16.565,0,0,1,2.2-.09h5.13a17.921,17.921,0,0,1,2.214.09v-1.62a11.47,11.47,0,0,1-2.232.126H95.562a11.368,11.368,0,0,1-2.214-.126Zm11.718-3.276a13.191,13.191,0,0,1,1.854,2.79l1.044-.594a13.432,13.432,0,0,0-1.89-2.736Zm-2.268.7a12.564,12.564,0,0,1,1.872,2.844l1.062-.594a14.087,14.087,0,0,0-1.89-2.79Zm6.7,8.568a19.664,19.664,0,0,1,2.5-.09h10.08a21.029,21.029,0,0,1,2.448.09V-7.776a14.729,14.729,0,0,1-2.43.108H111.978a19.636,19.636,0,0,1-2.484-.108Zm23.958-8.91a11.039,11.039,0,0,1-1.062,2.466,15.744,15.744,0,0,1-4.572,5.13,3.946,3.946,0,0,1,1.26,1.026,18.588,18.588,0,0,0,4.266-4.77l6.084-.072a20.966,20.966,0,0,1-2.34,4.914A25.051,25.051,0,0,0,133.2-8.892l-.99,1.1a21.247,21.247,0,0,1,3.942,2.826,13.089,13.089,0,0,1-3.06,2.754A18.014,18.014,0,0,1,129.42-.306a4.186,4.186,0,0,1,1.062,1.332A17.648,17.648,0,0,0,138.51-5.58a29.038,29.038,0,0,0,2.394-4.968,4.039,4.039,0,0,1,.522-1.188l-.918-.918a3.112,3.112,0,0,1-1.188.18,53.021,53.021,0,0,0-5.31.108c.144-.252.324-.558.522-.954a9.2,9.2,0,0,1,.594-1.152Zm16.83,8.28a4.151,4.151,0,0,1,.738,1.116,8.044,8.044,0,0,0,1.1-1.35c-.018.108-.036.648-.054,1.638V-.45a10.817,10.817,0,0,1-.126,1.908h1.35V.594h5.9A13.632,13.632,0,0,1,160.9.7V-.648a10.932,10.932,0,0,1-1.71.09H157.1v-1.89h1.6a11.588,11.588,0,0,1,1.566.09V-3.636a9.463,9.463,0,0,1-1.6.09H157.1V-5.31h1.6a11.423,11.423,0,0,1,1.566.09V-6.5a9.081,9.081,0,0,1-1.6.09H157.1V-8.19h1.872c.54,0,.954.018,1.548.072V-9.4a9.357,9.357,0,0,1-1.584.09h-1.512a11.1,11.1,0,0,0,.612-1.4c.036-.072.072-.18.126-.324l-1.278-.288a9.032,9.032,0,0,1-.738,2.016h-2.214a16.132,16.132,0,0,0,1.386-2.718h4.32v1.908h1.368a6.066,6.066,0,0,1-.072-1.044V-12.1a10.6,10.6,0,0,1,.054-1.224,12.186,12.186,0,0,1-1.746.09h-3.492c.09-.252.27-.828.558-1.728l-1.4-.216a15.116,15.116,0,0,1-.468,1.944h-2a8.637,8.637,0,0,1-1.494-.054c.018.414.036.72.036.918v1.206a6.463,6.463,0,0,1-.072,1.1h1.3v-1.962h1.8a13.487,13.487,0,0,1-1.674,3.06,10.722,10.722,0,0,1-2.052,2.3v-.648c0-.612.018-1.008.054-1.422a6.6,6.6,0,0,1-1.1.072h-1.926a22.92,22.92,0,0,0,1.152-4.428h.954a9.767,9.767,0,0,1,1.242.072V-14.4a8.42,8.42,0,0,1-1.584.108h-2.358a10.768,10.768,0,0,1-1.656-.108v1.422a7.81,7.81,0,0,1,1.548-.108h.558a17.939,17.939,0,0,1-.648,3.042,12.311,12.311,0,0,1-2.16,4.194,4.863,4.863,0,0,1,.684,1.314A9.563,9.563,0,0,0,146.2-6.588c-.054.576-.09,1.512-.09,1.782V-.792A11.389,11.389,0,0,1,146,.954h1.35V-.864h1.746v.99h1.242c-.036-.414-.054-.774-.054-1.476Zm3.006.216V-8.19h2.628v1.782Zm0,1.1h2.628v1.764h-2.628Zm0,2.862h2.628v1.89h-2.628Zm-5.94-5.022h1.746v5.4h-1.746ZM170.46-1.152a5.365,5.365,0,0,1-3.2-2.9c.2-.684.45-1.584.486-1.836.162-.7.162-.7.234-.972L166.5-7.146v.126A11.684,11.684,0,0,1,165.366-2.9,9.834,9.834,0,0,1,162.99.234a3.663,3.663,0,0,1,1.116,1.026,12.824,12.824,0,0,0,2.664-3.942c1.314,2.394,3.78,3.42,8.19,3.42,1.71,0,2.142,0,3.492-.054a5.416,5.416,0,0,1,.432-1.476c-1.584.126-2.826.18-4.176.18a19.424,19.424,0,0,1-2.916-.18V-4.536h3.438a12.035,12.035,0,0,1,1.746.09V-5.868a10.914,10.914,0,0,1-1.746.108h-3.438V-8.532h2.916a11.846,11.846,0,0,1,1.8.108v-1.44a12.011,12.011,0,0,1-1.8.108h-7.29a11.584,11.584,0,0,1-1.782-.108v1.44a11.747,11.747,0,0,1,1.782-.108h3.042ZM170.172-13H165.33c-.7,0-1.26-.018-1.854-.072a11.877,11.877,0,0,1,.072,1.242v1.206a7.256,7.256,0,0,1-.09,1.332h1.422v-2.448h12.312v2.448h1.386a9.457,9.457,0,0,1-.072-1.314v-1.224a8.714,8.714,0,0,1,.072-1.242c-.612.054-1.152.072-1.854.072h-5.148v-.81a4.58,4.58,0,0,1,.108-1.134h-1.638a4.976,4.976,0,0,1,.126,1.134ZM182.5,1.494a13.085,13.085,0,0,0,2.07-3.15,11.922,11.922,0,0,0,1.152-5.184,11.922,11.922,0,0,0-1.152-5.184,13.085,13.085,0,0,0-2.07-3.15h-1.854a11.941,11.941,0,0,1,2.5,3.456,11,11,0,0,1,1.062,4.878,11,11,0,0,1-1.062,4.878,11.941,11.941,0,0,1-2.5,3.456Z" transform="translate(785 7871)" fill="#fff"/>
    <path id="パス_5027" data-name="パス 5027" d="M14.148-7.632c.954,0,1.656.036,2.214.09v-1.6a14.16,14.16,0,0,1-2.232.126H3.762A14.932,14.932,0,0,1,1.53-9.144v1.6a17.744,17.744,0,0,1,2.214-.09H8.406a9.869,9.869,0,0,1-.738,3.618C6.912-2.448,5.49-1.368,3.186-.63A3.877,3.877,0,0,1,4.212.774,11.257,11.257,0,0,0,7.38-.99,7.248,7.248,0,0,0,9.81-5.562a14.266,14.266,0,0,0,.252-2.07Zm-10.8-4.356a16.565,16.565,0,0,1,2.2-.09h5.13a17.921,17.921,0,0,1,2.214.09v-1.62a11.47,11.47,0,0,1-2.232.126H5.562a11.368,11.368,0,0,1-2.214-.126Zm11.718-3.276a13.192,13.192,0,0,1,1.854,2.79l1.044-.594a13.432,13.432,0,0,0-1.89-2.736Zm-2.268.7a12.564,12.564,0,0,1,1.872,2.844l1.062-.594a14.087,14.087,0,0,0-1.89-2.79ZM24.192-10.6V-12.51a10.628,10.628,0,0,1,.09-1.638H22.536a12.77,12.77,0,0,1,.09,1.656v1.89H21.258a13.546,13.546,0,0,1-2.178-.126v1.6c.666-.054,1.134-.09,2.142-.09h1.4v2.592a14.957,14.957,0,0,1-.09,1.8h1.728a14.716,14.716,0,0,1-.072-1.8V-9.216H29.43c-.018,1.152-.018,1.278-.036,1.692C29.286-5,28.872-3.762,27.738-2.61A7.539,7.539,0,0,1,23.994-.576,4.1,4.1,0,0,1,24.966.792,9.937,9.937,0,0,0,28.278-.99a6.788,6.788,0,0,0,2.538-4.95,27.582,27.582,0,0,0,.144-3.276h1.476a21.047,21.047,0,0,1,2.142.09v-1.6a13.007,13.007,0,0,1-2.16.126h-1.44v-1.836a12.489,12.489,0,0,1,.072-1.692H29.376a9.462,9.462,0,0,1,.072,1.818v1.71Zm7.38-4.248A11.732,11.732,0,0,1,32.814-11.9l1.044-.324a12.59,12.59,0,0,0-1.242-2.916Zm2.124-.54a13.6,13.6,0,0,1,1.26,2.9l1.008-.342a12.537,12.537,0,0,0-1.278-2.88Zm15.21,1.008a14.815,14.815,0,0,1-3.4,3.4,25.778,25.778,0,0,1-9.378,4.662,4.469,4.469,0,0,1,.846,1.44,28.092,28.092,0,0,0,6.8-3.078v6.48A11.929,11.929,0,0,1,43.668.63H45.5a14.864,14.864,0,0,1-.09-2.124v-7.47a30.127,30.127,0,0,0,4.32-3.762,6.612,6.612,0,0,1,.648-.612ZM55.548-11.7A19.985,19.985,0,0,1,59.94-8.136l1.1-1.35a24.9,24.9,0,0,0-4.428-3.42ZM55.818.054a9.727,9.727,0,0,1,1.116-.288,18.372,18.372,0,0,0,6.75-2.7,15.669,15.669,0,0,0,5.562-6.93,4.576,4.576,0,0,1-1.332-1.242,13.479,13.479,0,0,1-7.29,8.01,16.405,16.405,0,0,1-5.274,1.35Zm28.836-14.4a7.279,7.279,0,0,1-2.088.864,29.707,29.707,0,0,1-7.6,1.116c-.27,0-.54-.018-1.08-.036a4.239,4.239,0,0,1,.5,1.422,37.5,37.5,0,0,0,5.22-.468c0,1.4-.018,2.484-.054,3.168H74.772a10.632,10.632,0,0,1-2.178-.126v1.6a15.947,15.947,0,0,1,2.16-.09h4.7A6.394,6.394,0,0,1,76.86-1.962,8.846,8.846,0,0,1,74.2-.522,3.754,3.754,0,0,1,75.348.81a15.4,15.4,0,0,0,1.62-.864,9.407,9.407,0,0,0,2.9-2.88,8.937,8.937,0,0,0,1.188-3.96h4.14A15.692,15.692,0,0,1,87.3-6.8v-1.6a10.132,10.132,0,0,1-2.124.126H81.144c.036-.576.036-.9.054-3.42A28.448,28.448,0,0,0,85.1-12.78a4.325,4.325,0,0,1,.612-.2Zm13.914,7H101.2a12.756,12.756,0,0,1,1.692.072V-8.766a8.845,8.845,0,0,1-1.71.126H94.644a11.04,11.04,0,0,1-1.71-.108v1.476a14.561,14.561,0,0,1,1.71-.072h2.448V-1.26H93.546a9.058,9.058,0,0,1-1.71-.108V.126A14.129,14.129,0,0,1,93.564.054h8.712A10.906,10.906,0,0,1,104,.144V-1.35a10.5,10.5,0,0,1-1.728.09H98.568Zm11.5-2.2a15.221,15.221,0,0,1,1.674,4.1l1.458-.486A20.72,20.72,0,0,0,111.42-9.99Zm3.744-.756a16.642,16.642,0,0,1,1.656,4.014l1.422-.486a19.264,19.264,0,0,0-1.746-3.942Zm6.228-.072a10.1,10.1,0,0,1-.648,2.97,11.12,11.12,0,0,1-6.8,7A4.588,4.588,0,0,1,113.616.828,13.994,13.994,0,0,0,118.8-3.186,14.892,14.892,0,0,0,121.392-9.2a7.7,7.7,0,0,1,.234-.828Zm12.384-4.338a7.62,7.62,0,0,1-1.08,2.556,13.709,13.709,0,0,1-4.554,5.022,3.3,3.3,0,0,1,1.224,1.1,18.058,18.058,0,0,0,4.266-4.644l5.886-.09A15.881,15.881,0,0,1,135.09-4.9a15.091,15.091,0,0,1-6.3,4.428A3.626,3.626,0,0,1,129.87.846a17.71,17.71,0,0,0,6.3-4.518,18.7,18.7,0,0,0,3.618-6.822,2.653,2.653,0,0,1,.4-.936l-.882-.864a2.545,2.545,0,0,1-1.044.144c-.54.018-2.07.036-4.59.072h-.216a1.723,1.723,0,0,0-.45.054,16.26,16.26,0,0,0,.792-1.566,2.4,2.4,0,0,1,.4-.7Z" transform="translate(658 7698)" fill="#0d3864"/>
    <path id="パス_5031" data-name="パス 5031" d="M13.05-6.444a8.448,8.448,0,0,1-.666,3.483,5.12,5.12,0,0,1-2,2.313A6.165,6.165,0,0,1,7.074.18,6.275,6.275,0,0,1,3.708-.648,5.006,5.006,0,0,1,1.728-2.97,8.718,8.718,0,0,1,1.08-6.462a8.6,8.6,0,0,1,.648-3.465,4.961,4.961,0,0,1,1.98-2.3,6.367,6.367,0,0,1,3.384-.819,6.17,6.17,0,0,1,3.3.819,5.083,5.083,0,0,1,1.989,2.3A8.448,8.448,0,0,1,13.05-6.444Zm-9.918,0a6.138,6.138,0,0,0,.954,3.636A3.425,3.425,0,0,0,7.074-1.476a3.4,3.4,0,0,0,2.988-1.332A6.227,6.227,0,0,0,11-6.444a6.141,6.141,0,0,0-.936-3.618,3.4,3.4,0,0,0-2.97-1.314,3.464,3.464,0,0,0-3.006,1.314A6.053,6.053,0,0,0,3.132-6.444ZM25.506,0h-2.25L19.044-5.922l-1.26,1.044V0H15.84V-12.852h1.944v6.21q.45-.54.936-1.08t.936-1.1l3.474-4.032h2.232L20.448-7.236Z" transform="translate(643 7785)" fill="#fff"/>
    <path id="パス_5030" data-name="パス 5030" d="M12.258,0H9.9L3.4-10.386H3.33q.036.72.081,1.647t.063,1.9V0H1.71V-12.852H4.05L10.53-2.52h.054q-.018-.378-.045-.954t-.045-1.233q-.018-.657-.036-1.233v-6.912h1.8Zm8.784-6.912h4.644V-.5a13.2,13.2,0,0,1-2.1.513A15.592,15.592,0,0,1,21.15.18a5.783,5.783,0,0,1-4.527-1.746,7,7,0,0,1-1.575-4.86,7.406,7.406,0,0,1,.783-3.5,5.454,5.454,0,0,1,2.277-2.3,7.5,7.5,0,0,1,3.618-.81,9.352,9.352,0,0,1,2.034.216,10.907,10.907,0,0,1,1.8.558l-.7,1.62a8.537,8.537,0,0,0-1.494-.513,7.024,7.024,0,0,0-1.71-.207,4.8,4.8,0,0,0-2.457.6,3.963,3.963,0,0,0-1.584,1.719,5.89,5.89,0,0,0-.549,2.628,6.792,6.792,0,0,0,.45,2.556,3.651,3.651,0,0,0,1.422,1.746,4.6,4.6,0,0,0,2.538.63,8.852,8.852,0,0,0,1.3-.081q.531-.081.981-.189V-5.238H21.042Z" transform="translate(791 7775)" fill="#0d3864"/>
    <path id="パス_5032" data-name="パス 5032" d="M13.3-10.528a9,9,0,0,1-1.47.084H8.176c.14-.266.252-.49.56-1.106L7.672-11.8a7.526,7.526,0,0,1-2.506,3.71,2.25,2.25,0,0,1,.77.616A9.457,9.457,0,0,0,7.21-8.89,6.125,6.125,0,0,0,8.582-7.21a11.116,11.116,0,0,1-3.22,1.218,3.1,3.1,0,0,1,.5.9A11.607,11.607,0,0,0,9.338-6.622a11.237,11.237,0,0,0,3.948,1.638,4.044,4.044,0,0,1,.448-.994A10.041,10.041,0,0,1,10.122-7.21,7.172,7.172,0,0,0,11.97-9.52a9.3,9.3,0,0,1,1.33.07ZM10.864-9.52A5.042,5.042,0,0,1,9.352-7.742,5.305,5.305,0,0,1,7.826-9.52ZM2.058-.63a14.275,14.275,0,0,1-.084,1.708H3.108C3.066.56,3.052.168,3.052-.644V-8.288a17.125,17.125,0,0,0,1.036-2.548c.112-.35.126-.392.21-.6l-1.12-.294a13.059,13.059,0,0,1-2.87,5.8,4.47,4.47,0,0,1,.6,1.022A8.094,8.094,0,0,0,2.1-6.832c-.028.658-.042,1.218-.042,1.946Zm7.42-5.124a7.889,7.889,0,0,1-3.934,1.68,3.56,3.56,0,0,1,.546.854A12.062,12.062,0,0,0,9.814-4.788a4.276,4.276,0,0,1,.462-.322ZM4.046-9.282a7.178,7.178,0,0,1,.07,1.232v5.558A9.45,9.45,0,0,1,4.032-1.05h1.12a8.922,8.922,0,0,1-.07-1.428V-8.064a9.183,9.183,0,0,1,.056-1.218Zm6.776,4.69a5.469,5.469,0,0,1-1.5,1.176A12.257,12.257,0,0,1,5.67-2.142a2.922,2.922,0,0,1,.532.9,12.544,12.544,0,0,0,5.5-2.7ZM12.4-3.3a6.678,6.678,0,0,1-1.82,1.54A15.307,15.307,0,0,1,5.236.084a3.577,3.577,0,0,1,.546.924A18.4,18.4,0,0,0,9.744-.252,13.7,13.7,0,0,0,12.754-2.2a6.386,6.386,0,0,1,.56-.448ZM20.846-.672H18.172v-4.76a11.088,11.088,0,0,1,.1-1.666H16.94a11.543,11.543,0,0,1,.1,1.68V-.672h-.574a10.228,10.228,0,0,1-1.68-.1V.448a12.417,12.417,0,0,1,1.694-.1h9.058a11.543,11.543,0,0,1,1.68.1V-.77a11.622,11.622,0,0,1-1.694.1H21.994v-4.41h2.674A10.4,10.4,0,0,1,26.138-5V-6.174a9.868,9.868,0,0,1-1.47.084H21.994V-9.912h3.122a14.359,14.359,0,0,1,1.61.084v-1.19a13.329,13.329,0,0,1-1.61.084H16.94a12.7,12.7,0,0,1-1.61-.084v1.19a14.085,14.085,0,0,1,1.624-.084h3.892Zm15.54-7.616A12.634,12.634,0,0,0,40.978.77a4.982,4.982,0,0,1,.714-1.022,10.511,10.511,0,0,1-3.332-4.1,18.36,18.36,0,0,0,2.8-2.268l-.812-.784a8.719,8.719,0,0,1-2.366,2.1,13.563,13.563,0,0,1-.63-2.982H39.8a10.746,10.746,0,0,1,1.456.084V-9.338a9.658,9.658,0,0,1-1.456.084H37v-1.26a6.165,6.165,0,0,1,.07-1.064H35.84a4.473,4.473,0,0,1,.084,1.05v1.274H33.46a9.01,9.01,0,0,1-1.386-.084v1.12a10.661,10.661,0,0,1,1.386-.07h1.792a9.468,9.468,0,0,1-3.864,4.326,3.605,3.605,0,0,1,.658.91,11.008,11.008,0,0,0,1.918-1.61v4.1A11.163,11.163,0,0,1,32.1-.238L32.312.91c.182-.056.182-.056.574-.154.322-.084.322-.084.56-.14C34.664.322,34.664.322,34.93.252c1.064-.294,1.764-.5,2.968-.91l-.014-1.036c-1.316.448-1.876.63-2.884.882v-5.1a9.268,9.268,0,0,0,1.344-2.38Zm-6.328,7.7a14.338,14.338,0,0,1-.084,1.666h1.19a14.423,14.423,0,0,1-.07-1.638V-7.812a19.385,19.385,0,0,0,1.162-2.842,5.431,5.431,0,0,1,.21-.63l-1.148-.308a9.947,9.947,0,0,1-.532,1.918A12.117,12.117,0,0,1,28.378-5.7a4.087,4.087,0,0,1,.588,1.036A7.635,7.635,0,0,0,30.1-6.314c-.028.616-.042,1.134-.042,1.638Zm18.676-9.534a6.835,6.835,0,0,1,1.092-.056h1.652a10.417,10.417,0,0,1-.49,1.386h-.644c-.6,0-.91-.014-1.218-.042a11.524,11.524,0,0,1,.056,1.316v4.662c0,.532-.014.84-.042,1.274.322-.028.686-.042,1.176-.042H53.55c.434,0,.77.014,1.2.042-.028-.434-.042-.854-.042-1.372V-7.532c0-.532.014-.952.042-1.3-.322.028-.616.042-1.3.042H52.024a12.558,12.558,0,0,0,.5-1.386h1.33a9.612,9.612,0,0,1,1.414.07v-1.106a8.563,8.563,0,0,1-1.414.084H50.036a7.522,7.522,0,0,1-1.386-.084v1.064a11.455,11.455,0,0,1-1.162.042H46.242v-.112a8.269,8.269,0,0,1,.07-1.344H45.22a8.4,8.4,0,0,1,.084,1.386v.07H44.142a9.065,9.065,0,0,1-1.4-.07V-9.1a9.289,9.289,0,0,1,1.4-.07H45.3v1.218h-.882a10.227,10.227,0,0,1-1.3-.056,9.02,9.02,0,0,1,.056,1.176V-5.46a9.5,9.5,0,0,1-.056,1.2A9.019,9.019,0,0,1,44.3-4.312h.728a9.868,9.868,0,0,1-2.7,3.29,2.6,2.6,0,0,1,.644.868,9.6,9.6,0,0,0,2.408-3.332A12.907,12.907,0,0,0,45.3-2.03V-.42a9.779,9.779,0,0,1-.084,1.5h1.106a7.883,7.883,0,0,1-.084-1.5V-2.072c0-.42-.028-.91-.07-1.484a8.051,8.051,0,0,0,1.988,2.38,3.017,3.017,0,0,1,.56-.882,8.575,8.575,0,0,1-2.24-2.254h.756a8.883,8.883,0,0,1,1.176.056A8.042,8.042,0,0,1,48.37-5.39V-6.916a7.593,7.593,0,0,1,.042-1.092,8.948,8.948,0,0,1-1.2.056h-.966V-9.17h1.246a10.087,10.087,0,0,1,1.246.056ZM45.3-7.07v1.89H44.1V-7.07Zm.938,0H47.46v1.89H46.242Zm3.906-.84h3.584v1.19H50.148Zm0,2.058h3.584v1.19H50.148Zm0,2.058h3.584v1.26H50.148Zm.308,2.324A6.063,6.063,0,0,1,49.294-.434a6.623,6.623,0,0,1-1.638.826,2.767,2.767,0,0,1,.672.826A8.716,8.716,0,0,0,51.254-.868Zm1.9.588a9.6,9.6,0,0,0,2.618,2.1,2.939,2.939,0,0,1,.714-.812A7.238,7.238,0,0,1,53.1-1.47Z" transform="translate(776 7797)" fill="#0d3864"/>
    <path id="パス_5010" data-name="パス 5010" d="M17682.867,7664h-1v-15.119h153.5V7632h1v17.881h-153.5Z" transform="translate(-16952.367 -1)" fill="#0d3864"/>
    <path id="パス_5016" data-name="パス 5016" d="M17914.367,7661.352h-1v-12.91h-231.5V7632h1v15.442h231.5Z" transform="translate(-17026.367 174)" fill="#0d3864"/>
    <path id="パス_5012" data-name="パス 5012" d="M17682.867,7661.352h-1v-13.91h74V7632h1v16.442h-74Z" transform="translate(-17026.367 88)" fill="#0d3864"/>
    <path id="パス_5011" data-name="パス 5011" d="M17686.2,7663.587l-4.512-4.512.707-.707,3.8,3.805,3.8-3.805.707.707Z" transform="translate(-16956.203)" fill="#0d3864"/>
    <path id="パス_5014" data-name="パス 5014" d="M17686.2,7663.587l-4.512-4.512.707-.707,3.8,3.805,3.8-3.805.707.707Z" transform="translate(-17030.203 86.472)" fill="#0d3864"/>
    <path id="パス_5017" data-name="パス 5017" d="M17686.2,7663.587l-4.512-4.512.707-.707,3.8,3.805,3.8-3.805.707.707Z" transform="translate(-16798.703 172.472)" fill="#0d3864"/>
    <path id="パス_5019" data-name="パス 5019" d="M17686.2,7663.587l-4.512-4.512.707-.707,3.8,3.805,3.8-3.805.707.707Z" transform="translate(8536.879 -9994.703) rotate(90)" fill="#0d3864"/>
    <path id="パス_5015" data-name="パス 5015" d="M17686.2,7663.587l-4.512-4.512.707-.707,3.8,3.805,3.8-3.805.707.707Z" transform="translate(-16882.203 86.472)" fill="#0d3864"/>
    <path id="パス_5013" data-name="パス 5013" d="M17756.867,7661.352h-1v-12.91h-74V7632h1v15.442h74Z" transform="translate(-16952.367 88)" fill="#0d3864"/>
    <path id="パス_5018" data-name="パス 5018" d="M18020,7768.24h-177.5v-1H18019v-85h-176.5v-1H18020Z" transform="translate(-16968.5 9.76)" fill="#0d3864"/>
    <path id="パス_5034" data-name="パス 5034" d="M0,0H287V57H0Z" transform="translate(902 7707)" fill="#fff"/>
    <path id="パス_5034_-_アウトライン" data-name="パス 5034 - アウトライン" d="M1,1V56H286V1H1M0,0H287V57H0Z" transform="translate(902 7707)" fill="#0d3864"/>
    <path id="パス_5036" data-name="パス 5036" d="M2.718-4.626H2.484A11.3,11.3,0,0,1,.756-4.734v1.44A12.244,12.244,0,0,1,2.466-3.4h.252V-.558A13.037,13.037,0,0,1,2.61,1.386H4.194A13.068,13.068,0,0,1,4.086-.54V-3.4H14V-.594c0,.486-.162.594-.936.594A15.129,15.129,0,0,1,10.6-.2a5.137,5.137,0,0,1,.306,1.4c.576.054,1.206.072,1.818.072,2.142,0,2.646-.288,2.646-1.566V-3.4h.144a11.976,11.976,0,0,1,1.692.108v-1.44a10.629,10.629,0,0,1-1.692.108h-.144v-4.9a15.647,15.647,0,0,1,.072-1.692,12.423,12.423,0,0,1-1.6.072H9.576V-13.05H15.12a17.384,17.384,0,0,1,2,.108V-14.4a16.091,16.091,0,0,1-2,.108H3.042a15.19,15.19,0,0,1-1.98-.108v1.458a16.841,16.841,0,0,1,1.98-.108h5.2v1.908H4.212a11.981,11.981,0,0,1-1.566-.072,16.805,16.805,0,0,1,.072,1.728Zm1.368,0V-6.75H8.244v2.124Zm0-3.294V-9.954H8.244V-7.92Zm5.49,3.294V-6.75H14v2.124Zm0-3.294V-9.954H14V-7.92Zm22.572.288c.954,0,1.656.036,2.214.09v-1.6a14.16,14.16,0,0,1-2.232.126H21.762a14.932,14.932,0,0,1-2.232-.126v1.6a17.744,17.744,0,0,1,2.214-.09h4.662a9.869,9.869,0,0,1-.738,3.618C24.912-2.448,23.49-1.368,21.186-.63a3.877,3.877,0,0,1,1.026,1.4A11.257,11.257,0,0,0,25.38-.99a7.248,7.248,0,0,0,2.43-4.572,14.266,14.266,0,0,0,.252-2.07Zm-10.8-4.356a16.565,16.565,0,0,1,2.2-.09h5.13a17.921,17.921,0,0,1,2.214.09v-1.62a11.47,11.47,0,0,1-2.232.126H23.562a11.368,11.368,0,0,1-2.214-.126Zm11.718-3.276a13.191,13.191,0,0,1,1.854,2.79l1.044-.594a13.432,13.432,0,0,0-1.89-2.736Zm-2.268.7a12.564,12.564,0,0,1,1.872,2.844l1.062-.594a14.087,14.087,0,0,0-1.89-2.79ZM42.192-10.6V-12.51a10.627,10.627,0,0,1,.09-1.638H40.536a12.77,12.77,0,0,1,.09,1.656v1.89H39.258a13.546,13.546,0,0,1-2.178-.126v1.6c.666-.054,1.134-.09,2.142-.09h1.4v2.592a14.957,14.957,0,0,1-.09,1.8h1.728a14.716,14.716,0,0,1-.072-1.8V-9.216H47.43c-.018,1.152-.018,1.278-.036,1.692C47.286-5,46.872-3.762,45.738-2.61A7.539,7.539,0,0,1,41.994-.576,4.1,4.1,0,0,1,42.966.792,9.937,9.937,0,0,0,46.278-.99a6.788,6.788,0,0,0,2.538-4.95,27.582,27.582,0,0,0,.144-3.276h1.476a21.047,21.047,0,0,1,2.142.09v-1.6a13.007,13.007,0,0,1-2.16.126h-1.44v-1.836a12.489,12.489,0,0,1,.072-1.692H47.376a9.462,9.462,0,0,1,.072,1.818v1.71Zm7.38-4.248A11.732,11.732,0,0,1,50.814-11.9l1.044-.324a12.59,12.59,0,0,0-1.242-2.916Zm2.124-.54a13.6,13.6,0,0,1,1.26,2.9l1.008-.342a12.537,12.537,0,0,0-1.278-2.88Zm15.21,1.008a14.815,14.815,0,0,1-3.4,3.4,25.778,25.778,0,0,1-9.378,4.662,4.469,4.469,0,0,1,.846,1.44,28.092,28.092,0,0,0,6.8-3.078v6.48A11.929,11.929,0,0,1,61.668.63H63.5a14.864,14.864,0,0,1-.09-2.124v-7.47a30.127,30.127,0,0,0,4.32-3.762,6.612,6.612,0,0,1,.648-.612ZM73.548-11.7A19.985,19.985,0,0,1,77.94-8.136l1.1-1.35a24.9,24.9,0,0,0-4.428-3.42ZM73.818.054a9.727,9.727,0,0,1,1.116-.288,18.372,18.372,0,0,0,6.75-2.7,15.669,15.669,0,0,0,5.562-6.93,4.576,4.576,0,0,1-1.332-1.242,13.479,13.479,0,0,1-7.29,8.01,16.405,16.405,0,0,1-5.274,1.35ZM94.14-11.3v1.98H91.584a8.25,8.25,0,0,1-1.638-.108V-8.01a11.446,11.446,0,0,1,1.746-.09H94.14v1.782H92.268a12.539,12.539,0,0,1-1.728-.09,15.087,15.087,0,0,1,.072,1.674v2.988A10.791,10.791,0,0,1,90.522.09H92a16.759,16.759,0,0,1-.072-1.854V-5.112H94.14v4.5a15.3,15.3,0,0,1-.108,2h1.494a13.616,13.616,0,0,1-.09-2v-4.5h2.25v3.6c0,.252-.108.288-.738.288A9.826,9.826,0,0,1,95.922-1.3a4.493,4.493,0,0,1,.216,1.26c.7.036.774.036.936.036,1.458,0,1.872-.252,1.872-1.188V-4.77c0-.72.018-1.134.054-1.638a11.734,11.734,0,0,1-1.674.09h-1.89V-8.1h2.412a9.877,9.877,0,0,1,1.692.09v-1.4a11.025,11.025,0,0,1-1.656.09H95.436V-11.3h1.782a11.137,11.137,0,0,1,1.764.09V-12.6a10.592,10.592,0,0,1-1.764.09H95.436v-.666a8.677,8.677,0,0,1,.108-1.782H94.032a9.316,9.316,0,0,1,.108,1.8v.648H92.412c.108-.342.162-.558.27-.936.126-.45.216-.738.288-.954l-1.35-.306a5.51,5.51,0,0,1-.162.99,10.028,10.028,0,0,1-1.584,3.42,7.683,7.683,0,0,1,1.206.63,10.836,10.836,0,0,0,.846-1.638Zm6.156-2.538A12.682,12.682,0,0,1,100.4-11.9v7.074a12.159,12.159,0,0,1-.09,2h1.512a11.758,11.758,0,0,1-.09-1.98v-7.11a12.511,12.511,0,0,1,.09-1.926Zm3.618-1.062a13.322,13.322,0,0,1,.126,2.214V-.648c0,.45-.144.54-.846.54a16.666,16.666,0,0,1-2.286-.18,3.673,3.673,0,0,1,.4,1.368c.864.054,1.4.072,1.872.072,1.782,0,2.214-.342,2.214-1.746V-12.726a12.69,12.69,0,0,1,.126-2.178Zm12.924,3.852V-.54a12.162,12.162,0,0,1-.108,1.962h1.638a10.445,10.445,0,0,1-.126-1.962V-3.1h3.474a11.19,11.19,0,0,1,1.638.108V-4.464a10.518,10.518,0,0,1-1.638.108h-3.474V-7.092h3.42a11.733,11.733,0,0,1,1.638.108V-8.442a8.915,8.915,0,0,1-1.638.108h-3.42v-2.718h3.978a14.277,14.277,0,0,1,1.728.09v-1.422a11.3,11.3,0,0,1-1.728.108h-5.49c.234-.522.306-.738.576-1.494.162-.432.216-.576.36-.918l-1.476-.468a11.147,11.147,0,0,1-.774,2.556,15.079,15.079,0,0,1-3.132,4.824,3.817,3.817,0,0,1,.99,1.1,19.229,19.229,0,0,0,2.9-4.374Zm-4.914-4.122a10.127,10.127,0,0,1-.774,2.394,14.838,14.838,0,0,1-3.69,5.274,4.193,4.193,0,0,1,.81,1.3,14.2,14.2,0,0,0,2.106-2.628c-.054,1.206-.072,1.566-.072,2.232V-.864a16.521,16.521,0,0,1-.126,2.214h1.62a15.444,15.444,0,0,1-.126-2.178V-10.71a25.794,25.794,0,0,0,1.3-2.952,10.565,10.565,0,0,1,.432-1.008Z" transform="translate(983 7742)" fill="#0d3864"/>
  </g>
</svg>
