<svg xmlns="http://www.w3.org/2000/svg" xmlns:xlink="http://www.w3.org/1999/xlink" width="156" height="156" viewBox="0 0 156 156">
  <defs>
    <linearGradient id="linear-gradient" x1="1" y1="0.13" x2="0.037" y2="1.101" gradientUnits="objectBoundingBox">
      <stop offset="0" stop-color="#e2c58e"/>
      <stop offset="0.084" stop-color="#c49c4e"/>
      <stop offset="0.256" stop-color="#8e6c2d"/>
      <stop offset="0.374" stop-color="#fcdea8"/>
      <stop offset="0.645" stop-color="#b4863e"/>
      <stop offset="1" stop-color="#dbb775"/>
    </linearGradient>
    <clipPath id="clip-path">
      <circle id="楕円形_231" data-name="楕円形 231" cx="78" cy="78" r="78" transform="translate(934.516 409)" fill="url(#linear-gradient)"/>
    </clipPath>
    <linearGradient id="linear-gradient-3" x1="1.197" y1="0.303" x2="-0.022" y2="0.606" gradientUnits="objectBoundingBox">
      <stop offset="0"/>
      <stop offset="0.586" stop-color="#081726"/>
      <stop offset="1" stop-color="#053d77"/>
    </linearGradient>
    <linearGradient id="linear-gradient-4" x1="0.5" x2="0.5" y2="1" gradientUnits="objectBoundingBox">
      <stop offset="0" stop-color="#b59a66"/>
      <stop offset="1" stop-color="#e0a331"/>
    </linearGradient>
  </defs>
  <g id="マスクグループ_722" data-name="マスクグループ 722" transform="translate(-934.516 -409)" clip-path="url(#clip-path)">
    <circle id="楕円形_227" data-name="楕円形 227" cx="78" cy="78" r="78" transform="translate(934.516 409)" fill="url(#linear-gradient)"/>
    <circle id="楕円形_229" data-name="楕円形 229" cx="70" cy="70" r="70" transform="translate(1046.342 393.975) rotate(65)" fill="url(#linear-gradient-3)"/>
    <g id="グループ_55883" data-name="グループ 55883" transform="translate(948.508 426.361)">
      <g id="グループ_540" data-name="グループ 540" transform="translate(0 0)">
        <g id="グループ_524" data-name="グループ 524" transform="translate(37.528 116.229)">
          <path id="パス_207" data-name="パス 207" d="M6307.324,1769.4a6.286,6.286,0,0,1,.667-.2c.221-.058.44-.108.652-.146a8.277,8.277,0,0,1,1.154-.122,6.885,6.885,0,0,1,1.126.042,5.637,5.637,0,0,1-.705.833,6.138,6.138,0,0,1-2.063,1.369,5.866,5.866,0,0,1-.685.22q-.171.044-.34.078c-.112.021-.222.035-.331.049a7.925,7.925,0,0,1-1.2.049,7.439,7.439,0,0,1-1.2-.129,6.4,6.4,0,0,1,.791-.778A7.193,7.193,0,0,1,6307.324,1769.4Z" transform="translate(-6302.523 -1767.887)" fill="url(#linear-gradient-4)"/>
          <path id="パス_208" data-name="パス 208" d="M6274.871,1755.372c-.105,0-.211,0-.317-.005a8.372,8.372,0,0,1-1.383-.152l-1.655-.357,1.063-1.318a7.376,7.376,0,0,1,.93-.92,8.3,8.3,0,0,1,2.451-1.448h0a7.353,7.353,0,0,1,.767-.232c.259-.068.5-.122.727-.161a9.307,9.307,0,0,1,1.3-.137,7.861,7.861,0,0,1,1.314.052l1.61.235-.885,1.365a6.613,6.613,0,0,1-.845,1.005,7.1,7.1,0,0,1-2.418,1.6,6.982,6.982,0,0,1-.8.259c-.129.033-.261.063-.394.09l-.021,0c-.144.026-.278.044-.391.058A8.779,8.779,0,0,1,6274.871,1755.372Z" transform="translate(-6271.515 -1750.635)" fill="url(#linear-gradient-4)"/>
        </g>
        <g id="グループ_525" data-name="グループ 525" transform="translate(28.719 112.208)">
          <path id="パス_209" data-name="パス 209" d="M6154.243,1698.541a6.48,6.48,0,0,1,1.33-.126,8.449,8.449,0,0,1,1.147.051,6.779,6.779,0,0,1,1.1.207,5.612,5.612,0,0,1-.812.716,6.061,6.061,0,0,1-2.218,1.043c-.117.027-.235.05-.352.069s-.23.028-.344.037a6.5,6.5,0,0,1-.668.015,7.81,7.81,0,0,1-1.185-.128,7.361,7.361,0,0,1-1.154-.3,6.339,6.339,0,0,1,.886-.65A7.076,7.076,0,0,1,6154.243,1698.541Z" transform="translate(-6149.141 -1697.369)" fill="url(#linear-gradient-4)"/>
          <path id="パス_210" data-name="パス 210" d="M6121.487,1684.347c-.074,0-.146,0-.22,0a8.829,8.829,0,0,1-1.345-.145,8.311,8.311,0,0,1-1.334-.352l-1.573-.6,1.233-1.144a7.278,7.278,0,0,1,1.044-.771,8.178,8.178,0,0,1,2.614-1.068h0a7.456,7.456,0,0,1,1.53-.148,9.535,9.535,0,0,1,1.276.058,7.728,7.728,0,0,1,1.28.245l1.549.471-1.069,1.216a6.7,6.7,0,0,1-.975.865,7.032,7.032,0,0,1-2.6,1.221c-.137.032-.277.059-.417.082l-.015,0c-.157.024-.3.037-.416.046C6121.863,1684.339,6121.676,1684.347,6121.487,1684.347Z" transform="translate(-6117.015 -1680.116)" fill="url(#linear-gradient-4)"/>
        </g>
        <g id="グループ_526" data-name="グループ 526" transform="translate(20.856 106.733)">
          <path id="パス_211" data-name="パス 211" d="M6015.956,1602.4a6.363,6.363,0,0,1,1.319.07c.2.031.4.071.581.114s.359.08.52.125a6.678,6.678,0,0,1,1.044.365,5.581,5.581,0,0,1-.9.585,6.414,6.414,0,0,1-1.018.436,5.022,5.022,0,0,1-1.3.256,6.664,6.664,0,0,1-2.485-.389,6.067,6.067,0,0,1-.786-.323c-.183-.095-.285-.158-.285-.158a5.961,5.961,0,0,1,.949-.5A7.012,7.012,0,0,1,6015.956,1602.4Z" transform="translate(-6010.738 -1601.352)" fill="url(#linear-gradient-4)"/>
          <path id="パス_212" data-name="パス 212" d="M5984.306,1588.154a7.809,7.809,0,0,1-2.536-.454l-.006,0a6.859,6.859,0,0,1-.924-.383c-.2-.106-.326-.18-.349-.194l-1.363-.842,1.321-.906a6.887,6.887,0,0,1,1.131-.6,7.942,7.942,0,0,1,2.709-.665,7.412,7.412,0,0,1,1.536.081c.219.034.44.077.659.13l.125.029c.142.032.288.066.431.105a7.636,7.636,0,0,1,1.218.429l1.456.693-1.229,1.044a6.555,6.555,0,0,1-1.082.709,7.451,7.451,0,0,1-1.185.508,6.016,6.016,0,0,1-1.57.306Q5984.479,1588.154,5984.306,1588.154Z" transform="translate(-5979.128 -1584.1)" fill="url(#linear-gradient-4)"/>
        </g>
        <g id="グループ_527" data-name="グループ 527" transform="translate(14.008 100.017)">
          <path id="パス_213" data-name="パス 213" d="M5895.5,1484.643a6.826,6.826,0,0,1,2.308.672c.292.139.54.261.705.358s.259.158.259.158a5.508,5.508,0,0,1-.966.443,6.26,6.26,0,0,1-1.059.28,5.085,5.085,0,0,1-1.29.045,6.563,6.563,0,0,1-2.374-.748,5.731,5.731,0,0,1-.7-.447c-.165-.12-.256-.2-.256-.2a5.893,5.893,0,0,1,1-.351,7,7,0,0,1,1.067-.195A6.3,6.3,0,0,1,5895.5,1484.643Z" transform="translate(-5890.233 -1483.575)" fill="url(#linear-gradient-4)"/>
          <path id="パス_214" data-name="パス 214" d="M5864.719,1470.414q-.282,0-.562-.026a7.478,7.478,0,0,1-2.762-.862,6.327,6.327,0,0,1-.767-.479l-.068-.048c-.187-.136-.3-.229-.318-.247l-1.21-1.03,1.427-.7a6.867,6.867,0,0,1,1.2-.424,8.074,8.074,0,0,1,1.22-.223,7.328,7.328,0,0,1,1.518-.021h0a7.76,7.76,0,0,1,2.662.771c.371.177.6.3.775.4.189.108.3.184.323.2l1.327.9-1.36.848a6.486,6.486,0,0,1-1.166.54,7.351,7.351,0,0,1-1.236.326h-.008A6.134,6.134,0,0,1,5864.719,1470.414Z" transform="translate(-5859.031 -1466.324)" fill="url(#linear-gradient-4)"/>
        </g>
        <g id="グループ_528" data-name="グループ 528" transform="translate(8.388 92.199)">
          <path id="パス_215" data-name="パス 215" d="M5795.71,1347.694a6.694,6.694,0,0,1,2.155,1c.264.18.465.354.618.469s.23.193.23.193a5.467,5.467,0,0,1-1.011.294,5.388,5.388,0,0,1-2.327-.038,5.632,5.632,0,0,1-1.229-.473c-.187-.1-.362-.2-.525-.3a4.034,4.034,0,0,1-.444-.314,6.823,6.823,0,0,1-.835-.778,5.8,5.8,0,0,1,1.032-.2,6.853,6.853,0,0,1,1.071-.035,6.057,6.057,0,0,1,.611.059A5.949,5.949,0,0,1,5795.71,1347.694Z" transform="translate(-5790.524 -1346.461)" fill="url(#linear-gradient-4)"/>
          <path id="パス_216" data-name="パス 216" d="M5766.55,1333.551a6.225,6.225,0,0,1-1.484-.176,6.674,6.674,0,0,1-1.459-.559c-.2-.1-.4-.221-.6-.347a5.211,5.211,0,0,1-.544-.386,7.787,7.787,0,0,1-.968-.908l-1.027-1.193,1.5-.481a6.761,6.761,0,0,1,1.236-.243,7.9,7.9,0,0,1,1.235-.04c.24.011.479.034.708.068a6.971,6.971,0,0,1,.76.144h0a7.643,7.643,0,0,1,2.494,1.154c.208.143.376.276.511.383l.142.111.022.017c.173.137.274.23.293.247l1.166,1.085-1.461.636a6.429,6.429,0,0,1-1.223.36A6.656,6.656,0,0,1,5766.55,1333.551Z" transform="translate(-5760.464 -1329.209)" fill="url(#linear-gradient-4)"/>
        </g>
        <g id="グループ_529" data-name="グループ 529" transform="translate(4.131 83.465)">
          <path id="パス_217" data-name="パス 217" d="M5719.011,1194.829a6.535,6.535,0,0,1,1.951,1.3,6.978,6.978,0,0,1,.525.556l.189.228a5.055,5.055,0,0,1-1.023.136,5.347,5.347,0,0,1-2.262-.381,5.492,5.492,0,0,1-1.128-.644c-.167-.122-.323-.249-.466-.374s-.263-.256-.376-.378a6.647,6.647,0,0,1-.7-.887,5.684,5.684,0,0,1,1.037-.047,6.683,6.683,0,0,1,1.052.121,5.913,5.913,0,0,1,.588.147C5718.6,1194.67,5718.8,1194.744,5719.011,1194.829Z" transform="translate(-5714.019 -1193.292)" fill="url(#linear-gradient-4)"/>
          <path id="パス_218" data-name="パス 218" d="M5692.184,1180.847a6.241,6.241,0,0,1-2.413-.466,6.557,6.557,0,0,1-1.343-.766c-.181-.133-.362-.277-.537-.431l-.008-.007c-.181-.162-.328-.319-.445-.446l0-.005a7.693,7.693,0,0,1-.812-1.042l-.819-1.322,1.534-.256a6.644,6.644,0,0,1,1.248-.06,7.729,7.729,0,0,1,1.216.14,6.97,6.97,0,0,1,.691.174c.216.067.442.149.7.252l.009,0a7.476,7.476,0,0,1,2.269,1.509,8.077,8.077,0,0,1,.6.64l.194.234,1.033,1.248-1.563.424a6.078,6.078,0,0,1-1.256.172C5692.378,1180.845,5692.28,1180.847,5692.184,1180.847Z" transform="translate(-5685.801 -1176.039)" fill="url(#linear-gradient-4)"/>
        </g>
        <g id="グループ_530" data-name="グループ 530" transform="translate(1.323 74.062)">
          <path id="パス_219" data-name="パス 219" d="M5666.974,1030.326a6.331,6.331,0,0,1,1.7,1.561,6.063,6.063,0,0,1,.569.877,5.081,5.081,0,0,1-1.014-.016,5.227,5.227,0,0,1-2.149-.7,5.363,5.363,0,0,1-1-.795c-.145-.144-.277-.29-.4-.434a5.239,5.239,0,0,1-.309-.425,6.555,6.555,0,0,1-.54-.97,5.543,5.543,0,0,1,1.02.1,6.477,6.477,0,0,1,1.008.268,5.7,5.7,0,0,1,.551.229C5666.6,1030.11,5666.782,1030.212,5666.974,1030.326Z" transform="translate(-5662.279 -1028.38)" fill="url(#linear-gradient-4)"/>
          <path id="パス_220" data-name="パス 220" d="M5643.133,1016.57a6.918,6.918,0,0,1-.728-.039,6.193,6.193,0,0,1-2.579-.846,6.382,6.382,0,0,1-1.2-.949c-.156-.156-.312-.325-.459-.5a5.68,5.68,0,0,1-.356-.484l-.023-.034a7.535,7.535,0,0,1-.633-1.143l-.593-1.412,1.53-.035a6.523,6.523,0,0,1,1.232.118,7.531,7.531,0,0,1,1.17.312,6.861,6.861,0,0,1,.651.27c.2.1.413.212.643.349l.008,0a7.283,7.283,0,0,1,1.989,1.818,7.122,7.122,0,0,1,.676,1.046l.663,1.331-1.478.171A4.827,4.827,0,0,1,5643.133,1016.57Z" transform="translate(-5636.564 -1011.126)" fill="url(#linear-gradient-4)"/>
        </g>
        <g id="グループ_531" data-name="グループ 531" transform="translate(0 64.106)">
          <path id="パス_221" data-name="パス 221" d="M5640.35,859.213a6.151,6.151,0,0,1,1.421,1.778,6.645,6.645,0,0,1,.319.674c.034.084.059.152.076.2l.026.071s-.105,0-.28-.024a5.683,5.683,0,0,1-.71-.136,5.081,5.081,0,0,1-1.992-1,5.2,5.2,0,0,1-.854-.924c-.119-.162-.226-.325-.321-.484a4.665,4.665,0,0,1-.237-.461,6.406,6.406,0,0,1-.377-1.031,5.422,5.422,0,0,1,.982.244,6.3,6.3,0,0,1,.944.407,5.514,5.514,0,0,1,.5.3C5640.016,858.947,5640.181,859.074,5640.35,859.213Z" transform="translate(-5636.048 -856.661)" fill="url(#linear-gradient-4)"/>
          <path id="パス_222" data-name="パス 222" d="M5621.013,842.877l-1.537-.042c-.027,0-.167-.006-.379-.032a6.681,6.681,0,0,1-.843-.161,6.052,6.052,0,0,1-2.4-1.205,6.261,6.261,0,0,1-1.028-1.109c-.128-.176-.253-.364-.37-.557a5.2,5.2,0,0,1-.266-.508l-.029-.06a7.538,7.538,0,0,1-.442-1.217l-.358-1.466,1.5.182a6.415,6.415,0,0,1,1.192.292,7.362,7.362,0,0,1,1.1.475,6.574,6.574,0,0,1,.6.36c.187.128.375.27.578.436l.008.006a7.126,7.126,0,0,1,1.667,2.081,7.563,7.563,0,0,1,.369.78c.034.082.064.161.09.236Z" transform="translate(-5613.36 -836.519)" fill="url(#linear-gradient-4)"/>
        </g>
        <g id="グループ_532" data-name="グループ 532" transform="translate(0.207 54.031)">
          <path id="パス_223" data-name="パス 223" d="M5640.057,686.1a6.047,6.047,0,0,1,1.113,1.948,5.794,5.794,0,0,1,.264.986,4.9,4.9,0,0,1-.944-.3,4.967,4.967,0,0,1-1.8-1.263,5.194,5.194,0,0,1-1.083-2.035,6.263,6.263,0,0,1-.211-1.064,5.313,5.313,0,0,1,.925.38A5.611,5.611,0,0,1,5640.057,686.1Z" transform="translate(-5636.234 -682.976)" fill="url(#linear-gradient-4)"/>
          <path id="パス_224" data-name="パス 224" d="M5623.425,667.178l-1.425-.254a6.286,6.286,0,0,1-3.34-1.9,6.231,6.231,0,0,1-1.309-2.453,7.267,7.267,0,0,1-.243-1.248l-.125-1.486,1.439.393a6.336,6.336,0,0,1,1.127.458,6.7,6.7,0,0,1,2.048,1.6,7.125,7.125,0,0,1,1.3,2.279,6.871,6.871,0,0,1,.313,1.182Z" transform="translate(-5616.983 -659.836)" fill="url(#linear-gradient-4)"/>
        </g>
        <g id="グループ_533" data-name="グループ 533" transform="translate(1.828 44.122)">
          <path id="パス_225" data-name="パス 225" d="M5666.064,515.241a5.079,5.079,0,0,1,.282.537,5.572,5.572,0,0,1,.226.539,6.439,6.439,0,0,1,.268.988,5.73,5.73,0,0,1,.108,1,5.169,5.169,0,0,1-2.45-1.926,4.945,4.945,0,0,1-.522-1.106,6.4,6.4,0,0,1-.213-1.037,6.2,6.2,0,0,1-.045-1.07,5.222,5.222,0,0,1,.851.5A5.483,5.483,0,0,1,5666.064,515.241Z" transform="translate(-5662.667 -511.622)" fill="url(#linear-gradient-4)"/>
          <path id="パス_226" data-name="パス 226" d="M5650.724,494.177l-1.361-.455a6.2,6.2,0,0,1-3-2.351,5.936,5.936,0,0,1-.635-1.341l-.01-.031a7.378,7.378,0,0,1-.249-1.209,7.091,7.091,0,0,1-.05-1.27l.1-1.473,1.354.59a6.206,6.206,0,0,1,1.041.612,6.575,6.575,0,0,1,1.78,1.873,6.086,6.086,0,0,1,.335.636c.1.2.185.413.264.63a7.555,7.555,0,0,1,.311,1.148,6.621,6.621,0,0,1,.126,1.207Z" transform="translate(-5645.414 -486.047)" fill="url(#linear-gradient-4)"/>
        </g>
        <g id="グループ_534" data-name="グループ 534" transform="translate(4.682 34.609)">
          <path id="パス_227" data-name="パス 227" d="M5715.874,350.655a4.979,4.979,0,0,1,.316,1.117,6.372,6.372,0,0,1,.114,1,5.64,5.64,0,0,1-.045,1,5.087,5.087,0,0,1-2.116-2.237,4.433,4.433,0,0,1-.213-.579,4.987,4.987,0,0,1-.114-.57,6.258,6.258,0,0,1-.055-1.043,6.087,6.087,0,0,1,.116-1.051,5.135,5.135,0,0,1,.761.614A5.369,5.369,0,0,1,5715.874,350.655Z" transform="translate(-5712.715 -346.636)" fill="url(#linear-gradient-4)"/>
          <path id="パス_228" data-name="パス 228" d="M5699.807,327.933l-1.271-.644a6.127,6.127,0,0,1-2.6-2.738,5.494,5.494,0,0,1-.263-.715l-.008-.028a6.082,6.082,0,0,1-.138-.689,7.33,7.33,0,0,1-.064-1.22,7,7,0,0,1,.141-1.251l.323-1.428,1.244.771a6.118,6.118,0,0,1,.934.749,6.451,6.451,0,0,1,1.475,2.093,6.025,6.025,0,0,1,.382,1.336,7.389,7.389,0,0,1,.13,1.155,6.523,6.523,0,0,1-.059,1.2Z" transform="translate(-5695.463 -319.22)" fill="url(#linear-gradient-4)"/>
        </g>
        <g id="グループ_535" data-name="グループ 535" transform="translate(8.773 25.705)">
          <path id="パス_229" data-name="パス 229" d="M5787.507,196.033a4.769,4.769,0,0,1,.145,1.137c0,.18,0,.353-.018.518s-.021.324-.04.469a5.5,5.5,0,0,1-.193.968,4.747,4.747,0,0,1-.7-.651,4.646,4.646,0,0,1-1.041-1.837,5.19,5.19,0,0,1-.033-2.186,5.969,5.969,0,0,1,.268-1.01,5.076,5.076,0,0,1,.658.709A5.265,5.265,0,0,1,5787.507,196.033Z" transform="translate(-5784.477 -191.709)" fill="url(#linear-gradient-4)"/>
          <path id="パス_230" data-name="パス 230" d="M5770.689,172.152l-1.156-.815a5.727,5.727,0,0,1-.879-.806,5.629,5.629,0,0,1-1.271-2.257l0-.017a6.131,6.131,0,0,1-.05-2.633,6.949,6.949,0,0,1,.323-1.2l.529-1.352,1.112.932a6.02,6.02,0,0,1,.812.867,6.355,6.355,0,0,1,1.146,2.264h0a5.837,5.837,0,0,1,.177,1.385c0,.2,0,.4-.021.607l0,.058c-.01.15-.021.305-.04.458a6.47,6.47,0,0,1-.236,1.166Z" transform="translate(-5767.21 -163.068)" fill="url(#linear-gradient-4)"/>
        </g>
        <g id="グループ_536" data-name="グループ 536" transform="translate(14.035 17.661)">
          <path id="パス_231" data-name="パス 231" d="M5879.736,54.971a5.18,5.18,0,0,1-.24,2.077c-.045.137-.087.263-.123.374s-.074.209-.106.289c-.064.16-.109.25-.109.25a4.652,4.652,0,0,1-.6-.738,5.106,5.106,0,0,1-.456-.846,3.9,3.9,0,0,1-.277-1.084,5.113,5.113,0,0,1,.287-2.139,4.564,4.564,0,0,1,.285-.684c.085-.16.142-.25.142-.25a4.814,4.814,0,0,1,.535.779A5.242,5.242,0,0,1,5879.736,54.971Z" transform="translate(-5876.761 -50.497)" fill="url(#linear-gradient-4)"/>
          <path id="パス_232" data-name="パス 232" d="M5862.2,31.189l-1.021-.966a5.708,5.708,0,0,1-.747-.917,6.1,6.1,0,0,1-.551-1.022,4.957,4.957,0,0,1-.353-1.374,6.033,6.033,0,0,1,.337-2.589,5.559,5.559,0,0,1,.356-.844c.1-.182.165-.292.178-.312l.74-1.164.918,1.028a5.8,5.8,0,0,1,.667.963,6.2,6.2,0,0,1,.789,2.375,6.138,6.138,0,0,1-.283,2.5l0,.011-.126.384c-.04.116-.082.231-.126.341-.077.191-.135.308-.145.33Z" transform="translate(-5859.504 -22.001)" fill="url(#linear-gradient-4)"/>
        </g>
        <g id="グループ_537" data-name="グループ 537" transform="translate(20.375 10.574)">
          <path id="パス_233" data-name="パス 233" d="M5990.91-69.466a5.066,5.066,0,0,1-.541,1.992,5.739,5.739,0,0,1-.339.6c-.047.07-.081.129-.107.167l-.04.059a4.589,4.589,0,0,1-.478-.806,4.28,4.28,0,0,1-.423-1.975,5.01,5.01,0,0,1,.6-2.045,5.468,5.468,0,0,1,.573-.833,4.72,4.72,0,0,1,.413.838,5.339,5.339,0,0,1,.26.9A4.957,4.957,0,0,1,5990.91-69.466Z" transform="translate(-5987.936 74.018)" fill="url(#linear-gradient-4)"/>
          <path id="パス_234" data-name="パス 234" d="M5972.7-93.16l-.887-1.123a5.536,5.536,0,0,1-.6-1.008,5.266,5.266,0,0,1-.521-2.464,5.921,5.921,0,0,1,.712-2.482l.018-.033a6.4,6.4,0,0,1,.7-1.008l.9-1.02.752,1.133a5.732,5.732,0,0,1,.517,1.04,6.356,6.356,0,0,1,.312,1.08v.006a6.04,6.04,0,0,1,.1,1.336v0a6.045,6.045,0,0,1-.647,2.409,6.846,6.846,0,0,1-.4.707l-.01.016c-.017.025-.031.048-.042.067-.023.038-.045.071-.063.1Z" transform="translate(-5970.684 102.299)" fill="url(#linear-gradient-4)"/>
        </g>
        <g id="グループ_538" data-name="グループ 538" transform="translate(27.662 4.634)">
          <path id="パス_235" data-name="パス 235" d="M6118.763-174.377a4.961,4.961,0,0,1-.824,1.862,5.124,5.124,0,0,1-.605.725,4.383,4.383,0,0,1-.346-.85,4.2,4.2,0,0,1-.127-1.989,4.227,4.227,0,0,1,.367-1.059c.079-.161.165-.313.253-.454s.185-.262.275-.377a5.531,5.531,0,0,1,.686-.725,4.63,4.63,0,0,1,.284.879A4.624,4.624,0,0,1,6118.763-174.377Z" transform="translate(-6115.749 178.911)" fill="url(#linear-gradient-4)"/>
          <path id="パス_236" data-name="パス 236" d="M6099.819-197.682l-.657-1.144a5.4,5.4,0,0,1-.44-1.07,5.168,5.168,0,0,1-.151-2.488,5.275,5.275,0,0,1,.456-1.322c.09-.181.191-.363.3-.542l.007-.012c.114-.177.228-.325.335-.461l0-.006a6.5,6.5,0,0,1,.832-.873l1.035-.866.577,1.22a5.7,5.7,0,0,1,.358,1.095,5.705,5.705,0,0,1,.041,2.431,5.922,5.922,0,0,1-.992,2.25,6.116,6.116,0,0,1-.746.886Z" transform="translate(-6098.482 206.466)" fill="url(#linear-gradient-4)"/>
        </g>
        <g id="グループ_539" data-name="グループ 539" transform="translate(35.729)">
          <path id="パス_237" data-name="パス 237" d="M6260.332-257.207a5.049,5.049,0,0,1-.5.953,5.333,5.333,0,0,1-.589.724,5.011,5.011,0,0,1-.7.614,4.36,4.36,0,0,1-.215-.881,4.093,4.093,0,0,1,.167-1.957,4.1,4.1,0,0,1,.515-.976c.051-.072.1-.142.156-.209s.109-.126.164-.185c.11-.118.22-.226.327-.323a5.4,5.4,0,0,1,.78-.6,4.545,4.545,0,0,1,.152.9A4.483,4.483,0,0,1,6260.332-257.207Z" transform="translate(-6257.232 261.627)" fill="url(#linear-gradient-4)"/>
          <path id="パス_238" data-name="パス 238" d="M6240.783-279.431l-.478-1.214a5.3,5.3,0,0,1-.277-1.113,5.081,5.081,0,0,1,.216-2.458,5.168,5.168,0,0,1,.645-1.225c.07-.1.133-.183.193-.259l.02-.024c.063-.074.129-.149.2-.222.121-.13.251-.258.386-.382a6.377,6.377,0,0,1,.948-.726l1.142-.684.392,1.273a5.6,5.6,0,0,1,.2,1.125,5.579,5.579,0,0,1-.32,2.4l0,.012a6.079,6.079,0,0,1-.606,1.152,6.417,6.417,0,0,1-.7.861,5.973,5.973,0,0,1-.866.752Z" transform="translate(-6239.968 287.738)" fill="url(#linear-gradient-4)"/>
        </g>
      </g>
      <g id="グループ_557" data-name="グループ 557" transform="translate(7.967 8.41)">
        <g id="グループ_541" data-name="グループ 541" transform="translate(35.906 96.952)">
          <path id="パス_239" data-name="パス 239" d="M6401.456,1595.34a5.389,5.389,0,0,0,.271.6,5.166,5.166,0,0,0,.329.515,6.492,6.492,0,0,0,.7.814,5.861,5.861,0,0,0,.807.681,7.2,7.2,0,0,0,.016-1.091,7.392,7.392,0,0,0-.48-2.32,5.676,5.676,0,0,0-.272-.578c-.048-.09-.1-.177-.149-.261s-.1-.172-.152-.254a6.812,6.812,0,0,0-.611-.829,5.225,5.225,0,0,0-.7-.685,6.308,6.308,0,0,0-.114,1.068A6.185,6.185,0,0,0,6401.456,1595.34Z" transform="translate(-6400.05 -1590.117)" fill="url(#linear-gradient-4)"/>
          <path id="パス_240" data-name="パス 240" d="M6387.146,1569.7l-1.417-.934a6.807,6.807,0,0,1-.967-.812,7.537,7.537,0,0,1-.81-.946,6.311,6.311,0,0,1-.395-.621l-.01-.018a6.55,6.55,0,0,1-.324-.721,7.152,7.152,0,0,1-.426-2.734,7.3,7.3,0,0,1,.139-1.264l.354-1.592,1.3.988a6.173,6.173,0,0,1,.856.833,7.687,7.687,0,0,1,.706.957c.059.092.113.186.165.275s.116.2.17.3a6.671,6.671,0,0,1,.321.684,8.3,8.3,0,0,1,.556,2.654,8.218,8.218,0,0,1-.021,1.266Z" transform="translate(-6382.795 -1560.055)" fill="url(#linear-gradient-4)"/>
        </g>
        <g id="グループ_542" data-name="グループ 542" transform="translate(28.626 93.234)">
          <path id="パス_241" data-name="パス 241" d="M6273.553,1530.918a5.42,5.42,0,0,0,.412,1.192,6.055,6.055,0,0,0,.565.891,5.739,5.739,0,0,0,.7.775,6.962,6.962,0,0,0,.183-1.06,7.061,7.061,0,0,0-.122-2.325c-.025-.105-.053-.208-.084-.308s-.059-.2-.092-.3c-.065-.2-.139-.381-.215-.555a6.482,6.482,0,0,0-.482-.891,5.074,5.074,0,0,0-.59-.764,6.144,6.144,0,0,0-.274,1.024A5.973,5.973,0,0,0,6273.553,1530.918Z" transform="translate(-6272.392 -1525.705)" fill="url(#linear-gradient-4)"/>
          <path id="パス_242" data-name="パス 242" d="M6258.517,1504.812l-1.247-1.093a6.713,6.713,0,0,1-.838-.928,7.031,7.031,0,0,1-.663-1.047l-.013-.025a6.512,6.512,0,0,1-.491-1.421h0a6.918,6.918,0,0,1-.01-2.735,7.208,7.208,0,0,1,.329-1.215l.583-1.483,1.126,1.128a6.093,6.093,0,0,1,.729.935,7.471,7.471,0,0,1,.56,1.035c.094.213.179.431.251.648.039.116.073.233.1.335.036.119.069.24.1.36a8.645,8.645,0,0,1-.07,3.91Z" transform="translate(-6255.125 -1494.865)" fill="url(#linear-gradient-4)"/>
        </g>
        <g id="グループ_543" data-name="グループ 543" transform="translate(21.85 88.448)">
          <path id="パス_243" data-name="パス 243" d="M6154.592,1448.263a5.241,5.241,0,0,0,.232,1.217c.058.185.123.361.191.525a4.651,4.651,0,0,0,.221.44,5.574,5.574,0,0,0,.574.851,6.717,6.717,0,0,0,.341-1,7.871,7.871,0,0,0,.2-1.049,6.943,6.943,0,0,0,.032-1.237,6,6,0,0,0-.554-2.13c-.119-.263-.243-.463-.324-.613s-.137-.228-.137-.228a6.245,6.245,0,0,0-.435.968A5.731,5.731,0,0,0,6154.592,1448.263Z" transform="translate(-6153.538 -1443.089)" fill="url(#linear-gradient-4)"/>
          <path id="パス_244" data-name="パス 244" d="M6138.827,1421.03l-1.061-1.224a6.5,6.5,0,0,1-.7-1.025l-.011-.02a5.587,5.587,0,0,1-.261-.524l0-.006c-.084-.2-.159-.409-.223-.614a6.272,6.272,0,0,1-.278-1.459h0a6.7,6.7,0,0,1,.4-2.677,7.316,7.316,0,0,1,.52-1.149l.835-1.415.926,1.358c.013.02.085.128.186.307l.008.016q.029.054.066.118c.077.136.182.323.287.551a7.112,7.112,0,0,1,.647,2.5v.01a7.92,7.92,0,0,1-.04,1.422,8.682,8.682,0,0,1-.227,1.186,7.734,7.734,0,0,1-.4,1.174Z" transform="translate(-6136.283 -1410.916)" fill="url(#linear-gradient-4)"/>
        </g>
        <g id="グループ_544" data-name="グループ 544" transform="translate(15.766 82.866)">
          <path id="パス_245" data-name="パス 245" d="M6047.893,1349.454a5.583,5.583,0,0,0,.3,2.224,4.887,4.887,0,0,0,.3.668c.083.157.14.244.14.244a6.523,6.523,0,0,0,.487-.925,7.362,7.362,0,0,0,.354-.989,6.392,6.392,0,0,0,.232-1.212,5.782,5.782,0,0,0-.239-2.149c-.084-.27-.154-.5-.217-.656s-.1-.242-.1-.242a6.091,6.091,0,0,0-.572.877,6.609,6.609,0,0,0-.435.969A5,5,0,0,0,6047.893,1349.454Z" transform="translate(-6046.833 -1344.515)" fill="url(#linear-gradient-4)"/>
          <path id="パス_246" data-name="パス 246" d="M6031.369,1323.006l-.863-1.328c-.013-.021-.085-.134-.186-.322l-.017-.033a5.79,5.79,0,0,1-.347-.782l0-.009a6.531,6.531,0,0,1-.356-2.647,6.069,6.069,0,0,1,.3-1.436l0-.013a7.624,7.624,0,0,1,.5-1.123,7.032,7.032,0,0,1,.684-1.041l1.024-1.239.714,1.44c.01.021.066.134.138.319s.135.383.21.625l.033.108a6.869,6.869,0,0,1,.282,2.546,7.356,7.356,0,0,1-.267,1.408,8.479,8.479,0,0,1-.4,1.125,7.539,7.539,0,0,1-.575,1.085Z" transform="translate(-6029.578 -1313.034)" fill="url(#linear-gradient-4)"/>
        </g>
        <g id="グループ_545" data-name="グループ 545" transform="translate(10.531 76.53)">
          <path id="パス_247" data-name="パス 247" d="M5956.219,1236.672a5.393,5.393,0,0,0-.021,2.207,4.3,4.3,0,0,0,.182.706c.06.165.1.258.1.258a6.366,6.366,0,0,0,.619-.824,6.842,6.842,0,0,0,.918-2.061,5.289,5.289,0,0,0,.143-1.162c0-.18,0-.352-.016-.513s-.031-.311-.044-.454a4.937,4.937,0,0,0-.181-.926,5.943,5.943,0,0,0-.694.766,6.387,6.387,0,0,0-.571.876,5.464,5.464,0,0,0-.254.539A4.445,4.445,0,0,0,5956.219,1236.672Z" transform="translate(-5955.049 -1232.078)" fill="url(#linear-gradient-4)"/>
          <path id="パス_248" data-name="パス 248" d="M5938.924,1211.513l-.654-1.4c-.01-.022-.063-.138-.133-.328a5.264,5.264,0,0,1-.231-.878v-.008a6.349,6.349,0,0,1,.032-2.639h0a5.612,5.612,0,0,1,.226-.724l.006-.014a6.549,6.549,0,0,1,.3-.641,7.44,7.44,0,0,1,.664-1.02,7.022,7.022,0,0,1,.831-.912l1.184-1.042.5,1.5a5.933,5.933,0,0,1,.228,1.141v.018c.005.057.011.114.017.173.01.093.02.189.028.289v.007c.015.2.022.406.019.606a6.339,6.339,0,0,1-.171,1.391,7.762,7.762,0,0,1-1.056,2.383,7.28,7.28,0,0,1-.733.971Z" transform="translate(-5937.781 -1201.903)" fill="url(#linear-gradient-4)"/>
        </g>
        <g id="グループ_546" data-name="グループ 546" transform="translate(6.27 69.575)">
          <path id="パス_249" data-name="パス 249" d="M5881.689,1112.355a5.236,5.236,0,0,0-.339,2.146,6.231,6.231,0,0,0,.07.719,1.673,1.673,0,0,0,.059.27,6.691,6.691,0,0,0,.741-.71,6.517,6.517,0,0,0,1.211-1.867,5.091,5.091,0,0,0,.308-1.111c.028-.175.047-.343.058-.5s.027-.314.031-.454a4.842,4.842,0,0,0-.046-.932,5.845,5.845,0,0,0-.8.64,6.256,6.256,0,0,0-.69.766,5.288,5.288,0,0,0-.329.487A3.68,3.68,0,0,0,5881.689,1112.355Z" transform="translate(-5880.302 -1108.205)" fill="url(#linear-gradient-4)"/>
          <path id="パス_250" data-name="パス 250" d="M5863.713,1088.948l-.476-1.384a2.632,2.632,0,0,1-.1-.452,7.137,7.137,0,0,1-.082-.836,6.173,6.173,0,0,1,.414-2.574,4.7,4.7,0,0,1,.35-.7,6.406,6.406,0,0,1,.392-.579,7.252,7.252,0,0,1,.806-.895,6.841,6.841,0,0,1,.955-.763l1.31-.827.273,1.525a5.737,5.737,0,0,1,.063,1.15c0,.145-.016.29-.028.43l-.005.069c-.013.2-.036.4-.067.59a6.164,6.164,0,0,1-.371,1.337,7.414,7.414,0,0,1-1.4,2.175,7.651,7.651,0,0,1-.872.832Z" transform="translate(-5863.047 -1079.94)" fill="url(#linear-gradient-4)"/>
        </g>
        <g id="グループ_547" data-name="グループ 547" transform="translate(3.068 62.151)">
          <path id="パス_251" data-name="パス 251" d="M5825.856,979.22a5.1,5.1,0,0,0-.644,2.044,5.308,5.308,0,0,0-.021.988,6.826,6.826,0,0,0,2.3-2.215,4.942,4.942,0,0,0,.461-1.039c.053-.167.095-.329.128-.483s.071-.3.095-.44a4.73,4.73,0,0,0,.087-.921,5.774,5.774,0,0,0-.875.5,6.114,6.114,0,0,0-.79.643,5.232,5.232,0,0,0-.394.425A3.592,3.592,0,0,0,5825.856,979.22Z" transform="translate(-5824.136 -975.592)" fill="url(#linear-gradient-4)"/>
          <path id="パス_252" data-name="パス 252" d="M5807.062,958.068l-.158-1.563a6.253,6.253,0,0,1,.021-1.2,6.058,6.058,0,0,1,.78-2.462,4.555,4.555,0,0,1,.448-.633,6.337,6.337,0,0,1,.471-.508,7.175,7.175,0,0,1,.924-.753,6.7,6.7,0,0,1,1.053-.6l1.4-.605.052,1.527a5.692,5.692,0,0,1-.1,1.138c-.021.122-.048.241-.074.355-.009.041-.019.083-.028.126-.041.192-.093.386-.152.574a6,6,0,0,1-.56,1.257,7.206,7.206,0,0,1-1.706,1.916,7.3,7.3,0,0,1-.993.683Z" transform="translate(-5806.885 -949.74)" fill="url(#linear-gradient-4)"/>
        </g>
        <g id="グループ_548" data-name="グループ 548" transform="translate(1.015 54.455)">
          <path id="パス_253" data-name="パス 253" d="M5790.273,840.667a4.968,4.968,0,0,0-.925,1.9,5.848,5.848,0,0,0-.135.692c-.012.085-.019.153-.022.2a.433.433,0,0,0,0,.071s.1-.034.258-.106a7.07,7.07,0,0,0,.648-.33,6.112,6.112,0,0,0,1.672-1.371,4.814,4.814,0,0,0,.6-.944c.076-.155.141-.307.2-.452s.112-.286.154-.415a4.6,4.6,0,0,0,.217-.886,5.652,5.652,0,0,0-.932.356,5.977,5.977,0,0,0-.868.506,5.237,5.237,0,0,0-.448.354A3.485,3.485,0,0,0,5790.273,840.667Z" transform="translate(-5788.145 -837.64)" fill="url(#linear-gradient-4)"/>
          <path id="パス_254" data-name="パス 254" d="M5770.964,822.119l-.069-1.4a1.638,1.638,0,0,1,.006-.217c.007-.076.016-.157.027-.241a7.008,7.008,0,0,1,.158-.816,5.934,5.934,0,0,1,1.125-2.3,4.5,4.5,0,0,1,.535-.553,6.119,6.119,0,0,1,.536-.425,6.993,6.993,0,0,1,1.021-.594,6.637,6.637,0,0,1,1.123-.425l1.459-.372-.164,1.5a5.686,5.686,0,0,1-.264,1.1c-.034.106-.073.206-.11.3-.019.047-.037.095-.055.143l0,.009c-.069.185-.148.367-.233.542a5.856,5.856,0,0,1-.734,1.148,7.044,7.044,0,0,1-1.959,1.614,8.26,8.26,0,0,1-.745.379c-.189.083-.308.127-.329.134Zm2.015-1.425h0Z" transform="translate(-5770.893 -814.776)" fill="url(#linear-gradient-4)"/>
        </g>
        <g id="グループ_549" data-name="グループ 549" transform="translate(0 46.666)">
          <path id="パス_255" data-name="パス 255" d="M5777.491,699.919a4.791,4.791,0,0,0-1.177,1.713,5.114,5.114,0,0,0-.294.917,6.011,6.011,0,0,0,.953-.283,5.919,5.919,0,0,0,1.835-1.078,5.677,5.677,0,0,0,1.2-1.624,4.564,4.564,0,0,0,.335-.836,5.529,5.529,0,0,0-.963.2A5.165,5.165,0,0,0,5777.491,699.919Z" transform="translate(-5774.712 -697.557)" fill="url(#linear-gradient-4)"/>
          <path id="パス_256" data-name="パス 256" d="M5753.085,684.468l.283-1.494a5.99,5.99,0,0,1,.357-1.127,5.765,5.765,0,0,1,1.443-2.088l.017-.014a6.118,6.118,0,0,1,2.27-1.2,6.5,6.5,0,0,1,1.166-.24l1.471-.133-.367,1.431a5.477,5.477,0,0,1-.416,1.05l-.012.022a6.6,6.6,0,0,1-1.422,1.908,6.838,6.838,0,0,1-2.159,1.275,7.051,7.051,0,0,1-1.135.333Z" transform="translate(-5753.085 -678.176)" fill="url(#linear-gradient-4)"/>
        </g>
        <g id="グループ_550" data-name="グループ 550" transform="translate(0.439 38.842)">
          <path id="パス_257" data-name="パス 257" d="M5788.324,559.968a3.9,3.9,0,0,0-.469.342,4.449,4.449,0,0,0-.379.382,5.293,5.293,0,0,0-.559.77,4.962,4.962,0,0,0-.415.855,5.861,5.861,0,0,0,.972-.126,5.684,5.684,0,0,0,1.945-.768,4.494,4.494,0,0,0,.823-.7,5.321,5.321,0,0,0,.589-.705,4.419,4.419,0,0,0,.443-.771,5.4,5.4,0,0,0-.97.047A4.984,4.984,0,0,0,5788.324,559.968Z" transform="translate(-5785.036 -558.198)" fill="url(#linear-gradient-4)"/>
          <path id="パス_258" data-name="パス 258" d="M5760.792,546.138l.479-1.408a5.935,5.935,0,0,1,.509-1.055,6.325,6.325,0,0,1,.67-.923,5.551,5.551,0,0,1,.468-.472l.015-.013a5,5,0,0,1,.594-.434h0a5.943,5.943,0,0,1,2.4-.825,6.4,6.4,0,0,1,1.178-.053l1.441.1L5768,542.39a5.414,5.414,0,0,1-.554.974,6.36,6.36,0,0,1-.692.83,5.548,5.548,0,0,1-1,.85,6.621,6.621,0,0,1-2.306.918,6.859,6.859,0,0,1-1.164.147Z" transform="translate(-5760.792 -540.946)" fill="url(#linear-gradient-4)"/>
        </g>
        <g id="グループ_551" data-name="グループ 551" transform="translate(2.249 31.023)">
          <path id="パス_259" data-name="パス 259" d="M5822.417,422.481a4.232,4.232,0,0,0-.947.575,5.123,5.123,0,0,0-.65.672,4.851,4.851,0,0,0-.523.778,5.71,5.71,0,0,0,.966.03,5.448,5.448,0,0,0,2-.453,4.213,4.213,0,0,0,.483-.264,4.844,4.844,0,0,0,.436-.293,5.131,5.131,0,0,0,.67-.606,4.327,4.327,0,0,0,.538-.694,5.271,5.271,0,0,0-.952-.1A4.809,4.809,0,0,0,5822.417,422.481Z" transform="translate(-5818.713 -421.077)" fill="url(#linear-gradient-4)"/>
          <path id="パス_260" data-name="パス 260" d="M5794.766,408.333a6.137,6.137,0,0,1-.806-.047l-1.437-.2.651-1.3a5.776,5.776,0,0,1,.644-.965,6.144,6.144,0,0,1,.784-.81l.025-.021a5.28,5.28,0,0,1,1.183-.717h0a5.768,5.768,0,0,1,2.466-.445,6.274,6.274,0,0,1,1.16.131l1.374.318-.706,1.221a5.363,5.363,0,0,1-.676.883,6.215,6.215,0,0,1-.808.728,5.813,5.813,0,0,1-.519.349,5.19,5.19,0,0,1-.591.322,6.378,6.378,0,0,1-2.392.548C5795,408.331,5794.876,408.333,5794.766,408.333Z" transform="translate(-5792.523 -403.824)" fill="url(#linear-gradient-4)"/>
        </g>
        <g id="グループ_552" data-name="グループ 552" transform="translate(5.374 23.483)">
          <path id="パス_261" data-name="パス 261" d="M5878.828,290.039a4.107,4.107,0,0,0-1,.425,4.918,4.918,0,0,0-.414.27,3.991,3.991,0,0,0-.333.284,4.682,4.682,0,0,0-.615.689,5.521,5.521,0,0,0,.935.179,5.283,5.283,0,0,0,2.012-.138,4.672,4.672,0,0,0,1.724-.9,4.2,4.2,0,0,0,.617-.607,5.137,5.137,0,0,0-.911-.248A4.628,4.628,0,0,0,5878.828,290.039Z" transform="translate(-5874.806 -288.86)" fill="url(#linear-gradient-4)"/>
          <path id="パス_262" data-name="パス 262" d="M5850.607,275.7a7.1,7.1,0,0,1-.789-.044,6.512,6.512,0,0,1-1.128-.219l-1.351-.42.8-1.167a5.708,5.708,0,0,1,.761-.86l.006-.006a4.95,4.95,0,0,1,.419-.355l.008-.006c.163-.118.332-.228.5-.327a5.165,5.165,0,0,1,1.255-.531,5.589,5.589,0,0,1,2.476-.066,6.158,6.158,0,0,1,1.114.307l1.275.517-.842,1.089a5.213,5.213,0,0,1-.783.777,5.725,5.725,0,0,1-2.1,1.1A5.936,5.936,0,0,1,5850.607,275.7Z" transform="translate(-5847.339 -271.595)" fill="url(#linear-gradient-4)"/>
        </g>
        <g id="グループ_553" data-name="グループ 553" transform="translate(9.735 16.431)">
          <path id="パス_263" data-name="パス 263" d="M5956.163,166.253a4.418,4.418,0,0,0-1.844.7,2.56,2.56,0,0,0-.3.218c-.085.07-.158.134-.217.189-.119.109-.183.179-.183.179a5.37,5.37,0,0,0,.882.319,5.751,5.751,0,0,0,.912.175,4.822,4.822,0,0,0,1.078.006,4.468,4.468,0,0,0,1.8-.637c.218-.132.384-.263.511-.35s.189-.149.189-.149a5.193,5.193,0,0,0-.858-.389A4.385,4.385,0,0,0,5956.163,166.253Z" transform="translate(-5951.92 -165.185)" fill="url(#linear-gradient-4)"/>
          <path id="パス_264" data-name="パス 264" d="M5927.9,151.85a6.548,6.548,0,0,1-.706-.04,6.794,6.794,0,0,1-1.076-.206,6.357,6.357,0,0,1-1.069-.391l-1.235-.613.927-1.022c.016-.017.1-.112.249-.246.082-.076.169-.151.258-.224a3.665,3.665,0,0,1,.407-.3,5.376,5.376,0,0,1,2.283-.854h0a5.361,5.361,0,0,1,2.439.315,6.146,6.146,0,0,1,1.043.478l1.212.732-1.059.94c-.024.021-.115.1-.266.21l-.025.018-.1.073c-.114.082-.269.195-.459.309a5.523,5.523,0,0,1-2.219.781A5.135,5.135,0,0,1,5927.9,151.85Z" transform="translate(-5923.818 -147.927)" fill="url(#linear-gradient-4)"/>
        </g>
        <g id="グループ_554" data-name="グループ 554" transform="translate(15.196 10.059)">
          <path id="パス_265" data-name="パス 265" d="M6052.661,54.473a4.247,4.247,0,0,0-1.887.421,5.118,5.118,0,0,0-.575.311,1.694,1.694,0,0,0-.152.107l-.052.041a5.315,5.315,0,0,0,.809.45,5.112,5.112,0,0,0,1.918.49,4.276,4.276,0,0,0,1.833-.369,4.327,4.327,0,0,0,.765-.377,5.053,5.053,0,0,0-.775-.512,5.185,5.185,0,0,0-.847-.371A3.551,3.551,0,0,0,6052.661,54.473Z" transform="translate(-6048.261 -53.428)" fill="url(#linear-gradient-4)"/>
          <path id="パス_266" data-name="パス 266" d="M6024.168,40.086l-.155,0a6.2,6.2,0,0,1-2.319-.585,6.321,6.321,0,0,1-.98-.549l-1.127-.806,1.18-.934a2.324,2.324,0,0,1,.211-.146,6.207,6.207,0,0,1,.684-.37,5.214,5.214,0,0,1,2.357-.517,4.605,4.605,0,0,1,1.336.245,6.237,6.237,0,0,1,1.016.445,6.028,6.028,0,0,1,.949.632l1.059.9-1.155.768a6.339,6.339,0,0,1-3.055.922Z" transform="translate(-6019.586 -36.175)" fill="url(#linear-gradient-4)"/>
        </g>
        <g id="グループ_555" data-name="グループ 555" transform="translate(21.696 4.536)">
          <path id="パス_267" data-name="パス 267" d="M6166.344-42.327a4.084,4.084,0,0,0-1.891.143,4.528,4.528,0,0,0-.83.335,5.261,5.261,0,0,0,.722.572,4.9,4.9,0,0,0,1.785.765,3.836,3.836,0,0,0,1,.048,4.281,4.281,0,0,0,.442-.059c.14-.024.275-.047.4-.075a4.067,4.067,0,0,0,.8-.263,4.975,4.975,0,0,0-.674-.62A4.392,4.392,0,0,0,6166.344-42.327Z" transform="translate(-6161.911 43.426)" fill="url(#linear-gradient-4)"/>
          <path id="パス_268" data-name="パス 268" d="M6138.482-56.671a4.8,4.8,0,0,1-.87-.078,5.987,5.987,0,0,1-2.175-.924,6.246,6.246,0,0,1-.878-.7l-.977-.973,1.2-.675a5.549,5.549,0,0,1,1.039-.424,5.048,5.048,0,0,1,2.381-.171l.024,0a5.346,5.346,0,0,1,2.177,1.043,5.953,5.953,0,0,1,.829.767l.877,1.025-1.212.591a5.089,5.089,0,0,1-1.021.341c-.149.035-.3.06-.444.085h-.006a5.367,5.367,0,0,1-.541.072Q6138.684-56.671,6138.482-56.671Z" transform="translate(-6133.583 60.69)" fill="url(#linear-gradient-4)"/>
        </g>
        <g id="グループ_556" data-name="グループ 556" transform="translate(29.085)">
          <path id="パス_269" data-name="パス 269" d="M6294.545-121.75a3.1,3.1,0,0,0-.992-.192,4.542,4.542,0,0,0-.872.05,4.431,4.431,0,0,0-.856.212,5.121,5.121,0,0,0,.612.671,4.7,4.7,0,0,0,1.613,1.014,3.671,3.671,0,0,0,.965.191c.076.005.15.007.224.009s.148.006.218.006c.142,0,.276-.006.4-.016a3.982,3.982,0,0,0,.818-.146,4.871,4.871,0,0,0-.56-.709A4.253,4.253,0,0,0,6294.545-121.75Z" transform="translate(-6290.191 122.989)" fill="url(#linear-gradient-4)"/>
          <path id="パス_270" data-name="パス 270" d="M6268.448-136h-.019c-.084,0-.169,0-.252-.007s-.164,0-.257-.01a4.723,4.723,0,0,1-1.237-.246,5.787,5.787,0,0,1-1.983-1.237,6.153,6.153,0,0,1-.748-.824l-.788-1.093,1.255-.489a5.453,5.453,0,0,1,1.078-.271,5.576,5.576,0,0,1,1.073-.061,4.1,4.1,0,0,1,1.317.259,5.218,5.218,0,0,1,1.961,1.351,5.864,5.864,0,0,1,.69.88l.688,1.128-1.256.407a5.01,5.01,0,0,1-1.055.194C6268.762-136,6268.6-136,6268.448-136Z" transform="translate(-6263.165 140.241)" fill="url(#linear-gradient-4)"/>
        </g>
      </g>
      <g id="グループ_559" data-name="グループ 559" transform="translate(6.872 5.511)">
        <g id="グループ_558" data-name="グループ 558">
          <path id="パス_271" data-name="パス 271" d="M5770.129-189.831a58.392,58.392,0,0,0-17.9,12.33,58.792,58.792,0,0,0-12.159,17.991,58.386,58.386,0,0,0-4.778,21.159,58.4,58.4,0,0,0,3.319,21.418A58.047,58.047,0,0,0,5749.464-98.2a58.364,58.364,0,0,0,16.957,13.434,62.739,62.739,0,0,0,20.832,6.46,19.838,19.838,0,0,1,9.545,3.681c5.486,4.139,4.15,5.214,4.15,5.214L5799.4-68.4a.04.04,0,0,1-.06-.02c-.465-1.341-2.978-7.234-12.1-8.666a69.679,69.679,0,0,1-22.461-7.312A59.547,59.547,0,0,1,5748-98.35a58.56,58.56,0,0,1-10.573-19.075,59.929,59.929,0,0,1-2.985-21.6,58.8,58.8,0,0,1,5.06-21.2,59.606,59.606,0,0,1,12.363-17.941,59.147,59.147,0,0,1,18-12.263Z" transform="translate(-5734.348 190.467)" fill="url(#linear-gradient-4)"/>
          <path id="パス_272" data-name="パス 272" d="M5798.906-68.99a.068.068,0,0,1-.022,0,.068.068,0,0,1-.042-.042,11.662,11.662,0,0,0-2.8-4.288,16.388,16.388,0,0,0-9.28-4.359,71.456,71.456,0,0,1-11.56-2.7A60.749,60.749,0,0,1,5764.294-85a59.651,59.651,0,0,1-9.037-6.2,59.377,59.377,0,0,1-7.747-7.752,59.371,59.371,0,0,1-6.186-9.046,57.731,57.731,0,0,1-4.392-10.038,60.787,60.787,0,0,1-2.484-10.668,59.1,59.1,0,0,1-.5-10.941,57.959,57.959,0,0,1,1.541-10.843,59.736,59.736,0,0,1,3.522-10.368,59.684,59.684,0,0,1,5.358-9.546,59.5,59.5,0,0,1,7.011-8.4,59.1,59.1,0,0,1,8.436-6.971,59.259,59.259,0,0,1,9.576-5.3l.025-.011.285.65-.026.012a58.426,58.426,0,0,0-9.526,5.324,58.321,58.321,0,0,0-8.364,7,58.689,58.689,0,0,0-6.915,8.427,58.8,58.8,0,0,0-5.238,9.555,58.577,58.577,0,0,0-3.379,10.353,58.226,58.226,0,0,0-1.4,10.8,56.835,56.835,0,0,0,.658,10.861,60.009,60.009,0,0,0,2.661,10.547,58.228,58.228,0,0,0,4.542,9.874,57.828,57.828,0,0,0,6.3,8.85,57.942,57.942,0,0,0,7.849,7.507,58.707,58.707,0,0,0,9.1,5.92,62.739,62.739,0,0,0,20.821,6.457,20.047,20.047,0,0,1,9.559,3.688c3.724,2.809,4.3,4.216,4.3,4.8a.565.565,0,0,1-.153.454L5798.944-69A.071.071,0,0,1,5798.906-68.99Zm-29.52-122.023a59.168,59.168,0,0,0-9.54,5.282,59.018,59.018,0,0,0-8.428,6.964,59.374,59.374,0,0,0-7,8.4,59.664,59.664,0,0,0-5.354,9.537,59.628,59.628,0,0,0-3.519,10.358A57.926,57.926,0,0,0,5734-139.644a59.077,59.077,0,0,0,.5,10.931,60.766,60.766,0,0,0,2.481,10.658,57.7,57.7,0,0,0,4.388,10.028,59.247,59.247,0,0,0,6.18,9.038,59.281,59.281,0,0,0,7.738,7.745,59.725,59.725,0,0,0,9.028,6.2,60.734,60.734,0,0,0,10.9,4.608,71.391,71.391,0,0,0,11.55,2.7,16.448,16.448,0,0,1,9.312,4.375,11.726,11.726,0,0,1,2.81,4.31.011.011,0,0,0,.007.007.012.012,0,0,0,.01,0l1.554-1.007h0a.531.531,0,0,0,.13-.412c-.012-.579-.585-1.967-4.283-4.756a19.993,19.993,0,0,0-9.531-3.676,62.8,62.8,0,0,1-20.842-6.463,58.724,58.724,0,0,1-9.108-5.926,57.981,57.981,0,0,1-7.857-7.515,57.782,57.782,0,0,1-6.307-8.859,58.258,58.258,0,0,1-4.547-9.884,60.078,60.078,0,0,1-2.664-10.557,56.868,56.868,0,0,1-.658-10.872,58.134,58.134,0,0,1,1.4-10.806,58.6,58.6,0,0,1,3.381-10.363,58.908,58.908,0,0,1,5.243-9.564,58.724,58.724,0,0,1,6.921-8.435,58.379,58.379,0,0,1,8.372-7.006,58.491,58.491,0,0,1,9.509-5.318Z" transform="translate(-5733.881 191.088)" fill="url(#linear-gradient-4)"/>
        </g>
      </g>
      <g id="グループ_560" data-name="グループ 560" transform="translate(41.578 2.352)">
        <path id="パス_273" data-name="パス 273" d="M6377.256-226.411a6.762,6.762,0,0,1-1.978.336,5.508,5.508,0,0,1-.911-.056,5.188,5.188,0,0,1,.616-.677,4.77,4.77,0,0,1,1.733-1.088,5.623,5.623,0,0,1,2.024-.289,4,4,0,0,1,.66.078c.159.03.25.055.25.055s-.061.069-.175.18-.283.256-.49.438A5.532,5.532,0,0,1,6377.256-226.411Z" transform="translate(-6372.552 229.232)" fill="url(#linear-gradient-4)"/>
        <path id="パス_274" data-name="パス 274" d="M6345.176-242.282a6.332,6.332,0,0,1-1-.072l-1.638-.281.966-1.353a6.093,6.093,0,0,1,.75-.832,5.732,5.732,0,0,1,2.112-1.316,6.7,6.7,0,0,1,2.387-.344,4.735,4.735,0,0,1,.769.086l.061.011c.191.037.31.069.332.075l1.6.445-1.1,1.248c-.015.017-.094.1-.227.235-.1.1-.226.21-.365.331l-.166.145-.014.012a6.5,6.5,0,0,1-2.062,1.214l-.02.007a7.851,7.851,0,0,1-2.292.388Z" transform="translate(-6342.541 246.484)" fill="url(#linear-gradient-4)"/>
      </g>
    </g>
    <g id="グループ_55885" data-name="グループ 55885" transform="translate(1003.42 426.03)">
      <g id="グループ_578" data-name="グループ 578" transform="translate(25.955)">
        <g id="グループ_562" data-name="グループ 562" transform="translate(0 116.229)">
          <path id="パス_275" data-name="パス 275" d="M7066.053,1763.592a6.15,6.15,0,0,0-.667-.2c-.222-.058-.441-.108-.652-.146a8.228,8.228,0,0,0-1.154-.122,6.9,6.9,0,0,0-1.126.042,5.668,5.668,0,0,0,.705.833,6.14,6.14,0,0,0,2.063,1.369,5.973,5.973,0,0,0,.685.22q.171.044.34.078c.112.02.222.035.331.049a7.925,7.925,0,0,0,1.2.049,7.461,7.461,0,0,0,1.2-.129,6.439,6.439,0,0,0-.791-.778A7.183,7.183,0,0,0,7066.053,1763.592Z" transform="translate(-7060.693 -1762.075)" fill="url(#linear-gradient-4)"/>
          <path id="パス_276" data-name="パス 276" d="M7038.385,1749.558a8.783,8.783,0,0,1-1.046-.061c-.115-.014-.25-.032-.393-.058l-.02,0c-.132-.027-.265-.057-.394-.09a7,7,0,0,1-.806-.26,7.1,7.1,0,0,1-2.417-1.6,6.653,6.653,0,0,1-.845-1.006l-.885-1.365,1.61-.235a7.8,7.8,0,0,1,1.314-.052,9.288,9.288,0,0,1,1.3.138c.221.039.465.093.724.161a7.3,7.3,0,0,1,.768.232h0a8.308,8.308,0,0,1,2.451,1.448,7.428,7.428,0,0,1,.93.92l1.063,1.317-1.655.358a8.375,8.375,0,0,1-1.383.152C7038.6,1749.556,7038.49,1749.558,7038.385,1749.558Z" transform="translate(-7031.58 -1744.821)" fill="url(#linear-gradient-4)"/>
        </g>
        <g id="グループ_563" data-name="グループ 563" transform="translate(8.443 112.208)">
          <path id="パス_277" data-name="パス 277" d="M7215.714,1692.729a6.489,6.489,0,0,0-1.329-.127,8.515,8.515,0,0,0-1.147.052,6.818,6.818,0,0,0-1.1.207,5.628,5.628,0,0,0,.812.716,6.062,6.062,0,0,0,2.218,1.043q.176.041.352.069c.116.017.229.028.344.037a6.45,6.45,0,0,0,.668.015,7.779,7.779,0,0,0,1.186-.128,7.335,7.335,0,0,0,1.153-.3,6.322,6.322,0,0,0-.885-.65A7.079,7.079,0,0,0,7215.714,1692.729Z" transform="translate(-7210.288 -1691.557)" fill="url(#linear-gradient-4)"/>
          <path id="パス_278" data-name="パス 278" d="M7185.7,1678.536c-.188,0-.375-.007-.557-.021-.114-.009-.262-.022-.42-.046l-.015,0c-.141-.023-.281-.051-.417-.082a7.03,7.03,0,0,1-2.6-1.221,6.651,6.651,0,0,1-.976-.866l-1.069-1.216,1.55-.471a7.812,7.812,0,0,1,1.283-.245,9.6,9.6,0,0,1,1.273-.058,7.512,7.512,0,0,1,1.53.148h0a8.179,8.179,0,0,1,2.614,1.068,7.3,7.3,0,0,1,1.044.771l1.233,1.144-1.573.6a8.268,8.268,0,0,1-1.334.353,8.8,8.8,0,0,1-1.345.145Q7185.811,1678.536,7185.7,1678.536Z" transform="translate(-7179.645 -1674.306)" fill="url(#linear-gradient-4)"/>
        </g>
        <g id="グループ_564" data-name="グループ 564" transform="translate(16.246 106.733)">
          <path id="パス_279" data-name="パス 279" d="M7353.362,1596.592a6.4,6.4,0,0,0-1.319.07c-.2.032-.4.071-.58.114s-.36.08-.52.125a6.694,6.694,0,0,0-1.044.365,5.562,5.562,0,0,0,.9.585,6.416,6.416,0,0,0,1.017.436,5.032,5.032,0,0,0,1.3.256,6.671,6.671,0,0,0,2.486-.389,6.156,6.156,0,0,0,.786-.323c.183-.095.285-.158.285-.158a6,6,0,0,0-.949-.5A7.021,7.021,0,0,0,7353.362,1596.592Z" transform="translate(-7347.995 -1595.54)" fill="url(#linear-gradient-4)"/>
          <path id="パス_280" data-name="パス 280" d="M7321.912,1582.342q-.173,0-.342-.009a5.991,5.991,0,0,1-1.565-.3,7.463,7.463,0,0,1-1.19-.509,6.561,6.561,0,0,1-1.082-.71l-1.229-1.044,1.456-.693a7.733,7.733,0,0,1,1.219-.429c.143-.039.289-.073.431-.1l.126-.029c.218-.052.44-.1.658-.129a7.421,7.421,0,0,1,1.536-.081,7.948,7.948,0,0,1,2.715.666,6.921,6.921,0,0,1,1.126.6l1.321.906-1.364.842c-.022.014-.144.088-.347.194a6.959,6.959,0,0,1-.925.383l-.007,0A7.8,7.8,0,0,1,7321.912,1582.342Z" transform="translate(-7316.503 -1578.289)" fill="url(#linear-gradient-4)"/>
        </g>
        <g id="グループ_565" data-name="グループ 565" transform="translate(23.233 100.017)">
          <path id="パス_281" data-name="パス 281" d="M7475.841,1478.831a6.822,6.822,0,0,0-2.308.672c-.292.139-.54.261-.705.358s-.26.158-.26.158a5.53,5.53,0,0,0,.966.444,6.309,6.309,0,0,0,1.06.28,5.1,5.1,0,0,0,1.29.045,6.562,6.562,0,0,0,2.374-.748,5.794,5.794,0,0,0,.705-.447c.164-.12.255-.2.255-.2a5.888,5.888,0,0,0-1-.351,7,7,0,0,0-1.067-.195A6.273,6.273,0,0,0,7475.841,1478.831Z" transform="translate(-7470.655 -1477.763)" fill="url(#linear-gradient-4)"/>
          <path id="パス_282" data-name="パス 282" d="M7443.785,1464.6a6.132,6.132,0,0,1-.99-.08h-.008a7.337,7.337,0,0,1-1.236-.326,6.512,6.512,0,0,1-1.166-.54l-1.36-.849,1.327-.9c.021-.014.134-.089.323-.2.171-.1.4-.219.775-.4a7.763,7.763,0,0,1,2.662-.771h0a7.315,7.315,0,0,1,1.517.021,8.036,8.036,0,0,1,1.22.223,6.859,6.859,0,0,1,1.2.424l1.427.7-1.21,1.03c-.021.017-.131.11-.318.247l-.068.048a6.34,6.34,0,0,1-.771.481,7.464,7.464,0,0,1-2.756.86Q7444.068,1464.6,7443.785,1464.6Z" transform="translate(-7439.025 -1460.512)" fill="url(#linear-gradient-4)"/>
        </g>
        <g id="グループ_566" data-name="グループ 566" transform="translate(29.235 92.199)">
          <path id="パス_283" data-name="パス 283" d="M7580.211,1341.882a6.686,6.686,0,0,0-2.154,1c-.265.181-.465.354-.619.469s-.23.194-.23.194a5.451,5.451,0,0,0,1.011.294,5.388,5.388,0,0,0,2.328-.038,5.649,5.649,0,0,0,1.229-.472c.187-.1.362-.2.526-.3a4.3,4.3,0,0,0,.445-.314,6.815,6.815,0,0,0,.834-.779,5.81,5.81,0,0,0-1.032-.2,6.816,6.816,0,0,0-1.072-.035,6.119,6.119,0,0,0-.61.059A6.033,6.033,0,0,0,7580.211,1341.882Z" transform="translate(-7575.331 -1340.649)" fill="url(#linear-gradient-4)"/>
          <path id="パス_284" data-name="パス 284" d="M7548.271,1327.739a6.65,6.65,0,0,1-1.3-.128,6.488,6.488,0,0,1-1.225-.36l-1.46-.636,1.166-1.085c.019-.017.12-.11.293-.247l.022-.017c.043-.032.089-.07.141-.111.135-.107.3-.241.513-.384a7.622,7.622,0,0,1,2.492-1.154h0a6.961,6.961,0,0,1,.761-.144c.23-.034.469-.057.708-.069a7.9,7.9,0,0,1,1.235.041,6.743,6.743,0,0,1,1.236.243l1.5.481-1.027,1.193a7.791,7.791,0,0,1-.968.908,5.184,5.184,0,0,1-.546.387c-.2.125-.4.242-.6.345a6.652,6.652,0,0,1-1.458.559A6.215,6.215,0,0,1,7548.271,1327.739Z" transform="translate(-7544.29 -1323.397)" fill="url(#linear-gradient-4)"/>
        </g>
        <g id="グループ_567" data-name="グループ 567" transform="translate(34.066 83.465)">
          <path id="パス_285" data-name="パス 285" d="M7663.877,1189.017a6.527,6.527,0,0,0-1.951,1.3,6.979,6.979,0,0,0-.525.556l-.188.228a5.044,5.044,0,0,0,1.023.136,5.349,5.349,0,0,0,2.262-.381,5.52,5.52,0,0,0,1.128-.644c.167-.122.323-.249.466-.374s.263-.256.376-.378a6.677,6.677,0,0,0,.694-.887,5.665,5.665,0,0,0-1.037-.047,6.7,6.7,0,0,0-1.052.121,5.863,5.863,0,0,0-.587.147C7664.289,1188.858,7664.087,1188.932,7663.877,1189.017Z" transform="translate(-7659.377 -1187.48)" fill="url(#linear-gradient-4)"/>
          <path id="パス_286" data-name="パス 286" d="M7632.127,1175.035q-.145,0-.292-.006a6.049,6.049,0,0,1-1.254-.172l-1.562-.424,1.226-1.482a8.088,8.088,0,0,1,.6-.64,7.487,7.487,0,0,1,2.269-1.509l.01,0c.252-.1.479-.185.693-.251a6.976,6.976,0,0,1,.693-.174,7.722,7.722,0,0,1,1.217-.14,6.653,6.653,0,0,1,1.247.06l1.535.256-.819,1.322a7.712,7.712,0,0,1-.813,1.042l0,.006c-.118.127-.264.285-.446.446l-.008.007c-.175.153-.356.3-.537.431a6.593,6.593,0,0,1-1.343.766A6.244,6.244,0,0,1,7632.127,1175.035Z" transform="translate(-7629.02 -1170.227)" fill="url(#linear-gradient-4)"/>
        </g>
        <g id="グループ_568" data-name="グループ 568" transform="translate(37.803 74.062)">
          <path id="パス_287" data-name="パス 287" d="M7724.841,1024.514a6.339,6.339,0,0,0-1.7,1.561,6,6,0,0,0-.569.877,5.081,5.081,0,0,0,1.014-.016,5.223,5.223,0,0,0,2.149-.7,5.373,5.373,0,0,0,1-.795c.144-.144.276-.29.4-.434s.217-.289.31-.425a6.481,6.481,0,0,0,.539-.97,5.543,5.543,0,0,0-1.02.1,6.478,6.478,0,0,0-1.008.269,5.664,5.664,0,0,0-.551.229C7725.217,1024.3,7725.032,1024.4,7724.841,1024.514Z" transform="translate(-7720.972 -1022.568)" fill="url(#linear-gradient-4)"/>
          <path id="パス_288" data-name="パス 288" d="M7696.555,1010.76a4.8,4.8,0,0,1-.517-.024l-1.478-.171.664-1.331a6.957,6.957,0,0,1,.675-1.046,7.275,7.275,0,0,1,1.989-1.818l.008,0c.23-.137.44-.25.641-.347a6.793,6.793,0,0,1,.653-.272,7.552,7.552,0,0,1,1.17-.312,6.533,6.533,0,0,1,1.232-.117l1.531.035-.594,1.412a7.4,7.4,0,0,1-.632,1.143l-.023.034a5.705,5.705,0,0,1-.355.483c-.149.178-.3.347-.46.5a6.394,6.394,0,0,1-1.2.949,6.2,6.2,0,0,1-2.579.846A6.924,6.924,0,0,1,7696.555,1010.76Z" transform="translate(-7694.561 -1005.316)" fill="url(#linear-gradient-4)"/>
        </g>
        <g id="グループ_569" data-name="グループ 569" transform="translate(40.036 64.106)">
          <path id="パス_289" data-name="パス 289" d="M7762.021,853.4a6.165,6.165,0,0,0-1.42,1.778,7.012,7.012,0,0,0-.32.674c-.034.084-.059.152-.075.2l-.026.071s.1,0,.279-.025a5.63,5.63,0,0,0,.711-.136,5.079,5.079,0,0,0,1.991-1,5.178,5.178,0,0,0,.854-.924c.119-.162.226-.325.321-.484a4.667,4.667,0,0,0,.237-.461,6.406,6.406,0,0,0,.377-1.031,5.424,5.424,0,0,0-.982.244,6.329,6.329,0,0,0-.945.407,5.581,5.581,0,0,0-.5.3C7762.357,853.136,7762.191,853.263,7762.021,853.4Z" transform="translate(-7758.672 -850.85)" fill="url(#linear-gradient-4)"/>
          <path id="パス_290" data-name="パス 290" d="M7733.723,837.065l.553-1.51c.026-.074.057-.154.09-.236a7.8,7.8,0,0,1,.369-.78,7.1,7.1,0,0,1,1.668-2.081l.007-.006c.2-.166.391-.308.575-.435a6.574,6.574,0,0,1,.6-.362,7.375,7.375,0,0,1,1.1-.475,6.427,6.427,0,0,1,1.191-.292l1.5-.182-.359,1.466a7.433,7.433,0,0,1-.442,1.217l-.029.061a5.186,5.186,0,0,1-.265.508c-.117.194-.242.381-.371.557a6.262,6.262,0,0,1-1.028,1.109,6.055,6.055,0,0,1-2.4,1.205,6.688,6.688,0,0,1-.844.161c-.212.026-.353.031-.378.032Z" transform="translate(-7733.723 -830.707)" fill="url(#linear-gradient-4)"/>
        </g>
        <g id="グループ_570" data-name="グループ 570" transform="translate(41.041 54.031)">
          <path id="パス_291" data-name="パス 291" d="M7774.507,680.291a6.04,6.04,0,0,0-1.113,1.948,5.816,5.816,0,0,0-.264.986,4.912,4.912,0,0,0,.943-.3,4.967,4.967,0,0,0,1.8-1.263,5.211,5.211,0,0,0,1.084-2.035,6.312,6.312,0,0,0,.21-1.064,5.344,5.344,0,0,0-.925.38A5.606,5.606,0,0,0,7774.507,680.291Z" transform="translate(-7771.888 -677.164)" fill="url(#linear-gradient-4)"/>
          <path id="パス_292" data-name="パス 292" d="M7751.334,661.367l.211-1.432a6.8,6.8,0,0,1,.313-1.183,7.1,7.1,0,0,1,1.3-2.278,6.7,6.7,0,0,1,2.049-1.6,6.286,6.286,0,0,1,1.127-.458l1.438-.393-.125,1.486a7.107,7.107,0,0,1-.243,1.249,6.223,6.223,0,0,1-1.307,2.45,6.279,6.279,0,0,1-3.342,1.9Z" transform="translate(-7751.334 -654.025)" fill="url(#linear-gradient-4)"/>
        </g>
        <g id="グループ_571" data-name="グループ 571" transform="translate(40.538 44.121)">
          <path id="パス_293" data-name="パス 293" d="M7761.7,509.429a5.08,5.08,0,0,0-.282.537,5.443,5.443,0,0,0-.226.539,6.443,6.443,0,0,0-.269.988,5.627,5.627,0,0,0-.106,1,5.181,5.181,0,0,0,2.449-1.926,4.989,4.989,0,0,0,.522-1.106,6.344,6.344,0,0,0,.213-1.037,6.079,6.079,0,0,0,.045-1.07,5.222,5.222,0,0,0-.851.5A5.474,5.474,0,0,0,7761.7,509.429Z" transform="translate(-7759.772 -505.81)" fill="url(#linear-gradient-4)"/>
          <path id="パス_294" data-name="パス 294" d="M7742.532,488.365l-.013-1.435a6.727,6.727,0,0,1,.126-1.207,7.524,7.524,0,0,1,.312-1.148,6.75,6.75,0,0,1,.263-.63,5.987,5.987,0,0,1,.336-.636,6.573,6.573,0,0,1,1.78-1.872,6.23,6.23,0,0,1,1.04-.611l1.354-.59.1,1.473a7.2,7.2,0,0,1-.051,1.27,7.377,7.377,0,0,1-.249,1.209l-.01.031a5.958,5.958,0,0,1-.635,1.341,6.2,6.2,0,0,1-3,2.351Z" transform="translate(-7742.519 -480.234)" fill="url(#linear-gradient-4)"/>
        </g>
        <g id="グループ_572" data-name="グループ 572" transform="translate(38.371 34.609)">
          <path id="パス_295" data-name="パス 295" d="M7723.244,344.843a4.877,4.877,0,0,0-.316,1.117,6.257,6.257,0,0,0-.114,1,5.56,5.56,0,0,0,.045,1,5.087,5.087,0,0,0,2.116-2.237,4.436,4.436,0,0,0,.214-.579,5.092,5.092,0,0,0,.113-.57,6.259,6.259,0,0,0,.055-1.043,6.121,6.121,0,0,0-.115-1.051,5.158,5.158,0,0,0-.762.614A5.36,5.36,0,0,0,7723.244,344.843Z" transform="translate(-7721.766 -340.824)" fill="url(#linear-gradient-4)"/>
          <path id="パス_296" data-name="パス 296" d="M7704.806,322.121l-.229-1.406a6.55,6.55,0,0,1-.059-1.2,7.457,7.457,0,0,1,.13-1.155,6.056,6.056,0,0,1,.382-1.336h0a6.456,6.456,0,0,1,1.475-2.094,6.185,6.185,0,0,1,.934-.748l1.245-.771.323,1.428a7.082,7.082,0,0,1,.141,1.251,7.281,7.281,0,0,1-.064,1.22,6.2,6.2,0,0,1-.138.689l-.008.028a5.451,5.451,0,0,1-.264.715,6.124,6.124,0,0,1-2.6,2.739Z" transform="translate(-7704.514 -313.408)" fill="url(#linear-gradient-4)"/>
        </g>
        <g id="グループ_573" data-name="グループ 573" transform="translate(34.699 25.705)">
          <path id="パス_297" data-name="パス 297" d="M7658.553,190.221a4.77,4.77,0,0,0-.145,1.137c0,.18,0,.353.018.518s.021.324.04.469a5.5,5.5,0,0,0,.193.968,4.745,4.745,0,0,0,.7-.651,4.657,4.657,0,0,0,1.041-1.837,5.215,5.215,0,0,0,.034-2.186,6,6,0,0,0-.269-1.01,5.076,5.076,0,0,0-.658.709A5.248,5.248,0,0,0,7658.553,190.221Z" transform="translate(-7657.364 -185.897)" fill="url(#linear-gradient-4)"/>
          <path id="パス_298" data-name="パス 298" d="M7640.852,166.34l-.437-1.346a6.62,6.62,0,0,1-.236-1.166c-.019-.154-.029-.31-.039-.461l0-.055c-.017-.2-.023-.408-.021-.607a5.763,5.763,0,0,1,.178-1.385h0a6.342,6.342,0,0,1,1.146-2.264,6.082,6.082,0,0,1,.812-.867l1.112-.932.528,1.352a6.953,6.953,0,0,1,.324,1.2,6.147,6.147,0,0,1-.05,2.633l0,.017a5.635,5.635,0,0,1-1.271,2.256,5.772,5.772,0,0,1-.88.807Z" transform="translate(-7640.113 -157.256)" fill="url(#linear-gradient-4)"/>
        </g>
        <g id="グループ_574" data-name="グループ 574" transform="translate(29.611 17.662)">
          <path id="パス_299" data-name="パス 299" d="M7569.218,49.159a5.171,5.171,0,0,0,.241,2.077c.044.137.086.263.123.374s.075.21.107.289c.064.16.109.25.109.25a4.668,4.668,0,0,0,.6-.738,5.038,5.038,0,0,0,.457-.846,3.916,3.916,0,0,0,.278-1.084,5.113,5.113,0,0,0-.288-2.139,4.558,4.558,0,0,0-.286-.684c-.084-.16-.142-.25-.142-.25a4.814,4.814,0,0,0-.535.779A5.251,5.251,0,0,0,7569.218,49.159Z" transform="translate(-7568.151 -44.685)" fill="url(#linear-gradient-4)"/>
          <path id="パス_300" data-name="パス 300" d="M7552.236,25.386l-.63-1.256c-.011-.022-.068-.139-.145-.329-.044-.11-.087-.225-.126-.341l-.042-.126-.088-.269a6.134,6.134,0,0,1-.284-2.5,6.208,6.208,0,0,1,.787-2.371,5.865,5.865,0,0,1,.669-.967l.918-1.027.739,1.163c.014.021.083.131.18.313a5.565,5.565,0,0,1,.354.839,6.054,6.054,0,0,1,.34,2.591,5,5,0,0,1-.353,1.375A6.163,6.163,0,0,1,7554,23.5a5.71,5.71,0,0,1-.748.917Z" transform="translate(-7550.893 -16.198)" fill="url(#linear-gradient-4)"/>
        </g>
        <g id="グループ_575" data-name="グループ 575" transform="translate(23.294 10.574)">
          <path id="パス_301" data-name="パス 301" d="M7458.4-75.278a5.074,5.074,0,0,0,.541,1.992,5.564,5.564,0,0,0,.34.6c.047.07.08.129.106.167l.04.059a4.557,4.557,0,0,0,.477-.806,4.268,4.268,0,0,0,.423-1.975,5,5,0,0,0-.595-2.045,5.451,5.451,0,0,0-.573-.833,4.764,4.764,0,0,0-.413.838,5.435,5.435,0,0,0-.26.9A4.958,4.958,0,0,0,7458.4-75.278Z" transform="translate(-7457.35 79.83)" fill="url(#linear-gradient-4)"/>
          <path id="パス_302" data-name="パス 302" d="M7442.105-98.974l-.838-1.242c-.019-.027-.039-.06-.062-.1-.012-.02-.025-.043-.043-.067l-.011-.016a7.045,7.045,0,0,1-.4-.707,6.02,6.02,0,0,1-.647-2.409v0a5.981,5.981,0,0,1,.1-1.336v-.006a6.332,6.332,0,0,1,.312-1.08,5.721,5.721,0,0,1,.517-1.04l.752-1.133.9,1.02a6.513,6.513,0,0,1,.7,1.008l.018.033a5.921,5.921,0,0,1,.713,2.483,5.255,5.255,0,0,1-.52,2.461,5.58,5.58,0,0,1-.6,1.012Z" transform="translate(-7440.098 108.111)" fill="url(#linear-gradient-4)"/>
        </g>
        <g id="グループ_576" data-name="グループ 576" transform="translate(15.879 4.634)">
          <path id="パス_303" data-name="パス 303" d="M7328.433-180.189a4.953,4.953,0,0,0,.824,1.862,5.1,5.1,0,0,0,.606.725,4.363,4.363,0,0,0,.345-.85,4.191,4.191,0,0,0,.126-1.989,4.224,4.224,0,0,0-.366-1.059c-.08-.161-.166-.313-.253-.454s-.185-.262-.275-.377a5.528,5.528,0,0,0-.686-.725,4.649,4.649,0,0,0-.285.879A4.625,4.625,0,0,0,7328.433-180.189Z" transform="translate(-7327.298 184.723)" fill="url(#linear-gradient-4)"/>
          <path id="パス_304" data-name="パス 304" d="M7312.872-203.492l-.963-.9a6.125,6.125,0,0,1-.745-.886,5.9,5.9,0,0,1-.991-2.249,5.727,5.727,0,0,1,.04-2.431,5.585,5.585,0,0,1,.359-1.094l.577-1.22,1.034.866a6.448,6.448,0,0,1,.832.873l0,.005a5.49,5.49,0,0,1,.335.461l.008.012c.11.179.212.361.3.542a5.21,5.21,0,0,1,.456,1.322,5.161,5.161,0,0,1-.151,2.487,5.343,5.343,0,0,1-.44,1.071Z" transform="translate(-7310.06 212.276)" fill="url(#linear-gradient-4)"/>
        </g>
        <g id="グループ_577" data-name="グループ 577" transform="translate(7.548)">
          <path id="パス_305" data-name="パス 305" d="M7182.511-263.018a5.079,5.079,0,0,0,.5.953,5.408,5.408,0,0,0,.589.724,5.009,5.009,0,0,0,.7.614,4.3,4.3,0,0,0,.215-.881,4.1,4.1,0,0,0-.165-1.957,4.142,4.142,0,0,0-.516-.976c-.051-.072-.1-.142-.156-.209s-.109-.126-.164-.185c-.11-.118-.221-.226-.326-.323a5.475,5.475,0,0,0-.78-.6,4.545,4.545,0,0,0-.152.9A4.474,4.474,0,0,0,7182.511-263.018Z" transform="translate(-7181.199 267.438)" fill="url(#linear-gradient-4)"/>
          <path id="パス_306" data-name="パス 306" d="M7167.55-285.243l-1.08-.734a6.05,6.05,0,0,1-.866-.752,6.413,6.413,0,0,1-.7-.864,6.1,6.1,0,0,1-.6-1.149l0-.012a5.564,5.564,0,0,1-.32-2.4,5.6,5.6,0,0,1,.2-1.125l.391-1.273,1.142.684a6.432,6.432,0,0,1,.947.726c.136.124.266.253.387.382.067.073.134.147.2.222l.019.023c.061.076.124.16.193.258a5.144,5.144,0,0,1,.646,1.227,5.079,5.079,0,0,1,.216,2.458,5.367,5.367,0,0,1-.277,1.113Z" transform="translate(-7163.954 293.55)" fill="url(#linear-gradient-4)"/>
        </g>
      </g>
      <g id="グループ_595" data-name="グループ 595" transform="translate(25.191 8.41)">
        <g id="グループ_579" data-name="グループ 579" transform="translate(0 96.951)">
          <path id="パス_307" data-name="パス 307" d="M7038.6,1589.528a5.407,5.407,0,0,1-.271.6,5.255,5.255,0,0,1-.328.515,6.512,6.512,0,0,1-.7.814,5.852,5.852,0,0,1-.807.681,7.2,7.2,0,0,1-.016-1.091,7.381,7.381,0,0,1,.481-2.32,5.665,5.665,0,0,1,.271-.578c.048-.09.1-.177.15-.261s.1-.172.152-.254a6.707,6.707,0,0,1,.611-.828,5.2,5.2,0,0,1,.7-.686,6.37,6.37,0,0,1,.114,1.068A6.2,6.2,0,0,1,7038.6,1589.528Z" transform="translate(-7035.427 -1584.305)" fill="url(#linear-gradient-4)"/>
          <path id="パス_308" data-name="パス 308" d="M7018.4,1563.884l-.193-1.686a8.075,8.075,0,0,1-.021-1.266,8.335,8.335,0,0,1,.554-2.653,6.881,6.881,0,0,1,.322-.684c.054-.1.111-.2.17-.3s.107-.184.166-.277a7.714,7.714,0,0,1,.705-.955,6.234,6.234,0,0,1,.856-.833l1.3-.988.353,1.592a7.252,7.252,0,0,1,.139,1.263,7.137,7.137,0,0,1-.426,2.735,6.443,6.443,0,0,1-.324.721l-.009.018a6.294,6.294,0,0,1-.393.618,7.53,7.53,0,0,1-.81.948,6.911,6.911,0,0,1-.968.812Z" transform="translate(-7018.173 -1554.243)" fill="url(#linear-gradient-4)"/>
        </g>
        <g id="グループ_580" data-name="グループ 580" transform="translate(7.756 93.234)">
          <path id="パス_309" data-name="パス 309" d="M7174.4,1525.107a5.47,5.47,0,0,1-.412,1.192,6.06,6.06,0,0,1-.565.89,5.743,5.743,0,0,1-.7.775,7.029,7.029,0,0,1-.184-1.06,7.117,7.117,0,0,1,.123-2.325c.025-.105.054-.208.084-.308s.06-.2.093-.3a5.887,5.887,0,0,1,.214-.555,6.576,6.576,0,0,1,.482-.891,5.044,5.044,0,0,1,.591-.764,6.211,6.211,0,0,1,.273,1.024A5.955,5.955,0,0,1,7174.4,1525.107Z" transform="translate(-7171.458 -1519.894)" fill="url(#linear-gradient-4)"/>
          <path id="パス_310" data-name="パス 310" d="M7154.907,1499l-.446-1.6a7.9,7.9,0,0,1-.216-1.235,7.987,7.987,0,0,1,.146-2.674c.028-.12.061-.241.1-.361.029-.1.063-.219.1-.338.071-.214.155-.432.25-.645a7.57,7.57,0,0,1,.56-1.036,6.012,6.012,0,0,1,.729-.934l1.125-1.128.583,1.483a7.107,7.107,0,0,1,.329,1.215,6.92,6.92,0,0,1-.009,2.735,6.509,6.509,0,0,1-.491,1.421l-.013.025a7.058,7.058,0,0,1-.661,1.044,6.783,6.783,0,0,1-.84.93Z" transform="translate(-7154.195 -1489.051)" fill="url(#linear-gradient-4)"/>
        </g>
        <g id="グループ_581" data-name="グループ 581" transform="translate(14.734 88.447)">
          <path id="パス_311" data-name="パス 311" d="M7296.674,1442.452a5.216,5.216,0,0,1-.232,1.216c-.058.185-.123.361-.19.525a4.9,4.9,0,0,1-.221.44,5.566,5.566,0,0,1-.574.851,6.8,6.8,0,0,1-.341-1,7.882,7.882,0,0,1-.2-1.049,7.041,7.041,0,0,1-.032-1.237,6.007,6.007,0,0,1,.554-2.13c.12-.263.243-.463.324-.613s.137-.228.137-.228a6.25,6.25,0,0,1,.435.969A5.712,5.712,0,0,1,7296.674,1442.452Z" transform="translate(-7293.826 -1437.277)" fill="url(#linear-gradient-4)"/>
          <path id="パス_312" data-name="パス 312" d="M7277.933,1415.213l-.676-1.472a7.645,7.645,0,0,1-.4-1.174,8.74,8.74,0,0,1-.229-1.191,7.984,7.984,0,0,1-.039-1.416v-.01a7.1,7.1,0,0,1,.647-2.5c.1-.229.21-.415.287-.552.024-.042.046-.082.065-.117l.008-.015c.1-.179.173-.288.186-.307l.926-1.358.835,1.416a7.17,7.17,0,0,1,.518,1.145,6.7,6.7,0,0,1,.4,2.681h0a6.272,6.272,0,0,1-.278,1.459c-.063.2-.138.41-.223.614l0,.005a5.693,5.693,0,0,1-.262.526l-.01.018a6.56,6.56,0,0,1-.7,1.025Z" transform="translate(-7276.574 -1405.099)" fill="url(#linear-gradient-4)"/>
        </g>
        <g id="グループ_582" data-name="グループ 582" transform="translate(20.781 82.866)">
          <path id="パス_313" data-name="パス 313" d="M7402.756,1343.642a5.575,5.575,0,0,1-.3,2.224,5.032,5.032,0,0,1-.3.668c-.084.157-.141.244-.141.244a6.565,6.565,0,0,1-.488-.925,7.5,7.5,0,0,1-.354-.989,6.4,6.4,0,0,1-.231-1.212,5.773,5.773,0,0,1,.239-2.149c.084-.27.153-.5.217-.656s.1-.242.1-.242a6.148,6.148,0,0,1,.572.877,6.558,6.558,0,0,1,.435.969A5.018,5.018,0,0,1,7402.756,1343.642Z" transform="translate(-7399.877 -1338.703)" fill="url(#linear-gradient-4)"/>
          <path id="パス_314" data-name="パス 314" d="M7384.777,1317.183l-.88-1.316a7.481,7.481,0,0,1-.575-1.086,8.518,8.518,0,0,1-.4-1.125,7.472,7.472,0,0,1-.267-1.409,6.854,6.854,0,0,1,.281-2.54l.034-.111c.075-.242.14-.452.21-.626s.127-.3.138-.319l.714-1.441,1.025,1.24a7.166,7.166,0,0,1,.684,1.04,7.592,7.592,0,0,1,.5,1.123l0,.013a6.119,6.119,0,0,1,.3,1.436h0a6.54,6.54,0,0,1-.357,2.647l0,.009a5.746,5.746,0,0,1-.347.782l-.017.033c-.1.188-.172.3-.186.322Z" transform="translate(-7382.629 -1307.21)" fill="url(#linear-gradient-4)"/>
        </g>
        <g id="グループ_583" data-name="グループ 583" transform="translate(25.798 76.53)">
          <path id="パス_315" data-name="パス 315" d="M7490.844,1230.86a5.393,5.393,0,0,1,.021,2.207,4.343,4.343,0,0,1-.182.706c-.06.165-.1.258-.1.258a6.377,6.377,0,0,1-.619-.824,6.831,6.831,0,0,1-.918-2.061,5.319,5.319,0,0,1-.143-1.162c0-.18,0-.352.017-.513s.031-.311.044-.454a4.94,4.94,0,0,1,.181-.926,5.986,5.986,0,0,1,.694.766,6.433,6.433,0,0,1,.571.876,5.49,5.49,0,0,1,.254.539A4.374,4.374,0,0,1,7490.844,1230.86Z" transform="translate(-7487.857 -1226.266)" fill="url(#linear-gradient-4)"/>
          <path id="パス_316" data-name="パス 316" d="M7473.619,1205.7l-1.056-1.134a7.3,7.3,0,0,1-.733-.972,7.756,7.756,0,0,1-1.056-2.384,6.335,6.335,0,0,1-.17-1.389c0-.2,0-.4.019-.606v-.007c.008-.1.018-.2.028-.289.006-.059.012-.117.017-.173l0-.018a5.892,5.892,0,0,1,.228-1.141l.5-1.5,1.184,1.041a6.984,6.984,0,0,1,.83.911,7.492,7.492,0,0,1,.665,1.02,6.628,6.628,0,0,1,.3.641l.005.014a5.485,5.485,0,0,1,.226.725h0a6.35,6.35,0,0,1,.032,2.639v.008a5.219,5.219,0,0,1-.231.878c-.069.19-.123.306-.133.328Z" transform="translate(-7470.604 -1196.093)" fill="url(#linear-gradient-4)"/>
        </g>
        <g id="グループ_584" data-name="グループ 584" transform="translate(29.644 69.575)">
          <path id="パス_317" data-name="パス 317" d="M7558.5,1106.543a5.236,5.236,0,0,1,.339,2.146,6.121,6.121,0,0,1-.07.719,1.613,1.613,0,0,1-.059.271,6.675,6.675,0,0,1-.74-.711,6.517,6.517,0,0,1-1.211-1.867,5.12,5.12,0,0,1-.308-1.11c-.028-.175-.046-.343-.058-.5s-.026-.314-.031-.454a4.8,4.8,0,0,1,.046-.932,5.845,5.845,0,0,1,.8.64,6.249,6.249,0,0,1,.69.766,5.46,5.46,0,0,1,.329.487A3.73,3.73,0,0,1,7558.5,1106.543Z" transform="translate(-7555.314 -1102.393)" fill="url(#linear-gradient-4)"/>
          <path id="パス_318" data-name="パス 318" d="M7541.969,1083.136l-1.152-.9a7.546,7.546,0,0,1-.871-.831,7.433,7.433,0,0,1-1.406-2.176,6.234,6.234,0,0,1-.371-1.337c-.03-.193-.053-.391-.067-.589l0-.069c-.012-.141-.024-.286-.028-.431a5.867,5.867,0,0,1,.063-1.15l.274-1.524,1.31.827a6.867,6.867,0,0,1,.954.763,7.348,7.348,0,0,1,.806.9,6.376,6.376,0,0,1,.394.581,4.792,4.792,0,0,1,.35.7,6.181,6.181,0,0,1,.412,2.574,7.232,7.232,0,0,1-.081.836,2.605,2.605,0,0,1-.1.452Z" transform="translate(-7538.063 -1074.129)" fill="url(#linear-gradient-4)"/>
        </g>
        <g id="グループ_585" data-name="グループ 585" transform="translate(32.246 62.151)">
          <path id="パス_319" data-name="パス 319" d="M7604.394,973.408a5.108,5.108,0,0,1,.643,2.044,5.256,5.256,0,0,1,.021.988,6.822,6.822,0,0,1-2.3-2.215,4.945,4.945,0,0,1-.462-1.039c-.053-.167-.095-.329-.128-.483s-.071-.3-.095-.44a4.73,4.73,0,0,1-.087-.921,5.733,5.733,0,0,1,.875.5,6.111,6.111,0,0,1,.79.643,5.315,5.315,0,0,1,.394.425A3.6,3.6,0,0,1,7604.394,973.408Z" transform="translate(-7600.941 -969.78)" fill="url(#linear-gradient-4)"/>
          <path id="パス_320" data-name="パス 320" d="M7588.685,952.255l-1.379-.752a7.859,7.859,0,0,1-2.7-2.6,6.023,6.023,0,0,1-.56-1.257c-.059-.187-.11-.381-.153-.576-.008-.041-.019-.083-.028-.125-.026-.114-.053-.232-.074-.354a5.714,5.714,0,0,1-.1-1.138l.052-1.528,1.4.605a6.723,6.723,0,0,1,1.052.6,7.153,7.153,0,0,1,.925.753,6.281,6.281,0,0,1,.472.509,4.619,4.619,0,0,1,.447.631,6.064,6.064,0,0,1,.78,2.461,6.329,6.329,0,0,1,.021,1.2Z" transform="translate(-7583.689 -943.926)" fill="url(#linear-gradient-4)"/>
        </g>
        <g id="グループ_586" data-name="グループ 586" transform="translate(33.479 54.455)">
          <path id="パス_321" data-name="パス 321" d="M7629.05,834.856a4.974,4.974,0,0,1,.924,1.9,5.86,5.86,0,0,1,.135.692c.011.085.018.153.022.2a.434.434,0,0,1,0,.071s-.095-.034-.258-.106a7.073,7.073,0,0,1-.648-.33,6.117,6.117,0,0,1-1.672-1.371,4.816,4.816,0,0,1-.6-.944c-.076-.155-.14-.307-.194-.452s-.113-.285-.155-.415a4.621,4.621,0,0,1-.216-.886,5.658,5.658,0,0,1,.932.356,5.994,5.994,0,0,1,.868.505,5.09,5.09,0,0,1,.447.354A3.484,3.484,0,0,1,7629.05,834.856Z" transform="translate(-7625.186 -831.829)" fill="url(#linear-gradient-4)"/>
          <path id="パス_322" data-name="パス 322" d="M7611.23,816.306l-1.324-.473c-.021-.008-.14-.051-.329-.134a8.17,8.17,0,0,1-.746-.379,7.052,7.052,0,0,1-1.959-1.614,5.885,5.885,0,0,1-.734-1.148c-.085-.175-.164-.358-.233-.542l0-.009c-.018-.048-.036-.1-.054-.143-.038-.1-.076-.2-.111-.3a5.616,5.616,0,0,1-.263-1.1l-.165-1.5,1.459.372a6.632,6.632,0,0,1,1.123.425,7,7,0,0,1,1.021.595,6.217,6.217,0,0,1,.54.427,4.543,4.543,0,0,1,.532.551,5.932,5.932,0,0,1,1.124,2.3,6.845,6.845,0,0,1,.159.816c.011.083.02.164.027.241a1.657,1.657,0,0,1,.006.217Z" transform="translate(-7605.309 -808.963)" fill="url(#linear-gradient-4)"/>
        </g>
        <g id="グループ_587" data-name="グループ 587" transform="translate(33.48 46.666)">
          <path id="パス_323" data-name="パス 323" d="M7632.334,694.107a4.782,4.782,0,0,1,1.176,1.713,5.092,5.092,0,0,1,.295.917,6.034,6.034,0,0,1-.953-.283,5.917,5.917,0,0,1-1.835-1.078,5.671,5.671,0,0,1-1.2-1.624,4.543,4.543,0,0,1-.336-.836,5.533,5.533,0,0,1,.964.2A5.167,5.167,0,0,1,7632.334,694.107Z" transform="translate(-7628.106 -691.745)" fill="url(#linear-gradient-4)"/>
          <path id="パス_324" data-name="パス 324" d="M7612.335,678.654l-1.5-.273a7.023,7.023,0,0,1-1.135-.334,6.846,6.846,0,0,1-2.162-1.277,6.592,6.592,0,0,1-1.419-1.905l-.012-.022a5.536,5.536,0,0,1-.417-1.05l-.367-1.431,1.472.133a6.512,6.512,0,0,1,1.166.24,6.116,6.116,0,0,1,2.269,1.2l.017.014a5.747,5.747,0,0,1,1.443,2.086,6.064,6.064,0,0,1,.358,1.128Z" transform="translate(-7605.328 -672.362)" fill="url(#linear-gradient-4)"/>
        </g>
        <g id="グループ_588" data-name="グループ 588" transform="translate(32.295 38.841)">
          <path id="パス_325" data-name="パス 325" d="M7614.042,554.156a3.89,3.89,0,0,1,.469.342,4.448,4.448,0,0,1,.379.382,5.29,5.29,0,0,1,.559.77,4.967,4.967,0,0,1,.415.855,5.859,5.859,0,0,1-.972-.125,5.693,5.693,0,0,1-1.945-.768,4.508,4.508,0,0,1-.823-.7,5.37,5.37,0,0,1-.59-.705,4.436,4.436,0,0,1-.443-.771,5.4,5.4,0,0,1,.97.047A4.985,4.985,0,0,1,7614.042,554.156Z" transform="translate(-7609.578 -552.386)" fill="url(#linear-gradient-4)"/>
          <path id="パス_326" data-name="パス 326" d="M7592.3,540.326l-1.487-.029a6.846,6.846,0,0,1-1.163-.147,6.6,6.6,0,0,1-2.306-.918,5.53,5.53,0,0,1-1-.85,6.362,6.362,0,0,1-.692-.83,5.411,5.411,0,0,1-.554-.974l-.548-1.337,1.441-.1a6.386,6.386,0,0,1,1.177.053,5.948,5.948,0,0,1,2.4.825h0a4.961,4.961,0,0,1,.594.434l.015.013a5.517,5.517,0,0,1,.468.472,6.322,6.322,0,0,1,.67.923,6.017,6.017,0,0,1,.509,1.055Z" transform="translate(-7584.553 -535.134)" fill="url(#linear-gradient-4)"/>
        </g>
        <g id="グループ_589" data-name="グループ 589" transform="translate(29.95 31.023)">
          <path id="パス_327" data-name="パス 327" d="M7574.622,416.67a4.237,4.237,0,0,1,.947.575,5.125,5.125,0,0,1,.65.672,4.867,4.867,0,0,1,.522.778,5.687,5.687,0,0,1-.965.03,5.448,5.448,0,0,1-2-.452,4.232,4.232,0,0,1-.483-.264,4.782,4.782,0,0,1-.436-.293,5.131,5.131,0,0,1-.671-.606,4.3,4.3,0,0,1-.537-.694,5.27,5.27,0,0,1,.952-.1A4.808,4.808,0,0,1,7574.622,416.67Z" transform="translate(-7570.038 -415.266)" fill="url(#linear-gradient-4)"/>
          <path id="パス_328" data-name="パス 328" d="M7549.464,402.522c-.11,0-.229,0-.355-.008a6.374,6.374,0,0,1-2.391-.548,5.265,5.265,0,0,1-.591-.322,5.837,5.837,0,0,1-.518-.349,6.2,6.2,0,0,1-.808-.729,5.289,5.289,0,0,1-.676-.882l-.707-1.221,1.375-.318a6.259,6.259,0,0,1,1.16-.131,5.764,5.764,0,0,1,2.466.445h0a5.277,5.277,0,0,1,1.182.717l.025.021a6.118,6.118,0,0,1,.785.81,5.852,5.852,0,0,1,.644.965l.651,1.3-1.437.2A6.147,6.147,0,0,1,7549.464,402.522Z" transform="translate(-7543.419 -398.012)" fill="url(#linear-gradient-4)"/>
        </g>
        <g id="グループ_590" data-name="グループ 590" transform="translate(26.496 23.483)">
          <path id="パス_329" data-name="パス 329" d="M7515.021,284.228a4.116,4.116,0,0,1,1,.425c.148.086.286.178.413.27a3.834,3.834,0,0,1,.333.284,4.706,4.706,0,0,1,.615.689,5.527,5.527,0,0,1-.935.179,5.285,5.285,0,0,1-2.012-.138,4.675,4.675,0,0,1-1.724-.9,4.2,4.2,0,0,1-.617-.607,5.155,5.155,0,0,1,.911-.248A4.629,4.629,0,0,1,7515.021,284.228Z" transform="translate(-7510.427 -283.048)" fill="url(#linear-gradient-4)"/>
          <path id="パス_330" data-name="パス 330" d="M7488.2,269.89a5.937,5.937,0,0,1-1.618-.214,5.732,5.732,0,0,1-2.1-1.1,5.279,5.279,0,0,1-.783-.777l-.842-1.089,1.276-.517a6.142,6.142,0,0,1,1.114-.307,5.59,5.59,0,0,1,2.476.066h0a5.163,5.163,0,0,1,1.254.531c.168.1.337.208.5.327l.007.006a4.932,4.932,0,0,1,.42.355l.006.006a5.725,5.725,0,0,1,.762.86l.8,1.167-1.352.42a6.5,6.5,0,0,1-1.129.219A7.124,7.124,0,0,1,7488.2,269.89Z" transform="translate(-7482.849 -265.783)" fill="url(#linear-gradient-4)"/>
        </g>
        <g id="グループ_591" data-name="グループ 591" transform="translate(21.932 16.431)">
          <path id="パス_331" data-name="パス 331" d="M7436.331,160.441a4.416,4.416,0,0,1,1.845.7,2.728,2.728,0,0,1,.3.218c.085.07.158.134.218.189.118.109.182.179.182.179a5.372,5.372,0,0,1-.882.319,5.769,5.769,0,0,1-.912.175,4.831,4.831,0,0,1-1.079.006,4.468,4.468,0,0,1-1.8-.637c-.218-.132-.385-.263-.511-.35s-.189-.149-.189-.149a5.2,5.2,0,0,1,.858-.389A4.383,4.383,0,0,1,7436.331,160.441Z" transform="translate(-7431.755 -159.374)" fill="url(#linear-gradient-4)"/>
          <path id="パス_332" data-name="パス 332" d="M7407.539,146.038a5.14,5.14,0,0,1-.608-.035,5.523,5.523,0,0,1-2.217-.781c-.19-.115-.345-.227-.458-.309l-.1-.073-.025-.018c-.151-.111-.242-.189-.266-.211l-1.058-.94,1.21-.732a6.224,6.224,0,0,1,1.047-.479,5.357,5.357,0,0,1,2.436-.314h0a5.376,5.376,0,0,1,2.283.853,3.669,3.669,0,0,1,.407.3c.089.073.176.148.258.224.146.134.232.228.249.246l.927,1.022-1.236.614a6.372,6.372,0,0,1-1.07.391,6.809,6.809,0,0,1-1.078.206A6.518,6.518,0,0,1,7407.539,146.038Z" transform="translate(-7402.805 -142.115)" fill="url(#linear-gradient-4)"/>
        </g>
        <g id="グループ_592" data-name="グループ 592" transform="translate(16.499 10.059)">
          <path id="パス_333" data-name="パス 333" d="M7340.567,48.662a4.25,4.25,0,0,1,1.888.421,5.25,5.25,0,0,1,.575.311,1.7,1.7,0,0,1,.152.107l.052.041a5.305,5.305,0,0,1-.81.45,5.1,5.1,0,0,1-1.917.49,5.271,5.271,0,0,1-2.6-.746,5.092,5.092,0,0,1,.774-.512,5.216,5.216,0,0,1,.848-.371A3.557,3.557,0,0,1,7340.567,48.662Z" transform="translate(-7336.176 -47.617)" fill="url(#linear-gradient-4)"/>
          <path id="パス_334" data-name="パス 334" d="M7311.736,34.274a6.339,6.339,0,0,1-3.056-.922l-1.154-.768,1.058-.9a6.067,6.067,0,0,1,.949-.631,6.206,6.206,0,0,1,1.017-.445,4.6,4.6,0,0,1,1.335-.245,5.211,5.211,0,0,1,2.357.517,6.235,6.235,0,0,1,.684.37,2.42,2.42,0,0,1,.211.146l.095.074,1.083.861-1.126.8a6.336,6.336,0,0,1-.983.55,6.189,6.189,0,0,1-2.316.583Z" transform="translate(-7307.525 -30.363)" fill="url(#linear-gradient-4)"/>
        </g>
        <g id="グループ_593" data-name="グループ 593" transform="translate(10.261 4.536)">
          <path id="パス_335" data-name="パス 335" d="M7229.837-48.138a4.087,4.087,0,0,1,1.892.143,4.529,4.529,0,0,1,.829.335,5.261,5.261,0,0,1-.722.572,4.895,4.895,0,0,1-1.784.765,3.841,3.841,0,0,1-1,.048,4.287,4.287,0,0,1-.441-.059c-.14-.024-.275-.047-.4-.075a4.047,4.047,0,0,1-.8-.263,4.947,4.947,0,0,1,.674-.619A4.391,4.391,0,0,1,7229.837-48.138Z" transform="translate(-7225.741 49.237)" fill="url(#linear-gradient-4)"/>
          <path id="パス_336" data-name="パス 336" d="M7201.755-62.483c-.134,0-.269-.005-.4-.016a5.331,5.331,0,0,1-.541-.072h0c-.146-.025-.3-.051-.447-.086a5.092,5.092,0,0,1-1.02-.341l-1.213-.591.877-1.025a5.945,5.945,0,0,1,.829-.766,5.342,5.342,0,0,1,2.178-1.043l.024,0a5.045,5.045,0,0,1,2.38.171,5.56,5.56,0,0,1,1.04.424l1.2.675-.976.973a6.2,6.2,0,0,1-.878.7,5.984,5.984,0,0,1-2.175.924A4.809,4.809,0,0,1,7201.755-62.483Z" transform="translate(-7198.126 66.502)" fill="url(#linear-gradient-4)"/>
        </g>
        <g id="グループ_594" data-name="グループ 594" transform="translate(3.339)">
          <path id="パス_337" data-name="パス 337" d="M7106.542-127.562a3.094,3.094,0,0,1,.991-.192,4.537,4.537,0,0,1,.872.05,4.429,4.429,0,0,1,.856.212,5.089,5.089,0,0,1-.612.671,4.707,4.707,0,0,1-1.613,1.014,3.675,3.675,0,0,1-.966.191c-.077.005-.151.007-.224.009s-.148.006-.219.006c-.142,0-.275-.006-.4-.016a3.967,3.967,0,0,1-.818-.146,4.827,4.827,0,0,1,.56-.709A4.249,4.249,0,0,1,7106.542-127.562Z" transform="translate(-7102.832 128.801)" fill="url(#linear-gradient-4)"/>
          <path id="パス_338" data-name="パス 338" d="M7079.51-141.808c-.154,0-.312-.007-.469-.019a4.986,4.986,0,0,1-1.054-.194l-1.257-.407.688-1.128a5.8,5.8,0,0,1,.689-.88,5.215,5.215,0,0,1,1.961-1.351,4.1,4.1,0,0,1,1.314-.259,5.573,5.573,0,0,1,1.076.061,5.456,5.456,0,0,1,1.079.271l1.255.489-.788,1.093a6.139,6.139,0,0,1-.748.824,5.781,5.781,0,0,1-1.982,1.236,4.712,4.712,0,0,1-1.239.246c-.091.006-.179.009-.255.01s-.168.006-.252.007Z" transform="translate(-7076.73 146.051)" fill="url(#linear-gradient-4)"/>
        </g>
      </g>
      <g id="グループ_597" data-name="グループ 597" transform="translate(0 5.511)">
        <g id="グループ_596" data-name="グループ 596">
          <path id="パス_339" data-name="パス 339" d="M6607.852-195.643a58.392,58.392,0,0,1,17.9,12.33,58.8,58.8,0,0,1,12.159,17.991,58.4,58.4,0,0,1,4.777,21.159,58.412,58.412,0,0,1-3.319,21.418,58.046,58.046,0,0,1-10.85,18.734,58.358,58.358,0,0,1-16.957,13.434,62.732,62.732,0,0,1-20.831,6.46,19.832,19.832,0,0,0-9.545,3.681c-5.487,4.139-4.151,5.214-4.151,5.214l1.553,1.007a.04.04,0,0,0,.06-.02c.464-1.341,2.978-7.234,12.1-8.666a69.678,69.678,0,0,0,22.462-7.312,59.553,59.553,0,0,0,16.775-13.948,58.55,58.55,0,0,0,10.572-19.075,59.941,59.941,0,0,0,2.985-21.6,58.8,58.8,0,0,0-5.061-21.2,59.589,59.589,0,0,0-12.363-17.941,59.147,59.147,0,0,0-18-12.263Z" transform="translate(-6576.86 196.279)" fill="url(#linear-gradient-4)"/>
          <path id="パス_340" data-name="パス 340" d="M6578.135-74.8a.068.068,0,0,1-.037-.011l-1.554-1.007a.565.565,0,0,1-.156-.455c.009-.589.581-2,4.306-4.806a20.05,20.05,0,0,1,9.559-3.687,62.745,62.745,0,0,0,20.821-6.456,58.7,58.7,0,0,0,9.1-5.92,57.943,57.943,0,0,0,7.849-7.507,57.8,57.8,0,0,0,6.3-8.85,58.228,58.228,0,0,0,4.542-9.874,60.011,60.011,0,0,0,2.661-10.547,56.794,56.794,0,0,0,.658-10.861,58.226,58.226,0,0,0-1.4-10.8,58.539,58.539,0,0,0-3.379-10.353,58.873,58.873,0,0,0-5.237-9.555,58.7,58.7,0,0,0-6.916-8.427,58.264,58.264,0,0,0-8.363-7,58.437,58.437,0,0,0-9.526-5.324l-.026-.011.284-.65.026.011a59.256,59.256,0,0,1,9.575,5.3,59.071,59.071,0,0,1,8.436,6.971,59.5,59.5,0,0,1,7.011,8.4,59.721,59.721,0,0,1,5.358,9.546,59.739,59.739,0,0,1,3.523,10.368,58,58,0,0,1,1.54,10.844,59.1,59.1,0,0,1-.5,10.941,60.877,60.877,0,0,1-2.484,10.668,57.7,57.7,0,0,1-4.392,10.038,59.4,59.4,0,0,1-6.186,9.046,59.431,59.431,0,0,1-7.746,7.752,59.771,59.771,0,0,1-9.037,6.2,60.791,60.791,0,0,1-10.912,4.613,71.419,71.419,0,0,1-11.56,2.7,16.393,16.393,0,0,0-9.28,4.359,11.668,11.668,0,0,0-2.8,4.288.068.068,0,0,1-.042.042A.068.068,0,0,1,6578.135-74.8Zm29.282-121.477a58.489,58.489,0,0,1,9.509,5.318,58.318,58.318,0,0,1,8.372,7.006,58.722,58.722,0,0,1,6.922,8.435,58.829,58.829,0,0,1,5.243,9.564,58.57,58.57,0,0,1,3.382,10.364,58.257,58.257,0,0,1,1.4,10.806,56.869,56.869,0,0,1-.659,10.872,60.077,60.077,0,0,1-2.663,10.557,58.371,58.371,0,0,1-4.547,9.884,57.857,57.857,0,0,1-6.308,8.859,58,58,0,0,1-7.857,7.515,58.718,58.718,0,0,1-9.108,5.926,62.8,62.8,0,0,1-20.841,6.463,19.991,19.991,0,0,0-9.531,3.675c-3.7,2.79-4.271,4.178-4.284,4.756a.52.52,0,0,0,.133.413l1.551,1.005a.011.011,0,0,0,.01,0,.012.012,0,0,0,.007-.007,11.725,11.725,0,0,1,2.81-4.31,16.447,16.447,0,0,1,9.311-4.375,71.369,71.369,0,0,0,11.551-2.7,60.737,60.737,0,0,0,10.9-4.608,59.676,59.676,0,0,0,9.028-6.2,59.319,59.319,0,0,0,7.739-7.745,59.379,59.379,0,0,0,6.18-9.037,57.624,57.624,0,0,0,4.388-10.028,60.724,60.724,0,0,0,2.482-10.658,59.034,59.034,0,0,0,.5-10.93,57.887,57.887,0,0,0-1.539-10.833,59.587,59.587,0,0,0-3.519-10.358,59.656,59.656,0,0,0-5.353-9.537,59.439,59.439,0,0,0-7-8.4,59.018,59.018,0,0,0-8.428-6.964,59.212,59.212,0,0,0-9.54-5.282Z" transform="translate(-6576.389 196.9)" fill="url(#linear-gradient-4)"/>
        </g>
      </g>
      <g id="グループ_598" data-name="グループ 598" transform="translate(23.088 2.352)">
        <path id="パス_341" data-name="パス 341" d="M7016.67-232.223a6.76,6.76,0,0,0,1.978.336,5.5,5.5,0,0,0,.911-.056,5.189,5.189,0,0,0-.616-.677,4.771,4.771,0,0,0-1.733-1.088,5.623,5.623,0,0,0-2.024-.289,4,4,0,0,0-.66.078c-.159.03-.249.055-.249.055s.061.069.175.18.284.256.49.438A5.536,5.536,0,0,0,7016.67-232.223Z" transform="translate(-7012.396 235.044)" fill="url(#linear-gradient-4)"/>
        <path id="パス_342" data-name="パス 342" d="M6987.64-248.094h-.1a7.845,7.845,0,0,1-2.289-.388l-.02-.007a6.508,6.508,0,0,1-2.062-1.214l-.014-.012-.166-.145c-.14-.122-.261-.227-.366-.331-.134-.13-.212-.218-.227-.235l-1.1-1.249,1.6-.445c.022-.006.141-.038.333-.075l.06-.011a4.731,4.731,0,0,1,.769-.085,6.688,6.688,0,0,1,2.387.344,5.713,5.713,0,0,1,2.11,1.314,6.132,6.132,0,0,1,.753.834l.965,1.353-1.639.281A6.325,6.325,0,0,1,6987.64-248.094Z" transform="translate(-6981.299 252.295)" fill="url(#linear-gradient-4)"/>
      </g>
    </g>
    <path id="パス_5493" data-name="パス 5493" d="M-2.9-7.3v.428H-7.82V-7.3Zm0,4.043v.428H-7.836v-.428Zm-.847-8,.822-.911,1.666,1.31a.649.649,0,0,1-.222.176,1.361,1.361,0,0,1-.383.131v8.194q-.011.056-.245.178a3.077,3.077,0,0,1-.57.219,2.324,2.324,0,0,1-.642.1h-.276v-9.392Zm1.585,9.791.184.15q.184.15.468.391l.594.5q.31.264.563.505a.272.272,0,0,1-.142.18.58.58,0,0,1-.277.06h-9.3l-.12-.428H-3.16ZM-6.929-2.1q0,.1-.2.242a1.926,1.926,0,0,1-.521.247,2.23,2.23,0,0,1-.7.105h-.274v-10.5l1.764.74h4.13v.428H-6.929Zm-7.817-3.237q.479-.1,1.405-.351t2.107-.595q1.181-.345,2.385-.719l.046.174q-.77.529-1.988,1.314T-13.7-3.784a.619.619,0,0,1-.386.423Zm4.429-7.182a.414.414,0,0,1-.147.272.742.742,0,0,1-.408.141V-.821A3.647,3.647,0,0,1-11.007.234a1.247,1.247,0,0,1-.58.714,3.441,3.441,0,0,1-1.392.362,5.452,5.452,0,0,0-.1-.769A1.428,1.428,0,0,0-13.3.008a1.17,1.17,0,0,0-.423-.37A2.743,2.743,0,0,0-14.5-.6V-.821l.213.015q.213.015.5.029l.564.029q.273.015.378.015A.351.351,0,0,0-12.594-.8a.252.252,0,0,0,.066-.189V-12.74Zm.217,2.162.235.225q.235.225.542.531t.536.582q-.06.24-.4.24h-5.258l-.12-.428h3.736Zm23.607-.528a.416.416,0,0,1-.213.211.823.823,0,0,1-.411.054A17.22,17.22,0,0,1,11.326-8.82,13.443,13.443,0,0,1,9.648-7.368l-.174-.121q.257-.531.545-1.254t.571-1.521q.283-.8.514-1.569Zm-11.22-.762a7.032,7.032,0,0,1,1.917.9A3.666,3.666,0,0,1,5.238-9.7a2.062,2.062,0,0,1,.33,1,1.191,1.191,0,0,1-.212.762.811.811,0,0,1-.6.332A1.169,1.169,0,0,1,3.955-7.9a5.885,5.885,0,0,0-.407-1.279,11.72,11.72,0,0,0-.659-1.277,12.245,12.245,0,0,0-.743-1.113ZM11.1-7.062l.866-.955,1.754,1.375a.734.734,0,0,1-.244.192,1.639,1.639,0,0,1-.416.147V.748q0,.067-.245.211a3.008,3.008,0,0,1-.592.257,2.174,2.174,0,0,1-.674.113h-.287V-7.062Zm.9,6.82V.186H1.475L1.34-.242Zm.119-3.469v.428H2.465L2.33-3.712Zm.013-3.351v.428H1.706l-.135-.428ZM9.014-12.527a.411.411,0,0,1-.133.271.8.8,0,0,1-.422.155v5.252H6.671v-5.873Z" transform="translate(1012.516 523)" fill="#fff"/>
    <path id="パス_5492" data-name="パス 5492" d="M-26.754-7.742h10.559l1.413-1.905.256.213.658.549q.4.336.835.715t.787.716q-.092.368-.648.368H-26.57Zm11.11-11.72,2.56,2.44a.993.993,0,0,1-.571.169,2.315,2.315,0,0,1-.9-.2q-1.464.238-3.421.443t-4.077.312q-2.121.107-4.093.115l-.064-.342q1.359-.245,2.84-.582t2.913-.74q1.432-.4,2.683-.82T-15.644-19.462Zm-9.847,4.214a6.655,6.655,0,0,1,2.094,1.1,3.2,3.2,0,0,1,.966,1.242,1.867,1.867,0,0,1,.107,1.139,1.483,1.483,0,0,1-.51.818,1.21,1.21,0,0,1-.893.259,1.657,1.657,0,0,1-1.008-.532,5.558,5.558,0,0,0-.1-1.373,9.072,9.072,0,0,0-.374-1.363,9.141,9.141,0,0,0-.517-1.184Zm4.067-.645a6.734,6.734,0,0,1,2.1,1.116,3.236,3.236,0,0,1,.969,1.252,1.871,1.871,0,0,1,.1,1.147,1.432,1.432,0,0,1-.519.812,1.292,1.292,0,0,1-.893.259,1.655,1.655,0,0,1-1.025-.537,5.933,5.933,0,0,0-.089-1.386,8.6,8.6,0,0,0-.363-1.364,9.457,9.457,0,0,0-.514-1.194Zm.271,5.263,3.41.308a.663.663,0,0,1-.192.4,1.085,1.085,0,0,1-.611.244v11q0,.109-.328.279a3.954,3.954,0,0,1-.814.3,3.877,3.877,0,0,1-.989.128h-.475Zm-.89,2.888h3.073v.368a13.635,13.635,0,0,1-3.466,4.645,20.242,20.242,0,0,1-5.4,3.358l-.209-.29a15.089,15.089,0,0,0,2.575-2.314A17.622,17.622,0,0,0-23.44-4.767,17.6,17.6,0,0,0-22.042-7.742Zm3.586,0A9.586,9.586,0,0,0-16.82-5.324a12.245,12.245,0,0,0,2.268,1.933,13.566,13.566,0,0,0,2.516,1.323l-.04.247a2.473,2.473,0,0,0-1.294.785A3.863,3.863,0,0,0-14.174.569a10.191,10.191,0,0,1-2.809-3.361,19.424,19.424,0,0,1-1.735-4.827Zm2.708-8.4,3.313,1.188a.676.676,0,0,1-.31.344,1.1,1.1,0,0,1-.609.1,22.617,22.617,0,0,1-1.962,2.518,15.47,15.47,0,0,1-2.149,2.006l-.3-.18q.355-.742.718-1.723t.7-2.085Q-16.015-15.072-15.748-16.138Zm-18.266,2.053h5.27l1.1-1.914.2.219q.2.219.506.56t.63.726q.326.384.556.7-.075.368-.592.368H-33.83Zm2.661-5.461,3.307.325a.645.645,0,0,1-.225.419,1.122,1.122,0,0,1-.626.219V-.95a5.074,5.074,0,0,1-.2,1.509,1.752,1.752,0,0,1-.847,1,5.192,5.192,0,0,1-2.016.508,6.615,6.615,0,0,0-.124-1.051,1.946,1.946,0,0,0-.3-.734,1.731,1.731,0,0,0-.577-.5,3.474,3.474,0,0,0-1.064-.321V-.861l.28.023q.28.023.675.041t.755.041q.36.023.515.023a.491.491,0,0,0,.358-.1.414.414,0,0,0,.087-.287ZM-34.338-8.307q.69-.151,2-.472t2.96-.768q1.651-.446,3.341-.933l.071.244q-1.063.755-2.724,1.872t-3.97,2.475a.875.875,0,0,1-.588.642Zm26.221-9.416v-1.1l3.078,1.1h-.415v7.1q0,1.591-.132,3.269A16.213,16.213,0,0,1-6.2-4.032,11.075,11.075,0,0,1-7.724-.879a10.693,10.693,0,0,1-2.844,2.738l-.257-.186a12.28,12.28,0,0,0,1.82-3.766,20.6,20.6,0,0,0,.731-4.175q.157-2.161.157-4.335Zm1.5,5.365H6.94v.656H-6.615Zm0-5.365H7.026v.65H-6.615ZM-6.67-6.8H6.94v.657H-6.67ZM5.948-17.723H5.7l1.282-1.506L9.693-17.1a1.378,1.378,0,0,1-.389.307,2.32,2.32,0,0,1-.648.232V-1.32A4.7,4.7,0,0,1,8.429.231a1.881,1.881,0,0,1-.966,1.036,6.462,6.462,0,0,1-2.27.536A6.78,6.78,0,0,0,5.043.693a1.767,1.767,0,0,0-.357-.759,2.175,2.175,0,0,0-.681-.522A4.607,4.607,0,0,0,2.728-.946V-1.27l.349.026q.349.026.834.055l.926.055q.441.026.608.026a.5.5,0,0,0,.4-.127.561.561,0,0,0,.1-.358Zm-7.273.168H1.332V1.009q0,.136-.569.44a3.486,3.486,0,0,1-1.615.3h-.474ZM22.068-.027a13.415,13.415,0,0,0,4.661-1.933A7.48,7.48,0,0,0,29.278-4.9a8.611,8.611,0,0,0,.79-3.679,7.652,7.652,0,0,0-.834-3.675,6.077,6.077,0,0,0-2.287-2.409,6.428,6.428,0,0,0-3.334-.859,7.785,7.785,0,0,0-3.181.719,8.553,8.553,0,0,0-2.811,2,8.674,8.674,0,0,0-1.528,2.291A6.33,6.33,0,0,0,15.557-7.9a6.1,6.1,0,0,0,.235,1.712,3.807,3.807,0,0,0,.631,1.308,1.118,1.118,0,0,0,.873.5,1.711,1.711,0,0,0,1.073-.512,8.536,8.536,0,0,0,1.166-1.276,17.27,17.27,0,0,0,1.06-1.565,14.47,14.47,0,0,0,.753-1.4,11.877,11.877,0,0,0,.741-2.112,8.4,8.4,0,0,0,.28-2.023,2.866,2.866,0,0,0-.257-1.2,4.309,4.309,0,0,0-.6-.977l1.026-.178a7.267,7.267,0,0,1,.753.85,5.907,5.907,0,0,1,.656,1.071,2.688,2.688,0,0,1,.269,1.163,12.142,12.142,0,0,1-.179,1.964,10.772,10.772,0,0,1-.585,2.131,17.549,17.549,0,0,1-.79,1.85,16.612,16.612,0,0,1-1.1,1.91,12.473,12.473,0,0,1-1.344,1.687,6.549,6.549,0,0,1-1.52,1.2,3.315,3.315,0,0,1-1.645.449,2.17,2.17,0,0,1-1.327-.475,4.6,4.6,0,0,1-1.134-1.3A7.35,7.35,0,0,1,13.8-4.991a8.073,8.073,0,0,1-.29-2.165,8.117,8.117,0,0,1,.356-2.289,9.4,9.4,0,0,1,1.107-2.391,9.442,9.442,0,0,1,1.917-2.159,9.735,9.735,0,0,1,3.139-1.824,11.434,11.434,0,0,1,3.848-.62,9.921,9.921,0,0,1,3.636.643A8.725,8.725,0,0,1,30.375-14a8.082,8.082,0,0,1,1.879,2.689A8.337,8.337,0,0,1,32.92-7.97a7.99,7.99,0,0,1-.6,3.083,7.167,7.167,0,0,1-1.885,2.608,9.668,9.668,0,0,1-3.327,1.86A17.449,17.449,0,0,1,22.16.414ZM-40.784,20.84h17.1l1.386-1.823.259.208q.259.208.656.531t.825.687q.428.365.782.685-.092.368-.631.368H-40.594Zm15.24-9.115h-.224l1.209-1.328,2.547,1.933a1.011,1.011,0,0,1-.325.266,1.8,1.8,0,0,1-.583.2v5.624q0,.079-.371.259A5.27,5.27,0,0,1-24.16,19a3.506,3.506,0,0,1-.944.139h-.44Zm-12.193,0v-1.1l2.756,1.1h11.151v.657H-35.164v6.536q0,.113-.328.314a3.608,3.608,0,0,1-.831.354,3.537,3.537,0,0,1-1.035.153h-.379Zm9.806,7.233,3.4.291q-.075.477-.765.575V24.97a4.672,4.672,0,0,1-.23,1.554,1.861,1.861,0,0,1-.97,1.03,6.484,6.484,0,0,1-2.289.511,6.338,6.338,0,0,0-.17-1.056,1.607,1.607,0,0,0-.4-.74,2.5,2.5,0,0,0-.751-.516,5.279,5.279,0,0,0-1.36-.363v-.307l.4.026q.4.026.955.052t1.053.052q.5.026.67.026a.563.563,0,0,0,.377-.09.386.386,0,0,0,.093-.288Zm-8.614,3.124a8.837,8.837,0,0,1,2.865.511,4,4,0,0,1,1.59,1.038,2.122,2.122,0,0,1,.554,1.209,1.584,1.584,0,0,1-.272,1.055,1.346,1.346,0,0,1-.868.562,1.786,1.786,0,0,1-1.233-.273,5.518,5.518,0,0,0-.636-1.456,9.763,9.763,0,0,0-1.013-1.379,8.4,8.4,0,0,0-1.15-1.1Zm-.218-7.423H-24.1v.657H-36.763Zm0,3.007H-24.1v.656H-36.763ZM-31.749,6.58l3.458.308a.682.682,0,0,1-.2.4,1.137,1.137,0,0,1-.635.242V18.015h-2.624Zm-8.4,2.472H-24.2l1.386-1.868.248.205q.248.205.642.536t.822.7q.428.374.765.711-.092.368-.631.368H-39.955Zm23.459-.747V7.113l2.756,1.192h4.3v.65h-4.394V27.04q0,.17-.3.408a2.794,2.794,0,0,1-.8.419,3.248,3.248,0,0,1-1.108.181h-.453Zm10.467,0V7.243l2.638,1.062H.8v.65H-3.68v7.16q0,.113-.32.3a3.82,3.82,0,0,1-.814.343,3.513,3.513,0,0,1-1.044.153H-6.22Zm5.9,0h-.23L.7,6.862,3.335,8.91a.883.883,0,0,1-.344.284A2.437,2.437,0,0,1,2.4,9.4V24.8a4.4,4.4,0,0,1-.252,1.573,2.048,2.048,0,0,1-1.077,1.07,7.618,7.618,0,0,1-2.531.576A5.951,5.951,0,0,0-1.7,26.886a1.617,1.617,0,0,0-.512-.768,3.454,3.454,0,0,0-.949-.562,7.949,7.949,0,0,0-1.676-.408v-.307l.507.026q.507.026,1.212.072t1.336.072q.631.026.871.026A.6.6,0,0,0-.445,24.9a.6.6,0,0,0,.121-.4Zm-10.468,0h-.224l1.164-1.25,2.4,1.815a.973.973,0,0,1-.3.258A1.409,1.409,0,0,1-8.28,9.3v7.045q-.017.069-.371.223a6.3,6.3,0,0,1-.827.285,3.348,3.348,0,0,1-.892.131h-.423Zm-4.633,3.306h5.6v.65h-5.6Zm0,3.4h5.6v.657h-5.6Zm10.618-3.4H.858v.65H-4.807Zm0,3.4H.858v.657H-4.807ZM8.847,12.917h11l1.417-1.786.253.205q.253.205.652.521t.838.675q.439.359.809.673a.347.347,0,0,1-.2.276.929.929,0,0,1-.431.092H9.031Zm5.216,0h3.4v.368a14.262,14.262,0,0,1-2.989,2.157,25.919,25.919,0,0,1-3.867,1.73,39.138,39.138,0,0,1-4.34,1.269l-.146-.3A24.476,24.476,0,0,0,9.2,16.621a25.493,25.493,0,0,0,2.731-1.834A20.662,20.662,0,0,0,14.063,12.917Zm-.491,2.237.2-.186a9.733,9.733,0,0,1,2.56,2.314,10.334,10.334,0,0,1,1.52,2.759,10.716,10.716,0,0,1,.62,2.806,8.5,8.5,0,0,1-.138,2.472,4.171,4.171,0,0,1-.761,1.744,2.394,2.394,0,0,1-1.293.776,7.966,7.966,0,0,1-2.08.223,2.467,2.467,0,0,0-.544-1.687,2.4,2.4,0,0,0-.743-.455,7.2,7.2,0,0,0-1.212-.386l-.006-.28q.483.04,1.085.086t1.135.069q.533.023.809.023a1.714,1.714,0,0,0,.419-.043.412.412,0,0,0,.258-.2,3.288,3.288,0,0,0,.425-1.27,9.781,9.781,0,0,0,.1-1.943,13.738,13.738,0,0,0-.294-2.309,12.379,12.379,0,0,0-.758-2.376A8.884,8.884,0,0,0,13.571,15.153Zm.959.641L16.19,18.1a21.642,21.642,0,0,1-2.865,1.632,36.883,36.883,0,0,1-3.536,1.476,32.42,32.42,0,0,1-3.71,1.1l-.134-.3A24.172,24.172,0,0,0,9.191,20.3a27.024,27.024,0,0,0,3.047-2.206A16.2,16.2,0,0,0,14.53,15.794Zm1.484,2.884,1.7,2.481A20.579,20.579,0,0,1,14.3,23.29a30.57,30.57,0,0,1-4.289,1.769A33.151,33.151,0,0,1,5.356,26.23l-.15-.313a24.5,24.5,0,0,0,4.217-1.84,26.246,26.246,0,0,0,3.8-2.531A14.856,14.856,0,0,0,16.014,18.679Zm1.607-5.719a15.416,15.416,0,0,0,1.389,3.882,14.4,14.4,0,0,0,2.149,3.067,15.539,15.539,0,0,0,2.715,2.339,19.875,19.875,0,0,0,3.092,1.715L26.9,24.2a3.071,3.071,0,0,0-2.562,2.171,16.4,16.4,0,0,1-3.325-3.186,15.878,15.878,0,0,1-2.341-4.281,27.713,27.713,0,0,1-1.391-5.8Zm5.489,1.186,3.014,2.074a.539.539,0,0,1-.288.229,1.137,1.137,0,0,1-.591-.024q-.726.473-1.695.995T21.5,18.425q-1.081.483-2.148.876l-.209-.249q.733-.709,1.5-1.593t1.422-1.766A17.18,17.18,0,0,0,23.111,14.146ZM8.295,9.561H24.563v.65H8.295Zm6.384-3.094,3.626.274a.645.645,0,0,1-.2.4,1.205,1.205,0,0,1-.638.252V9.963H14.679ZM8.258,7.927h.313a7,7,0,0,1,.588,2.547A4.3,4.3,0,0,1,8.8,12.38a2.58,2.58,0,0,1-.953,1.131,1.615,1.615,0,0,1-.839.28,1.549,1.549,0,0,1-.838-.185,1.209,1.209,0,0,1-.55-.644,1.245,1.245,0,0,1,.095-1.111,2.083,2.083,0,0,1,.851-.763,3.317,3.317,0,0,0,.819-.729,4.114,4.114,0,0,0,.659-1.115A3.008,3.008,0,0,0,8.258,7.927Zm15.05,1.634h-.253L24.42,8.19l2.391,2.261a.633.633,0,0,1-.34.191q-.2.043-.557.083a14.628,14.628,0,0,1-1.7,1.137,16.979,16.979,0,0,1-1.894.972l-.221-.15q.225-.441.455-1t.436-1.128Q23.2,9.986,23.308,9.561Zm16.369,8.4a.452.452,0,0,1-.323-.142,2.835,2.835,0,0,1-.318-.388q-.193-.286-.481-.654a5.24,5.24,0,0,0-.787-.78l.138-.194a7.982,7.982,0,0,1,1.071.36,2.7,2.7,0,0,1,.8.5,1.233,1.233,0,0,1,.317.392.922.922,0,0,1,.088.391.508.508,0,0,1-.142.364A.483.483,0,0,1,39.677,17.964ZM29.36,26.607a.635.635,0,0,1-.469-.236.9.9,0,0,1-.217-.633,1.564,1.564,0,0,1,.062-.492,1.423,1.423,0,0,1,.256-.418q.345-.43.706-.957t.727-1.151q.365-.624.7-1.322.3-.627.567-1.266t.5-1.238q.226-.6.385-1.1t.248-.866a2.541,2.541,0,0,0,.089-.525.632.632,0,0,0-.045-.249.357.357,0,0,0-.169-.173,1.762,1.762,0,0,0-.461-.192q-.287-.081-.576-.136v-.213a3.539,3.539,0,0,1,.524-.239,2.148,2.148,0,0,1,.747-.115,2.183,2.183,0,0,1,.565.09,3.373,3.373,0,0,1,.641.25,2.613,2.613,0,0,1,.523.342.5.5,0,0,1,.21.366.593.593,0,0,1-.109.347q-.109.156-.249.322a1.583,1.583,0,0,0-.241.4l-.366.884q-.233.561-.515,1.234t-.571,1.344q-.289.671-.53,1.209t-.511,1.108q-.275.578-.552,1.137T30.7,25.15q-.248.469-.435.794a1.615,1.615,0,0,1-.425.53A.842.842,0,0,1,29.36,26.607Zm4.005-.144a.809.809,0,0,1-.6-.2,1.591,1.591,0,0,1-.325-.718,1.182,1.182,0,0,0-.1-.259,1.865,1.865,0,0,0-.231-.314q-.167-.194-.512-.557l.127-.187q.533.266.939.436a1.832,1.832,0,0,0,.681.171,1.109,1.109,0,0,0,.546-.115,1.321,1.321,0,0,0,.4-.374,2.877,2.877,0,0,0,.453-.8,7.552,7.552,0,0,0,.333-1.084,10.871,10.871,0,0,0,.207-1.192,9.736,9.736,0,0,0,.071-1.13,1.511,1.511,0,0,0-.2-.853A.778.778,0,0,0,34.462,19a3.232,3.232,0,0,0-.768.117q-.459.117-.97.3t-.989.377q-.478.2-.818.352l-.586.253a1.309,1.309,0,0,1-.525.1.762.762,0,0,1-.453-.2,2.241,2.241,0,0,1-.454-.5,1.612,1.612,0,0,1-.256-.586,1.215,1.215,0,0,1,.014-.52,4.259,4.259,0,0,1,.146-.447l.2-.046a5.184,5.184,0,0,0,.358.547.514.514,0,0,0,.428.209,3.536,3.536,0,0,0,.578-.062q.356-.062.806-.151l.951-.191q.5-.1,1.008-.186.341-.07.828-.132a6.82,6.82,0,0,1,.841-.062,1.714,1.714,0,0,1,1.346.571,2.969,2.969,0,0,1,.508,1.968,11.145,11.145,0,0,1-.153,1.813,8.633,8.633,0,0,1-.47,1.74,4.336,4.336,0,0,1-.839,1.38,2.7,2.7,0,0,1-.812.593A2.285,2.285,0,0,1,33.365,26.463Zm6.706-3.108a.533.533,0,0,1-.371-.117,2.261,2.261,0,0,1-.248-.268.779.779,0,0,0-.357-.236,2.39,2.39,0,0,0-.421-.1q-.271-.044-.563-.076a4.672,4.672,0,0,0-.54-.032l-.053-.252q.3-.083.556-.15t.465-.13q.207-.064.363-.123a.8.8,0,0,0,.338-.24.683.683,0,0,0,.1-.426,3.78,3.78,0,0,0-.106-.761,2.852,2.852,0,0,0-.383-.9,2.914,2.914,0,0,0-.671-.744,2.6,2.6,0,0,0-.962-.453L37.3,18.1a4.781,4.781,0,0,1,1.365.268,3.252,3.252,0,0,1,1.2.739,3.191,3.191,0,0,1,.864,1.258,4.35,4.35,0,0,1,.27,1.539,2.061,2.061,0,0,1-.233,1.033A.77.77,0,0,1,40.071,23.355ZM41.05,16.9a.459.459,0,0,1-.346-.154q-.145-.154-.353-.417-.191-.249-.461-.556a6.185,6.185,0,0,0-.821-.733l.124-.184a7.527,7.527,0,0,1,1.07.293,2.876,2.876,0,0,1,.759.391,1.226,1.226,0,0,1,.38.412.983.983,0,0,1,.111.456.513.513,0,0,1-.121.359A.44.44,0,0,1,41.05,16.9Z" transform="translate(1012.516 473)" fill="#fff"/>
  </g>
</svg>
