<svg xmlns="http://www.w3.org/2000/svg" width="518.834" height="221.897" viewBox="0 0 518.834 221.897">
  <g id="グループ_55754" data-name="グループ 55754" transform="translate(-103.977 -163.248)">
    <g id="グループ_55705" data-name="グループ 55705" transform="translate(66 24)">
      <path id="パス_5027" data-name="パス 5027" d="M9.322,1.667,8.753-.9a55.2,55.2,0,0,0,17.118-9.28,33.828,33.828,0,0,0,9.848-13.443A48.442,48.442,0,0,0,38.9-41.867a50.957,50.957,0,0,0-1.538-13.9q-1.538-5.247-4.283-7.594a9.536,9.536,0,0,0-6.391-2.347,10.282,10.282,0,0,0-6.033,1.945A13.2,13.2,0,0,0,16.227-57.9a25.445,25.445,0,0,0-1.657,9.861q0,8.318,3.813,12.93A12.325,12.325,0,0,0,28.362-30.5a14.751,14.751,0,0,0,6.547-1.438,21.182,21.182,0,0,0,5.745-4.272l1.616.715H41.7a18.777,18.777,0,0,1-6.828,6.459A21.028,21.028,0,0,1,24.376-26.6a22.822,22.822,0,0,1-10.6-2.4,17.746,17.746,0,0,1-7.321-6.937A21.2,21.2,0,0,1,3.793-46.839,21.225,21.225,0,0,1,6.911-58.488a21.2,21.2,0,0,1,8.33-7.58,24.622,24.622,0,0,1,11.443-2.684q11.048,0,17.094,7.2t6.046,20.418A38.589,38.589,0,0,1,45.01-22,42.58,42.58,0,0,1,31.13-7.32,65.355,65.355,0,0,1,9.322,1.667Z" transform="translate(452 208)" fill="#c6a25d"/>
      <circle id="楕円形_154" data-name="楕円形 154" cx="2.5" cy="2.5" r="2.5" transform="translate(336 157)" fill="#c6a25d"/>
      <circle id="楕円形_155" data-name="楕円形 155" cx="2.5" cy="2.5" r="2.5" transform="translate(368 157)" fill="#c6a25d"/>
      <circle id="楕円形_156" data-name="楕円形 156" cx="2.5" cy="2.5" r="2.5" transform="translate(404 157)" fill="#c6a25d"/>
    </g>
    <g id="グループ_55752" data-name="グループ 55752">
      <path id="パス_5025" data-name="パス 5025" d="M16.793-16.336H39.147l2.653-3.5.482.4,1.242,1.026q.76.627,1.579,1.339T46.6-15.713q-.192.768-1.321.768h-28.1ZM40.138-40.31l4.571,4.354a1.731,1.731,0,0,1-1.084.326,4.517,4.517,0,0,1-1.712-.4q-3,.55-6.991,1.05t-8.324.809q-4.336.308-8.441.378l-.167-.788q2.879-.458,5.986-1.109t6.107-1.433q3-.783,5.6-1.6T40.138-40.31Zm-20.75,8.647A13.517,13.517,0,0,1,23.331-29.3a7.161,7.161,0,0,1,1.878,2.535,4.143,4.143,0,0,1,.308,2.261,2.8,2.8,0,0,1-.838,1.612,2.051,2.051,0,0,1-1.561.551,2.851,2.851,0,0,1-1.8-.921,11.032,11.032,0,0,0-.33-2.833,19.808,19.808,0,0,0-.929-2.855,20.912,20.912,0,0,0-1.2-2.472Zm8.4-1.5a13.876,13.876,0,0,1,3.955,2.351,7.065,7.065,0,0,1,1.89,2.513,4.009,4.009,0,0,1,.3,2.25,2.737,2.737,0,0,1-.851,1.589,2.182,2.182,0,0,1-1.561.552,2.866,2.866,0,0,1-1.849-.921,11.271,11.271,0,0,0-.318-2.823,18.992,18.992,0,0,0-.905-2.821,20.492,20.492,0,0,0-1.183-2.45Zm.989,10.9,6.072.579a1.329,1.329,0,0,1-.4.829,2.267,2.267,0,0,1-1.238.493V2.714q0,.217-.558.531a6.248,6.248,0,0,1-1.382.543,6.217,6.217,0,0,1-1.674.229H28.78Zm-1.687,5.932h5.146v.768a29.18,29.18,0,0,1-6.868,9.535A40.382,40.382,0,0,1,14.744.976l-.479-.67a33.1,33.1,0,0,0,5.491-4.755,36.1,36.1,0,0,0,4.327-5.706A34.753,34.753,0,0,0,27.092-16.336Zm6.386,0a21.987,21.987,0,0,0,3.478,5.3,27.2,27.2,0,0,0,4.8,4.308,27.277,27.277,0,0,0,5.324,2.955l-.072.5a4.411,4.411,0,0,0-2.3,1.311A6.244,6.244,0,0,0,43.279.786,23.244,23.244,0,0,1,36.963-6.1a36.839,36.839,0,0,1-4.129-9.93Zm6.7-17.291,6.017,2.151a1.38,1.38,0,0,1-.625.7,2.223,2.223,0,0,1-1.249.216,48.15,48.15,0,0,1-3.874,5.509,31.744,31.744,0,0,1-4.3,4.429l-.67-.406q.835-1.56,1.684-3.612t1.625-4.379Q39.553-31.348,40.174-33.626Zm-38.479,4.3H12.618l2.143-3.457.4.4q.4.4,1,1.027t1.251,1.34q.65.712,1.129,1.314-.168.768-1.225.768H2.079Zm6.05-11.216,5.993.6a1.388,1.388,0,0,1-.48.864,2.323,2.323,0,0,1-1.3.456V-1.487a9.447,9.447,0,0,1-.351,2.742A3.214,3.214,0,0,1,10.065,3.1a9.625,9.625,0,0,1-3.707.964,10.1,10.1,0,0,0-.275-1.829A3.21,3.21,0,0,0,5.447.944,3.455,3.455,0,0,0,4.2.061,9.027,9.027,0,0,0,1.969-.508v-.718l.611.048q.611.048,1.461.1t1.629.1q.779.048,1.092.048a1.106,1.106,0,0,0,.79-.2A.939.939,0,0,0,7.745-1.8ZM.977-16.639q1.44-.335,4.13-1.065t6.088-1.734q3.4-1,6.9-2.1l.19.573q-2.346,1.492-5.86,3.648T4.16-12.563a1.764,1.764,0,0,1-1.133,1.3ZM55.493-36.892v-2l5.284,2h-.749v14.716q0,3.29-.264,6.77a36.425,36.425,0,0,1-1.2,6.9,24.259,24.259,0,0,1-2.928,6.565A21.847,21.847,0,0,1,50.2,3.8l-.62-.43a25.314,25.314,0,0,0,3.942-7.791,41.22,41.22,0,0,0,1.616-8.655q.359-4.489.359-9.048Zm2.524,11.208H86.863v1.39H58.016Zm0-11.208H87.192v1.368H58.016ZM57.8-14.138H86.863v1.391H57.8ZM85.143-36.892h-.528l2.274-2.731,5.045,3.936a2.592,2.592,0,0,1-.827.636,5.151,5.151,0,0,1-1.378.469V-2.025a8.564,8.564,0,0,1-.411,2.8,3.479,3.479,0,0,1-1.764,1.908A11.813,11.813,0,0,1,83.375,3.7a9.012,9.012,0,0,0-.312-1.914A3.064,3.064,0,0,0,82.319.453a4.71,4.71,0,0,0-1.485-.919,12.079,12.079,0,0,0-2.687-.652v-.718l.755.06q.755.06,1.809.131t2,.131q.947.06,1.306.06a1.167,1.167,0,0,0,.9-.264,1.183,1.183,0,0,0,.227-.79Zm-15.307.245h4.511V2.181q0,.242-.981.786a5.736,5.736,0,0,1-2.752.544h-.778ZM117.829-.416a28.571,28.571,0,0,0,9.732-3.745,15.49,15.49,0,0,0,5.511-5.96,16.911,16.911,0,0,0,1.759-7.714,15.1,15.1,0,0,0-1.809-7.565,12.872,12.872,0,0,0-4.925-4.959,14.1,14.1,0,0,0-7.074-1.765,16.919,16.919,0,0,0-6.671,1.431,17.609,17.609,0,0,0-5.856,4.027,17.76,17.76,0,0,0-3.364,4.9,13.535,13.535,0,0,0-1.208,5.689,12.894,12.894,0,0,0,.538,3.806,8.089,8.089,0,0,0,1.411,2.8,2.449,2.449,0,0,0,1.858,1.056,3.739,3.739,0,0,0,2.382-1.137,17.989,17.989,0,0,0,2.539-2.859,38.365,38.365,0,0,0,2.311-3.562,36.457,36.457,0,0,0,1.7-3.3,26.094,26.094,0,0,0,1.4-4.129,16.489,16.489,0,0,0,.553-3.983,6.207,6.207,0,0,0-.506-2.519,12.682,12.682,0,0,0-1.2-2.155l1.929-.361a16.394,16.394,0,0,1,1.423,1.753,11.338,11.338,0,0,1,1.173,2.083,5.639,5.639,0,0,1,.472,2.252,22.377,22.377,0,0,1-.384,3.92,24.876,24.876,0,0,1-1.178,4.28,36.034,36.034,0,0,1-1.621,3.818A37.08,37.08,0,0,1,116.44-10.3a27.4,27.4,0,0,1-2.762,3.574A13.986,13.986,0,0,1,110.6-4.157a6.235,6.235,0,0,1-3.237.959,4.278,4.278,0,0,1-2.6-.938A9.159,9.159,0,0,1,102.5-6.722a14.735,14.735,0,0,1-1.6-3.751,16.2,16.2,0,0,1-.589-4.386,16.633,16.633,0,0,1,.744-4.8,19.1,19.1,0,0,1,2.259-4.831,19.811,19.811,0,0,1,3.778-4.305,19.82,19.82,0,0,1,6.552-3.839,23.341,23.341,0,0,1,7.787-1.273,20.407,20.407,0,0,1,7.3,1.263,17.5,17.5,0,0,1,5.792,3.56,16.2,16.2,0,0,1,3.832,5.432,17.013,17.013,0,0,1,1.369,6.881,16.841,16.841,0,0,1-1.168,6.2,14.762,14.762,0,0,1-3.718,5.379,19.51,19.51,0,0,1-6.7,3.934A34.54,34.54,0,0,1,118.021.589Zm28.586-10.406h35.963l2.628-3.425.494.4,1.253,1.013q.759.615,1.579,1.313t1.494,1.325q-.192.768-1.3.768H146.822Zm32.259-18.917h-.456l2.152-2.371,4.639,3.527a2.127,2.127,0,0,1-.684.541,3.713,3.713,0,0,1-1.189.4v12.149q0,.145-.642.471a8.978,8.978,0,0,1-1.491.58,5.6,5.6,0,0,1-1.6.254h-.729Zm-25.647,0V-31.7l4.727,1.959h23.968v1.391H157.416v13.724q0,.194-.558.545a6.058,6.058,0,0,1-1.407.618,5.874,5.874,0,0,1-1.77.267h-.655Zm20.518,15.073,6.093.554q-.167.985-1.607,1.2v11.28a8.451,8.451,0,0,1-.423,2.815,3.469,3.469,0,0,1-1.8,1.907,12.185,12.185,0,0,1-4.271.977,9.614,9.614,0,0,0-.371-1.829,2.843,2.843,0,0,0-.829-1.3,5.161,5.161,0,0,0-1.652-.919,14.856,14.856,0,0,0-2.9-.653v-.694l.863.06q.862.06,2.072.12t2.288.12q1.078.06,1.461.06a1.3,1.3,0,0,0,.861-.2.906.906,0,0,0,.215-.68ZM155.432-8.115a18.185,18.185,0,0,1,5.494,1.252,8.756,8.756,0,0,1,3.129,2.114,4.647,4.647,0,0,1,1.2,2.348,2.954,2.954,0,0,1-.346,2A2.266,2.266,0,0,1,163.439.673a3.01,3.01,0,0,1-2.167-.449,10.271,10.271,0,0,0-1.412-2.933,20.479,20.479,0,0,0-2.273-2.8,17.746,17.746,0,0,0-2.538-2.2Zm-.709-15.48H181.1v1.39H154.723Zm0,6.264H181.1v1.391H154.723Zm10.854-22.975,6.214.578a1.442,1.442,0,0,1-.443.84,2.418,2.418,0,0,1-1.309.5v21.75h-4.462Zm-17.956,5.022h33.815l2.629-3.476.47.386q.47.386,1.217,1.013t1.567,1.338q.819.711,1.47,1.362-.192.768-1.3.768H148.028Zm48.709-1.7V-39.11l4.727,2.128h9.893v1.368H200.841V2.3q0,.291-.5.7A4.643,4.643,0,0,1,199,3.727a5.4,5.4,0,0,1-1.891.315h-.776Zm21.887,0v-1.91l4.555,1.91h10.177v1.368H222.556V-20.5q0,.194-.546.521a6.622,6.622,0,0,1-1.382.594,5.834,5.834,0,0,1-1.782.267h-.63Zm12.748,0h-.48l2.2-2.61,4.9,3.767a2.01,2.01,0,0,1-.754.588,4.854,4.854,0,0,1-1.259.421V-1.877a8.133,8.133,0,0,1-.447,2.829,3.763,3.763,0,0,1-1.945,1.98,13.6,13.6,0,0,1-4.638,1.085,8.388,8.388,0,0,0-.469-1.951,3,3,0,0,0-1-1.344A6.72,6.72,0,0,0,225.14-.27,19.18,19.18,0,0,0,221.785-1v-.694l1.022.06q1.021.06,2.44.156t2.692.156q1.274.06,1.755.06a1.35,1.35,0,0,0,1.006-.288,1.241,1.241,0,0,0,.264-.863Zm-22.047,0h-.457l2.1-2.271,4.419,3.356a2.056,2.056,0,0,1-.659.529,3.182,3.182,0,0,1-1.092.36v14.872q-.025.144-.642.434a10.306,10.306,0,0,1-1.429.531,5.4,5.4,0,0,1-1.539.241h-.7Zm-10.429,6.889h12.148v1.367H198.488Zm0,7.08h12.148v1.391H198.488Zm22.106-7.08h12.383v1.367H220.594Zm0,7.08h12.383v1.391H220.594Zm28.238-4.207h23.679l2.631-3.284.471.386q.471.386,1.219.977t1.568,1.266q.82.675,1.52,1.278a.727.727,0,0,1-.409.576,1.873,1.873,0,0,1-.889.192H249.216Zm11.814,0h5.726v.768A30.525,30.525,0,0,1,260.293-22a53.738,53.738,0,0,1-7.743,3.6,77.8,77.8,0,0,1-8.635,2.675l-.358-.693a56.239,56.239,0,0,0,6.558-3.111A54.994,54.994,0,0,0,256-23.285,40.555,40.555,0,0,0,260.646-27.22Zm-2.134,4.794.5-.43a20.419,20.419,0,0,1,5.237,4.87,21.489,21.489,0,0,1,3.076,5.737,21.97,21.97,0,0,1,1.216,5.8,17.428,17.428,0,0,1-.345,5.079,8.349,8.349,0,0,1-1.631,3.556,4.766,4.766,0,0,1-2.413,1.471,13.717,13.717,0,0,1-3.908.434,3.939,3.939,0,0,0-1.082-2.908A5.421,5.421,0,0,0,257.581.36a15.629,15.629,0,0,0-2.5-.678l-.024-.668q1.008.073,2.291.169t2.422.144q1.139.048,1.715.048a3.649,3.649,0,0,0,.864-.084.845.845,0,0,0,.528-.4,6.448,6.448,0,0,0,1.026-2.7,18.441,18.441,0,0,0,.239-4.113,25.808,25.808,0,0,0-.7-4.893,24.464,24.464,0,0,0-1.814-5.048A19.076,19.076,0,0,0,258.512-22.426Zm2.5,1.8,2.882,3.974a44.483,44.483,0,0,1-5.827,3.5,74.82,74.82,0,0,1-7.173,3.187,65.442,65.442,0,0,1-7.5,2.4l-.311-.693a52.72,52.72,0,0,0,6.723-3.392,56.639,56.639,0,0,0,6.36-4.367A33.5,33.5,0,0,0,261.01-20.623Zm2.958,5.84,2.955,4.311a41.077,41.077,0,0,1-6.932,4.647,63.559,63.559,0,0,1-8.734,3.9A67.378,67.378,0,0,1,241.789.755l-.335-.717a52.841,52.841,0,0,0,8.715-3.759,55.274,55.274,0,0,0,7.921-5.165A31.188,31.188,0,0,0,263.968-14.782Zm3.038-12.273a34.54,34.54,0,0,0,2.835,8.112,31.992,31.992,0,0,0,4.384,6.591,31.947,31.947,0,0,0,5.63,5.125A37.645,37.645,0,0,0,286.4-3.49l-.144.481q-3.1.294-4.5,3.686a33.442,33.442,0,0,1-7.292-6.591,33.477,33.477,0,0,1-5.171-8.94A54.33,54.33,0,0,1,266.218-26.7Zm12.068,2.771,5.393,3.632a1.075,1.075,0,0,1-.6.457,2.476,2.476,0,0,1-1.2-.071q-1.421,1.007-3.368,2.145t-4.146,2.2q-2.2,1.065-4.362,1.928l-.478-.55q1.6-1.4,3.292-3.141t3.137-3.5A36.512,36.512,0,0,0,279.074-24.285ZM247.68-34.3h34.235v1.368H247.68Zm13.894-6.2,6.459.53a1.306,1.306,0,0,1-.431.84,2.5,2.5,0,0,1-1.321.5v5.146h-4.707Zm-14.035,3.025h.717a13.977,13.977,0,0,1,.938,5.109,8.962,8.962,0,0,1-.859,3.777,5.671,5.671,0,0,1-1.889,2.25,3.311,3.311,0,0,1-1.557.611,2.908,2.908,0,0,1-1.568-.212,2.033,2.033,0,0,1-1.049-1.068,2.145,2.145,0,0,1,.123-1.96,3.864,3.864,0,0,1,1.5-1.423,6.92,6.92,0,0,0,1.773-1.627,9.149,9.149,0,0,0,1.4-2.5A7.285,7.285,0,0,0,247.539-37.475ZM279.666-34.3h-.528l2.512-2.535,4.441,4.223a1.358,1.358,0,0,1-.72.373q-.432.084-1.152.156a26.3,26.3,0,0,1-3.23,2.41,36.8,36.8,0,0,1-3.616,2.1l-.525-.335q.5-.89,1.04-2.042t1.027-2.317A21.4,21.4,0,0,0,279.666-34.3Zm48.986,7.02a1.429,1.429,0,0,1-1.093-.572q-.492-.572-1.138-1.435-.695-.961-1.7-2.152a17.377,17.377,0,0,0-2.665-2.469l.549-.741a26.21,26.21,0,0,1,3.477,1.362,9.957,9.957,0,0,1,2.541,1.705,4.994,4.994,0,0,1,1.172,1.4,2.964,2.964,0,0,1,.334,1.356,1.551,1.551,0,0,1-.411,1.11A1.4,1.4,0,0,1,328.652-27.277ZM293.047,1.744a1.833,1.833,0,0,1-1.333-.667,2.522,2.522,0,0,1-.629-1.8,4.532,4.532,0,0,1,.193-1.44,4.485,4.485,0,0,1,.773-1.29q1.245-1.579,2.458-3.357t2.45-3.879q1.237-2.1,2.481-4.57.986-2.022,1.944-4.218t1.8-4.34q.837-2.144,1.458-3.975t.978-3.159a8.519,8.519,0,0,0,.357-1.858,2.1,2.1,0,0,0-.144-.806,1.127,1.127,0,0,0-.6-.565,5.712,5.712,0,0,0-1.618-.569q-1.041-.23-1.98-.376v-.858a11.369,11.369,0,0,1,1.616-.644,7.268,7.268,0,0,1,2.224-.3,6.987,6.987,0,0,1,1.817.289,10.682,10.682,0,0,1,2.035.795,8.489,8.489,0,0,1,1.65,1.072,1.55,1.55,0,0,1,.663,1.122,1.891,1.891,0,0,1-.326,1.085q-.326.482-.749.989a5.034,5.034,0,0,0-.736,1.231q-.479,1.151-1.283,3.093t-1.8,4.293q-.994,2.35-2.048,4.746t-2.007,4.451q-.885,1.892-1.833,3.826t-1.873,3.751q-.925,1.816-1.766,3.344T295.685-.192a4.945,4.945,0,0,1-1.257,1.537A2.376,2.376,0,0,1,293.047,1.744Zm13.774-.5a2.475,2.475,0,0,1-1.868-.6,5.442,5.442,0,0,1-1.024-2.081,4.092,4.092,0,0,0-.382-.831,7.205,7.205,0,0,0-.849-1.057q-.611-.66-1.855-1.862l.478-.694q1.871,1.027,3.32,1.718a5.833,5.833,0,0,0,2.34.691,3.854,3.854,0,0,0,1.929-.442A4.9,4.9,0,0,0,310.448-5.5a10.442,10.442,0,0,0,1.411-2.6,27.693,27.693,0,0,0,1.117-3.559,35.54,35.54,0,0,0,.742-4.011,31.51,31.51,0,0,0,.263-3.98,6.1,6.1,0,0,0-.707-3.295,2.793,2.793,0,0,0-2.525-1.076,12.338,12.338,0,0,0-2.708.373q-1.606.373-3.358.951t-3.339,1.193q-1.587.615-2.647,1.074-1.361.55-2.142.91a4.062,4.062,0,0,1-1.719.36,2.521,2.521,0,0,1-1.468-.627,6.875,6.875,0,0,1-1.457-1.544,5.047,5.047,0,0,1-.83-1.809,4.563,4.563,0,0,1-.009-1.593,9.318,9.318,0,0,1,.378-1.49l.787-.167q.557,1.083,1.052,1.895a1.6,1.6,0,0,0,1.452.812,11.444,11.444,0,0,0,1.957-.228q1.235-.228,2.783-.551t3.218-.683q1.67-.359,3.261-.647,1.107-.24,2.787-.467a22.079,22.079,0,0,1,2.9-.227,5.606,5.606,0,0,1,4.425,1.853q1.637,1.852,1.637,6.4a35.818,35.818,0,0,1-.539,6.1,30.77,30.77,0,0,1-1.6,5.861,15.319,15.319,0,0,1-2.7,4.614,9.038,9.038,0,0,1-2.67,2.085A7.219,7.219,0,0,1,306.82,1.24ZM329.927-9.3a1.606,1.606,0,0,1-1.157-.373,8.621,8.621,0,0,1-.76-.843,2.163,2.163,0,0,0-1.144-.689,7.87,7.87,0,0,0-1.486-.222q-.981-.075-2.035-.1t-1.894.018l-.215-.979q.962-.242,1.976-.481t1.895-.479q.881-.239,1.454-.455a2.189,2.189,0,0,0,1.084-.77,2.469,2.469,0,0,0,.244-1.418,11.776,11.776,0,0,0-.406-2.523,9.841,9.841,0,0,0-1.389-3.027,9.553,9.553,0,0,0-2.4-2.475,9.709,9.709,0,0,0-3.542-1.491l.4-.979a16.32,16.32,0,0,1,4.761,1.119,11.154,11.154,0,0,1,3.793,2.567,10.547,10.547,0,0,1,2.62,4.056,14.9,14.9,0,0,1,.878,5.177,6.516,6.516,0,0,1-.666,3.1A2.209,2.209,0,0,1,329.927-9.3Zm3.314-21.532a1.425,1.425,0,0,1-1.119-.608q-.492-.608-1.235-1.5-.717-.886-1.675-1.874a23.389,23.389,0,0,0-2.739-2.313l.5-.716a27.184,27.184,0,0,1,3.488,1.157,10.431,10.431,0,0,1,2.455,1.378,4.771,4.771,0,0,1,1.33,1.451,3.169,3.169,0,0,1,.4,1.526,1.573,1.573,0,0,1-.362,1.1A1.331,1.331,0,0,1,333.242-30.833Zm4.1,16.41H374.36l2.992-3.67.543.41q.543.41,1.4,1.062t1.774,1.4q.917.747,1.714,1.422-.192.768-1.346.768H337.724Zm2.87-10.529h31.936l2.92-3.6.543.41q.543.41,1.364,1.049t1.726,1.362q.9.723,1.653,1.4-.169.745-1.322.745H340.593Zm32.477-15.522,4.962,4.746a1.731,1.731,0,0,1-1.121.326,5.089,5.089,0,0,1-1.869-.422q-3.266.695-7.335,1.317T358.74-33.42q-4.513.465-9.181.726t-9.2.235l-.143-.788q4.316-.46,8.9-1.243t8.969-1.759q4.389-.976,8.166-2.059A64.732,64.732,0,0,0,372.686-40.474ZM357.74-35.29h4.928v32.95A8.351,8.351,0,0,1,362.148.7a4.309,4.309,0,0,1-2.128,2.2,13.053,13.053,0,0,1-4.894,1.122,7.1,7.1,0,0,0-.457-2.063A3.158,3.158,0,0,0,353.56.526,7.508,7.508,0,0,0,351.482-.5a20.53,20.53,0,0,0-3.645-.738v-.67l.733.048q.734.048,1.864.108t2.358.143q1.227.084,2.225.132t1.407.048a1.484,1.484,0,0,0,1.028-.276,1.127,1.127,0,0,0,.287-.849Zm42.769,2.9h11l1.948-2.674.6.542q.6.542,1.43,1.3t1.478,1.456q-.144.768-1.2.768H400.893Zm-1.391,9.434h12.551l2.167-3.064.674.6q.674.6,1.6,1.446a20.74,20.74,0,0,1,1.624,1.638q-.168.768-1.225.768H399.5Zm.245,10.194H411.81l2.047-2.894.661.566q.662.566,1.552,1.385t1.564,1.565q-.169.745-1.2.745H399.746ZM398.179-2.135Q399.907-2.3,403-2.662t7.033-.874q3.937-.515,8.089-1.113l.1.692q-2.754,1.086-6.842,2.6T401.6,2.033a1.7,1.7,0,0,1-1.252,1.082Zm7.587-38.073,5.753.506a1.185,1.185,0,0,1-.4.792,2.413,2.413,0,0,1-1.188.456v16.1h-4.169Zm0,19.907,5.753.53a1.186,1.186,0,0,1-.383.767,2.247,2.247,0,0,1-1.2.433v16.3l-4.169,1.021Zm-20.1-9.31h10.594l2.069-3.285.638.652q.638.652,1.5,1.557t1.513,1.7q-.168.768-1.248.768H386.03Zm5.506-10.936,5.993.6a1.385,1.385,0,0,1-.479.864,2.287,2.287,0,0,1-1.273.456V-1.487a9.163,9.163,0,0,1-.362,2.742A3.265,3.265,0,0,1,393.5,3.1a9.623,9.623,0,0,1-3.706.964,10.143,10.143,0,0,0-.276-1.829,3.21,3.21,0,0,0-.636-1.295,3.447,3.447,0,0,0-1.246-.883A9.034,9.034,0,0,0,385.4-.508v-.718l.611.048q.611.048,1.473.1t1.63.1q.767.048,1.1.048a1.057,1.057,0,0,0,.778-.2.982.982,0,0,0,.18-.657ZM385.333-16.38q1.272-.31,3.675-1.015t5.454-1.672q3.051-.967,6.2-2.019l.19.573q-2.085,1.42-5.266,3.513t-7.411,4.549a1.779,1.779,0,0,1-1.133,1.322ZM418.5-40.327l5.947.6a1.485,1.485,0,0,1-.42.876,2.382,2.382,0,0,1-1.309.492V2.326q0,.265-.521.652a5.006,5.006,0,0,1-1.3.665,4.632,4.632,0,0,1-1.576.279H418.5ZM422.624-25.1a18.274,18.274,0,0,1,4.772,2.6,10.524,10.524,0,0,1,2.568,2.8,5.232,5.232,0,0,1,.809,2.552,3.114,3.114,0,0,1-.527,1.9,1.875,1.875,0,0,1-1.429.8,2.742,2.742,0,0,1-1.908-.753,13.49,13.49,0,0,0-1.035-3.342,28.721,28.721,0,0,0-1.775-3.353,31.385,31.385,0,0,0-2-2.9ZM454.447,2.536a24.174,24.174,0,0,0,5.856-4.3,15.207,15.207,0,0,0,3.536-6.428,16.18,16.18,0,0,0,.772-3.411q.225-1.853.273-3.849t-.024-3.97q-.071-1.974-.143-3.726-.048-1.511-.144-3.259t-.2-3.341q-.108-1.593-.229-2.534a2.47,2.47,0,0,0-.324-1.155,1.582,1.582,0,0,0-.729-.555,6.2,6.2,0,0,0-1.514-.536q-.863-.2-1.779-.366l-.1-.858a13.263,13.263,0,0,1,2.133-.937,6.315,6.315,0,0,1,1.989-.4,7.324,7.324,0,0,1,2.338.434,8.2,8.2,0,0,1,2.205,1.109,1.855,1.855,0,0,1,.928,1.448,3.119,3.119,0,0,1-.335,1.3,5.311,5.311,0,0,0-.384,1.991q-.049.818-.037,2.032t.072,2.5q.06,1.283.108,2.429.1,1.922.216,4.273t.1,4.784a39.587,39.587,0,0,1-.309,4.662,14.468,14.468,0,0,1-1.026,3.931,13.244,13.244,0,0,1-2.97,4.554,15.863,15.863,0,0,1-4.349,3.007A36.178,36.178,0,0,1,454.9,3.4ZM444.242.589A2.453,2.453,0,0,1,442.6-.064a7.343,7.343,0,0,1-1.405-1.721,21.8,21.8,0,0,1-1.857-4.427,23.856,23.856,0,0,1-.9-7.125,26.02,26.02,0,0,1,.455-4.839q.455-2.411,1.03-4.677t1.029-4.274a16.651,16.651,0,0,0,.455-3.652,5.748,5.748,0,0,0-.768-2.892,14.183,14.183,0,0,0-1.913-2.59l.548-.621a12.407,12.407,0,0,1,1.8.659,11.527,11.527,0,0,1,1.463.832,10.278,10.278,0,0,1,1.556,1.361,10.365,10.365,0,0,1,1.578,2.106,4.8,4.8,0,0,1,.674,2.409,4.416,4.416,0,0,1-.468,1.9q-.468.984-1.12,2.211-.8,1.586-1.565,3.466a27.775,27.775,0,0,0-1.261,3.879,16.628,16.628,0,0,0-.492,3.987,13.27,13.27,0,0,0,.238,2.652,7.727,7.727,0,0,0,.6,1.874q.263.527.576.539t.625-.49q.387-.627.928-1.729t1.14-2.466q.6-1.364,1.186-2.739T447.8-18.98l1.055.455q-.407,1.2-.824,2.526t-.835,2.632q-.417,1.3-.728,2.407t-.5,1.826q-.191.792-.322,1.558a10.02,10.02,0,0,0-.131,1.683,5.323,5.323,0,0,0,.2,1.5q.2.7.4,1.416A6.05,6.05,0,0,1,446.3-1.4a1.937,1.937,0,0,1-.545,1.468A2.1,2.1,0,0,1,444.242.589Zm15.552-22.08a11,11,0,0,1-2.97-.42,7.627,7.627,0,0,1-2.9-1.616,11.444,11.444,0,0,1-2.569-3.448l.549-.642a18.653,18.653,0,0,0,3.709,1.881,10.752,10.752,0,0,0,3.633.611,22.96,22.96,0,0,0,3.975-.385,41.076,41.076,0,0,0,4.22-.975,27.85,27.85,0,0,0,3.367-1.168,18.418,18.418,0,0,0,1.783-.837,1.7,1.7,0,0,1,.753-.286,4.447,4.447,0,0,1,2.13.558,1.7,1.7,0,0,1,1.038,1.527,1.905,1.905,0,0,1-.374,1.16,3.52,3.52,0,0,1-1.366.969,21.664,21.664,0,0,1-2.665,1.008q-1.658.528-3.713,1t-4.261.768A32.189,32.189,0,0,1,459.794-21.491ZM504.621,1.816a14.772,14.772,0,0,1-4.877-.746,7.736,7.736,0,0,1-3.354-2.13,4.851,4.851,0,0,1-1.215-3.311A4.342,4.342,0,0,1,496.9-7.934a6.609,6.609,0,0,1,4.248-1.37,8.712,8.712,0,0,1,3.54.778,8.1,8.1,0,0,1,3.077,2.421,8.448,8.448,0,0,1,1.652,4.283l-3.8.679a7.762,7.762,0,0,0-1.832-4.491,4.784,4.784,0,0,0-3.654-1.621,3.392,3.392,0,0,0-2.16.659,2.177,2.177,0,0,0-.839,1.811,2.527,2.527,0,0,0,1.583,2.17,9.824,9.824,0,0,0,4.641.873A16.591,16.591,0,0,0,510.333-3a8.954,8.954,0,0,0,3.982-3.336,8.528,8.528,0,0,0,1.305-4.476,7.7,7.7,0,0,0-.923-3.92,7.284,7.284,0,0,0-2.887-2.871,9.548,9.548,0,0,0-4.769-1.087,13.4,13.4,0,0,0-6.09,1.371,20.391,20.391,0,0,0-5.036,3.593,44.927,44.927,0,0,0-4.343,4.863,6.816,6.816,0,0,1-1.2,1.26,1.89,1.89,0,0,1-1.2.315,1.64,1.64,0,0,1-1.211-.739,2.68,2.68,0,0,1-.484-1.875,3.456,3.456,0,0,1,.557-1.6,11.3,11.3,0,0,1,1.5-1.764l3.876-3.872q2.092-2.091,4.251-4.2t4.069-4.078q1.911-1.969,3.367-3.555a23.355,23.355,0,0,0,2.131-2.6q.509-.678.3-.92a.746.746,0,0,0-.736-.146,11.691,11.691,0,0,0-2.145.649q-1.3.505-2.629,1.095t-2.307,1.1a11.759,11.759,0,0,0-1.274.8,2.185,2.185,0,0,1-1.3.432,3.586,3.586,0,0,1-2.2-.762,6.807,6.807,0,0,1-1.664-1.777,4.8,4.8,0,0,1-.768-1.786,6.287,6.287,0,0,1-.02-1.444,14.34,14.34,0,0,1,.244-1.491l.764-.1a10.556,10.556,0,0,0,1.268,1.994,2.112,2.112,0,0,0,1.649.912,12.363,12.363,0,0,0,1.928-.215q1.257-.215,2.717-.55t2.8-.707q1.342-.372,2.258-.637a4.323,4.323,0,0,0,1.138-.5q.363-.254.628-.435a1.175,1.175,0,0,1,.677-.181,3.845,3.845,0,0,1,1.62.423,8.514,8.514,0,0,1,1.716,1.088,7.177,7.177,0,0,1,1.354,1.415,2.468,2.468,0,0,1,.532,1.4,1.181,1.181,0,0,1-.435.931,5.859,5.859,0,0,1-1.133.736,9.6,9.6,0,0,0-1.513,1q-1.061.768-2.611,2.073t-3.18,2.764q-1.631,1.459-3.02,2.774t-2.131,2.1q-.339.338-.206.543t.469.085q1.384-.475,3.446-1.053a17.4,17.4,0,0,1,4.685-.577,13.222,13.222,0,0,1,5.86,1.3,10.3,10.3,0,0,1,4.25,3.77A10.54,10.54,0,0,1,519.81-9.5a9.832,9.832,0,0,1-1.825,5.7,12.332,12.332,0,0,1-5.179,4.1A19.809,19.809,0,0,1,504.621,1.816Z" transform="translate(103 302)" fill="#fff"/>
      <path id="パス_5028" data-name="パス 5028" d="M12.281-17.363v-2.6l6.367,2.6H45.966v1.739H18.256V3.114q0,.273-.743.712a9.143,9.143,0,0,1-1.912.8,8.066,8.066,0,0,1-2.412.364h-.908Zm29.68,0h-.631L44.294-20.6l6.252,4.772a3.329,3.329,0,0,1-.959.721,6.072,6.072,0,0,1-1.62.571V2.943q0,.18-.864.542a15.216,15.216,0,0,1-2.017.664,8.525,8.525,0,0,1-2.153.3h-.972ZM14.463-1.5H45.942V.243H14.463Zm1.5-26.685H34.645l3.5-4.443.634.5q.634.5,1.63,1.3t2.083,1.706q1.087.906,1.992,1.719-.24.96-1.652.96H16.445ZM31.7-46.759a43.03,43.03,0,0,1-5.3,6.739,68.667,68.667,0,0,1-7.116,6.494A76.566,76.566,0,0,1,11.028-27.8a65.14,65.14,0,0,1-8.784,4.433l-.389-.807a58.967,58.967,0,0,0,7.737-5.482A74.838,74.838,0,0,0,16.9-36.592a63.435,63.435,0,0,0,5.929-7.428,28.247,28.247,0,0,0,3.558-6.93l9.067,2.207a1.4,1.4,0,0,1-.8.828,6.165,6.165,0,0,1-1.912.406,27.827,27.827,0,0,0,4.862,5.15,46.891,46.891,0,0,0,6.242,4.346,63.127,63.127,0,0,0,7.078,3.561q3.687,1.576,7.368,2.825l-.058.9a5.545,5.545,0,0,0-2.226,1.111,6.981,6.981,0,0,0-1.6,1.854,7.344,7.344,0,0,0-.86,2.109,58.914,58.914,0,0,1-8.97-5.51A45.274,45.274,0,0,1,37-38.263,33.993,33.993,0,0,1,31.7-46.759Zm54.866,9.2v-2.328l5.663,2.328h18.677v1.738H91.929v16.14q0,.242-.682.636a8.334,8.334,0,0,1-1.728.712,7.405,7.405,0,0,1-2.165.318h-.787Zm21.852,0h-.54l2.659-2.839,5.61,4.252a2.873,2.873,0,0,1-.821.629,4.438,4.438,0,0,1-1.392.479v14.7q0,.21-.772.618a11.064,11.064,0,0,1-1.817.741,6.644,6.644,0,0,1-2.015.332h-.911ZM89.682-23.164H110.7v1.71H89.682Zm-.355-27.1a18.758,18.758,0,0,1,5.245,2.8,9.8,9.8,0,0,1,2.664,3.078,5.47,5.47,0,0,1,.672,2.827,3.256,3.256,0,0,1-.837,2.077,2.592,2.592,0,0,1-1.847.827,3.371,3.371,0,0,1-2.283-.955,14.789,14.789,0,0,0-.865-3.573,31.474,31.474,0,0,0-1.6-3.615q-.911-1.755-1.809-3.136Zm16.151-.332,7.8,2.327q-.42,1.23-2.251,1.14a58.909,58.909,0,0,1-3.917,5.143,62.112,62.112,0,0,1-4.851,5.172h-.983q.836-1.952,1.612-4.369t1.461-4.88Q105.033-48.522,105.478-50.593ZM64.4-46.445H75.1l2.862-3.766.9.737q.9.737,2.152,1.791T83.226-45.7q-.21.96-1.532.96H64.881Zm-.27,15.3H75.218L77.961-34.7l.858.708q.858.708,2.033,1.7t2.109,1.927q-.24.931-1.561.931H64.611Zm0,7.713H75.1l2.771-3.558.858.693q.858.693,2.048,1.7T82.9-22.649q-.21.93-1.531.93H64.611ZM61.909-38.854H77.2l2.89-3.736.9.722q.9.722,2.138,1.776t2.227,2.016q-.18.931-1.562.931h-21.4Zm2.367,23.047v-2.3l5.389,2.3H79.879v1.739H69.395V3.449q0,.212-.636.62a6.94,6.94,0,0,1-1.635.726,6.857,6.857,0,0,1-2.091.318h-.757Zm12.554,0h-.54l2.566-2.806,5.518,4.221a2.75,2.75,0,0,1-.9.645,5.342,5.342,0,0,1-1.468.465V1.646q0,.21-.726.588a11.072,11.072,0,0,1-1.71.695,6.17,6.17,0,0,1-1.893.317H76.83ZM66.821-1.551H79.848V.188H66.821Zm34.683-21.1h5.3V-2.287a1.17,1.17,0,0,0,.209.794,1.5,1.5,0,0,0,1.015.225h3.881q.609,0,.908-.03a1.023,1.023,0,0,0,.873-.749,11.434,11.434,0,0,0,.573-1.815q.332-1.3.74-3.042t.772-3.539h.747l.18,8.727a2.449,2.449,0,0,1,1.312.983A2.924,2.924,0,0,1,118.3.615a2.347,2.347,0,0,1-.723,1.74,5.2,5.2,0,0,1-2.511,1.1,24.725,24.725,0,0,1-5.03.394h-3.561a8.681,8.681,0,0,1-3.2-.453,2.391,2.391,0,0,1-1.431-1.5A8.9,8.9,0,0,1,101.5-.832Zm-8.968.15h5.936a56.293,56.293,0,0,1-1.035,9.256A26.54,26.54,0,0,1,94.7-5.666,20.971,20.971,0,0,1,89.6.387a30.2,30.2,0,0,1-8.189,4.607l-.359-.806a24.544,24.544,0,0,0,7.367-7.274,24.524,24.524,0,0,0,3.259-8.757A64.411,64.411,0,0,0,92.536-22.506Zm37.393,24.2a69.528,69.528,0,0,0,11.527-7.339,65.963,65.963,0,0,0,9.285-8.861,55.466,55.466,0,0,0,6.765-9.773,42.3,42.3,0,0,0,3.938-10.106q.148-.534-.045-.684a.939.939,0,0,0-.581-.15,23.9,23.9,0,0,0-2.526.2q-1.68.2-3.849.526t-4.487.707q-2.317.376-4.47.767t-3.842.737q-1.69.346-2.53.556a6.9,6.9,0,0,0-2.173.871,3.893,3.893,0,0,1-2.03.631,4.075,4.075,0,0,1-2.414-.951,12.046,12.046,0,0,1-2.258-2.219,7.381,7.381,0,0,1-1.293-2.236,10.294,10.294,0,0,1-.359-1.8q-.088-.858-.116-2.056l.984-.388a25.215,25.215,0,0,0,2.189,2.2,4.039,4.039,0,0,0,2.78,1.032q1.057,0,3.006-.12t4.419-.344q2.469-.224,5.057-.508t4.95-.554q2.362-.27,4.128-.524t2.518-.405a5.921,5.921,0,0,0,1.6-.558l.98-.571a2.16,2.16,0,0,1,1.1-.255,4.836,4.836,0,0,1,2.222.726,15.5,15.5,0,0,1,2.6,1.83,16.408,16.408,0,0,1,2.16,2.206,3.256,3.256,0,0,1,.876,1.826,2.093,2.093,0,0,1-.542,1.45q-.542.6-1.22,1.234a5.419,5.419,0,0,0-1.159,1.62A65.883,65.883,0,0,1,158.8-16.031a55.309,55.309,0,0,1-11.82,10.962,66.361,66.361,0,0,1-16.27,8.018Zm42.743-38.318a1.74,1.74,0,0,1-1.307-.715q-.615-.715-1.451-1.793-.868-1.2-2.127-2.676a23.307,23.307,0,0,0-3.332-3.1l.656-.9a28.757,28.757,0,0,1,4.376,1.687A13.22,13.22,0,0,1,172.664-42a6.145,6.145,0,0,1,1.465,1.766,3.794,3.794,0,0,1,.418,1.709,1.9,1.9,0,0,1-.514,1.358A1.785,1.785,0,0,1,172.673-36.625Zm5.4-4.386a1.772,1.772,0,0,1-1.429-.731q-.586-.731-1.543-1.871-.9-1.079-2.08-2.327a26.387,26.387,0,0,0-3.439-2.906l.626-.866a27.69,27.69,0,0,1,4.331,1.447,15.657,15.657,0,0,1,3.068,1.723A5.582,5.582,0,0,1,179.3-44.76a3.964,3.964,0,0,1,.494,1.907,1.921,1.921,0,0,1-.453,1.343A1.627,1.627,0,0,1,178.075-41.011ZM190.42-16.246a4.089,4.089,0,0,1-2.34-.98,13.22,13.22,0,0,1-2.428-2.383,11.036,11.036,0,0,1-1.629-2.671,5.874,5.874,0,0,1-.373-2.007q-.012-1.043.052-2.037l1.105-.359q.785,1.113,1.493,2.013a5.518,5.518,0,0,0,1.642,1.424,4.754,4.754,0,0,0,2.35.524q1.5,0,3.949-.09t5.381-.24q2.937-.15,5.962-.33t5.751-.36q2.726-.18,4.72-.33t2.808-.18q3-.241,4.84-.5a22.419,22.419,0,0,1,2.949-.257,8.928,8.928,0,0,1,2.914.47,6,6,0,0,1,2.23,1.288,2.587,2.587,0,0,1,.858,1.936,1.856,1.856,0,0,1-.834,1.649,4.716,4.716,0,0,1-2.581.558q-1.684,0-3.516-.075t-4.841-.075q-1.265,0-3.6.09t-5.223.255q-2.887.165-5.758.36t-5.295.375q-2.424.18-3.775.329a14.978,14.978,0,0,0-3.074.589q-1.115.378-1.914.7A4.909,4.909,0,0,1,190.42-16.246ZM239.305-1.59A70.279,70.279,0,0,0,247.736-6.8a92.82,92.82,0,0,0,8.072-6.5,89.188,89.188,0,0,0,7.247-7.31,74.472,74.472,0,0,0,5.939-7.652,45.445,45.445,0,0,0,4.119-7.423q.421-1.084-.689-1-1.187.147-3.112.581t-4.065.975q-2.139.541-4.041,1.067t-3.069.887a4.735,4.735,0,0,0-1.563.724q-.6.452-1.131.814a2.322,2.322,0,0,1-1.341.362,3.9,3.9,0,0,1-2.295-.86,10.024,10.024,0,0,1-2.078-2.052,9.053,9.053,0,0,1-1.263-2.129,10.713,10.713,0,0,1-.433-1.825,14.521,14.521,0,0,1-.159-2.268l1.1-.448q.6.783,1.3,1.607A6.939,6.939,0,0,0,251.8-37.88a3.268,3.268,0,0,0,1.818.538,26.263,26.263,0,0,0,3.006-.225q1.861-.225,4.048-.554t4.344-.719q2.157-.39,3.892-.734t2.633-.583a3.227,3.227,0,0,0,1.266-.618q.543-.438,1.056-.831A1.721,1.721,0,0,1,274.917-42a4.5,4.5,0,0,1,2.008.635,14.434,14.434,0,0,1,2.34,1.571,13.1,13.1,0,0,1,1.917,1.889,2.794,2.794,0,0,1,.769,1.586,1.646,1.646,0,0,1-.619,1.27,10.689,10.689,0,0,1-1.359,1.011A3.783,3.783,0,0,0,278.844-33q-1.082,1.619-2.625,3.942t-3.445,4.886a52.97,52.97,0,0,1-4.149,4.927q-2.07,2.157-4.833,4.725a74.422,74.422,0,0,1-6.281,5.181,64.349,64.349,0,0,1-7.867,4.956,62.456,62.456,0,0,1-9.563,4.112Zm46.107.355a3.113,3.113,0,0,1-1.872-.614,9.342,9.342,0,0,1-1.76-1.767q-.914-1.153-2.193-2.8-1.789-2.493-3.638-4.765a38.461,38.461,0,0,0-4.186-4.365,31.544,31.544,0,0,0-5.678-3.96l1.046-1.285A62.251,62.251,0,0,1,274.88-17.7a45.4,45.4,0,0,1,6.844,3.995A22.825,22.825,0,0,1,286.6-9.162a7.791,7.791,0,0,1,1.815,4.774,3.451,3.451,0,0,1-.774,2.152A2.65,2.65,0,0,1,285.413-1.235Zm45.615-49.295,7.828.693a1.544,1.544,0,0,1-.523,1.02,3.059,3.059,0,0,1-1.543.6V-26.8h-5.762Zm-12.5,9.928h25.118l3.257-4.2.6.482q.6.482,1.537,1.237T351-41.465q1.025.859,1.868,1.643-.24.96-1.652.96H319.006Zm.267,12.657h24.16l3.258-4.258.588.483q.588.483,1.523,1.237t1.945,1.643q1.01.889,1.854,1.673-.24.931-1.652.931h-31.2Zm-21.357-2.483q1.379-.328,3.734-.969t5.31-1.506q2.955-.865,6.044-1.79l.207.687q-1.7,1.414-4.35,3.461t-6.271,4.638a1.975,1.975,0,0,1-1.267,1.563Zm13.883-20.014,7.645.724a1.632,1.632,0,0,1-.54,1.05,3.021,3.021,0,0,1-1.68.6v24.707q0,.211-.682.573a8.661,8.661,0,0,1-1.7.649,7.507,7.507,0,0,1-2.046.286h-1Zm-10.463,2.927a16.71,16.71,0,0,1,5.075,2.344,7.922,7.922,0,0,1,2.493,2.738,4.293,4.293,0,0,1,.487,2.558,3.115,3.115,0,0,1-.99,1.9A2.654,2.654,0,0,1,306-37.29a3.555,3.555,0,0,1-2.266-1.092,10.514,10.514,0,0,0-.546-3.111,20.626,20.626,0,0,0-1.291-3.064,14.567,14.567,0,0,0-1.667-2.57Zm21.373,23.561,7.68.662a1.514,1.514,0,0,1-.464.961,2.856,2.856,0,0,1-1.486.57v4.315h-5.73Zm-24.815,5.912h46.347l3.256-4.225.6.482q.6.482,1.537,1.251t1.944,1.628q1.01.859,1.853,1.643-.24.96-1.651.96H297.923Zm15.912,8.173L318.9-12.9V-.8a3.671,3.671,0,0,1-1.256.5A11.814,11.814,0,0,1,314.3.072h-.972Zm6.746-8.143h7.708v.96a35.709,35.709,0,0,1-8,5.535,63.909,63.909,0,0,1-10.321,4.211,98.74,98.74,0,0,1-11.813,2.9l-.418-.866A69.981,69.981,0,0,0,306.2-8.747a60.046,60.046,0,0,0,7.829-4.394A39.81,39.81,0,0,0,320.073-18.011ZM304.449-1.173q2.581-.208,6.994-.685t9.982-1.163q5.569-.687,11.543-1.463l.12.927Q329.223-2.171,323.5-.364T309.513,3.765a2.194,2.194,0,0,1-.632.915,2.608,2.608,0,0,1-.872.465Zm22.38-16.9a21.731,21.731,0,0,0,4.32,6.57,29.082,29.082,0,0,0,6.256,4.926,41.318,41.318,0,0,0,7.62,3.482A61.808,61.808,0,0,0,353.5-.858l-.09.662a5.26,5.26,0,0,0-2.966,1.7A8.462,8.462,0,0,0,348.69,4.9a46.947,46.947,0,0,1-9.962-4.906,30.449,30.449,0,0,1-7.679-7.232,33.46,33.46,0,0,1-5.085-10.324Zm15.963,1.82,6.13,4.294a1.33,1.33,0,0,1-.794.54,3.238,3.238,0,0,1-1.486-.149,36.459,36.459,0,0,1-3.684,1.448q-2.149.73-4.478,1.324T333.9-7.757l-.627-.748q1.707-1.051,3.533-2.433t3.413-2.793A31.275,31.275,0,0,0,342.792-16.253ZM389.456-30.7V-3q0,.331-1.074.951a5.846,5.846,0,0,1-2.92.62h-.818v-30.5l.49-.794,5.072,2.02Zm-1.752,0h20.279v1.739H387.7Zm17.829,0h-.571l2.419-2.81,5.611,4.194a2.635,2.635,0,0,1-.87.676,4.811,4.811,0,0,1-1.47.5V-8.334a11.819,11.819,0,0,1-.392,3.276,3.711,3.711,0,0,1-1.66,2.143,9.416,9.416,0,0,1-3.954,1.07q-.03-1.211-.149-2.195A3.518,3.518,0,0,0,403.99-5.6a2.836,2.836,0,0,0-.985-1.028,5.08,5.08,0,0,0-1.854-.633v-.9l.7.06q.7.06,1.548.119t1.237.059a.86.86,0,0,0,.719-.24,1.254,1.254,0,0,0,.18-.748ZM388.323-50.744l7.9,2.152a1.792,1.792,0,0,1-.721.945,2.668,2.668,0,0,1-1.531.375A50.577,50.577,0,0,1,388.981-36.8a32.3,32.3,0,0,1-6.726,7.764l-.807-.537a41.171,41.171,0,0,0,2.885-6.009,69.823,69.823,0,0,0,2.377-7.267A65.1,65.1,0,0,0,388.323-50.744Zm.369,9.975h14.914l3.53-4.653.634.528,1.63,1.358q1,.83,2.082,1.766t1.96,1.778q-.21.96-1.622.96H388.692ZM372.158-47.3a26.152,26.152,0,0,1,6.159,2.693,10.619,10.619,0,0,1,3.133,2.82,4.133,4.133,0,0,1,.831,2.524,2.721,2.721,0,0,1-.793,1.833,2.509,2.509,0,0,1-1.739.72,2.98,2.98,0,0,1-2.023-.819,25.325,25.325,0,0,0-2.4-4.615,29.906,29.906,0,0,0-3.979-5.005Zm-3.665,7.5,6.368.632a1.378,1.378,0,0,1-.4.824,2.033,2.033,0,0,1-1.153.465v5.857h-4.811Zm-4.6,14.822h14.209v1.738H363.9Zm0,7.946h14.209V-15.3H363.9Zm8.327,5.453a24.27,24.27,0,0,1,5.718,3.195,12.871,12.871,0,0,1,3.125,3.367,6.654,6.654,0,0,1,1.047,3.069,3.632,3.632,0,0,1-.535,2.258,2.158,2.158,0,0,1-1.635.962,3.167,3.167,0,0,1-2.221-.8,16.815,16.815,0,0,0-1.4-4.012,40.671,40.671,0,0,0-2.3-4.1q-1.285-2.012-2.482-3.546Zm-14.785,9.86q1.8-.357,5-1.116t7.221-1.815q4.023-1.057,8.286-2.188l.237.687q-2.6,1.713-6.527,4.1t-9.388,5.426A2.11,2.11,0,0,1,360.909,4.9Zm15.234-45.219a50.579,50.579,0,0,1-4.011,5.848,55.179,55.179,0,0,1-5.409,5.935,40.985,40.985,0,0,1-6.3,4.945l-.6-.567a35.077,35.077,0,0,0,3.534-4.444q1.736-2.552,3.277-5.315t2.737-5.434a41.728,41.728,0,0,0,1.853-4.831l7.406,2.69a1.6,1.6,0,0,1-.767.842A4.014,4.014,0,0,1,372.673-46.941ZM361.8-32.719v-2.265l5.236,2.265h11.092v1.739H366.77V-2.332q0,.243-.591.666a5.819,5.819,0,0,1-1.545.741,6.428,6.428,0,0,1-2.044.318H361.8Zm13.427,0h.091l2.357-2.5,4.555,3.981a4.268,4.268,0,0,1-.87.63,3.8,3.8,0,0,1-1.29.45v16.126a2.555,2.555,0,0,1-.65.376,7.936,7.936,0,0,1-1.468.512,7.263,7.263,0,0,1-1.817.226h-.908Zm19.542-7.176h5V3.336q0,.33-1.164,1.008a5.866,5.866,0,0,1-2.982.678h-.849Z" transform="translate(160 380)" fill="#fff"/>
      <path id="パス_5026" data-name="パス 5026" d="M9.416-13.311v-1.995L14.3-13.311H35.24v1.333H14V2.388q0,.209-.57.546a7.01,7.01,0,0,1-1.466.616,6.184,6.184,0,0,1-1.849.279h-.7Zm22.755,0h-.484l2.272-2.48,4.793,3.658a2.552,2.552,0,0,1-.735.553,4.655,4.655,0,0,1-1.242.438v13.4q0,.138-.662.416a11.666,11.666,0,0,1-1.546.509,6.536,6.536,0,0,1-1.651.231h-.745ZM11.088-1.147H35.222V.186H11.088ZM12.24-21.606H26.561l2.685-3.406.486.382q.486.382,1.25,1t1.6,1.308q.833.694,1.527,1.318-.184.736-1.266.736H12.608ZM24.3-35.848a32.99,32.99,0,0,1-4.062,5.167A52.645,52.645,0,0,1,14.786-25.7a58.7,58.7,0,0,1-6.331,4.389,49.94,49.94,0,0,1-6.735,3.4l-.3-.619a45.209,45.209,0,0,0,5.932-4.2,57.377,57.377,0,0,0,5.605-5.317A48.634,48.634,0,0,0,17.5-33.749a21.656,21.656,0,0,0,2.728-5.313l6.952,1.692a1.077,1.077,0,0,1-.612.635,4.726,4.726,0,0,1-1.466.312,21.334,21.334,0,0,0,3.727,3.948,35.949,35.949,0,0,0,4.786,3.332,48.4,48.4,0,0,0,5.426,2.73q2.827,1.209,5.649,2.166l-.045.691a4.251,4.251,0,0,0-1.706.852,5.352,5.352,0,0,0-1.228,1.421,5.63,5.63,0,0,0-.659,1.617A45.168,45.168,0,0,1,34.18-23.89a34.71,34.71,0,0,1-5.817-5.445A26.062,26.062,0,0,1,24.3-35.848Zm42.064,7.055v-1.785l4.342,1.785H85.029v1.333H70.479v12.374q0,.185-.523.487a6.389,6.389,0,0,1-1.325.546,5.677,5.677,0,0,1-1.66.244h-.6Zm16.753,0h-.414l2.038-2.176,4.3,3.26a2.2,2.2,0,0,1-.63.482,3.4,3.4,0,0,1-1.067.367v11.267q0,.161-.592.474a8.483,8.483,0,0,1-1.393.568,5.094,5.094,0,0,1-1.545.255h-.7ZM68.756-17.759H84.867v1.311H68.756Zm-.272-20.775a14.381,14.381,0,0,1,4.021,2.146,7.511,7.511,0,0,1,2.043,2.36,4.193,4.193,0,0,1,.515,2.167,2.5,2.5,0,0,1-.642,1.593A1.987,1.987,0,0,1,73-29.634a2.585,2.585,0,0,1-1.75-.732,11.338,11.338,0,0,0-.663-2.74,24.13,24.13,0,0,0-1.225-2.772q-.7-1.345-1.387-2.4Zm12.383-.254L86.846-37q-.322.943-1.726.874a45.163,45.163,0,0,1-3,3.943A47.619,47.619,0,0,1,78.4-28.222h-.754q.641-1.5,1.236-3.35T80-35.313Q80.525-37.2,80.867-38.788Zm-31.493,3.18h8.2l2.194-2.887.692.565q.692.565,1.65,1.373t1.7,1.523q-.161.736-1.174.736H49.742Zm-.207,11.733h8.5l2.1-2.728.658.543q.658.543,1.559,1.3T63.6-23.278q-.184.714-1.2.714H49.535Zm0,5.913h8.411L59.7-20.689l.658.531q.658.531,1.57,1.3t1.628,1.489q-.161.713-1.174.713H49.535Zm-1.7-11.826H59.185L61.4-32.652l.693.554q.693.554,1.639,1.362t1.707,1.545q-.138.714-1.2.714H47.831Zm1.815,17.669v-1.759l4.131,1.759H61.24v1.333H53.2V2.644q0,.162-.488.475a5.32,5.32,0,0,1-1.254.557,5.257,5.257,0,0,1-1.6.244h-.58Zm9.625,0h-.414l1.967-2.151,4.231,3.236A2.108,2.108,0,0,1,64-10.54a4.1,4.1,0,0,1-1.126.356V1.262q0,.161-.557.451a8.489,8.489,0,0,1-1.311.533,4.73,4.73,0,0,1-1.451.243H58.9ZM51.23-1.189h9.987V.144H51.23Zm26.59-16.18h4.065V-1.753a.9.9,0,0,0,.16.609,1.146,1.146,0,0,0,.778.173H85.8q.467,0,.7-.023a.784.784,0,0,0,.669-.574A8.766,8.766,0,0,0,87.6-2.96q.254-1,.567-2.332t.592-2.713h.573l.138,6.691a1.878,1.878,0,0,1,1.006.754A2.242,2.242,0,0,1,90.7.472a1.8,1.8,0,0,1-.554,1.334,3.986,3.986,0,0,1-1.925.847,18.956,18.956,0,0,1-3.856.3h-2.73a6.655,6.655,0,0,1-2.45-.347,1.833,1.833,0,0,1-1.1-1.146,6.826,6.826,0,0,1-.265-2.1Zm-6.876.115H75.5a43.158,43.158,0,0,1-.794,7.1,20.348,20.348,0,0,1-2.1,5.814A16.077,16.077,0,0,1,68.689.3a23.15,23.15,0,0,1-6.278,3.532l-.275-.618a18.817,18.817,0,0,0,5.648-5.576,18.8,18.8,0,0,0,2.5-6.713A49.382,49.382,0,0,0,70.944-17.254ZM99.612,1.3a53.305,53.305,0,0,0,8.838-5.627,50.571,50.571,0,0,0,7.118-6.793,42.524,42.524,0,0,0,5.187-7.493,32.426,32.426,0,0,0,3.019-7.748q.114-.41-.035-.525a.72.72,0,0,0-.445-.115,18.327,18.327,0,0,0-1.937.15q-1.288.15-2.951.4t-3.44.542q-1.777.288-3.427.588t-2.946.565q-1.3.265-1.94.426a5.288,5.288,0,0,0-1.666.668,2.985,2.985,0,0,1-1.556.484,3.124,3.124,0,0,1-1.851-.729,9.235,9.235,0,0,1-1.731-1.7,5.659,5.659,0,0,1-.991-1.714,7.892,7.892,0,0,1-.275-1.378q-.068-.658-.089-1.577l.755-.3a19.33,19.33,0,0,0,1.678,1.69,3.1,3.1,0,0,0,2.131.791q.81,0,2.3-.092t3.388-.263q1.893-.172,3.877-.39t3.8-.424q1.811-.207,3.165-.4t1.93-.311a4.539,4.539,0,0,0,1.228-.428l.751-.438a1.656,1.656,0,0,1,.846-.2,3.707,3.707,0,0,1,1.7.557,11.88,11.88,0,0,1,1.992,1.4,12.579,12.579,0,0,1,1.656,1.691,2.5,2.5,0,0,1,.672,1.4,1.6,1.6,0,0,1-.416,1.112q-.416.462-.935.946a4.155,4.155,0,0,0-.888,1.242,50.51,50.51,0,0,1-6.383,10.392,42.4,42.4,0,0,1-9.062,8.4,50.877,50.877,0,0,1-12.474,6.147Zm32.77-29.377a1.334,1.334,0,0,1-1-.548q-.471-.548-1.113-1.375-.666-.921-1.631-2.052a17.869,17.869,0,0,0-2.554-2.377l.5-.687a22.046,22.046,0,0,1,3.355,1.294,10.136,10.136,0,0,1,2.435,1.623,4.711,4.711,0,0,1,1.123,1.354,2.909,2.909,0,0,1,.321,1.31,1.457,1.457,0,0,1-.394,1.041A1.368,1.368,0,0,1,132.382-28.079Zm4.142-3.362a1.358,1.358,0,0,1-1.1-.561q-.449-.561-1.183-1.435-.687-.827-1.595-1.784a20.23,20.23,0,0,0-2.637-2.228l.48-.664A21.229,21.229,0,0,1,133.815-37a12,12,0,0,1,2.352,1.321,4.28,4.28,0,0,1,1.3,1.367,3.039,3.039,0,0,1,.379,1.462,1.473,1.473,0,0,1-.347,1.03A1.247,1.247,0,0,1,136.524-31.442Zm9.464,18.986a3.135,3.135,0,0,1-1.794-.751,10.135,10.135,0,0,1-1.861-1.827,8.461,8.461,0,0,1-1.249-2.048,4.5,4.5,0,0,1-.286-1.538q-.009-.8.04-1.561l.847-.275q.6.853,1.144,1.543a4.231,4.231,0,0,0,1.259,1.092,3.645,3.645,0,0,0,1.8.4q1.154,0,3.028-.069t4.126-.184q2.251-.115,4.571-.253t4.409-.276q2.09-.138,3.619-.253t2.153-.138q2.3-.185,3.711-.382a17.188,17.188,0,0,1,2.261-.2,6.845,6.845,0,0,1,2.234.36,4.6,4.6,0,0,1,1.71.988,1.984,1.984,0,0,1,.658,1.485,1.423,1.423,0,0,1-.64,1.264,3.616,3.616,0,0,1-1.979.428q-1.291,0-2.7-.058t-3.711-.058q-.97,0-2.76.069t-4,.2q-2.213.126-4.415.276t-4.059.287q-1.858.138-2.894.252a11.483,11.483,0,0,0-2.356.451q-.855.29-1.467.533A3.763,3.763,0,0,1,145.989-12.455ZM183.467-1.219a53.881,53.881,0,0,0,6.464-3.992,71.165,71.165,0,0,0,6.189-4.983,68.377,68.377,0,0,0,5.556-5.6,57.1,57.1,0,0,0,4.553-5.867,34.842,34.842,0,0,0,3.158-5.691q.323-.831-.528-.763-.91.113-2.386.446t-3.116.747q-1.64.415-3.1.818t-2.353.68a3.63,3.63,0,0,0-1.2.555q-.462.347-.867.624a1.78,1.78,0,0,1-1.028.277,2.991,2.991,0,0,1-1.76-.659,7.685,7.685,0,0,1-1.593-1.573,6.941,6.941,0,0,1-.968-1.632,8.214,8.214,0,0,1-.332-1.4,11.132,11.132,0,0,1-.122-1.739l.847-.344q.463.6,1,1.232a5.32,5.32,0,0,0,1.167,1.044,2.505,2.505,0,0,0,1.394.413,20.134,20.134,0,0,0,2.3-.172q1.427-.172,3.1-.425t3.33-.551q1.653-.3,2.984-.562t2.019-.447a2.474,2.474,0,0,0,.97-.474q.416-.336.81-.637a1.319,1.319,0,0,1,.81-.3,3.448,3.448,0,0,1,1.54.487,11.066,11.066,0,0,1,1.794,1.2,10.041,10.041,0,0,1,1.469,1.448,2.142,2.142,0,0,1,.59,1.216,1.262,1.262,0,0,1-.475.974,8.2,8.2,0,0,1-1.042.775,2.9,2.9,0,0,0-.865.793q-.829,1.241-2.013,3.022t-2.641,3.746a40.613,40.613,0,0,1-3.181,3.777q-1.587,1.654-3.705,3.622a57.056,57.056,0,0,1-4.815,3.972,49.335,49.335,0,0,1-6.032,3.8,47.883,47.883,0,0,1-7.332,3.152Zm35.349.272a2.387,2.387,0,0,1-1.435-.471,7.163,7.163,0,0,1-1.349-1.355q-.7-.884-1.681-2.145-1.371-1.911-2.789-3.653a29.488,29.488,0,0,0-3.21-3.346A24.184,24.184,0,0,0,204-14.953l.8-.985a47.725,47.725,0,0,1,5.94,2.365,34.81,34.81,0,0,1,5.247,3.063,17.5,17.5,0,0,1,3.739,3.487,5.973,5.973,0,0,1,1.392,3.66,2.646,2.646,0,0,1-.594,1.65A2.031,2.031,0,0,1,218.816-.947ZM245.593.777a7.731,7.731,0,0,1-2.8-.494,4.812,4.812,0,0,1-2.06-1.449,3.537,3.537,0,0,1-.775-2.3,3.593,3.593,0,0,1,.963-2.591A5.727,5.727,0,0,1,243.5-7.543a12.355,12.355,0,0,1,3.508-.477,16.56,16.56,0,0,1,4.756.6,13.726,13.726,0,0,1,3.359,1.463,12.464,12.464,0,0,1,2.144,1.643,4.505,4.505,0,0,1,.817,1.032,2.17,2.17,0,0,1,.289,1.066,1.674,1.674,0,0,1-.327,1.1,1.116,1.116,0,0,1-.91.394,1.452,1.452,0,0,1-.925-.342q-.428-.342-1.132-.995a16.03,16.03,0,0,0-2.83-2.2,12.4,12.4,0,0,0-3.121-1.339,13.653,13.653,0,0,0-3.635-.456,6.626,6.626,0,0,0-1.916.28,4.146,4.146,0,0,0-1.533.8,1.624,1.624,0,0,0-.6,1.281,1.543,1.543,0,0,0,.976,1.49,5.412,5.412,0,0,0,2.313.457,6.745,6.745,0,0,0,2.717-.424,2.354,2.354,0,0,0,1.259-1.254,5.578,5.578,0,0,0,.341-2.1q0-.694-.059-1.846t-.136-2.574q-.076-1.423-.136-2.931t-.076-2.883q0-1.114.009-2.444t.009-2.5v-1.763a3.21,3.21,0,0,0-.086-.876.829.829,0,0,0-.24-.4,1.256,1.256,0,0,0-.444-.214,6.166,6.166,0,0,0-1.141-.291q-.63-.1-1.274-.172l-.086-.609a10.954,10.954,0,0,1,1.391-.7,3.711,3.711,0,0,1,1.425-.336,5.746,5.746,0,0,1,1.875.307,5.189,5.189,0,0,1,1.478.751,1.2,1.2,0,0,1,.58.9,2.075,2.075,0,0,1-.094.656q-.094.281-.222.655a7.315,7.315,0,0,0-.246,1.051q-.12.613-.222,1.572t-.163,2.108q-.061,1.149-.061,2.348,0,2.6.179,4.837t.358,4q.179,1.76.179,2.932a4.775,4.775,0,0,1-.648,2.533A4.069,4.069,0,0,1,249.178.216,9.618,9.618,0,0,1,245.593.777Zm-11.707.8a1.673,1.673,0,0,1-1.052-.4,4.92,4.92,0,0,1-.95-1.032,9.681,9.681,0,0,1-1.024-2.01,14.894,14.894,0,0,1-.756-2.815,19.823,19.823,0,0,1-.28-3.431,22.267,22.267,0,0,1,.28-3.526q.28-1.75.645-3.266t.636-2.535q.34-1.242.577-2.264a9.659,9.659,0,0,0,.254-2.031,3.883,3.883,0,0,0-.545-2.031,12.671,12.671,0,0,0-1.321-1.868l.438-.39a8.446,8.446,0,0,1,1.226.425,6.192,6.192,0,0,1,1.053.631,6.167,6.167,0,0,1,1.069.963,8.2,8.2,0,0,1,1.1,1.509,3.372,3.372,0,0,1,.478,1.69,2.672,2.672,0,0,1-.357,1.286q-.357.654-.969,1.991-.514,1.04-1.094,2.494a21.834,21.834,0,0,0-.971,3.137,15.017,15.017,0,0,0-.392,3.415,9.842,9.842,0,0,0,.126,1.72,4.031,4.031,0,0,0,.345,1.116q.17.341.4.367t.452-.349A14.972,14.972,0,0,0,234-6.963q.451-.89.953-1.95t.978-2.052q.476-.992.783-1.638l.78.356q-.238.681-.577,1.614t-.678,1.9q-.339.966-.626,1.78t-.423,1.29q-.221.922-.348,1.5a4.732,4.732,0,0,0-.127.986A4.879,4.879,0,0,0,235-1.515a4.562,4.562,0,0,1,.291,1.543Q235.294,1.575,233.886,1.575ZM245.154-15.8a8.1,8.1,0,0,1-1.983-.23,4.094,4.094,0,0,1-1.762-1.015,9.413,9.413,0,0,1-1.733-2.412l.44-.405a10.447,10.447,0,0,0,2.309,1.223,6.791,6.791,0,0,0,2.364.423,20.108,20.108,0,0,0,3.014-.211,20.381,20.381,0,0,0,2.49-.524q1.1-.313,1.836-.584a21.707,21.707,0,0,0,2.154-.848,2.717,2.717,0,0,1,.83-.317,3.664,3.664,0,0,1,1.508.377,1.122,1.122,0,0,1,.752,1.028,1.134,1.134,0,0,1-.436.985,7.321,7.321,0,0,1-1.463.727q-.61.22-1.74.535t-2.567.595q-1.437.28-2.985.467A25.243,25.243,0,0,1,245.154-15.8Zm23.807,5.779h16.9v.985h-16.9Zm0-5.591h16.9v.969h-16.9Zm0-5.539h16.9v.985h-16.9Zm15.34-5.421h-.34l1.627-1.815,3.387,2.634a1.557,1.557,0,0,1-.535.409,3.794,3.794,0,0,1-.892.306v16.8q0,.119-.455.341a7.812,7.812,0,0,1-1.082.419,3.988,3.988,0,0,1-1.194.2H284.3Zm-17.061,0v-1.456l3.435,1.456h15.594v.968H270.453V-8.08q0,.189-.387.455a3.834,3.834,0,0,1-1.006.464,4.272,4.272,0,0,1-1.306.2h-.515Zm11.591,16.568h3.177v8.588a.519.519,0,0,0,.212.484,2.6,2.6,0,0,0,1.059.127h4.93q.762,0,1.119-.034a1.06,1.06,0,0,0,.486-.136,1.02,1.02,0,0,0,.282-.357,8.707,8.707,0,0,0,.583-1.732q.325-1.256.755-2.855h.423l.085,4.775a1.881,1.881,0,0,1,.924.549,1.289,1.289,0,0,1,.222.772,1.335,1.335,0,0,1-.546,1.1,4.52,4.52,0,0,1-2.02.643,31.94,31.94,0,0,1-4.282.215h-3.616a8.68,8.68,0,0,1-2.374-.248,1.7,1.7,0,0,1-1.119-.873,4.06,4.06,0,0,1-.3-1.722Zm-6.659.478h3.606a13.965,13.965,0,0,1-1.91,6.073A11.058,11.058,0,0,1,269.384.5a26.984,26.984,0,0,1-7.609,2.3l-.135-.474A21.043,21.043,0,0,0,267.59-.45a10.058,10.058,0,0,0,3.281-3.815A14.7,14.7,0,0,0,272.172-9.527ZM299.527,1.248a1.257,1.257,0,0,1-1.049-.61,2.426,2.426,0,0,1-.43-1.435,2.238,2.238,0,0,1,.181-.954,4.821,4.821,0,0,1,.5-.815,11.548,11.548,0,0,0,.7-1.082A46.528,46.528,0,0,0,301.779-7.8a48.036,48.036,0,0,0,2.441-5.836q.407-1.187.805-2.6t.737-2.854q.339-1.436.568-2.659t.3-2a1.8,1.8,0,0,0-.093-.9,1.634,1.634,0,0,0-.585-.581,6.508,6.508,0,0,0-.958-.454,11.079,11.079,0,0,0-1.1-.352l.033-.624a8.9,8.9,0,0,1,1.239-.345,5.273,5.273,0,0,1,1.289-.087,6.232,6.232,0,0,1,1.754.3,5.851,5.851,0,0,1,1.518.7q.621.418.621.861a2.225,2.225,0,0,1-.171.812q-.171.435-.446,1.069t-.6,1.666q-.236.827-.643,2.31t-.924,3.24q-.517,1.757-1.11,3.42-.524,1.559-1.16,3.343t-1.307,3.519q-.67,1.735-1.307,3.19A25.329,25.329,0,0,1,301.515-.3,5.217,5.217,0,0,1,300.7.844,1.59,1.59,0,0,1,299.527,1.248ZM318.356.994A13.212,13.212,0,0,1,314.268.42,6.747,6.747,0,0,1,311.411-1.3a5.592,5.592,0,0,1-1.427-2.871,6.975,6.975,0,0,1-.288-1.832q-.022-.934.015-1.712l.675-.067a14.952,14.952,0,0,0,.364,1.536,5.806,5.806,0,0,0,.739,1.605,5.134,5.134,0,0,0,2.475,1.989,10.231,10.231,0,0,0,3.626.577,15.908,15.908,0,0,0,2.587-.17q.994-.17,1.6-.323a4.2,4.2,0,0,1,.991-.153,3.807,3.807,0,0,1,1.124.172,2.132,2.132,0,0,1,.919.541,1.33,1.33,0,0,1,.361.971,1.147,1.147,0,0,1-.578.984,4.436,4.436,0,0,1-1.5.59q-.783.171-1.948.316A23.028,23.028,0,0,1,318.356.994ZM301.989-16.638a6.648,6.648,0,0,1-2.09-.307,3.663,3.663,0,0,1-1.651-1.161,7.8,7.8,0,0,1-1.283-2.463l.49-.354a10.709,10.709,0,0,0,2.112,1.358,5.1,5.1,0,0,0,2.037.423,16.9,16.9,0,0,0,2.985-.229q1.472-.246,2.525-.534A25.682,25.682,0,0,0,310.3-20.95q1.335-.552,2.305-1.063l.8-.446a1.244,1.244,0,0,1,.563-.189,3,3,0,0,1,.857.146,2.3,2.3,0,0,1,.841.455,1.034,1.034,0,0,1,.361.826,1.291,1.291,0,0,1-.542,1.045,8.123,8.123,0,0,1-2,.977q-.514.2-1.619.569t-2.446.745q-1.341.381-2.632.652-1.019.2-2.37.4A17.2,17.2,0,0,1,301.989-16.638Zm14.265,5.08q.543-.356,1.221-.832t1.254-.926a9.772,9.772,0,0,0,.762-.637q.321-.323-.153-.475a6.105,6.105,0,0,0-1.376-.3,13.9,13.9,0,0,0-1.581-.094,17.329,17.329,0,0,0-2.023.127q-1.077.127-2.217.347l-.2-.623a15.548,15.548,0,0,1,3.093-1.263,12.819,12.819,0,0,1,3.711-.541,11,11,0,0,1,2.795.3,8.4,8.4,0,0,1,1.689.605,2.946,2.946,0,0,1,1.024.873,1.726,1.726,0,0,1,.324.975.99.99,0,0,1-.453.893,2.728,2.728,0,0,1-1.363.326,8.436,8.436,0,0,0-.954.092,7.782,7.782,0,0,0-1.175.293,16.974,16.974,0,0,0-2.047.606q-1.071.387-1.972.759Zm18.359-14.405v-1.543l3.625,1.543h16.8v.985H338V1.541q0,.206-.387.515A3.654,3.654,0,0,1,336.6,2.6a4.017,4.017,0,0,1-1.4.232h-.583Zm18.213,0h-.374l1.766-2,3.643,2.892a2.1,2.1,0,0,1-.594.451,3.509,3.509,0,0,1-.968.332V1.423q-.017.137-.49.419a5.737,5.737,0,0,1-1.151.505,4.256,4.256,0,0,1-1.333.223h-.5Zm-16.615,8.127h18.522v.969H336.211Zm0,8.246h18.522V-8.6H336.211Zm0,8.417h18.522v.985H336.211Zm54.9-18.148a1.012,1.012,0,0,1-.774-.405q-.348-.405-.806-1.017-.492-.681-1.205-1.524a12.309,12.309,0,0,0-1.888-1.749l.389-.525a18.565,18.565,0,0,1,2.463.965,7.053,7.053,0,0,1,1.8,1.208,3.538,3.538,0,0,1,.83.993,2.1,2.1,0,0,1,.237.96,1.1,1.1,0,0,1-.291.786A.991.991,0,0,1,391.115-19.321ZM365.895,1.235a1.3,1.3,0,0,1-.944-.472,1.787,1.787,0,0,1-.446-1.278,3.21,3.21,0,0,1,.137-1.02,3.176,3.176,0,0,1,.547-.914q.882-1.119,1.741-2.378t1.735-2.748q.876-1.489,1.757-3.237.7-1.432,1.377-2.987t1.272-3.074q.593-1.519,1.033-2.816t.693-2.238a6.034,6.034,0,0,0,.253-1.316,1.484,1.484,0,0,0-.1-.571.8.8,0,0,0-.424-.4,4.046,4.046,0,0,0-1.146-.4q-.737-.163-1.4-.266v-.608a8.054,8.054,0,0,1,1.145-.456,5.148,5.148,0,0,1,1.575-.215,4.949,4.949,0,0,1,1.287.2,7.566,7.566,0,0,1,1.442.563,6.012,6.012,0,0,1,1.169.76,1.1,1.1,0,0,1,.469.8,1.34,1.34,0,0,1-.231.768q-.231.342-.53.7a3.566,3.566,0,0,0-.521.872q-.339.815-.908,2.191T375.6-16.267q-.7,1.665-1.451,3.361t-1.422,3.152q-.627,1.34-1.3,2.71T370.1-4.385q-.655,1.287-1.251,2.369T367.763-.136a3.5,3.5,0,0,1-.891,1.089A1.683,1.683,0,0,1,365.895,1.235Zm9.756-.357a1.753,1.753,0,0,1-1.323-.427,3.855,3.855,0,0,1-.725-1.474,2.9,2.9,0,0,0-.271-.589,5.1,5.1,0,0,0-.6-.749q-.432-.468-1.314-1.319l.338-.491q1.325.727,2.352,1.217a4.131,4.131,0,0,0,1.657.49,2.73,2.73,0,0,0,1.367-.313A3.473,3.473,0,0,0,378.22-3.9a7.4,7.4,0,0,0,1-1.84,19.615,19.615,0,0,0,.791-2.521,25.162,25.162,0,0,0,.526-2.841,22.325,22.325,0,0,0,.186-2.819,4.318,4.318,0,0,0-.5-2.334,1.978,1.978,0,0,0-1.788-.762,8.739,8.739,0,0,0-1.918.264q-1.138.264-2.379.674t-2.365.845q-1.124.435-1.875.761-.964.39-1.518.645a2.877,2.877,0,0,1-1.218.255,1.786,1.786,0,0,1-1.04-.444,4.87,4.87,0,0,1-1.032-1.094,3.575,3.575,0,0,1-.588-1.282,3.232,3.232,0,0,1-.007-1.128,6.6,6.6,0,0,1,.267-1.055l.557-.118q.395.767.745,1.342a1.132,1.132,0,0,0,1.029.575,8.107,8.107,0,0,0,1.387-.161q.875-.161,1.971-.39t2.279-.483q1.183-.254,2.31-.458.784-.17,1.974-.331a15.639,15.639,0,0,1,2.056-.161,3.971,3.971,0,0,1,3.134,1.312q1.159,1.312,1.159,4.533a25.371,25.371,0,0,1-.382,4.322,21.8,21.8,0,0,1-1.131,4.151,10.85,10.85,0,0,1-1.91,3.268A6.4,6.4,0,0,1,378.051.3,5.114,5.114,0,0,1,375.651.878Zm16.367-7.467a1.138,1.138,0,0,1-.819-.264,6.1,6.1,0,0,1-.538-.6,1.532,1.532,0,0,0-.81-.488A5.574,5.574,0,0,0,388.8-8.1q-.7-.053-1.442-.073t-1.341.013l-.152-.693q.682-.171,1.4-.341t1.342-.339q.624-.169,1.03-.322a1.551,1.551,0,0,0,.768-.546,1.749,1.749,0,0,0,.173-1,8.343,8.343,0,0,0-.288-1.787,6.971,6.971,0,0,0-.984-2.144,6.766,6.766,0,0,0-1.7-1.753,6.877,6.877,0,0,0-2.509-1.056l.285-.693a11.56,11.56,0,0,1,3.372.792,7.9,7.9,0,0,1,2.687,1.818,7.472,7.472,0,0,1,1.856,2.873,10.557,10.557,0,0,1,.622,3.667,4.615,4.615,0,0,1-.472,2.2A1.565,1.565,0,0,1,392.018-6.589Zm2.348-15.252a1.009,1.009,0,0,1-.793-.431q-.349-.431-.875-1.06-.508-.628-1.187-1.327a16.564,16.564,0,0,0-1.94-1.638l.354-.507a19.255,19.255,0,0,1,2.471.82,7.388,7.388,0,0,1,1.739.976,3.38,3.38,0,0,1,.942,1.027,2.245,2.245,0,0,1,.28,1.081,1.114,1.114,0,0,1-.257.778A.943.943,0,0,1,394.366-21.84ZM451.544-7.21V-8.545l3.226,1.336h8.323v.985H454.6V1.9q0,.138-.386.369a4.425,4.425,0,0,1-.979.412,4.255,4.255,0,0,1-1.245.18h-.446Zm-.427-17.41h14.546v.968H451.118ZM453.589-.541h9.488V.444h-9.488Zm2.876-28.146,4.4.376a.911.911,0,0,1-.314.595,1.707,1.707,0,0,1-.928.34v3.339h-3.16Zm.018,5.941,4.228.41a.842.842,0,0,1-.3.569,1.769,1.769,0,0,1-.858.331v11.017h-3.073ZM462.256-7.21h-.34l1.524-1.677,3.335,2.513a1.357,1.357,0,0,1-.518.4,3.418,3.418,0,0,1-.892.3v7.2q0,.1-.455.29a8.927,8.927,0,0,1-1.047.35,4.152,4.152,0,0,1-1.09.162h-.516ZM450.387-19.359h11.52l1.624-2.017.513.4q.513.4,1.214.956t1.265,1.085q-.12.544-.9.544H450.659Zm.1,4.077h11.74l1.572-1.948.5.384q.5.384,1.179.93t1.231,1.075q-.136.528-.868.528H450.761Zm-1.558,4.368H463.26l1.692-2.068.521.41q.521.41,1.24.982t1.3,1.118q-.119.528-.885.528H449.2Zm15.982-13.706h-.374l1.606-1.639,2.868,2.765a.783.783,0,0,1-.459.264q-.289.06-.782.111-.616.542-1.564,1.247a17.775,17.775,0,0,1-1.715,1.145l-.407-.22q.219-.73.464-1.844T464.913-24.619Zm-13.846-1.4.491-.018a8.322,8.322,0,0,1,.706,2.433,4.452,4.452,0,0,1-.192,2.077,2.509,2.509,0,0,1-1.221,1.379,1.729,1.729,0,0,1-1.333.235,1.407,1.407,0,0,1-.879-.679,1.426,1.426,0,0,1-.1-1.13,2.118,2.118,0,0,1,.985-1.136,3.144,3.144,0,0,0,1.037-1.175A4.033,4.033,0,0,0,451.067-26.015Zm18.2.165,4.228.427a1.021,1.021,0,0,1-.314.595,1.637,1.637,0,0,1-.927.341V-5.3q0,.154-.378.384a3.918,3.918,0,0,1-.927.393,3.91,3.91,0,0,1-1.116.163h-.566Zm6.429-2.382,4.349.444a1,1,0,0,1-.331.613,1.684,1.684,0,0,1-.91.341V-1.106A6.413,6.413,0,0,1,478.533.88a2.407,2.407,0,0,1-1.19,1.351,7.6,7.6,0,0,1-2.849.7,7.194,7.194,0,0,0-.23-1.321,2.276,2.276,0,0,0-.536-.96,3.064,3.064,0,0,0-1.021-.643,8.532,8.532,0,0,0-1.821-.454V-.938l.519.034,1.25.084q.731.05,1.386.084t.911.034a.856.856,0,0,0,.585-.152.7.7,0,0,0,.161-.525Z" transform="translate(126 226)" fill="#c6a25d"/>
    </g>
  </g>
</svg>
