<svg xmlns="http://www.w3.org/2000/svg" width="19.207" height="19.207" viewBox="0 0 19.207 19.207">
  <g id="グループ_506" data-name="グループ 506" transform="translate(-1229 -4693.988)">
    <path id="facebook" d="M19.207,9.6a9.6,9.6,0,1,0-9.6,9.6c.056,0,.113,0,.169,0V11.731H7.709v-2.4H9.772V7.555a2.889,2.889,0,0,1,3.084-3.17,16.76,16.76,0,0,1,1.849.094V6.625h-1.26c-.994,0-1.189.473-1.189,1.167V9.322h2.382l-.311,2.4H12.256v7.109A9.606,9.606,0,0,0,19.207,9.6Z" transform="translate(1229 4693.988)" fill="#fff"/>
  </g>
</svg>
